<svg xmlns="http://www.w3.org/2000/svg" viewBox="0 0 14.47 18.15"><title>icon-quote-2-bold</title><g id="Layer_2" data-name="Layer 2"><g id="Layer_1-2" data-name="Layer 1"><path d="M8.86,3.15A1.78,1.78,0,0,0,10,1.05a1.81,1.81,0,0,0-2.19-1A8.86,8.86,0,0,0,5.1,1.49,17.36,17.36,0,0,0,2.68,4.06,11.72,11.72,0,0,0,0,10.67a4.22,4.22,0,0,0,1.21,3.26,1.86,1.86,0,0,0,2.49.26c.82-.74.23-1.36-.26-1.93a1.85,1.85,0,0,1-.25-2C4.26,7.25,5.9,4.68,8.86,3.15Z"/><path d="M13,7.05c.31-.37.83-.59,1.05-1a3,3,0,0,0,.4-1.65c-.08-.66-.75-.81-1.37-.92a2.3,2.3,0,0,0-2.36,1.06A29.59,29.59,0,0,0,8.65,7.78c-1.21,2.23-1.87,4.51-1,7.11a5.09,5.09,0,0,0,2.9,3c1.31.67,2.24-.05,3.34-.65-.12-.28-.13-.42-.21-.47-.35-.24-.73-.45-1.08-.69-1.84-1.26-2.56-2.68-1.91-4.63A13,13,0,0,1,13,7.05Z"/></g></g></svg>