<?xml version="1.0" encoding="utf-8"?>
<!-- Generator: Adobe Illustrator 23.0.4, SVG Export Plug-In . SVG Version: 6.00 Build 0)  -->
<svg version="1.1" id="Layer_1" xmlns="http://www.w3.org/2000/svg" xmlns:xlink="http://www.w3.org/1999/xlink" x="0px" y="0px"
	 viewBox="0 0 221.3 22.6" style="enable-background:new 0 0 221.3 22.6;" xml:space="preserve">
<style type="text/css">
	.st0{fill:#3B3B3B;}
</style>
<title>icon-line-12</title>
<g>
	<g id="Layer_1-2">
		<path class="st0" d="M86.6,12.4l-0.8-1c3.3-0.2,6.4-0.4,9.5-0.6c3.6-0.2,7.2-0.5,10.9-0.6c4.1-0.2,8.1-0.2,12.2-0.3
			c0.5,0.1,1,0.2,1.5,0.4c0.2-0.1,0.5-0.6,0.8-0.6c1.7-0.1,3.5-0.1,5.2-0.1h7.5l-0.7,0.3c0.3,0.4,0.3,0.4,2.1,0.4l-0.4-0.7
			c1.1,0.1,2.3-0.4,3.2,0.6c0.1,0.1,0.2,0.1,0.3,0.1c1.2-0.5,2.5,0.3,4-0.2l-1.1-0.4h3.1v0.1l-1.2,0.3v0.3c0.7,0,1.4,0.1,2.2,0.1
			c0.7,0,1.7,0,2.5,0c0.2,0,0.5-0.1,0.7-0.2c0.4-0.3,0.5-0.2,0.9,0c0.5,0.2,1.1,0.3,1.7,0.3c0.9,0.1,1.9,0.1,2.8,0.1V11
			c-0.7,0-1.3,0-1.9,0c-5.2,0.1-10.4,0.3-15.6,0.4c-5.7,0.2-11.5,0.3-17.2,0.5c-4.7,0.1-9.3,0.3-14,0.5c-4.4,0.2-8.7,0.5-13.2,0.8
			c-4.9,0.3-9.7,0.6-14.6,1c-5.7,0.6-11.5,1.1-17.2,1.6c-4.4,0.4-8.8,1-13.3,1.5c-4,0.4-8.1,0.8-12.1,1.3
			c-6.3,0.8-12.5,1.7-18.8,2.4c-3.5,0.4-7,0.8-10.5,1.1c-0.7,0-1.3-0.1-1.9-0.4c-0.7-0.3-0.8-0.9-0.6-1.5c0.2-0.6,0.6-0.7,1.2-0.8
			c2.3-0.4,4.5-1,6.8-1.4c0.7-0.1,1.3-0.1,2-0.3c1.7-0.4,3.3-0.5,5-0.9c3.2-0.7,6.4-1.3,9.6-1.9c0.4-0.1,0.8-0.3,1.1,0.3
			c0,0.1,0.5,0.1,0.7,0c1.9-1.1,4.2-1.1,6.3-1.5c1.9-0.3,3.9-0.3,5.9-0.6c2.2-0.3,4.3-0.7,6.5-1.1c0.9-0.3,1.8-0.2,2.6,0.1
			c0.1,0.1,0.2,0.1,0.3,0.1c0.7-0.3,1.5-0.6,2.5-1c-1.3,0-2.3-0.1-3.3,0c-5.7,0.6-11.4,1.2-17.1,1.8c-0.6,0.1-1.1,0.3-1.7,0.5
			c-1.4,0.5-2.9,0.3-4.1-0.6c0.4-1.8,0.9-2.2,2.6-2.3c1.7-0.1,3.3,0,5-0.1c0.9,0,1.8-0.2,2.6-0.4c-0.3-0.1-0.6-0.2-1-0.3
			c-3.1,0.2-6.3,0.4-9.5,0.6l-11.1,0.8c-1.9,0.1-2.1,0-2.7-2.1c1.5-0.7,3.1-0.3,4.7-0.5c0.3,0,0.5,0.1,0.8,0
			c2.7-0.4,5.5-0.9,8.2-1.2c3.5-0.4,6.9-0.8,10.4-1.2c0.7,0,1.5-0.1,2.2-0.3c1.9-0.7,4.1,0.1,5.9-1c0.1,0,0.2-0.1,0.3-0.1
			c3.4,0.6,6.6-0.7,9.9-0.8C59.3,4.2,63.2,3.5,67,3c1.3-0.3,2.6,0,3.7,0.7c0.6-0.8,1.6-1.2,2.5-1.2c2.9,0,5.7-0.1,8.6-0.3
			c1.9-0.2,3.8-0.1,5.7-0.3c1.5-0.1,3-0.4,4.5-0.6c0.8-0.1,1.6-0.1,2.4-0.1c2.8-0.1,5.5-0.2,8.3-0.3c1.5,0,2.9,0.1,4.4,0.1
			c0.4,0,0.7-0.1,1.1-0.2c0.6-0.1,1.3-0.2,1.9-0.2c3,0.1,6,0.1,9-0.2c0.8,0,1.6-0.2,2.1,0.7c2.4-0.8,4.9-0.9,7.3-0.5
			c0.6,0.1,1.1,0.4,1.7,0c0.1-0.1,0.2-0.1,0.3-0.1c1,0.5,1.9,0.1,2.8,0c1.5-0.1,3-0.1,4.5,0.1c0.6,0,1.1-0.2,1.7-0.2
			c4.3,0.1,8.6,0.1,13,0.3c3.3,0.1,6.6,0.3,9.9,0.5c0.5,0.1,0.9,0.4,1.4,0.7c0.6-0.8,1.7-0.9,2.9-0.6c0.7,0,1.5,0,2.2-0.1
			c1.7,0,3.4,0.1,5.1,0.5c1.1,0.4,2.2,0.7,3.4,0.8l-1-0.4l0.1-0.3c0.3-0.1,0.6-0.1,0.8-0.1c0.5,0,1,0.2,1.4,0.2
			c2.2,0.1,4.3,0.2,6.5,0.4c2.4,0.2,4.9,0.3,7.3,0.5c2.3,0.2,4.6,0.2,6.8,0.5c2.7,0.4,5.5,0.4,8.2,0.9c1.1,0.2,2.2,0.1,3.3,0.3
			c0.5,0.2,1.1,0.4,1.5,0.7c1-0.7,1.9,0.2,3.1,0.5l-0.2,0.6c0.2,0,0.4,0,0.5,0c0.7-0.5,1.2-0.4,1.6,0.3c0.3,0.7,0,1.4-0.7,1.8
			c-0.8,0.3-1.6,0.5-2.5,0.5c-3.1,0.1-6.2,0.1-9.3,0c-2.9,0-5.8-0.2-8.7-0.1c-1.1,0.2-2.1,0.4-3.2,0.8c-0.9,0.2-1.9,0.3-2.9,0.2
			c-2.8-0.1-5.7-0.4-8.5-0.5c-3.9-0.1-7.7-0.1-11.6-0.1c-3.9,0-7.5-0.2-11.2-0.2c-6.2,0-12.4-0.1-18.7-0.1c-4.1,0-8.2,0-12.4,0
			c-4.1,0-8.1,0.1-12.2,0.3c-7.6,0.3-15.2,0.6-22.8,1c-4.8,0.2-9.5,0.5-14.3,0.9c-6,0.5-12,1-17.9,1.6c-4.9,0.5-9.8,1.1-14.7,1.7
			c-3.1,0.4-6.2,1-9.3,1.4c-1.2,0.2-2.4,0.3-3.6,0.4v0.3c0.6,0,1.2,0,1.8,0c2.2-0.3,4.4-0.7,6.6-1c1.7-0.2,3.5-0.4,5.2-0.6
			c4-0.4,8-0.9,12.1-1.2c1.3-0.1,2.6-0.4,4-0.4c1.3,0,2.7-0.4,4.1-0.5c2-0.2,4-0.3,6-0.4c1.8,0,3.7-0.2,5.5-0.4
			c1.1-0.2,2.2-0.2,3.4-0.2c0.6,0,1.3-0.1,1.9-0.1c0.6-0.1,1.5-0.3,2,0.5C85.8,12.3,86.1,12.3,86.6,12.4z M207.2,6.6
			c-1.3-0.4-2.7-0.7-4-1c-3-0.3-6.1-0.4-9.1-0.7c-4.7-0.4-9.4-0.9-14.1-1.1c-6.2-0.4-12.5-0.6-18.7-0.9c-6.6-0.2-13.2-0.5-19.8-0.5
			c-4.8,0-9.7-0.4-14.4-0.1c-4.8,0.2-9.7,0.1-14.6,0.1c-1.8,0-3.6,0-5.4,0C101.4,2.6,95.7,3,90.1,3.3c-3.9,0.2-7.8,0.4-11.7,0.7
			c-4.2,0.3-8.4,0.6-12.6,1l-8.6,0.7c-1,0.1-1.9,0.2-2.8,0.3L41.6,7.1c-0.3,0.1-0.6,0.2-0.9,0.3c0.2,0.2,0.3,0.3,0.4,0.3
			c0.8,0,1.6-0.1,2.3-0.2c2.1-0.3,4.1-0.2,6.2,0.2c0.1,0,0.2,0,0.2,0c0.5-1,1.4-0.6,2.1-0.6c2.5-0.2,5-0.3,7.4-0.4
			c2.5-0.1,4.7-0.2,7.1-0.3c1.4,0,2.8,0,4.2-0.1c3.3-0.1,6.6-0.4,9.9-0.5c5-0.2,9.9-0.4,14.9-0.4c5.5,0,11-0.4,16.5-0.3
			c1.7,0,3.3-0.1,5-0.1c3.4-0.1,6.7-0.1,10.1-0.2c5.3,0,10.5,0,15.8,0c6.3,0,12.5,0,18.8,0.1c1.9,0,3.7,0.2,5.6,0.2c2,0,4.1,0,6.1,0
			c2.2,0.1,4.4,0.3,6.5,0.4c2.2,0.1,4.3,0.1,6.4,0.2c2.9,0.1,5.8,0.3,8.7,0.4c2.8,0.1,5.6,0.6,8.5,0.2c0.4,0,0.9-0.1,1.1,0.1
			C205.4,7.2,206.3,6.7,207.2,6.6L207.2,6.6z M39.8,7.8V7.4c-0.5-0.1-1-0.4-1.7,0.3L39.8,7.8z M59.3,11.1v-0.1h-1.4v0.1H59.3z
			 M56,11.4v-0.2l-1.2,0.1v0.3L56,11.4z M188.2,2.9c-0.1-0.1-0.2-0.2-0.3-0.2c0,0-0.1,0.2-0.2,0.3c0.1,0.1,0.3,0.1,0.4,0.2
			C188,3.1,188.1,3,188.2,2.9z"/>
	</g>
</g>
</svg>
