<svg xmlns="http://www.w3.org/2000/svg" viewBox="0 0 338.98 387.55"><title>ch2-graph-swipe-icon</title><g id="Layer_2" data-name="Layer 2"><g id="Layer_1-2" data-name="Layer 1"><path d="M332.39,169.75c-7.82-8.52-17.38-12.28-29-9.89-1.79.37-3.57.83-5.44,1.27-1.61-12.6-7.86-21.85-19.47-26.84s-22.6-3-32.7,4.42a1.81,1.81,0,0,1-.18-.27c-.16-.34-.31-.68-.46-1C241,128,234,121.72,224,119.08c-10.44-2.77-20.19-.54-29.36,4.83-.56.33-1.1.69-1.84,1.16v-2.25q0-39.61,0-79.24a58.4,58.4,0,0,0-.71-9.34C189.73,19.58,179.4,9,164.5,8.23,152.25,7.6,140.14,15,135.42,26.37a44.16,44.16,0,0,0-3.26,17.25q.21,94.7.38,189.4v2l-.45.24c-.37-.46-.71-.93-1.11-1.35-4.64-4.9-9.27-9.82-13.95-14.67-4.43-4.59-8.63-9.45-13.45-13.58-9.52-8.16-20.68-10.43-32.83-7.55a36.31,36.31,0,0,0-19.26,12.05,37.89,37.89,0,0,0-4.3,42.61c2.86,5.08,7,9.07,10.87,13.28,22.65,24.67,46.07,48.59,69.87,72.14a273.14,273.14,0,0,0,26,23,125.41,125.41,0,0,0,36.5,19.87,128.68,128.68,0,0,0,38.18,6.4c11.94.27,23.79-.53,35.42-3.43,14.48-3.61,27.25-10.35,37.77-21.08,10.09-10.31,17.25-22.57,23.32-35.52a42.74,42.74,0,0,0,2.21-5.8A187.92,187.92,0,0,0,334,285.86c1.34-13.69,2.62-27.4,3.28-41.13.9-19,1.22-38,1.74-57A24.65,24.65,0,0,0,332.39,169.75Zm-8.65,71.37a525.76,525.76,0,0,1-5,56.16c-1.24,8.3-2.46,16.67-6,24.35-6.45,13.92-14.08,27.09-26.34,36.87a65.72,65.72,0,0,1-29.4,13.11c-20.17,3.78-40.19,3.12-59.89-2.83-12.86-3.88-24.35-10.48-35-18.6a251.1,251.1,0,0,1-24.67-21.88c-23.72-23.56-47.18-47.37-69.76-72-2-2.16-4-4.3-5.87-6.51-8.16-9.47-7-24.16,2.07-32.7a23.62,23.62,0,0,1,33.48,1.32q18.16,19.14,36.38,38.23c1.33,1.4,2.73,2.64,4.79,2.89,4,.5,6.92-2.16,7.34-6.15a17.07,17.07,0,0,0,.07-1.75V146.21h0q0-50.79,0-101.57a32.39,32.39,0,0,1,2-12.49c3.79-9.31,14.93-13.23,23.35-8.13a15.08,15.08,0,0,1,6.87,10.31,47.16,47.16,0,0,1,1,9.47q.09,62.51.05,125a15.08,15.08,0,0,0,.21,2.85,6.66,6.66,0,0,0,7.36,5.57,6.55,6.55,0,0,0,6.12-6.72c0-5.58.15-11.16,0-16.74-.38-13.55,9-20.5,19.51-21.88,8.22-1.09,14.71,1.74,19.16,8.82a15.32,15.32,0,0,1,2.44,8.15q0,12.68,0,25.35a7.37,7.37,0,0,0,2.67,6.2,6.38,6.38,0,0,0,6.9.94,6.32,6.32,0,0,0,4.12-5.92c.05-3.88,0-7.76,0-11.64a18.28,18.28,0,0,1,36.24-3.54,25.45,25.45,0,0,1,.35,4.27c0,9.46,0,18.93,0,28.39,0,4.15,2.84,7.17,6.68,7.26a6.86,6.86,0,0,0,7-7.1q.08-7.89,0-15.78a1.78,1.78,0,0,1,1.32-2c5-1.92,10-3.56,15.3-1.62,4.6,1.67,8.21,4.5,9.93,9.23a12.57,12.57,0,0,1,.68,4.52C324.77,205.32,324.47,223.23,323.74,241.12Z"/><path d="M40.92,40.69c43.74,0,10.08,0,53.82,0a11.72,11.72,0,0,0,4.49-.76c5.47-2.35,7.48-8.15,4.46-12.85A9.77,9.77,0,0,0,95,22.44c-43.85,0-10.3,0-54.14,0H38.64V8.12c0-3.55-2-6.23-5.65-7.64a8.51,8.51,0,0,0-8.83,2Q12.86,15.2,1.65,27.93a5.91,5.91,0,0,0-.28,7.88c.51.68,1.07,1.32,1.63,2Q13.4,49.44,23.78,61.11A8.24,8.24,0,0,0,33,63.54c3.29-1.37,5.8-3.75,5.65-8-.18-5.3,0-9.34,0-14.88Z"/><path d="M228.15,41.66c43.85,0,10.3,0,54.14,0h2.17c0,4.47,0,10,0,14.33,0,3.55,2,6.24,5.64,7.65a8.53,8.53,0,0,0,8.84-2.05q11.28-12.67,22.51-25.41a5.91,5.91,0,0,0,.28-7.88c-.51-.68-1.07-1.32-1.64-1.95Q309.71,14.66,299.32,3A8.23,8.23,0,0,0,290.07.57c-3.29,1.36-5.8,3.75-5.66,8,.18,5.31,0,9.35,0,14.88h-2.28c-43.74,0-10.08,0-53.82,0a11.69,11.69,0,0,0-4.49.75c-5.48,2.35-7.48,8.15-4.46,12.85A9.74,9.74,0,0,0,228.15,41.66Z"/></g></g></svg>