<?xml version="1.0" encoding="utf-8"?>
<!-- Generator: Adobe Illustrator 23.0.4, SVG Export Plug-In . SVG Version: 6.00 Build 0)  -->
<svg version="1.1" id="Layer_1" xmlns="http://www.w3.org/2000/svg" xmlns:xlink="http://www.w3.org/1999/xlink" x="0px" y="0px"
	 viewBox="0 0 300 250" style="enable-background:new 0 0 300 250;" xml:space="preserve">
<style type="text/css">
	.st0{enable-background:new    ;}
	.st1{fill:#FFFFFF;}
</style>
<g id="ch3-text-2-26people" transform="translate(-175 -1298)">
	<g class="st0">
		<path class="st1" d="M318.7,1469H214.5v-19.9l49.4-53.1c3.8-4.2,7.1-8,9.8-11.4c2.7-3.4,4.8-6.6,6.5-9.4c1.6-2.8,2.8-5.5,3.6-7.9
			c0.7-2.4,1.1-4.8,1.1-7.1c0-3.4-0.5-6.5-1.5-9.1c-1-2.7-2.4-4.9-4.1-6.8c-1.8-1.9-3.9-3.3-6.4-4.3s-5.2-1.5-8.2-1.5
			c-8,0-14.1,2.2-18,6.7c-4,4.5-5.9,10.7-5.9,18.8h-29.3c0-6.8,1.3-13.2,3.9-19.3c2.6-6.1,6.2-11.4,11-15.9
			c4.7-4.5,10.4-8.1,17.1-10.8c6.7-2.6,14.1-3.9,22.2-3.9c7.8,0,14.6,1.1,20.6,3.3c6,2.2,11,5.2,15,9.1s7.1,8.6,9.2,14.1
			s3.1,11.6,3.1,18.2c0,5-0.8,9.9-2.4,14.4c-1.6,4.6-3.8,9.1-6.7,13.6c-2.9,4.5-6.4,9-10.4,13.7c-4.1,4.7-8.6,9.5-13.5,14.6
			l-28.8,30.4h67.1v23.5H318.7z"/>
		<path class="st1" d="M414.5,1314.9v24.2h-1.7c-7.7,0-14.5,1-20.4,3s-11,4.9-15.1,8.6c-4.2,3.7-7.5,8.2-9.9,13.3
			c-2.4,5.2-3.9,11-4.6,17.3c1.6-1.7,3.5-3.5,5.6-5.2s4.5-3.3,7.1-4.6c2.6-1.4,5.5-2.5,8.6-3.3s6.4-1.3,10-1.3
			c7.3,0,13.6,1.4,19.1,4.1c5.4,2.8,10,6.5,13.6,11.2s6.4,10.2,8.1,16.5c1.8,6.3,2.7,12.9,2.7,19.8c0,7.4-1.2,14.3-3.6,20.7
			c-2.4,6.4-5.8,11.9-10.2,16.6c-4.4,4.7-9.8,8.4-16.1,11.1s-13.4,4-21.2,4c-8.2,0-15.6-1.5-22.2-4.6c-6.6-3-12.2-7.3-16.7-12.7
			c-4.6-5.4-8.1-11.8-10.6-19.2c-2.5-7.4-3.7-15.4-3.7-24.2V1399c0-12.1,1.6-23.3,4.9-33.6c3.3-10.3,8.2-19.2,14.7-26.8
			c6.5-7.5,14.6-13.4,24.2-17.6c9.7-4.2,20.8-6.4,33.5-6.4h3.9V1314.9z M385.6,1390.5c-5.2,0-9.9,1.4-13.9,4.2
			c-4,2.8-7.1,6.4-9.1,10.8v8.6c0,5.6,0.6,10.5,1.7,14.7c1.2,4.2,2.8,7.7,4.9,10.4c2.1,2.8,4.6,4.8,7.5,6.2c2.9,1.4,6,2.1,9.3,2.1
			c3.4,0,6.5-0.7,9.3-2.2c2.8-1.4,5.2-3.4,7.1-5.9c2-2.5,3.5-5.5,4.5-9c1.1-3.5,1.6-7.3,1.6-11.4s-0.5-7.9-1.6-11.4
			c-1-3.5-2.6-6.5-4.5-9.1c-2-2.6-4.4-4.5-7.2-6C392.5,1391.2,389.2,1390.5,385.6,1390.5z"/>
	</g>
	<g class="st0">
		<path class="st1" d="M270.1,1504.1v8.9h-4.7v-24.2h8.3c1.3,0,2.5,0.2,3.6,0.6s2,0.9,2.7,1.6c0.7,0.7,1.3,1.5,1.7,2.4
			c0.4,1,0.6,2,0.6,3.2c0,1.1-0.2,2.1-0.6,3c-0.4,0.9-1,1.7-1.7,2.4c-0.7,0.7-1.7,1.2-2.7,1.6s-2.3,0.6-3.6,0.6L270.1,1504.1
			L270.1,1504.1z M270.1,1500.3h3.6c0.7,0,1.2-0.1,1.7-0.3c0.5-0.2,0.9-0.5,1.2-0.8s0.6-0.7,0.7-1.2c0.2-0.4,0.2-0.9,0.2-1.4
			c0-0.6-0.1-1.1-0.2-1.6c-0.2-0.5-0.4-0.9-0.7-1.3s-0.7-0.7-1.2-0.9c-0.5-0.2-1.1-0.3-1.7-0.3h-3.6V1500.3z"/>
		<path class="st1" d="M293.4,1513.3c-1.4,0-2.6-0.2-3.8-0.7s-2.1-1.1-2.9-1.9s-1.4-1.7-1.9-2.8c-0.4-1.1-0.7-2.2-0.7-3.4v-0.7
			c0-1.4,0.2-2.6,0.6-3.8c0.4-1.1,1-2.1,1.8-2.9c0.8-0.8,1.7-1.5,2.8-1.9s2.2-0.7,3.5-0.7s2.4,0.2,3.5,0.6c1,0.4,1.9,1,2.6,1.8
			s1.2,1.7,1.6,2.8c0.4,1.1,0.5,2.3,0.5,3.6v2h-12.2c0.1,0.6,0.3,1.2,0.5,1.7c0.3,0.5,0.6,0.9,1,1.3s0.9,0.6,1.4,0.8
			c0.5,0.2,1.1,0.3,1.8,0.3c0.5,0,0.9,0,1.4-0.1s0.9-0.2,1.3-0.4c0.4-0.2,0.8-0.4,1.1-0.6c0.4-0.3,0.7-0.6,0.9-0.9l2.3,2.5
			c-0.3,0.4-0.7,0.8-1.1,1.2c-0.5,0.4-1,0.7-1.6,1s-1.3,0.6-2.1,0.7S294.3,1513.3,293.4,1513.3z M292.9,1498.4c-0.5,0-1,0.1-1.4,0.3
			c-0.4,0.2-0.8,0.4-1.1,0.8c-0.3,0.3-0.6,0.8-0.8,1.2c-0.2,0.5-0.4,1-0.5,1.6h7.6v-0.4c0-0.5-0.1-0.9-0.3-1.4s-0.4-0.8-0.7-1.1
			c-0.3-0.3-0.7-0.6-1.1-0.7C294,1498.5,293.5,1498.4,292.9,1498.4z"/>
		<path class="st1" d="M303.5,1503.9c0-1.3,0.2-2.5,0.6-3.6s0.9-2.1,1.7-2.9c0.7-0.8,1.6-1.5,2.7-1.9c1-0.5,2.2-0.7,3.6-0.7
			s2.6,0.2,3.6,0.7s1.9,1.1,2.7,1.9c0.7,0.8,1.3,1.8,1.7,2.9c0.4,1.1,0.6,2.3,0.6,3.6v0.3c0,1.3-0.2,2.5-0.6,3.6s-0.9,2.1-1.6,2.9
			s-1.6,1.5-2.7,1.9c-1.1,0.5-2.2,0.7-3.6,0.7s-2.6-0.2-3.6-0.7c-1.1-0.5-1.9-1.1-2.7-1.9c-0.7-0.8-1.3-1.8-1.7-2.9
			c-0.4-1.1-0.6-2.3-0.6-3.6v-0.3H303.5z M308.1,1504.2c0,0.8,0.1,1.5,0.2,2.1c0.1,0.7,0.4,1.2,0.7,1.7c0.3,0.5,0.7,0.9,1.2,1.2
			c0.5,0.3,1.1,0.4,1.8,0.4c0.7,0,1.3-0.1,1.7-0.4s0.9-0.7,1.2-1.2c0.3-0.5,0.5-1.1,0.7-1.7c0.1-0.7,0.2-1.4,0.2-2.1v-0.3
			c0-0.7-0.1-1.4-0.2-2.1s-0.4-1.2-0.7-1.7c-0.3-0.5-0.7-0.9-1.2-1.2s-1.1-0.4-1.8-0.4c-0.7,0-1.3,0.1-1.8,0.4s-0.9,0.7-1.2,1.2
			s-0.5,1.1-0.7,1.7s-0.2,1.3-0.2,2.1L308.1,1504.2L308.1,1504.2z"/>
		<path class="st1" d="M339.6,1504.2c0,1.3-0.2,2.5-0.5,3.6s-0.8,2.1-1.3,2.9c-0.6,0.8-1.3,1.5-2.2,1.9s-1.9,0.7-3,0.7
			c-1,0-1.8-0.2-2.5-0.5s-1.4-0.8-1.9-1.4v8.5h-4.6V1495h4.3l0.2,1.8c0.6-0.7,1.2-1.2,2-1.5s1.6-0.5,2.6-0.5c1.1,0,2.1,0.2,3,0.7
			c0.9,0.4,1.6,1.1,2.2,1.9s1,1.8,1.4,2.9c0.3,1.1,0.5,2.4,0.5,3.7v0.2H339.6z M335,1503.8c0-0.8-0.1-1.5-0.2-2.1
			c-0.1-0.7-0.4-1.2-0.6-1.7c-0.3-0.5-0.7-0.9-1.1-1.1c-0.5-0.3-1-0.4-1.7-0.4c-0.8,0-1.5,0.2-2,0.5s-0.9,0.8-1.2,1.3v7.5
			c0.3,0.6,0.7,1,1.2,1.4c0.5,0.3,1.2,0.5,2,0.5c0.7,0,1.2-0.1,1.7-0.4s0.8-0.7,1.1-1.2s0.5-1.1,0.6-1.7c0.1-0.7,0.2-1.4,0.2-2.1
			V1503.8z"/>
		<path class="st1" d="M343.8,1487.5h10v21.7h5.1v3.8h-15.2v-3.8h5.4v-18h-5.4v-3.7H343.8z"/>
		<path class="st1" d="M371,1513.3c-1.4,0-2.6-0.2-3.8-0.7s-2.1-1.1-2.9-1.9s-1.4-1.7-1.9-2.8c-0.4-1.1-0.7-2.2-0.7-3.4v-0.7
			c0-1.4,0.2-2.6,0.6-3.8c0.4-1.1,1-2.1,1.8-2.9s1.7-1.5,2.8-1.9s2.2-0.7,3.5-0.7s2.4,0.2,3.5,0.6c1,0.4,1.9,1,2.6,1.8
			s1.2,1.7,1.6,2.8c0.4,1.1,0.5,2.3,0.5,3.6v2h-12.2c0.1,0.6,0.3,1.2,0.5,1.7c0.3,0.5,0.6,0.9,1,1.3s0.9,0.6,1.4,0.8
			s1.1,0.3,1.8,0.3c0.5,0,0.9,0,1.4-0.1c0.4-0.1,0.9-0.2,1.3-0.4c0.4-0.2,0.8-0.4,1.1-0.6s0.7-0.6,0.9-0.9l2.3,2.5
			c-0.3,0.4-0.7,0.8-1.1,1.2c-0.5,0.4-1,0.7-1.6,1s-1.3,0.6-2.1,0.7S371.9,1513.3,371,1513.3z M370.4,1498.4c-0.5,0-1,0.1-1.4,0.3
			c-0.4,0.2-0.8,0.4-1.1,0.8c-0.3,0.3-0.6,0.8-0.8,1.2s-0.4,1-0.5,1.6h7.6v-0.4c0-0.5-0.1-0.9-0.3-1.4s-0.4-0.8-0.7-1.1
			c-0.3-0.3-0.7-0.6-1.1-0.7C371.5,1498.5,371,1498.4,370.4,1498.4z"/>
	</g>
	<g id="Path_16">
		<path class="st1" d="M387.3,1525.3c-0.3,1.5-1.3,1.7-2.3,1.7c-5.4,0.2-10.9,0.4-16.3,0.6c-4,0.1-7.9,0.2-11.9,0.4
			c-3.7,0.1-7.4,0.4-11.1,0.5c-2.5,0.1-5.1,0-7.6,0.1c-4.9,0.2-9.8,0.4-14.7,0.7c-4.3,0.2-8.7,0.4-13,0.7c-4.8,0.4-9.6,0.9-14.5,1.4
			c-3.2,0.3-6.3,0.7-9.5,1c-0.5,0.1-1,0.1-1.5,0c-2-0.5-3.9-0.2-5.9-0.2c-0.4,0-0.9,0-1.3,0c-1.7-0.1-1.8-0.2-2-1.9
			c-0.1-0.2-0.1-0.4-0.2-0.6c-1.7,0.1-3.5,0.2-5.3,0.4c-3.2,0.2-6.4,0.4-9.6,0.6c-1,0.1-2,0.1-3,0.1c-0.6-0.1-1.1-0.2-1.7-0.3
			c0.3-0.4,0.5-0.8,0.7-1.2c0.4-1.2,0.4-1.2,1.6-1.3c2.3-0.1,4.6-0.3,6.9-0.4c0.5,0,1,0,1.5,0.1c3.1,0.4,6.1,0.3,9.2-0.2
			c2.5-0.3,5.1-0.3,7.6-0.5c2.6-0.2,5.3-0.5,7.9-0.7c1.8-0.1,3.6-0.2,5.4-0.3c1.2-0.1,2.4-0.2,3.6-0.3c1.3-0.1,2.5-0.2,3.8-0.3
			c1,0,2-0.4,2.8-0.9c0.5-0.3,1-0.4,1.6-0.4c3.3-0.1,6.5-0.1,9.8-0.2c7.7-0.2,15.3-0.4,23-0.7c5.8-0.2,11.6-0.6,17.5-1
			c4.7-0.3,9.3-0.7,14-1c1,0,2.1,0,3.1-0.1c1.7-0.2,3.4,0.3,4.7,1.4c1,0.8,2.3,1.2,3.6,1.2C385.3,1523.7,386.5,1524.3,387.3,1525.3z
			 M259,1529.7l-0.1-0.2l-0.9,0.2v0.2L259,1529.7z"/>
	</g>
</g>
</svg>
