<?xml version="1.0" encoding="utf-8"?>
<!-- Generator: Adobe Illustrator 23.0.4, SVG Export Plug-In . SVG Version: 6.00 Build 0)  -->
<svg version="1.1" id="Layer_1" xmlns="http://www.w3.org/2000/svg" xmlns:xlink="http://www.w3.org/1999/xlink" x="0px" y="0px"
	 viewBox="0 0 300 250" style="enable-background:new 0 0 300 250;" xml:space="preserve">
<style type="text/css">
	.st0{enable-background:new    ;}
	.st1{fill:#FFFFFF;}
</style>
<g id="ch3-text-2-3billion" transform="translate(-636 -1298)">
	<g class="st0">
		<path class="st1" d="M677.2,1380.8H693c8,0,13.9-2,17.7-6s5.8-9.3,5.8-15.8c0-3-0.4-5.8-1.3-8.2c-0.9-2.5-2.2-4.6-3.9-6.4
			c-1.8-1.8-4-3.2-6.7-4.1c-2.7-1-5.8-1.5-9.4-1.5c-2.9,0-5.7,0.4-8.2,1.3c-2.6,0.8-4.8,2-6.7,3.6s-3.4,3.5-4.6,5.7
			c-1.1,2.2-1.7,4.8-1.7,7.6h-29.2c0-6.2,1.3-11.9,3.8-17c2.6-5.1,6.1-9.5,10.6-13.2s9.7-6.5,15.8-8.6c6.1-2,12.6-3,19.6-3
			c7.6,0,14.5,0.9,20.8,2.8s11.7,4.6,16.2,8.3c4.5,3.7,8,8.2,10.4,13.6c2.5,5.4,3.7,11.7,3.7,18.8c0,3.3-0.5,6.5-1.5,9.7
			s-2.4,6.2-4.3,9.1c-1.9,2.9-4.2,5.5-7,7.9s-6,4.5-9.7,6.2c4.3,1.5,8,3.5,11.1,5.9s5.7,5.1,7.7,8.1s3.5,6.4,4.5,10
			s1.5,7.5,1.5,11.5c0,7.1-1.4,13.5-4.1,19.1c-2.7,5.6-6.5,10.3-11.2,14.1c-4.8,3.8-10.4,6.7-17,8.7c-6.5,2-13.6,3-21.2,3
			c-6.5,0-12.9-0.9-19.1-2.7c-6.2-1.8-11.7-4.5-16.5-8.1s-8.7-8.1-11.6-13.6c-2.9-5.5-4.4-11.9-4.4-19.3h29.2c0,2.9,0.6,5.7,1.7,8.1
			c1.1,2.5,2.7,4.6,4.8,6.4s4.5,3.2,7.3,4.2s5.9,1.5,9.2,1.5c7.4,0,13.2-2,17.4-5.9s6.3-9.2,6.3-16c0-4.1-0.6-7.7-1.8-10.6
			s-2.9-5.4-5.2-7.2c-2.3-1.9-5-3.3-8.2-4.2c-3.2-0.9-6.8-1.4-10.8-1.4h-15.9v-22.4H677.2z"/>
		<path class="st1" d="M767.6,1453.1c0-2.7,0.5-5.3,1.4-7.6c0.9-2.3,2.2-4.4,4-6.1c1.7-1.7,3.9-3.1,6.4-4.1s5.4-1.5,8.5-1.5
			c3.2,0,6,0.5,8.5,1.5s4.6,2.4,6.4,4.1c1.7,1.7,3,3.7,4,6.1c0.9,2.3,1.4,4.9,1.4,7.6s-0.5,5.1-1.4,7.5c-0.9,2.3-2.3,4.3-4,6
			s-3.8,3.1-6.4,4s-5.4,1.5-8.5,1.5s-6-0.5-8.5-1.5s-4.7-2.3-6.4-4c-1.8-1.7-3.1-3.7-4-6C768.1,1458.2,767.6,1455.8,767.6,1453.1z"
			/>
		<path class="st1" d="M924.4,1357.8c0,7.4-1.9,14-5.6,19.8c-3.7,5.8-8.9,10.4-15.4,13.8c7.4,3.5,13.3,8.4,17.7,14.7
			c4.4,6.3,6.6,13.7,6.6,22.2c0,7.2-1.3,13.5-3.9,19c-2.6,5.5-6.2,10-10.8,13.7s-10,6.5-16.2,8.3c-6.2,1.9-12.9,2.8-20.2,2.8
			s-14.1-0.9-20.3-2.8c-6.3-1.9-11.7-4.7-16.3-8.3c-4.6-3.7-8.2-8.2-10.9-13.7c-2.6-5.5-3.9-11.8-3.9-19c0-4.2,0.6-8.2,1.7-11.9
			c1.2-3.7,2.8-7.2,4.9-10.3c2.1-3.1,4.6-5.9,7.6-8.4s6.3-4.6,10-6.4c-6.5-3.4-11.6-7.9-15.3-13.7c-3.7-5.8-5.6-12.4-5.6-19.8
			c0-6.9,1.2-13,3.6-18.3c2.4-5.3,5.7-9.7,9.9-13.4c4.2-3.6,9.3-6.4,15.1-8.2c5.8-1.9,12.2-2.8,19.2-2.8s13.3,0.9,19.2,2.8
			s11,4.6,15.3,8.2s7.7,8.1,10.1,13.4C923.2,1344.7,924.4,1350.8,924.4,1357.8z M898.4,1426.2c0-3.5-0.5-6.6-1.6-9.4
			c-1-2.8-2.5-5.2-4.5-7.2c-1.9-2-4.2-3.5-6.9-4.6s-5.7-1.6-9.1-1.6s-6.4,0.5-9.1,1.6c-2.7,1-5,2.6-6.9,4.6s-3.4,4.4-4.4,7.2
			c-1,2.8-1.6,5.9-1.6,9.4c0,7,2,12.5,6,16.5s9.4,6,16.2,6c3.2,0,6.2-0.5,8.8-1.5c2.7-1,5-2.5,6.9-4.5s3.4-4.3,4.5-7.1
			C897.8,1432.9,898.4,1429.7,898.4,1426.2z M895.3,1359.1c0-3.1-0.5-5.9-1.4-8.4s-2.2-4.7-3.8-6.5s-3.6-3.2-6-4.1
			c-2.3-1-5-1.5-7.9-1.5c-5.9,0-10.5,1.8-13.8,5.5c-3.2,3.6-4.8,8.6-4.8,15c0,3.1,0.4,5.9,1.3,8.5c0.8,2.6,2.1,4.7,3.7,6.6
			c1.6,1.8,3.6,3.2,6,4.3c2.3,1,5,1.5,7.9,1.5s5.6-0.5,7.9-1.5c2.3-1,4.3-2.4,5.9-4.3c1.6-1.8,2.9-4,3.7-6.6
			C894.9,1365,895.3,1362.2,895.3,1359.1z"/>
	</g>
	<g class="st0">
		<path class="st1" d="M723.1,1514v-24.2h8.1c1.3,0,2.5,0.1,3.6,0.4s2,0.7,2.8,1.2s1.4,1.2,1.8,2.1s0.6,1.8,0.6,2.9s-0.3,2.1-0.9,3
			c-0.6,0.9-1.5,1.6-2.6,2c0.7,0.2,1.3,0.4,1.8,0.8s0.9,0.8,1.3,1.3c0.3,0.5,0.6,1,0.7,1.6c0.2,0.6,0.2,1.2,0.2,1.8
			c0,1.2-0.2,2.2-0.6,3.1s-1,1.6-1.7,2.2s-1.6,1-2.7,1.3s-2.3,0.4-3.6,0.4L723.1,1514L723.1,1514z M727.8,1500h3.5
			c1.3,0,2.3-0.3,3-0.8s1.1-1.3,1.1-2.3c0-1.1-0.3-1.9-1-2.4s-1.7-0.7-3-0.8h-3.5L727.8,1500L727.8,1500z M727.8,1503.3v6.9h4.2
			c1.3,0,2.2-0.3,2.9-0.9s1-1.4,1-2.4c0-1.1-0.3-2-0.9-2.6c-0.6-0.6-1.5-0.9-2.8-0.9L727.8,1503.3L727.8,1503.3z"/>
		<path class="st1" d="M744,1496h9.8v14.2h4.9v3.8H744v-3.8h5.1v-10.4H744V1496z M748.7,1491.4c0-0.4,0.1-0.7,0.2-1
			c0.1-0.3,0.3-0.6,0.5-0.8c0.2-0.2,0.5-0.4,0.8-0.5s0.7-0.2,1.1-0.2c0.8,0,1.5,0.2,2,0.7s0.7,1,0.7,1.8s-0.2,1.3-0.7,1.8
			s-1.1,0.7-2,0.7c-0.4,0-0.8-0.1-1.1-0.2s-0.6-0.3-0.8-0.5s-0.4-0.5-0.5-0.8C748.8,1492.1,748.7,1491.8,748.7,1491.4z"/>
		<path class="st1" d="M763.1,1488.5h10v21.7h5.1v3.8H763v-3.8h5.4v-18H763v-3.7H763.1z"/>
		<path class="st1" d="M782.5,1488.5h10v21.7h5.1v3.8h-15.2v-3.8h5.4v-18h-5.4v-3.7H782.5z"/>
		<path class="st1" d="M802.1,1496h9.8v14.2h4.9v3.8h-14.6v-3.8h5.1v-10.4h-5.1v-3.8H802.1z M806.9,1491.4c0-0.4,0.1-0.7,0.2-1
			c0.1-0.3,0.3-0.6,0.5-0.8c0.2-0.2,0.5-0.4,0.8-0.5s0.7-0.2,1.1-0.2c0.8,0,1.5,0.2,2,0.7s0.7,1,0.7,1.8s-0.2,1.3-0.7,1.8
			s-1.1,0.7-2,0.7c-0.4,0-0.8-0.1-1.1-0.2s-0.6-0.3-0.8-0.5s-0.4-0.5-0.5-0.8C806.9,1492.1,806.9,1491.8,806.9,1491.4z"/>
		<path class="st1" d="M819.6,1504.9c0-1.3,0.2-2.5,0.6-3.6c0.4-1.1,0.9-2.1,1.7-2.9c0.7-0.8,1.6-1.5,2.7-1.9c1-0.5,2.2-0.7,3.6-0.7
			s2.6,0.2,3.6,0.7s1.9,1.1,2.7,1.9c0.7,0.8,1.3,1.8,1.7,2.9s0.6,2.3,0.6,3.6v0.3c0,1.3-0.2,2.5-0.6,3.6c-0.4,1.1-0.9,2.1-1.6,2.9
			s-1.6,1.5-2.7,1.9c-1.1,0.5-2.2,0.7-3.6,0.7c-1.4,0-2.6-0.2-3.6-0.7c-1.1-0.5-1.9-1.1-2.7-1.9c-0.7-0.8-1.3-1.8-1.7-2.9
			s-0.6-2.3-0.6-3.6v-0.3H819.6z M824.2,1505.2c0,0.8,0.1,1.5,0.2,2.1c0.1,0.7,0.4,1.2,0.7,1.7s0.7,0.9,1.2,1.2
			c0.5,0.3,1.1,0.4,1.8,0.4s1.3-0.1,1.7-0.4s0.9-0.7,1.2-1.2s0.5-1.1,0.7-1.7c0.1-0.7,0.2-1.4,0.2-2.1v-0.3c0-0.7-0.1-1.4-0.2-2.1
			s-0.4-1.2-0.7-1.7s-0.7-0.9-1.2-1.2s-1.1-0.4-1.8-0.4s-1.3,0.1-1.8,0.4s-0.9,0.7-1.2,1.2s-0.5,1.1-0.7,1.7s-0.2,1.3-0.2,2.1
			L824.2,1505.2L824.2,1505.2z"/>
		<path class="st1" d="M843.8,1496l0.3,2.5c0.6-0.9,1.4-1.6,2.3-2.1c0.9-0.5,1.9-0.7,3.1-0.7c0.9,0,1.7,0.1,2.5,0.4s1.4,0.7,2,1.3
			c0.5,0.6,1,1.3,1.3,2.2c0.3,0.9,0.5,2,0.5,3.3v11.1h-4.6v-11c0-0.7-0.1-1.3-0.2-1.8c-0.2-0.5-0.4-0.8-0.7-1.1s-0.7-0.5-1.1-0.6
			c-0.4-0.1-0.9-0.2-1.4-0.2c-0.8,0-1.5,0.2-2,0.5c-0.6,0.3-1,0.8-1.3,1.3v12.8h-4.6v-18L843.8,1496L843.8,1496z"/>
	</g>
	<g id="Group_99" transform="translate(625.452 1488.974)">
		<g id="Path_17">
			<path class="st1" d="M240,38.5c-1.6-0.1-3.2-0.1-4.4-1.6c-0.5-0.6-1.8-0.5-2.7-0.7c-0.3-0.1-0.7,0.2-1,0.1
				c-2.4-0.1-4.8-0.2-7.3-0.4c-2.3-0.1-4.5-0.3-6.9-0.4l-0.5,0.9c-2.1-1.1-4.2-1.6-6.4-0.6c-0.7,0.3-1.4,0.4-2.1,0.3
				c-2-0.3-3.9-0.6-5.9-1c-1.5-0.3-3.1-0.2-4.5,0.4c-0.8,0.5-1.8,0.4-2.6-0.1c-0.8-0.3-1.6-0.4-2.5-0.4c-0.3,0-0.7,0.2-1.1,0.2
				c-3.2,0-6.4-0.1-9.6,0c-2.2,0-4.4,0.3-6.6,0.4c-5.4,0.1-10.8,0.1-16.2,0.3c-6,0.2-12,0.4-18,0.7c-3.5,0.2-7,0.5-10.4,0.7
				c-3.3,0.2-6.7,0.3-10,0.5c-4.4,0.2-8.9,0.6-13.3,0.8c-4.7,0.2-9.3,0.1-14,0.2c-1.6-0.1-3.1,0-4.6,0.3c-1.8,0.4-3.7,0.5-5.5,0.1
				c-2.9-0.4-5.9-0.8-8.8-1.1c-1.8-0.2-1.9-0.1-2.3,2.3c1.6,0.3,3.2,0.7,4.9,0.8c2.9,0.3,5.9,0.5,8.8,0.8c1.3,0.1,2.6,0.5,4,0.5
				c5.5,0,11-0.1,16.5-0.1c5.4,0,10.8,0.1,16.2,0c9.8-0.1,19.6-0.2,29.4-0.4c1.1-0.2,2.2-0.4,3.2-0.7c1.4-0.2,2.8-1.1,4.3-0.7
				c1.2,0.2,2.5,0.2,3.8,0.1c4.3-0.1,8.6-0.5,12.9-0.4c6.7,0,13.4-0.2,20.1,0c4.2,0.1,8.5-0.3,12.7,0.4c1.8,0.3,3.5,0,5.4,0.2
				c2.2,0.3,4.4,0,6.6,0.6c1,0.2,2.1,0.2,3.1,0.1s2,0,3,0.2c0.9,0.3,1.7-1.3,2.5,0l4.1-1.2c0.5,0.7,0.9,1.3,1.3,2
				c0.4-0.5,0.7-0.8,1.1-1.2c1,0.7,2.1,1.2,2.6-0.6c0.1-0.3,0.7-0.5,1.1-0.5c0.9-0.1,1.8,0,2.8,0c-0.2-0.5-0.4-1.2-0.7-1.8
				C241.5,38.8,240.7,38.6,240,38.5z"/>
		</g>
		<g id="Path_18">
			<path class="st1" d="M250.4,39c-1,0-2,0-3,0.2c-1.1,0.2-1.9-0.7-2.9-0.5c-0.1,0.1-0.3,0.1-0.4,0.3c-0.1,0.9,0.3,1.5,1.1,1.5
				c1.2,0.1,2.5,1.2,3.7,0c0.4-0.4,1.5-1,1.6-0.9c1,1,2.2,0.2,3.3,0.5C252.9,39.2,251.6,38.8,250.4,39z"/>
		</g>
		<g id="Path_19">
			<path class="st1" d="M257.1,41.6v-2.2C255.9,39.8,255.9,39.8,257.1,41.6z"/>
		</g>
		<g id="Path_20">
			<path class="st1" d="M267.5,40.3h-1.6v0.1L267.5,40.3L267.5,40.3z"/>
		</g>
	</g>
</g>
</svg>
