<svg xmlns="http://www.w3.org/2000/svg" viewBox="0 0 83.78 4.6"><title>icon-line-2</title><g id="Layer_2" data-name="Layer 2"><g id="Layer_1-2" data-name="Layer 1"><path d="M70.31.89c-1.3,0-2.62-.41-3.89.24-.14.08-.4-.07-.6-.09a20.6,20.6,0,0,0-2.58-.3c-3.47,0-6.93,0-10.39,0-1,0-2,.11-3,.12-1.42,0-2.84,0-4.25,0-1.92.06-3.83.26-5.73.23C35.23,1.08,30.63.91,26,.8c-2.7-.07-5.4-.11-8.1-.16S12.31.61,9.51.45,3.79.76,1,0C.7-.06.33.24,0,.36c.71.77,1.23,1.79,2,2a7.48,7.48,0,0,0,2.61.43c.87-.09,1.78.32,2.31-.25a8.3,8.3,0,0,0,1.71.39c.95,0,1.89-.2,2.84-.21,1.4,0,2.79,0,4.19,0,.32,0,.76-.11.94,0,.74.66,1.44.25,2.17.08a2.15,2.15,0,0,1,.75-.13,30.21,30.21,0,0,0,3.76.48c3.61,0,7.22.4,10.82,0a2.72,2.72,0,0,1,.49.05l3.92.32,3.83.27a8.87,8.87,0,0,0,1.26.07,27.14,27.14,0,0,0,3.49-.35,2.29,2.29,0,0,1,1.87.23l.9.57a4.71,4.71,0,0,1,1.32-.47,3.1,3.1,0,0,1,1.06.45c.16-.21.32-.6.57-.67a17.06,17.06,0,0,1,3.5-.74A46.45,46.45,0,0,1,61.13,3C63,3.12,65,2.36,66.87,3c0,0,.11,0,.17,0,1,0,2,0,3,.11,2.08.2,3.17-.34,4.07-2.2Z"/><path d="M82.27.09,75.89.8c-1.22.12-1.22.1-1.15,1.49,1.77,1.17,3.5.84,5.44-.17.58,1,1.38.14,2.09.33C82.16,2,82.08,1.6,81.94,1l1.82.75C83.86.23,83.58-.06,82.27.09Z"/><path d="M54.17,4.42l0,.18h.88l0-.26Z"/></g></g></svg>