<?xml version="1.0" encoding="utf-8"?>
<!-- Generator: Adobe Illustrator 23.0.4, SVG Export Plug-In . SVG Version: 6.00 Build 0)  -->
<svg version="1.1" id="Layer_1" xmlns="http://www.w3.org/2000/svg" xmlns:xlink="http://www.w3.org/1999/xlink" x="0px" y="0px"
	 viewBox="0 0 282 323" style="enable-background:new 0 0 282 323;" xml:space="preserve">
<style type="text/css">
	.st0{enable-background:new    ;}
	.st1{fill:#3B3B3B;}
</style>
<g id="ch3-text-01billionaire" transform="translate(-613 -2219)">
	<g class="st0">
		<path class="st1" d="M743.3,2409.7c0,11.2-1.3,21.2-3.9,29.7c-2.6,8.6-6.3,15.8-11.2,21.5c-4.9,5.8-10.8,10.2-17.8,13.1
			c-7,2.9-14.9,4.4-23.7,4.4c-8.7,0-16.5-1.5-23.6-4.4c-7-2.9-13-7.3-17.9-13.1c-4.9-5.8-8.7-13-11.4-21.5c-2.7-8.6-4-18.5-4-29.7
			v-41.6c0-11.2,1.3-21.2,3.9-29.7c2.6-8.6,6.4-15.8,11.3-21.5c4.9-5.8,10.8-10.1,17.8-13.1c7-2.9,14.8-4.4,23.5-4.4
			c8.8,0,16.7,1.5,23.7,4.4c7,3,13,7.3,17.9,13.1c4.9,5.8,8.7,13,11.3,21.5c2.6,8.6,3.9,18.5,3.9,29.7V2409.7z M663.4,2395.4
			l46.4-34.6c-0.2-11.7-2.3-20.4-6.1-26.1c-3.8-5.7-9.6-8.5-17.2-8.5c-7.7,0-13.5,3-17.3,9c-3.8,6-5.7,15.2-5.7,27.6V2395.4z
			 M709.8,2383.4l-46.4,34.5c0.4,11.5,2.5,20,6.3,25.5c3.8,5.5,9.5,8.3,17,8.3c7.8,0,13.6-3,17.4-9.1c3.8-6.1,5.7-15.4,5.7-27.9
			V2383.4z"/>
		<path class="st1" d="M846.1,2476h-33.6v-133.6l-44,15.8v-29l75.8-27.4h1.8V2476z"/>
	</g>
	<g class="st0">
		<path class="st1" d="M632.1,2527v-24.2h8.1c1.3,0,2.5,0.1,3.6,0.4s2,0.7,2.8,1.2s1.4,1.2,1.8,2.1s0.6,1.8,0.6,2.9
			c0,1.1-0.3,2.1-0.9,3c-0.6,0.9-1.5,1.6-2.6,2c0.7,0.2,1.3,0.4,1.8,0.8c0.5,0.4,0.9,0.8,1.3,1.3c0.3,0.5,0.6,1,0.7,1.6
			c0.2,0.6,0.2,1.2,0.2,1.8c0,1.2-0.2,2.2-0.6,3.1s-1,1.6-1.7,2.2c-0.7,0.6-1.6,1-2.7,1.3s-2.3,0.4-3.6,0.4H632.1z M636.8,2513h3.5
			c1.3,0,2.3-0.3,3-0.8s1.1-1.3,1.1-2.3c0-1.1-0.3-1.9-1-2.4c-0.7-0.5-1.7-0.7-3-0.8h-3.5V2513z M636.8,2516.3v6.9h4.2
			c1.3,0,2.2-0.3,2.9-0.9c0.7-0.6,1-1.4,1-2.4c0-1.1-0.3-2-0.9-2.6c-0.6-0.6-1.5-0.9-2.8-0.9H636.8z"/>
		<path class="st1" d="M653,2509h9.8v14.2h4.9v3.8H653v-3.8h5.1v-10.4H653V2509z M657.7,2504.4c0-0.4,0.1-0.7,0.2-1
			c0.1-0.3,0.3-0.6,0.5-0.8c0.2-0.2,0.5-0.4,0.8-0.5c0.3-0.1,0.7-0.2,1.1-0.2c0.8,0,1.5,0.2,2,0.7c0.5,0.5,0.7,1,0.7,1.8
			s-0.2,1.3-0.7,1.8c-0.5,0.5-1.1,0.7-2,0.7c-0.4,0-0.8-0.1-1.1-0.2c-0.3-0.1-0.6-0.3-0.8-0.5c-0.2-0.2-0.4-0.5-0.5-0.8
			C657.8,2505.1,657.7,2504.8,657.7,2504.4z"/>
		<path class="st1" d="M672.1,2501.5h10v21.7h5.1v3.8h-15.2v-3.8h5.4v-18h-5.4V2501.5z"/>
		<path class="st1" d="M691.5,2501.5h10v21.7h5.1v3.8h-15.2v-3.8h5.4v-18h-5.4V2501.5z"/>
		<path class="st1" d="M711.1,2509h9.8v14.2h4.9v3.8h-14.6v-3.8h5.1v-10.4h-5.1V2509z M715.9,2504.4c0-0.4,0.1-0.7,0.2-1
			c0.1-0.3,0.3-0.6,0.5-0.8c0.2-0.2,0.5-0.4,0.8-0.5c0.3-0.1,0.7-0.2,1.1-0.2c0.8,0,1.5,0.2,2,0.7c0.5,0.5,0.7,1,0.7,1.8
			s-0.2,1.3-0.7,1.8c-0.5,0.5-1.1,0.7-2,0.7c-0.4,0-0.8-0.1-1.1-0.2c-0.3-0.1-0.6-0.3-0.8-0.5c-0.2-0.2-0.4-0.5-0.5-0.8
			C715.9,2505.1,715.9,2504.8,715.9,2504.4z"/>
		<path class="st1" d="M728.6,2517.9c0-1.3,0.2-2.5,0.6-3.6c0.4-1.1,0.9-2.1,1.7-2.9c0.7-0.8,1.6-1.5,2.7-1.9c1-0.5,2.2-0.7,3.6-0.7
			s2.6,0.2,3.6,0.7s1.9,1.1,2.7,1.9c0.7,0.8,1.3,1.8,1.7,2.9c0.4,1.1,0.6,2.3,0.6,3.6v0.3c0,1.3-0.2,2.5-0.6,3.6
			c-0.4,1.1-0.9,2.1-1.6,2.9s-1.6,1.5-2.7,1.9c-1.1,0.5-2.2,0.7-3.6,0.7c-1.4,0-2.6-0.2-3.6-0.7c-1.1-0.5-1.9-1.1-2.7-1.9
			c-0.7-0.8-1.3-1.8-1.7-2.9c-0.4-1.1-0.6-2.3-0.6-3.6V2517.9z M733.2,2518.2c0,0.8,0.1,1.5,0.2,2.1c0.1,0.7,0.4,1.2,0.7,1.7
			c0.3,0.5,0.7,0.9,1.2,1.2c0.5,0.3,1.1,0.4,1.8,0.4c0.7,0,1.3-0.1,1.7-0.4s0.9-0.7,1.2-1.2c0.3-0.5,0.5-1.1,0.7-1.7
			c0.1-0.7,0.2-1.4,0.2-2.1v-0.3c0-0.7-0.1-1.4-0.2-2.1s-0.4-1.2-0.7-1.7c-0.3-0.5-0.7-0.9-1.2-1.2s-1.1-0.4-1.8-0.4
			c-0.7,0-1.3,0.1-1.8,0.4s-0.9,0.7-1.2,1.2s-0.5,1.1-0.7,1.7s-0.2,1.3-0.2,2.1V2518.2z"/>
		<path class="st1" d="M752.8,2509l0.3,2.5c0.6-0.9,1.4-1.6,2.3-2.1c0.9-0.5,1.9-0.7,3.1-0.7c0.9,0,1.7,0.1,2.5,0.4s1.4,0.7,2,1.3
			c0.5,0.6,1,1.3,1.3,2.2c0.3,0.9,0.5,2,0.5,3.3v11.1h-4.6v-11c0-0.7-0.1-1.3-0.2-1.8c-0.2-0.5-0.4-0.8-0.7-1.1s-0.7-0.5-1.1-0.6
			c-0.4-0.1-0.9-0.2-1.4-0.2c-0.8,0-1.5,0.2-2,0.5c-0.6,0.3-1,0.8-1.3,1.3v12.8h-4.6v-18H752.8z"/>
		<path class="st1" d="M779.2,2527c-0.1-0.2-0.2-0.5-0.3-0.8s-0.1-0.6-0.2-0.9c-0.3,0.3-0.5,0.5-0.9,0.8s-0.7,0.5-1.1,0.6
			c-0.4,0.2-0.8,0.3-1.3,0.4c-0.5,0.1-1,0.2-1.6,0.2c-0.9,0-1.8-0.1-2.5-0.4c-0.8-0.3-1.4-0.6-2-1.1s-1-1-1.3-1.7
			c-0.3-0.7-0.5-1.4-0.5-2.1c0-1.9,0.7-3.4,2.1-4.4c1.4-1,3.5-1.6,6.3-1.6h2.6v-1.1c0-0.9-0.3-1.5-0.8-2c-0.6-0.5-1.4-0.8-2.4-0.8
			c-0.9,0-1.6,0.2-2.1,0.6c-0.4,0.4-0.6,0.9-0.6,1.6H768c0-0.8,0.2-1.5,0.5-2.2c0.3-0.7,0.8-1.3,1.5-1.8c0.6-0.5,1.4-0.9,2.4-1.2
			c0.9-0.3,2-0.5,3.2-0.5c1.1,0,2.1,0.1,3,0.4c0.9,0.3,1.7,0.7,2.4,1.2s1.2,1.2,1.6,2c0.4,0.8,0.6,1.7,0.6,2.7v7.7
			c0,1,0.1,1.8,0.2,2.4s0.3,1.2,0.5,1.6v0.3H779.2z M774.8,2523.8c0.5,0,0.9-0.1,1.3-0.2s0.8-0.3,1.1-0.4s0.6-0.4,0.8-0.6
			c0.2-0.2,0.4-0.5,0.5-0.7v-3.1h-2.4c-0.7,0-1.3,0.1-1.8,0.2c-0.5,0.1-0.9,0.3-1.2,0.6c-0.3,0.2-0.6,0.5-0.7,0.9
			c-0.2,0.3-0.2,0.7-0.2,1.1c0,0.6,0.2,1.1,0.7,1.5C773.3,2523.6,774,2523.8,774.8,2523.8z"/>
		<path class="st1" d="M788.6,2509h9.8v14.2h4.9v3.8h-14.6v-3.8h5.1v-10.4h-5.1V2509z M793.4,2504.4c0-0.4,0.1-0.7,0.2-1
			c0.1-0.3,0.3-0.6,0.5-0.8c0.2-0.2,0.5-0.4,0.8-0.5c0.3-0.1,0.7-0.2,1.1-0.2c0.8,0,1.5,0.2,2,0.7c0.5,0.5,0.7,1,0.7,1.8
			s-0.2,1.3-0.7,1.8c-0.5,0.5-1.1,0.7-2,0.7c-0.4,0-0.8-0.1-1.1-0.2c-0.3-0.1-0.6-0.3-0.8-0.5c-0.2-0.2-0.4-0.5-0.5-0.8
			C793.5,2505.1,793.4,2504.8,793.4,2504.4z"/>
		<path class="st1" d="M819.7,2508.7c0.7,0,1.3,0,1.9,0.1c0.6,0.1,1.1,0.2,1.4,0.3l-0.7,4.6c-0.6-0.1-1.2-0.3-1.9-0.3
			c-0.6-0.1-1.2-0.1-1.8-0.1c-1.3,0-2.3,0.2-3.1,0.7c-0.8,0.5-1.4,1.2-1.8,2.1v10.8h-4.6v-18h4.3l0.2,2.9c0.7-1,1.6-1.8,2.6-2.4
			C817.4,2509,818.5,2508.7,819.7,2508.7z"/>
		<path class="st1" d="M834.9,2527.3c-1.4,0-2.6-0.2-3.8-0.7s-2.1-1.1-2.9-1.9c-0.8-0.8-1.4-1.7-1.9-2.8c-0.4-1.1-0.7-2.2-0.7-3.4
			v-0.7c0-1.4,0.2-2.6,0.6-3.8c0.4-1.1,1-2.1,1.8-2.9s1.7-1.5,2.8-1.9s2.2-0.7,3.5-0.7c1.3,0,2.4,0.2,3.5,0.6c1,0.4,1.9,1,2.6,1.8
			c0.7,0.8,1.2,1.7,1.6,2.8c0.4,1.1,0.5,2.3,0.5,3.6v2h-12.2c0.1,0.6,0.3,1.2,0.5,1.7c0.3,0.5,0.6,0.9,1,1.3s0.9,0.6,1.4,0.8
			s1.1,0.3,1.8,0.3c0.5,0,0.9,0,1.4-0.1c0.4-0.1,0.9-0.2,1.3-0.4c0.4-0.2,0.8-0.4,1.1-0.6s0.7-0.6,0.9-0.9l2.3,2.5
			c-0.3,0.4-0.7,0.8-1.1,1.2c-0.5,0.4-1,0.7-1.6,1c-0.6,0.3-1.3,0.6-2.1,0.7S835.8,2527.3,834.9,2527.3z M834.3,2512.4
			c-0.5,0-1,0.1-1.4,0.3c-0.4,0.2-0.8,0.4-1.1,0.8c-0.3,0.3-0.6,0.8-0.8,1.2s-0.4,1-0.5,1.6h7.6v-0.4c0-0.5-0.1-0.9-0.3-1.4
			s-0.4-0.8-0.7-1.1c-0.3-0.3-0.7-0.6-1.1-0.7C835.4,2512.5,834.9,2512.4,834.3,2512.4z"/>
	</g>
</g>
</svg>
