<?xml version="1.0" encoding="utf-8"?>
<!-- Generator: Adobe Illustrator 23.0.4, SVG Export Plug-In . SVG Version: 6.00 Build 0)  -->
<svg version="1.1" id="Layer_1" xmlns="http://www.w3.org/2000/svg" xmlns:xlink="http://www.w3.org/1999/xlink" x="0px" y="0px"
	 viewBox="0 0 200 120" style="enable-background:new 0 0 200 120;" xml:space="preserve">
<style type="text/css">
	.st0{enable-background:new    ;}
	.st1{fill:#FFFFFF;}
</style>
<g id="ch3-text-2-ownthe" transform="translate(-462 -1293)">
	<g class="st0">
		<path class="st1" d="M613.9,1341.7h-99.3v-23.9h99.3V1341.7z M613.9,1387h-99.3v-23.8h99.3V1387z"/>
	</g>
	<g class="st0">
		<path class="st1" d="M518.4,1303.5c2.9,0,5,2,5,4.8s-2.1,4.8-5,4.8c-2.9,0-5-2-5-4.8S515.5,1303.5,518.4,1303.5z M518.4,1305.6
			c-1.6,0-2.5,1.2-2.5,2.7s1,2.7,2.5,2.7s2.5-1.2,2.5-2.7C520.9,1306.8,519.9,1305.6,518.4,1305.6z"/>
		<path class="st1" d="M535.6,1307.1l-1.4,5.9h-2.5l-2.7-9.3h2.7l1.4,6.2l1.6-6.2h1.8l1.6,6.2l1.4-6.2h2.7l-2.7,9.3H537
			L535.6,1307.1z"/>
		<path class="st1" d="M551,1307.4v5.6h-2.4v-9.3h2.5l3.8,5.4v-5.4h2.4v9.3H555L551,1307.4z"/>
		<path class="st1" d="M575.8,1305.8h-2.6v-2.1h7.6v2.1h-2.6v7.2h-2.4V1305.8z"/>
		<path class="st1" d="M593.9,1309.2H590v3.8h-2.4v-9.3h2.4v3.5h3.9v-3.5h2.4v9.3h-2.4V1309.2z"/>
		<path class="st1" d="M603.6,1303.7h6.8v2H606v1.6h4.3v2H606v1.7h4.4v2h-6.8L603.6,1303.7L603.6,1303.7z"/>
	</g>
	<g class="st0">
		<path class="st1" d="M486.4,1353.9c0.7,0.7,1.7,1.2,3,1.2c0.8,0,1.3-0.4,1.3-0.8c0-0.5-0.6-0.7-1.6-1c-1.5-0.3-3.7-0.7-3.7-2.9
			c0-1.6,1.3-2.9,3.7-2.9c1.5,0,2.8,0.4,3.8,1.3l-1.3,1.7c-0.8-0.6-1.8-1-2.6-1c-0.8,0-1.1,0.3-1.1,0.7c0,0.5,0.6,0.7,1.6,0.9
			c1.5,0.3,3.7,0.8,3.7,2.9c0,1.9-1.4,3.1-3.9,3.1c-1.9,0-3.2-0.6-4.1-1.5L486.4,1353.9z"/>
		<path class="st1" d="M505.8,1355.6H502l-0.5,1.4h-2.6l3.5-9.3h3l3.5,9.3h-2.6L505.8,1355.6z M502.6,1353.6h2.6l-1.3-3.8
			L502.6,1353.6z"/>
		<path class="st1" d="M523.4,1350.7l-2.4,6.3h-1l-2.4-6.3v6.3h-2.4v-9.3h3.3l1.9,5.3l2-5.3h3.3v9.3h-2.4v-6.3H523.4z"/>
		<path class="st1" d="M533.1,1347.7h6.8v2h-4.4v1.6h4.3v2h-4.3v1.7h4.4v2h-6.8L533.1,1347.7L533.1,1347.7z"/>
		<path class="st1" d="M561.8,1351.1l-1.4,5.9h-2.5l-2.7-9.3h2.7l1.4,6.2l1.6-6.2h1.9l1.6,6.2l1.4-6.2h2.7l-2.7,9.3h-2.5
			L561.8,1351.1z"/>
		<path class="st1" d="M574.8,1347.7h6.8v2h-4.4v1.6h4.3v2h-4.3v1.7h4.4v2h-6.8V1347.7z"/>
		<path class="st1" d="M594.7,1355.6h-3.9l-0.5,1.4h-2.6l3.5-9.3h3l3.5,9.3h-2.6L594.7,1355.6z M591.4,1353.6h2.6l-1.3-3.8
			L591.4,1353.6z"/>
		<path class="st1" d="M604,1347.7h2.4v7.2h3.8v2.1H604V1347.7z"/>
		<path class="st1" d="M617.7,1349.8h-2.6v-2.1h7.6v2.1h-2.6v7.2h-2.4V1349.8z"/>
		<path class="st1" d="M635.8,1353.2h-3.9v3.8h-2.4v-9.3h2.4v3.5h3.9v-3.5h2.4v9.3h-2.4V1353.2z"/>
	</g>
	<g class="st0">
		<path class="st1" d="M530.5,1399.6h-3.9l-0.5,1.4h-2.6l3.5-9.3h3l3.5,9.3H531L530.5,1399.6z M527.3,1397.6h2.6l-1.3-3.8
			L527.3,1397.6z"/>
		<path class="st1" d="M540.4,1397.9c0.7,0.7,1.7,1.2,3,1.2c0.8,0,1.3-0.4,1.3-0.8c0-0.5-0.6-0.7-1.6-1c-1.5-0.3-3.7-0.7-3.7-2.9
			c0-1.6,1.3-2.9,3.7-2.9c1.5,0,2.8,0.4,3.8,1.3l-1.3,1.7c-0.8-0.6-1.8-1-2.6-1s-1.1,0.3-1.1,0.7c0,0.5,0.6,0.7,1.6,0.9
			c1.5,0.3,3.7,0.8,3.7,2.9c0,1.9-1.4,3.1-3.9,3.1c-1.9,0-3.2-0.6-4.1-1.5L540.4,1397.9z"/>
		<path class="st1" d="M565.2,1393.8h-2.6v-2.1h7.6v2.1h-2.6v7.2h-2.4V1393.8z"/>
		<path class="st1" d="M583.2,1397.2h-3.9v3.8h-2.4v-9.3h2.4v3.5h3.9v-3.5h2.4v9.3h-2.4V1397.2z"/>
		<path class="st1" d="M592.9,1391.7h6.8v2h-4.4v1.6h4.3v2h-4.3v1.7h4.4v2h-6.8V1391.7z"/>
	</g>
</g>
</svg>
