<svg xmlns="http://www.w3.org/2000/svg" viewBox="0 0 195.82 7.62"><title>icon-line-4</title><g id="Layer_2" data-name="Layer 2"><g id="Layer_1-2" data-name="Layer 1"><path d="M194.91,1.78c-1-.64-2.07-1.25-3.37-.6-.24.12-.85,0-.9-.12-.53-1.47-1.69-.69-2.59-.78l-1.56-.1L185.37.11l-.23,1.06a4.27,4.27,0,0,0-3.41-.79,17.67,17.67,0,0,1-2.3,0c-.52,0-1,0-1.56,0-1.11,0-2.22.18-3.33.12-.64,0-2-.25-2.67-.21a4.39,4.39,0,0,1-2,0c-1.16-.52-2.25-.16-3.35,0A6.22,6.22,0,0,1,162.92.1a.66.66,0,0,0-.57,0c-.39.39-.79.15-1.21.16-1.27,0-2.62-.21-3.69.78-1.59-1-7-.92-9.55-.06a10.42,10.42,0,0,0-2.46-.39c-.87,0-1.85-.26-2.41.7-.53-.19-.73-1-1.43-.43-.28.22-.85.06-1.29.09s-.75,0-.92.14a2.61,2.61,0,0,1-2.52.43,26.62,26.62,0,0,0-5.19-.32,2.77,2.77,0,0,0-2.46,1l-.39-.84c-1.3.69-2.66-.29-4.05.28s-2.93-.34-4.22.6c-1.14-.83-1.67-1-2.9-.44a1.51,1.51,0,0,1-1.49-.18c-.09,0-.21,0-.31,0l-.9,1-1.06-.79-1,.89a17.54,17.54,0,0,0-4.62-.54,9.49,9.49,0,0,0-4.65.88c-.68-.35-1-1.33-1.89-.84l-.26.9c-2.08-.93-3.71-.84-5.29.55A13.06,13.06,0,0,0,98.09,4c3.18,0,6.37,0,9.55,0,1.85,0,3.69-.26,5.54-.3,3.13-.07,6.27,0,9.4-.1,5.93-.17,11.87-.41,17.8-.61,2.91-.09,5.83-.15,8.74-.22,3.83-.1,7.66-.21,11.49-.28,3.68-.07,7.37-.11,11-.14q6.68-.06,13.34-.09c1,0,2,0,3,.08l4.95.1c1,0,1.94,0,2.91,0A2.71,2.71,0,0,0,194.91,1.78Z"/><path d="M58.1,4.52a2.2,2.2,0,0,1-1.38-.31A2,2,0,0,0,54.56,4c-.6.2-1.45-.35-1.69.76A2.16,2.16,0,0,0,50.09,4c-.44.18-1,.5-1.35.41a6,6,0,0,0-2.91.3,3.31,3.31,0,0,1-1.25.09c-1.63-.23-3.19-1.29-4.9-.32-.1.06-.31-.13-.46-.12-.43,0-.86.08-1.29.11-.59,0-1.18.08-1.77.1s-1.3,0-1.95,0a12,12,0,0,1-3.34.28c-2.23-.48-4.43,0-6.63-.17a34.86,34.86,0,0,0-3.53.23C19,5,17.23,5,15.5,5.11a21,21,0,0,1-3.91.35c-1.13-.14-2.3.8-3.37-.14-.06-.05-.29.12-.44.14A7.4,7.4,0,0,1,6,5.64C4.7,5.5,3.37,5.25,2,5c-.95-.16-1.44.42-2,1.14a6.33,6.33,0,0,0,.83.39,42.94,42.94,0,0,0,6.09,1A7.79,7.79,0,0,0,10.79,7a.73.73,0,0,1,.56,0,4,4,0,0,0,3,.18c.54-.09,1.17-.45,1.6-.28,1.42.58,2.79,0,4.18,0,1.56.06,3.07-.34,4.65-.28,2.54.09,5.09-.17,7.64-.28a9.07,9.07,0,0,0,2.29-.15c.84-.27,1.55-.88,2.4,0,.12.12.51,0,.77-.07a8.81,8.81,0,0,1,1.25-.07c.6,0,1.19.16,1.78.14,1.48,0,3-.14,4.44-.26a11.85,11.85,0,0,1,1.51-.3c1.42.07,2.85.49,4.24-.21a1.54,1.54,0,0,1,.65,0c2.24.06,4.49.11,6.73.19.47,0,.83,0,1-.54A1.36,1.36,0,0,0,58.1,4.52Z"/><path d="M59.45,5.06l.06.07,0-.1-.06,0Z"/><path d="M80.94,3.22c-1.19-.48-2.32-.76-3.32.36-.93-.52-1.65-1-2.76-.29s-2.3.52-3.47.74c0-.21.11-.41.21-.79a2.2,2.2,0,0,1-2.4.19,2.5,2.5,0,0,0-2-.14c-1.5.78-3,.46-4.5.33a3.76,3.76,0,0,0-1.11.09c-.54.12-1.07.29-1.74.49L59.54,5a.85.85,0,0,0,.36.21c1.92,0,3.83.08,5.75,0,.37,0,.73-.36,1.18-.6.4.68,1,.53,1.69.41a18.11,18.11,0,0,1,4.38-.41,24.65,24.65,0,0,0,4.86.06,53.93,53.93,0,0,1,5.4-.14c1.07,0,2.17.24,3.29-.29-.18-.57-.35-1.07-.53-1.64A5.92,5.92,0,0,1,80.94,3.22Z"/><path d="M93.89,2.34a7.48,7.48,0,0,1-2.9.12c-.61-.11-1.22-.08-1.46.26-.71,1-1.25.51-1.94-.12-.64,1.14-.29,1.79.83,1.76.71,0,1.41-.26,2.12-.28,1.81,0,3.62,0,5.57,0-.15-.4-.25-.92-.36-.92C95,3.14,94.77,2.16,93.89,2.34Z"/></g></g></svg>