<?xml version="1.0" encoding="utf-8"?>
<!-- Generator: Adobe Illustrator 23.0.4, SVG Export Plug-In . SVG Version: 6.00 Build 0)  -->
<svg version="1.1" id="Layer_1" xmlns="http://www.w3.org/2000/svg" xmlns:xlink="http://www.w3.org/1999/xlink" x="0px" y="0px"
	 viewBox="0 0 315 190" style="enable-background:new 0 0 315 190;" xml:space="preserve">
<style type="text/css">
	.st0{enable-background:new    ;}
	.st1{fill:#FFFFFF;}
</style>
<g id="ch3-text-2-26people" transform="translate(-203 -1397)">
	<g class="st0">
		<path class="st1" d="M355,1503h-58.2v-11.1l27.6-29.6c2.1-2.3,4-4.5,5.4-6.4c1.5-1.9,2.7-3.7,3.6-5.2c0.9-1.6,1.6-3.1,2-4.4
			c0.4-1.4,0.6-2.7,0.6-4c0-1.9-0.3-3.6-0.8-5.1s-1.3-2.7-2.3-3.8c-1-1-2.2-1.8-3.6-2.4c-1.4-0.5-2.9-0.8-4.6-0.8
			c-4.5,0-7.8,1.3-10,3.8c-2.2,2.5-3.3,6-3.3,10.5h-16.3c0-3.8,0.7-7.4,2.2-10.8c1.4-3.4,3.5-6.3,6.1-8.9c2.6-2.5,5.8-4.5,9.6-6
			c3.7-1.5,7.9-2.2,12.4-2.2c4.3,0,8.2,0.6,11.5,1.8c3.3,1.2,6.1,2.9,8.4,5.1c2.2,2.2,4,4.8,5.1,7.9c1.2,3.1,1.8,6.5,1.8,10.2
			c0,2.8-0.4,5.5-1.3,8.1s-2.1,5.1-3.8,7.6c-1.6,2.5-3.6,5-5.8,7.6c-2.3,2.6-4.8,5.3-7.6,8.2l-16.1,17H355V1503z"/>
		<path class="st1" d="M408.5,1417v13.5h-0.9c-4.3,0-8.1,0.6-11.4,1.7s-6.1,2.7-8.4,4.8c-2.3,2.1-4.2,4.6-5.5,7.4
			c-1.3,2.9-2.2,6.1-2.5,9.7c0.9-1,1.9-1.9,3.1-2.9s2.5-1.8,4-2.6s3.1-1.4,4.8-1.8c1.7-0.5,3.6-0.7,5.6-0.7c4.1,0,7.6,0.8,10.6,2.3
			s5.6,3.6,7.6,6.3c2,2.6,3.5,5.7,4.5,9.2s1.5,7.2,1.5,11c0,4.1-0.7,8-2,11.5c-1.3,3.6-3.2,6.6-5.7,9.3c-2.5,2.6-5.4,4.7-9,6.2
			s-7.5,2.3-11.8,2.3c-4.6,0-8.7-0.8-12.4-2.5c-3.7-1.7-6.8-4.1-9.3-7.1c-2.6-3-4.5-6.6-5.9-10.7s-2.1-8.6-2.1-13.5v-6.3
			c0-6.8,0.9-13,2.8-18.8c1.8-5.8,4.6-10.7,8.2-14.9c3.6-4.2,8.1-7.5,13.5-9.8c5.4-2.4,11.6-3.5,18.7-3.5L408.5,1417L408.5,1417z
			 M392.3,1459.2c-2.9,0-5.5,0.8-7.8,2.3c-2.2,1.6-3.9,3.6-5.1,6v4.8c0,3.1,0.3,5.9,1,8.2s1.6,4.3,2.7,5.8c1.2,1.5,2.6,2.7,4.2,3.5
			s3.3,1.2,5.2,1.2c1.9,0,3.7-0.4,5.2-1.2c1.6-0.8,2.9-1.9,4-3.3s1.9-3.1,2.5-5s0.9-4.1,0.9-6.4s-0.3-4.4-0.9-6.4s-1.4-3.6-2.5-5.1
			c-1.1-1.4-2.4-2.5-4-3.3C396.2,1459.6,394.4,1459.2,392.3,1459.2z"/>
	</g>
	<g class="st0">
		<path class="st1" d="M300.5,1538.2c0,1.3-0.2,2.5-0.5,3.6s-0.8,2.1-1.3,2.9c-0.6,0.8-1.3,1.5-2.2,1.9c-0.9,0.5-1.9,0.7-3,0.7
			c-1,0-1.8-0.2-2.5-0.5s-1.4-0.8-1.9-1.4v8.5h-4.6V1529h4.3l0.2,1.8c0.6-0.7,1.2-1.2,2-1.5c0.8-0.4,1.6-0.5,2.6-0.5
			c1.1,0,2.1,0.2,3,0.7c0.9,0.4,1.6,1.1,2.2,1.9c0.6,0.8,1,1.8,1.4,2.9c0.3,1.1,0.5,2.4,0.5,3.7v0.2H300.5z M295.9,1537.8
			c0-0.8-0.1-1.5-0.2-2.1c-0.1-0.7-0.4-1.2-0.6-1.7c-0.3-0.5-0.7-0.9-1.1-1.1c-0.5-0.3-1-0.4-1.7-0.4c-0.8,0-1.5,0.2-2,0.5
			s-0.9,0.8-1.2,1.3v7.5c0.3,0.6,0.7,1,1.2,1.4c0.5,0.3,1.2,0.5,2,0.5c0.7,0,1.2-0.1,1.7-0.4s0.8-0.7,1.1-1.2
			c0.3-0.5,0.5-1.1,0.6-1.7c0.1-0.7,0.2-1.4,0.2-2.1V1537.8z"/>
		<path class="st1" d="M312.4,1547.3c-1.4,0-2.6-0.2-3.8-0.7c-1.2-0.5-2.1-1.1-2.9-1.9c-0.8-0.8-1.4-1.7-1.9-2.8
			c-0.4-1.1-0.7-2.2-0.7-3.4v-0.7c0-1.4,0.2-2.6,0.6-3.8c0.4-1.1,1-2.1,1.8-2.9c0.8-0.8,1.7-1.5,2.8-1.9s2.2-0.7,3.5-0.7
			s2.4,0.2,3.5,0.6c1,0.4,1.9,1,2.6,1.8s1.2,1.7,1.6,2.8c0.4,1.1,0.5,2.3,0.5,3.6v2h-12.2c0.1,0.6,0.3,1.2,0.5,1.7
			c0.3,0.5,0.6,0.9,1,1.3c0.4,0.4,0.9,0.6,1.4,0.8c0.5,0.2,1.1,0.3,1.8,0.3c0.5,0,0.9,0,1.4-0.1s0.9-0.2,1.3-0.4
			c0.4-0.2,0.8-0.4,1.1-0.6c0.4-0.3,0.7-0.6,0.9-0.9l2.3,2.5c-0.3,0.4-0.7,0.8-1.1,1.2c-0.5,0.4-1,0.7-1.6,1s-1.3,0.6-2.1,0.7
			S313.3,1547.3,312.4,1547.3z M311.9,1532.4c-0.5,0-1,0.1-1.4,0.3c-0.4,0.2-0.8,0.4-1.1,0.8c-0.3,0.3-0.6,0.8-0.8,1.2
			c-0.2,0.5-0.4,1-0.5,1.6h7.6v-0.4c0-0.5-0.1-0.9-0.3-1.4s-0.4-0.8-0.7-1.1c-0.3-0.3-0.7-0.6-1.1-0.7
			C313,1532.5,312.5,1532.4,311.9,1532.4z"/>
		<path class="st1" d="M336,1528.7c0.7,0,1.3,0,1.9,0.1s1.1,0.2,1.4,0.3l-0.7,4.6c-0.6-0.1-1.2-0.3-1.9-0.3
			c-0.6-0.1-1.2-0.1-1.8-0.1c-1.3,0-2.3,0.2-3.1,0.7c-0.8,0.5-1.4,1.2-1.8,2.1v10.8h-4.6v-18h4.3l0.2,2.9c0.7-1,1.6-1.8,2.6-2.4
			C333.7,1529,334.8,1528.7,336,1528.7z"/>
		<path class="st1" d="M354.1,1542.1c0-0.3-0.1-0.5-0.2-0.7s-0.4-0.4-0.7-0.6c-0.3-0.2-0.8-0.4-1.3-0.5s-1.2-0.3-2.1-0.5
			c-1.1-0.2-2-0.5-2.9-0.8s-1.6-0.7-2.2-1.1s-1.1-1-1.5-1.6c-0.3-0.6-0.5-1.3-0.5-2s0.2-1.5,0.5-2.1s0.9-1.3,1.5-1.8
			s1.5-0.9,2.4-1.2s2-0.4,3.2-0.4c1.3,0,2.4,0.1,3.4,0.4s1.8,0.7,2.5,1.2s1.2,1.1,1.6,1.8s0.5,1.5,0.5,2.3h-4.6
			c0-0.7-0.3-1.3-0.8-1.8c-0.6-0.5-1.4-0.7-2.6-0.7c-1.1,0-1.9,0.2-2.4,0.6s-0.8,0.9-0.8,1.4c0,0.3,0.1,0.5,0.2,0.7s0.3,0.4,0.6,0.6
			c0.3,0.2,0.7,0.3,1.2,0.5c0.5,0.1,1.1,0.3,1.9,0.4c1.1,0.2,2.1,0.4,3,0.7s1.7,0.6,2.4,1.1c0.7,0.4,1.2,1,1.6,1.6s0.6,1.4,0.6,2.2
			c0,0.8-0.2,1.5-0.6,2.2s-0.9,1.2-1.6,1.7s-1.6,0.9-2.5,1.1c-1,0.3-2.1,0.4-3.3,0.4c-1.4,0-2.5-0.2-3.6-0.5c-1-0.4-1.9-0.8-2.6-1.4
			s-1.2-1.2-1.6-1.9c-0.4-0.7-0.5-1.5-0.5-2.2h4.4c0,0.5,0.2,0.9,0.4,1.3c0.2,0.3,0.5,0.6,0.9,0.8c0.4,0.2,0.8,0.4,1.3,0.5
			s1,0.1,1.5,0.1c1.1,0,2-0.2,2.6-0.5S354.1,1542.6,354.1,1542.1z"/>
		<path class="st1" d="M361.2,1537.9c0-1.3,0.2-2.5,0.6-3.6s0.9-2.1,1.7-2.9c0.7-0.8,1.6-1.5,2.7-1.9c1-0.5,2.2-0.7,3.6-0.7
			s2.6,0.2,3.6,0.7s1.9,1.1,2.7,1.9c0.7,0.8,1.3,1.8,1.7,2.9c0.4,1.1,0.6,2.3,0.6,3.6v0.3c0,1.3-0.2,2.5-0.6,3.6s-0.9,2.1-1.6,2.9
			s-1.6,1.5-2.7,1.9c-1.1,0.5-2.2,0.7-3.6,0.7s-2.6-0.2-3.6-0.7c-1.1-0.5-1.9-1.1-2.7-1.9c-0.7-0.8-1.3-1.8-1.7-2.9
			c-0.4-1.1-0.6-2.3-0.6-3.6v-0.3H361.2z M365.9,1538.2c0,0.8,0.1,1.5,0.2,2.1c0.1,0.7,0.4,1.2,0.7,1.7c0.3,0.5,0.7,0.9,1.2,1.2
			c0.5,0.3,1.1,0.4,1.8,0.4c0.7,0,1.3-0.1,1.7-0.4s0.9-0.7,1.2-1.2c0.3-0.5,0.5-1.1,0.7-1.7c0.1-0.7,0.2-1.4,0.2-2.1v-0.3
			c0-0.7-0.1-1.4-0.2-2.1s-0.4-1.2-0.7-1.7c-0.3-0.5-0.7-0.9-1.2-1.2s-1.1-0.4-1.8-0.4c-0.7,0-1.3,0.1-1.8,0.4s-0.9,0.7-1.2,1.2
			s-0.5,1.1-0.7,1.7s-0.2,1.3-0.2,2.1L365.9,1538.2L365.9,1538.2z"/>
		<path class="st1" d="M385.4,1529l0.3,2.5c0.6-0.9,1.4-1.6,2.3-2.1s1.9-0.7,3.1-0.7c0.9,0,1.7,0.1,2.5,0.4s1.4,0.7,2,1.3
			c0.5,0.6,1,1.3,1.3,2.2c0.3,0.9,0.5,2,0.5,3.3v11.1h-4.6v-11c0-0.7-0.1-1.3-0.2-1.8c-0.2-0.5-0.4-0.8-0.7-1.1s-0.7-0.5-1.1-0.6
			s-0.9-0.2-1.4-0.2c-0.8,0-1.5,0.2-2,0.5c-0.6,0.3-1,0.8-1.3,1.3v12.8h-4.6v-18L385.4,1529L385.4,1529z"/>
		<path class="st1" d="M411.9,1547c-0.1-0.2-0.2-0.5-0.3-0.8s-0.1-0.6-0.2-0.9c-0.3,0.3-0.5,0.5-0.9,0.8s-0.7,0.5-1.1,0.6
			c-0.4,0.2-0.8,0.3-1.3,0.4s-1,0.2-1.6,0.2c-0.9,0-1.8-0.1-2.5-0.4c-0.8-0.3-1.4-0.6-2-1.1s-1-1-1.3-1.7s-0.5-1.4-0.5-2.1
			c0-1.9,0.7-3.4,2.1-4.4s3.5-1.6,6.3-1.6h2.6v-1.1c0-0.9-0.3-1.5-0.8-2c-0.6-0.5-1.4-0.8-2.4-0.8c-0.9,0-1.6,0.2-2.1,0.6
			c-0.4,0.4-0.6,0.9-0.6,1.6h-4.6c0-0.8,0.2-1.5,0.5-2.2s0.8-1.3,1.5-1.8c0.6-0.5,1.4-0.9,2.4-1.2c0.9-0.3,2-0.5,3.2-0.5
			c1.1,0,2.1,0.1,3,0.4s1.7,0.7,2.4,1.2s1.2,1.2,1.6,2s0.6,1.7,0.6,2.7v7.7c0,1,0.1,1.8,0.2,2.4s0.3,1.2,0.5,1.6v0.3h-4.7V1547z
			 M407.5,1543.8c0.5,0,0.9-0.1,1.3-0.2s0.8-0.3,1.1-0.4s0.6-0.4,0.8-0.6c0.2-0.2,0.4-0.5,0.5-0.7v-3.1h-2.4c-0.7,0-1.3,0.1-1.8,0.2
			s-0.9,0.3-1.2,0.6c-0.3,0.2-0.6,0.5-0.7,0.9c-0.2,0.3-0.2,0.7-0.2,1.1c0,0.6,0.2,1.1,0.7,1.5
			C405.9,1543.6,406.6,1543.8,407.5,1543.8z"/>
		<path class="st1" d="M431.6,1542.1c0-0.3-0.1-0.5-0.2-0.7s-0.4-0.4-0.7-0.6c-0.3-0.2-0.8-0.4-1.3-0.5s-1.2-0.3-2.1-0.5
			c-1.1-0.2-2-0.5-2.9-0.8s-1.6-0.7-2.2-1.1s-1.1-1-1.5-1.6c-0.3-0.6-0.5-1.3-0.5-2s0.2-1.5,0.5-2.1s0.9-1.3,1.5-1.8
			s1.5-0.9,2.4-1.2s2-0.4,3.2-0.4c1.3,0,2.4,0.1,3.4,0.4s1.8,0.7,2.5,1.2s1.2,1.1,1.6,1.8s0.5,1.5,0.5,2.3h-4.6
			c0-0.7-0.3-1.3-0.8-1.8c-0.6-0.5-1.4-0.7-2.6-0.7c-1.1,0-1.9,0.2-2.4,0.6s-0.8,0.9-0.8,1.4c0,0.3,0.1,0.5,0.2,0.7s0.3,0.4,0.6,0.6
			c0.3,0.2,0.7,0.3,1.2,0.5c0.5,0.1,1.1,0.3,1.9,0.4c1.1,0.2,2.1,0.4,3,0.7s1.7,0.6,2.4,1.1c0.7,0.4,1.2,1,1.6,1.6s0.6,1.4,0.6,2.2
			c0,0.8-0.2,1.5-0.6,2.2s-0.9,1.2-1.6,1.7s-1.6,0.9-2.5,1.1c-1,0.3-2.1,0.4-3.3,0.4c-1.4,0-2.5-0.2-3.6-0.5c-1-0.4-1.9-0.8-2.6-1.4
			s-1.2-1.2-1.6-1.9c-0.4-0.7-0.5-1.5-0.5-2.2h4.4c0,0.5,0.2,0.9,0.4,1.3c0.2,0.3,0.5,0.6,0.9,0.8c0.4,0.2,0.8,0.4,1.3,0.5
			s1,0.1,1.5,0.1c1.1,0,2-0.2,2.6-0.5S431.6,1542.6,431.6,1542.1z"/>
	</g>
	<g id="Path_16">
		<path class="st1" d="M425.3,1559.3c-0.3,1.5-1.3,1.7-2.3,1.7c-5.4,0.2-10.9,0.4-16.3,0.6c-4,0.1-7.9,0.2-11.9,0.4
			c-3.7,0.1-7.4,0.4-11.1,0.5c-2.5,0.1-5.1,0-7.6,0.1c-4.9,0.2-9.8,0.4-14.7,0.7c-4.3,0.2-8.7,0.4-13,0.7c-4.8,0.4-9.6,0.9-14.5,1.4
			c-3.2,0.3-6.3,0.7-9.5,1c-0.5,0.1-1,0.1-1.5,0c-2-0.5-3.9-0.2-5.9-0.2c-0.4,0-0.9,0-1.3,0c-1.7-0.1-1.8-0.2-2-1.9
			c-0.1-0.2-0.1-0.4-0.2-0.6c-1.7,0.1-3.5,0.2-5.3,0.4c-3.2,0.2-6.4,0.4-9.6,0.6c-1,0.1-2,0.1-3,0.1c-0.6-0.1-1.1-0.2-1.7-0.3
			c0.3-0.4,0.5-0.8,0.7-1.2c0.4-1.2,0.4-1.2,1.6-1.3c2.3-0.1,4.6-0.3,6.9-0.4c0.5,0,1,0,1.5,0.1c3.1,0.4,6.1,0.3,9.2-0.2
			c2.5-0.3,5.1-0.3,7.6-0.5c2.6-0.2,5.3-0.5,7.9-0.7c1.8-0.1,3.6-0.2,5.4-0.3c1.2-0.1,2.4-0.2,3.6-0.3c1.3-0.1,2.5-0.2,3.8-0.3
			c1,0,2-0.4,2.8-0.9c0.5-0.3,1-0.4,1.6-0.4c3.3-0.1,6.5-0.1,9.8-0.2c7.7-0.2,15.3-0.4,23-0.7c5.8-0.2,11.6-0.6,17.5-1
			c4.7-0.3,9.3-0.7,14-1c1,0,2.1,0,3.1-0.1c1.7-0.2,3.4,0.3,4.7,1.4c1,0.8,2.3,1.2,3.6,1.2C423.3,1557.7,424.5,1558.3,425.3,1559.3z
			 M297,1563.7l-0.1-0.2l-0.9,0.2v0.2L297,1563.7z"/>
	</g>
</g>
</svg>
