<?xml version="1.0" encoding="utf-8"?>
<!-- Generator: Adobe Illustrator 23.0.4, SVG Export Plug-In . SVG Version: 6.00 Build 0)  -->
<svg version="1.1" id="Layer_1" xmlns="http://www.w3.org/2000/svg" xmlns:xlink="http://www.w3.org/1999/xlink" x="0px" y="0px"
	 viewBox="0 0 315 190" style="enable-background:new 0 0 315 190;" xml:space="preserve">
<style type="text/css">
	.st0{enable-background:new    ;}
	.st1{fill:#FFFFFF;}
</style>
<g id="ch3-text-2-3billion" transform="translate(-636 -1397)">
	<g class="st0">
		<path class="st1" d="M663.7,1455.2h8.8c4.5,0,7.8-1.1,9.9-3.4c2.1-2.2,3.2-5.2,3.2-8.8c0-1.7-0.2-3.2-0.7-4.6s-1.2-2.6-2.2-3.6
			s-2.2-1.8-3.7-2.3s-3.3-0.8-5.2-0.8c-1.6,0-3.2,0.2-4.6,0.7c-1.4,0.5-2.7,1.1-3.8,2s-1.9,1.9-2.5,3.2c-0.6,1.3-0.9,2.7-0.9,4.2
			h-16.3c0-3.5,0.7-6.6,2.1-9.5c1.4-2.9,3.4-5.3,5.9-7.4s5.4-3.6,8.8-4.8c3.4-1.1,7-1.7,10.9-1.7c4.2,0,8.1,0.5,11.6,1.6
			c3.5,1,6.5,2.6,9,4.6c2.5,2.1,4.4,4.6,5.8,7.6c1.4,3,2.1,6.5,2.1,10.5c0,1.8-0.3,3.6-0.8,5.4s-1.3,3.5-2.4,5.1
			c-1.1,1.6-2.4,3.1-3.9,4.4c-1.6,1.3-3.4,2.5-5.4,3.5c2.4,0.9,4.4,2,6.2,3.3c1.7,1.3,3.2,2.8,4.3,4.5s2,3.6,2.5,5.6
			s0.8,4.2,0.8,6.4c0,4-0.8,7.5-2.3,10.7c-1.5,3.1-3.6,5.8-6.3,7.9s-5.8,3.8-9.5,4.9s-7.6,1.7-11.8,1.7c-3.6,0-7.2-0.5-10.6-1.5
			s-6.5-2.5-9.2-4.5s-4.9-4.5-6.5-7.6c-1.6-3-2.4-6.6-2.4-10.8h16.3c0,1.6,0.3,3.2,0.9,4.5c0.6,1.4,1.5,2.6,2.7,3.6s2.5,1.8,4.1,2.3
			c1.6,0.6,3.3,0.8,5.2,0.8c4.1,0,7.4-1.1,9.7-3.3c2.3-2.2,3.5-5.2,3.5-8.9c0-2.3-0.3-4.3-1-5.9s-1.6-3-2.9-4
			c-1.3-1.1-2.8-1.8-4.6-2.3s-3.8-0.8-6-0.8h-8.8L663.7,1455.2L663.7,1455.2z"/>
		<path class="st1" d="M723.7,1495.6c0-1.5,0.3-2.9,0.8-4.2c0.5-1.3,1.2-2.4,2.2-3.4s2.2-1.7,3.6-2.3c1.4-0.6,3-0.8,4.7-0.8
			s3.3,0.3,4.7,0.8c1.4,0.6,2.6,1.3,3.5,2.3c1,1,1.7,2.1,2.2,3.4s0.8,2.7,0.8,4.2s-0.3,2.9-0.8,4.2s-1.3,2.4-2.2,3.4
			c-1,1-2.1,1.7-3.5,2.3s-3,0.8-4.7,0.8s-3.3-0.3-4.7-0.8s-2.6-1.3-3.6-2.3s-1.7-2.1-2.2-3.4C724,1498.4,723.7,1497.1,723.7,1495.6z
			"/>
		<path class="st1" d="M820.8,1442.4c0,4.1-1,7.8-3.1,11s-5,5.8-8.6,7.7c4.1,2,7.4,4.7,9.9,8.2c2.4,3.5,3.7,7.6,3.7,12.4
			c0,4-0.7,7.6-2.2,10.6s-3.5,5.6-6,7.6c-2.6,2.1-5.6,3.6-9.1,4.7s-7.2,1.6-11.2,1.6c-4.1,0-7.8-0.5-11.3-1.6s-6.5-2.6-9.1-4.7
			s-4.6-4.6-6.1-7.6s-2.2-6.6-2.2-10.6c0-2.3,0.3-4.6,1-6.7c0.6-2.1,1.6-4,2.7-5.7c1.2-1.7,2.6-3.3,4.2-4.7c1.7-1.4,3.5-2.6,5.6-3.5
			c-3.6-1.9-6.5-4.4-8.6-7.6s-3.1-6.9-3.1-11c0-3.9,0.7-7.3,2-10.2c1.3-2.9,3.2-5.4,5.5-7.5c2.4-2,5.2-3.6,8.4-4.6
			c3.3-1,6.8-1.6,10.7-1.6s7.4,0.5,10.7,1.6c3.3,1,6.1,2.6,8.5,4.6s4.3,4.5,5.6,7.5C820.2,1435.1,820.8,1438.5,820.8,1442.4z
			 M806.3,1480.6c0-2-0.3-3.7-0.9-5.3c-0.6-1.6-1.4-2.9-2.5-4s-2.4-2-3.9-2.5c-1.5-0.6-3.2-0.9-5.1-0.9s-3.6,0.3-5.1,0.9
			s-2.8,1.4-3.8,2.5s-1.9,2.5-2.5,4c-0.6,1.6-0.9,3.3-0.9,5.3c0,3.9,1.1,7,3.3,9.2s5.2,3.3,9,3.3c1.8,0,3.4-0.3,4.9-0.8
			c1.5-0.6,2.8-1.4,3.8-2.5c1.1-1.1,1.9-2.4,2.5-4C806,1484.3,806.3,1482.5,806.3,1480.6z M804.6,1443.1c0-1.7-0.3-3.3-0.8-4.7
			c-0.5-1.4-1.2-2.6-2.1-3.6c-0.9-1-2-1.8-3.3-2.3s-2.8-0.8-4.4-0.8c-3.3,0-5.9,1-7.7,3s-2.7,4.8-2.7,8.4c0,1.7,0.2,3.3,0.7,4.7
			c0.5,1.4,1.2,2.6,2.1,3.7c0.9,1,2,1.8,3.3,2.4s2.8,0.8,4.4,0.8s3.1-0.3,4.4-0.8c1.3-0.6,2.4-1.4,3.3-2.4c0.9-1,1.6-2.2,2.1-3.7
			C804.4,1446.4,804.6,1444.8,804.6,1443.1z"/>
		<path class="st1" d="M882.8,1472.5c0,5.5-0.6,10.4-1.9,14.6c-1.3,4.2-3.1,7.7-5.5,10.5s-5.3,5-8.7,6.4s-7.3,2.2-11.6,2.2
			s-8.1-0.7-11.5-2.2c-3.4-1.4-6.4-3.6-8.8-6.4c-2.4-2.8-4.3-6.3-5.6-10.5s-2-9.1-2-14.6v-20.4c0-5.5,0.6-10.4,1.9-14.6
			c1.3-4.2,3.1-7.7,5.5-10.5s5.3-5,8.7-6.4s7.3-2.2,11.5-2.2c4.3,0,8.2,0.7,11.6,2.2c3.4,1.4,6.4,3.6,8.8,6.4
			c2.4,2.8,4.2,6.3,5.5,10.5s1.9,9.1,1.9,14.6v20.4H882.8z M843.7,1465.5l22.7-16.9c-0.1-5.7-1.1-10-3-12.8s-4.7-4.2-8.4-4.2
			c-3.8,0-6.6,1.5-8.5,4.4s-2.8,7.4-2.8,13.5V1465.5z M866.4,1459.6l-22.7,16.9c0.2,5.6,1.2,9.8,3.1,12.5c1.9,2.7,4.6,4.1,8.3,4.1
			c3.8,0,6.7-1.5,8.5-4.5c1.9-3,2.8-7.5,2.8-13.7L866.4,1459.6L866.4,1459.6z"/>
		<path class="st1" d="M942.9,1472.5c0,5.5-0.6,10.4-1.9,14.6c-1.3,4.2-3.1,7.7-5.5,10.5s-5.3,5-8.7,6.4s-7.3,2.2-11.6,2.2
			s-8.1-0.7-11.5-2.2c-3.4-1.4-6.4-3.6-8.8-6.4c-2.4-2.8-4.3-6.3-5.6-10.5s-2-9.1-2-14.6v-20.4c0-5.5,0.6-10.4,1.9-14.6
			c1.3-4.2,3.1-7.7,5.5-10.5s5.3-5,8.7-6.4s7.3-2.2,11.5-2.2c4.3,0,8.2,0.7,11.6,2.2c3.4,1.4,6.4,3.6,8.8,6.4
			c2.4,2.8,4.2,6.3,5.5,10.5s1.9,9.1,1.9,14.6v20.4H942.9z M903.7,1465.5l22.7-16.9c-0.1-5.7-1.1-10-3-12.8s-4.7-4.2-8.4-4.2
			c-3.8,0-6.6,1.5-8.5,4.4s-2.8,7.4-2.8,13.5V1465.5z M926.4,1459.6l-22.7,16.9c0.2,5.6,1.2,9.8,3.1,12.5c1.9,2.7,4.6,4.1,8.3,4.1
			c3.8,0,6.7-1.5,8.5-4.5c1.9-3,2.8-7.5,2.8-13.7L926.4,1459.6L926.4,1459.6z"/>
	</g>
	<g class="st0">
		<path class="st1" d="M722.2,1531l0.1,2.2c0.3-0.8,0.8-1.4,1.4-1.8c0.6-0.4,1.3-0.7,2.2-0.7c1.4,0,2.4,0.6,2.8,1.9
			c0.4-0.6,0.8-1.1,1.4-1.4c0.5-0.3,1.2-0.5,2-0.5c0.5,0,1,0.1,1.5,0.3c0.5,0.2,0.9,0.5,1.2,1c0.3,0.4,0.6,1,0.8,1.7
			s0.3,1.5,0.3,2.5v12.8h-4.2v-12.8c0-0.3,0-0.6-0.1-0.8c-0.1-0.2-0.2-0.4-0.3-0.5s-0.3-0.2-0.4-0.3c-0.2,0-0.3-0.1-0.5-0.1
			c-0.3,0-0.6,0.1-0.8,0.2s-0.4,0.4-0.5,0.6v13.7H725v-12.8c0-0.3,0-0.6-0.1-0.8s-0.2-0.4-0.3-0.5s-0.3-0.2-0.4-0.3
			c-0.2,0-0.3-0.1-0.5-0.1c-0.4,0-0.6,0.1-0.9,0.3s-0.4,0.5-0.5,0.8v13.4h-4.2v-18L722.2,1531L722.2,1531z"/>
		<path class="st1" d="M740,1531h9.8v14.2h4.9v3.8H740v-3.8h5.1v-10.4H740V1531z M744.7,1526.4c0-0.4,0.1-0.7,0.2-1
			c0.1-0.3,0.3-0.6,0.5-0.8c0.2-0.2,0.5-0.4,0.8-0.5s0.7-0.2,1.1-0.2c0.8,0,1.5,0.2,2,0.7s0.7,1,0.7,1.8s-0.2,1.3-0.7,1.8
			s-1.1,0.7-2,0.7c-0.4,0-0.8-0.1-1.1-0.2s-0.6-0.3-0.8-0.5s-0.4-0.5-0.5-0.8C744.8,1527.1,744.7,1526.8,744.7,1526.4z"/>
		<path class="st1" d="M759.1,1523.5h10v21.7h5.1v3.8H759v-3.8h5.4v-18H759v-3.7H759.1z"/>
		<path class="st1" d="M778.5,1523.5h10v21.7h5.1v3.8h-15.2v-3.8h5.4v-18h-5.4v-3.7H778.5z"/>
		<path class="st1" d="M796.2,1539.9c0-1.3,0.2-2.5,0.6-3.6c0.4-1.1,0.9-2.1,1.7-2.9c0.7-0.8,1.6-1.5,2.7-1.9c1-0.5,2.2-0.7,3.6-0.7
			s2.6,0.2,3.6,0.7s1.9,1.1,2.7,1.9c0.7,0.8,1.3,1.8,1.7,2.9s0.6,2.3,0.6,3.6v0.3c0,1.3-0.2,2.5-0.6,3.6c-0.4,1.1-0.9,2.1-1.6,2.9
			s-1.6,1.5-2.7,1.9c-1.1,0.5-2.2,0.7-3.6,0.7c-1.4,0-2.6-0.2-3.6-0.7c-1.1-0.5-1.9-1.1-2.7-1.9c-0.7-0.8-1.3-1.8-1.7-2.9
			s-0.6-2.3-0.6-3.6v-0.3H796.2z M800.9,1540.2c0,0.8,0.1,1.5,0.2,2.1c0.1,0.7,0.4,1.2,0.7,1.7s0.7,0.9,1.2,1.2
			c0.5,0.3,1.1,0.4,1.8,0.4s1.3-0.1,1.7-0.4s0.9-0.7,1.2-1.2s0.5-1.1,0.7-1.7c0.1-0.7,0.2-1.4,0.2-2.1v-0.3c0-0.7-0.1-1.4-0.2-2.1
			s-0.4-1.2-0.7-1.7s-0.7-0.9-1.2-1.2s-1.1-0.4-1.8-0.4s-1.3,0.1-1.8,0.4s-0.9,0.7-1.2,1.2s-0.5,1.1-0.7,1.7s-0.2,1.3-0.2,2.1
			L800.9,1540.2L800.9,1540.2z"/>
		<path class="st1" d="M820.4,1531l0.3,2.5c0.6-0.9,1.4-1.6,2.3-2.1c0.9-0.5,1.9-0.7,3.1-0.7c0.9,0,1.7,0.1,2.5,0.4s1.4,0.7,2,1.3
			c0.5,0.6,1,1.3,1.3,2.2c0.3,0.9,0.5,2,0.5,3.3v11.1h-4.6v-11c0-0.7-0.1-1.3-0.2-1.8c-0.2-0.5-0.4-0.8-0.7-1.1s-0.7-0.5-1.1-0.6
			c-0.4-0.1-0.9-0.2-1.4-0.2c-0.8,0-1.5,0.2-2,0.5c-0.6,0.3-1,0.8-1.3,1.3v12.8h-4.6v-18L820.4,1531L820.4,1531z"/>
		<path class="st1" d="M844.4,1549.3c-1.4,0-2.6-0.2-3.8-0.7s-2.1-1.1-2.9-1.9c-0.8-0.8-1.4-1.7-1.9-2.8c-0.4-1.1-0.7-2.2-0.7-3.4
			v-0.7c0-1.4,0.2-2.6,0.6-3.8c0.4-1.1,1-2.1,1.8-2.9s1.7-1.5,2.8-1.9s2.2-0.7,3.5-0.7s2.4,0.2,3.5,0.6c1,0.4,1.9,1,2.6,1.8
			c0.7,0.8,1.2,1.7,1.6,2.8c0.4,1.1,0.5,2.3,0.5,3.6v2h-12.2c0.1,0.6,0.3,1.2,0.5,1.7c0.3,0.5,0.6,0.9,1,1.3s0.9,0.6,1.4,0.8
			s1.1,0.3,1.8,0.3c0.5,0,0.9,0,1.4-0.1c0.4-0.1,0.9-0.2,1.3-0.4c0.4-0.2,0.8-0.4,1.1-0.6s0.7-0.6,0.9-0.9l2.3,2.5
			c-0.3,0.4-0.7,0.8-1.1,1.2c-0.5,0.4-1,0.7-1.6,1s-1.3,0.6-2.1,0.7S845.2,1549.3,844.4,1549.3z M843.8,1534.4c-0.5,0-1,0.1-1.4,0.3
			c-0.4,0.2-0.8,0.4-1.1,0.8c-0.3,0.3-0.6,0.8-0.8,1.2s-0.4,1-0.5,1.6h7.6v-0.4c0-0.5-0.1-0.9-0.3-1.4s-0.4-0.8-0.7-1.1
			c-0.3-0.3-0.7-0.6-1.1-0.7C844.9,1534.5,844.4,1534.4,843.8,1534.4z"/>
		<path class="st1" d="M866.6,1544.1c0-0.3-0.1-0.5-0.2-0.7c-0.1-0.2-0.4-0.4-0.7-0.6s-0.8-0.4-1.3-0.5s-1.2-0.3-2.1-0.5
			c-1.1-0.2-2-0.5-2.9-0.8s-1.6-0.7-2.2-1.1c-0.6-0.4-1.1-1-1.5-1.6c-0.3-0.6-0.5-1.3-0.5-2s0.2-1.5,0.5-2.1s0.9-1.3,1.5-1.8
			s1.5-0.9,2.4-1.2s2-0.4,3.2-0.4c1.3,0,2.4,0.1,3.4,0.4s1.8,0.7,2.5,1.2s1.2,1.1,1.6,1.8s0.5,1.5,0.5,2.3h-4.6
			c0-0.7-0.3-1.3-0.8-1.8c-0.6-0.5-1.4-0.7-2.6-0.7c-1.1,0-1.9,0.2-2.4,0.6s-0.8,0.9-0.8,1.4c0,0.3,0.1,0.5,0.2,0.7
			c0.1,0.2,0.3,0.4,0.6,0.6s0.7,0.3,1.2,0.5c0.5,0.1,1.1,0.3,1.9,0.4c1.1,0.2,2.1,0.4,3,0.7s1.7,0.6,2.4,1.1c0.7,0.4,1.2,1,1.6,1.6
			c0.4,0.6,0.6,1.4,0.6,2.2c0,0.8-0.2,1.5-0.6,2.2c-0.4,0.7-0.9,1.2-1.6,1.7c-0.7,0.5-1.6,0.9-2.5,1.1c-1,0.3-2.1,0.4-3.3,0.4
			c-1.4,0-2.5-0.2-3.6-0.5c-1-0.4-1.9-0.8-2.6-1.4c-0.7-0.6-1.2-1.2-1.6-1.9c-0.4-0.7-0.5-1.5-0.5-2.2h4.4c0,0.5,0.2,0.9,0.4,1.3
			c0.2,0.3,0.5,0.6,0.9,0.8c0.4,0.2,0.8,0.4,1.3,0.5s1,0.1,1.5,0.1c1.1,0,2-0.2,2.6-0.5S866.6,1544.6,866.6,1544.1z"/>
	</g>
	<g id="Group_99" transform="translate(625.452 1488.974)">
		<g id="Path_17">
			<path class="st1" d="M246,73.5c-1.6-0.1-3.2-0.1-4.4-1.6c-0.5-0.6-1.8-0.5-2.7-0.7c-0.3-0.1-0.7,0.2-1,0.1
				c-2.4-0.1-4.8-0.2-7.3-0.4c-2.3-0.1-4.5-0.3-6.9-0.4l-0.5,0.9c-2.1-1.1-4.2-1.6-6.4-0.6c-0.7,0.3-1.4,0.4-2.1,0.3
				c-2-0.3-3.9-0.6-5.9-1c-1.5-0.3-3.1-0.2-4.5,0.4c-0.8,0.5-1.8,0.4-2.6-0.1c-0.8-0.3-1.6-0.4-2.5-0.4c-0.3,0-0.7,0.2-1.1,0.2
				c-3.2,0-6.4-0.1-9.6,0c-2.2,0-4.4,0.3-6.6,0.4c-5.4,0.1-10.8,0.1-16.2,0.3c-6,0.2-12,0.4-18,0.7c-3.5,0.2-7,0.5-10.4,0.7
				c-3.3,0.2-6.7,0.3-10,0.5c-4.4,0.2-8.9,0.6-13.3,0.8c-4.7,0.2-9.3,0.1-14,0.2c-1.6-0.1-3.1,0-4.6,0.3c-1.8,0.4-3.7,0.5-5.5,0.1
				c-2.9-0.4-5.9-0.8-8.8-1.1c-1.8-0.2-1.9-0.1-2.3,2.3c1.6,0.3,3.2,0.7,4.9,0.8c2.9,0.3,5.9,0.5,8.8,0.8c1.3,0.1,2.6,0.5,4,0.5
				c5.5,0,11-0.1,16.5-0.1c5.4,0,10.8,0.1,16.2,0c9.8-0.1,19.6-0.2,29.4-0.4c1.1-0.2,2.2-0.4,3.2-0.7c1.4-0.2,2.8-1.1,4.3-0.7
				c1.2,0.2,2.5,0.2,3.8,0.1c4.3-0.1,8.6-0.5,12.9-0.4c6.7,0,13.4-0.2,20.1,0c4.2,0.1,8.5-0.3,12.7,0.4c1.8,0.3,3.5,0,5.4,0.2
				c2.2,0.3,4.4,0,6.6,0.6c1,0.2,2.1,0.2,3.1,0.1s2,0,3,0.2c0.9,0.3,1.7-1.3,2.5,0l4.1-1.2c0.5,0.7,0.9,1.3,1.3,2
				c0.4-0.5,0.7-0.8,1.1-1.2c1,0.7,2.1,1.2,2.6-0.6c0.1-0.3,0.7-0.5,1.1-0.5c0.9-0.1,1.8,0,2.8,0c-0.2-0.5-0.4-1.2-0.7-1.8
				C247.5,73.8,246.7,73.6,246,73.5z"/>
		</g>
		<g id="Path_18">
			<path class="st1" d="M256.4,74c-1,0-2,0-3,0.2c-1.1,0.2-1.9-0.7-2.9-0.5c-0.1,0.1-0.3,0.1-0.4,0.3c-0.1,0.9,0.3,1.5,1.1,1.5
				c1.2,0.1,2.5,1.2,3.7,0c0.4-0.4,1.5-1,1.6-0.9c1,1,2.2,0.2,3.3,0.5C258.9,74.2,257.6,73.8,256.4,74z"/>
		</g>
		<g id="Path_19">
			<path class="st1" d="M263.1,76.6v-2.2C261.9,74.8,261.9,74.8,263.1,76.6z"/>
		</g>
		<g id="Path_20">
			<path class="st1" d="M273.5,75.3h-1.6v0.1L273.5,75.3L273.5,75.3z"/>
		</g>
	</g>
</g>
</svg>
