<?xml version="1.0" encoding="utf-8"?>
<!-- Generator: Adobe Illustrator 23.0.4, SVG Export Plug-In . SVG Version: 6.00 Build 0)  -->
<svg version="1.1" id="Layer_1" xmlns="http://www.w3.org/2000/svg" xmlns:xlink="http://www.w3.org/1999/xlink" x="0px" y="0px"
	 viewBox="0 0 418.6 123.4" style="enable-background:new 0 0 418.6 123.4;" xml:space="preserve">
<style type="text/css">
	.st0{fill:#3B3B3B;}
</style>
<g>
	<g id="Layer_1-2">
		<path class="st0" d="M375,58.3L375,58.3L375,58.3z"/>
		<path class="st0" d="M382.2,63.8c-1-2.2-2.4-4.3-4.1-7.2c-0.7,3.3-2,1.6-3,1.6c-0.4,1.5-0.8,3-1.2,4.8l-1.8-1.5l-1.5,2.5l-3.1-1.2
			c2,2.8,6.4,3.5,5.7,8.1c-5,2.7-10.3,4.9-15.7,6.7c-9.9,3-19.9,5.8-29.6,8.8c-9.7,2.8-19.6,4.6-29.7,5.2c-13,1-25.9,1.6-38.9,2.2
			c-12.1,0.5-24.3,1.1-36.3,0.9c-10-0.2-19.9-0.3-29.9-0.4c-6.8,0-13.5,0-20.3-0.3c-10.2-0.4-20.4-0.9-30.6-1.7
			c-7.3-0.6-14.5-1.5-21.7-2.6s-14.6-2.6-21.9-3.8C91.7,85,85,83.2,78.7,80.5c-1.5-0.7-3.2-1.1-4.8-1.8c-2.1-0.9-3.5-0.6-4.3,2
			c-7.8-3.5-15.3-7.5-22.5-12.2c-4.3-3-8.1-6.7-11-11c-2.6-3.6-1.8-7.3,2.4-9.1c1.7-0.7,3.4-1.7,5.4-2.7l-3.6-0.2
			C42,43,42,43,44.5,43.7c3.1,1.2,6.7,0,8.4-3l2.7,0.6l0.5-2.2l4.1,0.2c0.1-1.4,0.2-2.4,0.4-3.7c2.4,1.9,5.6,2.3,8.3,1
			c3.7-1.2,7.2-2.9,11.2-2.9c0.9,0,1.9-1.1,2.8-1.6L80.3,28l-6,2.2h-2.4v0.5l2.6,1.1c-1,0.6-1.6,1.3-2,1.1c-1-0.5-2.1-1.1-3-1.8
			c-26.2,7.7-40,14.8-44.5,20.2l2.9-1.2c0.5,1.3,0.5,2.7,1.3,3.4c2.4,2.4,4.1,5.5,4.8,8.8c0.3,0.9,0.9,2.2,1.7,2.5
			c2.6,1.2,4.8,3.2,6.3,5.7c0.6,0.8,1.3,1.4,2.2,1.8c3.1,1.5,5.5,4.5,9.3,4.5c0.3,0,0.6,0.3,0.9,0.5c5.6,3.9,11.6,7.2,18,9.7
			c1.3,0.6,3,2,3.8,1.6c2.8-1.4,4.4,1,6.6,1.6c2.7,0.8,5.2,2.6,8.1,2c1.1-0.3,2.2,0.2,2.8,1.1c0.7,0.8,1.6,1.3,2.7,1.5
			c2.7,0.3,5.4,1,7.9,2.2c0.6,0.2,1.2,0.3,1.8,0.4c1.5,0.2,3.1-1.3,4.4,0.4c0.2,0.3,1.8-0.5,2.2-0.2c1.8,1.6,3.9,1.3,6,1.5
			c0.6,0,1.5,0.2,1.8,0.6c1.2,1.6,2.7,1.3,4.2,1c2.3-0.7,4.7-0.5,6.8,0.7c0.6,0.3,1.6,0.9,1.8,0.7c1.3-1.3,2.6-0.2,3.8,0
			c4.1,0.2,7.9,3.1,12.2,1.1c0.3-0.1,0.9,0.4,1.3,0.5c2.2,0.6,4.6,1.2,7,1.7c2,0,3.9,0.2,5.9,0.6c2.2,0.7,4.5,1,6.8,0.6
			c2.5-0.4,5.1,0.2,7.2,1.8c1.3-1.7,3-1.2,4.9-0.8c1.8,0.4,3.6,0.6,5.4,0.6c5.2,0,10.4-0.3,15.6-0.2c2.2,0,4.8,1.2,6.6,0.5
			c1.5-0.5,3,0.4,4.4-0.8c0.9-0.8,3.1,0.2,4.7,0s3.8-0.7,6.1-1.1c0.8,1.1,2.4,1.3,3.5,0.4c0.1-0.1,0.2-0.1,0.2-0.2
			c0.6-0.5,1.6-0.4,2.5-0.4c3.1,0,6.3-0.1,9.4-0.2l0,0c1.8-0.7,3.6-1.3,5.5-1.7c3.3-0.3,6.6-0.1,10-0.4c1.3-0.2,2.5-0.6,3.7-1.2
			c1.3,0.2,2.7,0.3,4.1,0.3c2.1-0.1,4.2-0.6,6.2-1.4c2.2-0.9,4.4,0,6.4-0.7c1.8-0.5,3.7-0.7,5.6-0.5c2.2,0.2,3.2-2,5.1-2.2
			c0.3,0,0.7,0.4,1,0.4c0.8,0.2,1.6,0.1,2.4-0.2c2-1.3,4.7,0,6.5-1.8c2.8,1.5,5.4-0.4,8-0.6c2.2-0.2,4.9,0,6.9-1.9
			c0.6-0.3,1.4-0.4,2.1-0.1c3.7,1,6.9-1.9,10.5-1.2c0.2,0,0.5-0.2,0.5-0.4c0.4-1.1,1.2-0.9,2.1-0.7c1,0.2,2.1,0.2,3.1-0.1
			c4.4-1.6,8.9-2.7,13.6-3.2c1.9-0.2,3.6-2,5.7-0.7c0.2,0.1,0.8-0.2,0.9-0.4c0.3-1.3,1.4-1.3,2.2-1.4c2.3-0.3,4.6-0.9,6.7-1.8
			c1-0.4,1.9-1.4,3-1.5c3.8-0.5,7.5-2,10.6-4.3c3.4-2.5,7-5,7.7-9.8c0-0.4,0.2-1.1,0.5-1.2C383.1,66.6,382.7,65,382.2,63.8z
			 M74.4,30.2h3.1v0.7L74.4,30.2z M48.2,41.4c0.3,0.2,0.6,0.4,0.9,0.6c-0.5,0.2-0.8,0.6-1,0.5c-0.2,0-0.4-0.5-0.4-0.8
			C47.6,41.5,48,41.4,48.2,41.4z M118.4,95.2c-0.2-0.3-0.3-0.5-0.4-0.8c0,0,0.4-0.4,0.5-0.4c0.3,0.1,0.7,0.3,0.9,0.6L118.4,95.2z
			 M242.4,102.9l-1.4,3.2c-0.2-0.9-0.3-1.9-0.4-2.8c-13.5,0.6-26.7,1.7-39.7,1.5c-13.1-0.2-26.1-1.8-39.2-2.8
			c-15-1.2-36-4.7-39.2-6.7c2.8,0.2,5.3-0.9,7.6,0.9c0,0,0.2,0,0.4,0c6.8,0.3,13.7,0.5,20.5,0.8c3.9,0.2,7.9,0.7,11.8,1.1
			c0.1,0,0.3,0.1,0.4,0c2.6-1.8,5.2-0.4,7.8-0.2c2.8,0.2,5.6,0.2,8.4,0c2.6-0.2,5.2,1.5,7.8-0.2c2.6,1.3,5.3,0.2,7.9,0.2
			c0.5-0.1,1,0,1.4,0.1c1.5,1.2,3.6,1,4.9-0.3c3.6,0.3,6.6,0.7,9.5,0.9c1.7-0.1,3.3,0,4.9,0.3c1.2,0.4,2.9-0.7,4.6-1.2l1.4,1.6
			c0.4-0.8,0.8-1.5,1.3-2.2c3.1,1,6.4,1.4,9.7,0.9c3.2,0,6.4,1.7,9.8-0.4c1,2.2,3.2,1.5,4.9,1.5c3.9,0,7.9-0.6,11.8-0.8
			c1.5,0,3.4,0.7,4.6,0c1.8-0.9,3.2,0,4.8,0c0.4,0,0.8,0.4,1.2,1.3L242.4,102.9z"/>
		<path class="st0" d="M336.5,39.6L336.5,39.6L336.5,39.6L336.5,39.6c3-1.2,5.5,0.2,7.9,1.6c2.4,1.3,4.7,1.6,7,3
			c2.9,1.8,6.8,1.7,9.1,4.9c0.8,0.9,1.8,1.6,2.8,2.2l1.3-2.7l-2.5-1.1c-3.9-1.9-7.7-4-11.8-5.5c-6.2-2.2-12.7-4.3-19-6.3
			c0.6,0.6,1.2,1.1,1.9,1.7C334.3,38,335.3,38.7,336.5,39.6z"/>
		<path class="st0" d="M331.3,35.5l-0.2-0.1l0,0L331.3,35.5z"/>
		<path class="st0" d="M157.4,28.2c1-0.2,2.1-0.4,3.2-0.4c6.6,1,13.2,1.4,19.9,1.3c0.3,0,0.7-0.3,1-0.4c-9.2-0.3-18.2-2.2-27.2-1.4
			v1C155.2,28.2,156.3,28.3,157.4,28.2z"/>
		<path class="st0" d="M180,17.1c-7.7-0.8-23.6,0-25.7,1.3C162.9,18.6,171.5,18.2,180,17.1z"/>
		<path class="st0" d="M288,25.7L288,25.7L288,25.7z"/>
		<path class="st0" d="M291,27.1c3,0.8,6.3,0.7,8.4,3.6c3.9-0.8,7.9-0.4,11.5,1c1.2,0.7,2.2,1.1,3.1-0.6c-1.7-0.4-3.3-0.9-4.9-1.2
			c-7-1.4-14.1-2.8-21.2-4.2C288.6,27.3,289.9,26.8,291,27.1z"/>
		<path class="st0" d="M23.9,57.6c-1.3,4.6-1,5.4,2.9,7c0.6,0.4,1.2,0.8,1.7,1.2c0.8,0.4,1.6,0.8,2.4,1.2l0.5-0.6
			c-1.3-1.5-2.6-3-4-4.5C26.1,60.5,26.6,57.9,23.9,57.6z"/>
		<path class="st0" d="M251.8,21.7l20.7,2.8C270.1,22.9,256.9,20.9,251.8,21.7z"/>
		<path class="st0" d="M375,58.3L375,58.3L375,58.3z"/>
		<path class="st0" d="M372.9,54.4c-1-1.7-2.4-1.6-4.4-1.6c1.1,2,0.5,4.6,3.1,5.5l1-1.6l2.4,1.5l0.8-2.7
			C374.7,55.1,373.3,55,372.9,54.4z"/>
		<path class="st0" d="M184.8,29.1c2,0.2,3.9,0.5,5.9,0.6c2,0.1,4.1,0.2,6.1,0.3c2.1,0.1,3.8,1.3,6.4-0.4l-18.3-1.3L184.8,29.1z"/>
		<path class="st0" d="M101.8,24.3c-5.9,0.3-11.7,1.3-17.3,2.9l0.2,0.7L101.8,24.3z"/>
		<path class="st0" d="M287.1,41.8c-4.7-1.9-9.8-2.8-14.8-2.6C277.1,40.5,282.1,41.4,287.1,41.8z"/>
		<path class="st0" d="M231.4,19l-16.1-1.2v0.7l16.2,1.3L231.4,19z"/>
		<path class="st0" d="M321.1,48.3v-0.2h-0.2l0.1,0.2H321.1z"/>
		<path class="st0" d="M321.2,48.9c1.2-0.1,2.5,0,3.7,0.2c2.1,0.9,4.5,1,6.6,0.2c-3.5-0.6-6.8-2.2-10.5-0.9c0,0.1,0,0.2,0,0.2
			C321.1,48.7,321.2,48.9,321.2,48.9z"/>
		<path class="st0" d="M224.4,32.3l-11.9-1.4v0.9l12,1.2L224.4,32.3z"/>
		<path class="st0" d="M122,21.2L122,21.2L122,21.2h-0.4H122z"/>
		<path class="st0" d="M134.8,19.1l-12.4,1.5c-0.1,0-0.2,0.3-0.3,0.5L135,20L134.8,19.1z"/>
		<path class="st0" d="M138.5,27.7h12v-0.6h-12.1L138.5,27.7z"/>
		<path class="st0" d="M192.1,17.8V17h-8.6C186.5,18.7,189.2,17.9,192.1,17.8z"/>
		<path class="st0" d="M288,25.7h-0.2l0,0H288z"/>
		<path class="st0" d="M287.8,25.7l-10.6-1.3C280.7,25.5,284.1,27.2,287.8,25.7z"/>
		<path class="st0" d="M145.7,18.8v-0.6l-7.5,0.9v0.7L145.7,18.8z"/>
		<path class="st0" d="M88.2,30.1l-3.9,0.4l-0.1,1c0.6,0.3,1.2,0.9,1.7,0.8C86.9,32.1,88.1,32,88.2,30.1z"/>
		<path class="st0" d="M112.7,22.7l8.8-1.4l-8.8,0.4V22.7z"/>
		<path class="st0" d="M239.5,35.1c1.5,0.8,3,0,4.4-0.4l-4.4-0.4V35.1z"/>
		<path class="st0" d="M130.8,28.3l4.2-0.6l-0.1-0.8C133.7,27.4,132.3,26.4,130.8,28.3z"/>
		<path class="st0" d="M201.1,17.8v-0.4h-5.2v0.4H201.1z"/>
		<path class="st0" d="M299.9,44.3l4.8,0.6v-0.8l-4.8-0.6V44.3z"/>
		<path class="st0" d="M241.9,19.8h-5.3v0.3l5.3,0.3L241.9,19.8z"/>
		<path class="st0" d="M364.8,60.9c0.1-1.1,0.2-1.9,0.4-3.5l-2.2,2.6L364.8,60.9z"/>
		<path class="st0" d="M118.4,28.3h5.5v-0.4h-5.6L118.4,28.3z"/>
		<path class="st0" d="M207,18.4L207,18.4l4.1-0.4C209.7,18.1,207.9,16.2,207,18.4z"/>
		<path class="st0" d="M326.8,36.1l4.1-0.8l-4.7-1C326.4,35.2,326.6,35.7,326.8,36.1z"/>
		<path class="st0" d="M331.1,35.3h-0.2H331.1L331.1,35.3z"/>
		<path class="st0" d="M312.2,46.1l3.6,1l0.1-0.6l-3.6-1C312.3,45.7,312.2,45.9,312.2,46.1z"/>
		<path class="st0" d="M105.6,23.7l3.2-0.7C106.7,22.7,106.7,22.7,105.6,23.7z"/>
		<path class="st0" d="M358.4,56l1.8,1l0.4-0.7l-1.8-1L358.4,56z"/>
		<path class="st0" d="M94.4,29.6h1.9v-0.9L94.4,29V29.6z"/>
		<path class="st0" d="M343.1,52.4l0.2-0.7l-3-0.8l-0.4,0.6L343.1,52.4z"/>
		<path class="st0" d="M368.5,50.8l-1.7-1.3l-0.5,0.9l2,0.9L368.5,50.8z"/>
		<path class="st0" d="M206.2,31.2h2.9l0.2-0.2c-0.2-0.1-0.4-0.2-0.6-0.2c-0.7,0-1.4,0-2.1,0C206.5,30.8,206.3,31,206.2,31.2z"/>
		<path class="st0" d="M364.6,53.9l1.3-1.4l-0.5-0.4l-1.2,1.4L364.6,53.9z"/>
		<path class="st0" d="M269.8,39v-0.6l-2.7-0.2v0.6L269.8,39z"/>
		<path class="st0" d="M319.4,32.4l-3.9-0.9C316.6,33.3,317.6,33.2,319.4,32.4z"/>
		<path class="st0" d="M337.1,40.9l0.2-0.3l-0.9-1l-0.8,0.5L337.1,40.9z"/>
		<path class="st0" d="M320.9,48.1c-0.5-0.9-0.6-0.9-1.9-0.5L320.9,48.1z"/>
		<path class="st0" d="M246.9,20.4h-2v0.4l2,0.2V20.4z"/>
		<path class="st0" d="M253.7,36.3l-2.4-0.9c0.8,0.7,0.9,1,1.1,1C252.9,36.4,253.3,36.4,253.7,36.3z"/>
		<path class="st0" d="M309.1,46.2l0.3-0.6l-2-0.9l-0.2,0.5L309.1,46.2z"/>
		<path class="st0" d="M350.6,54.1l1.6,0.4l0.2-0.6l-1.6-0.4L350.6,54.1z"/>
		<path class="st0" d="M207,18.4l-2.7-1v0.2L207,18.4L207,18.4z"/>
	</g>
</g>
</svg>
