<?xml version="1.0" encoding="utf-8"?>
<!-- Generator: Adobe Illustrator 23.0.4, SVG Export Plug-In . SVG Version: 6.00 Build 0)  -->
<svg version="1.1" id="Layer_1" xmlns="http://www.w3.org/2000/svg" xmlns:xlink="http://www.w3.org/1999/xlink" x="0px" y="0px"
	 viewBox="0 0 302.2 161" style="enable-background:new 0 0 302.2 161;" xml:space="preserve">
<style type="text/css">
	.st0{enable-background:new    ;}
	.st1{fill:#3B3B3B;}
</style>
<g id="ch3-text-310perday" transform="translate(-189 -2367)">
	<g class="st0">
		<path class="st1" d="M233.2,2457.4c0-1.4-0.2-2.7-0.6-3.8c-0.4-1.1-1.1-2.1-2.1-3.1c-0.9-0.9-2.2-1.8-3.7-2.5
			c-1.5-0.8-3.4-1.5-5.5-2.3c-3.5-1.2-6.6-2.5-9.4-3.9c-2.8-1.4-5.3-3-7.3-4.8c-2-1.8-3.5-3.9-4.6-6.3c-1.1-2.4-1.6-5.3-1.6-8.6
			c0-2.9,0.5-5.6,1.5-8c1-2.4,2.4-4.5,4.2-6.3c1.8-1.8,4-3.2,6.6-4.3c2.6-1.1,5.4-1.8,8.6-2.1v-11h8.2v11.1c3.1,0.4,5.8,1.2,8.3,2.5
			c2.5,1.3,4.6,2.9,6.3,4.9c1.7,2,3.1,4.4,4,7.2c0.9,2.8,1.4,5.8,1.4,9.3h-14.3c0-4.1-0.9-7.3-2.8-9.4c-1.9-2.1-4.4-3.2-7.6-3.2
			c-1.7,0-3.3,0.2-4.5,0.7c-1.3,0.5-2.3,1.1-3.2,1.9c-0.8,0.8-1.4,1.8-1.8,2.9c-0.4,1.1-0.6,2.4-0.6,3.7s0.2,2.5,0.6,3.6
			c0.4,1,1.1,2,2,2.9c0.9,0.9,2.2,1.7,3.7,2.5c1.5,0.8,3.5,1.6,5.7,2.4c3.5,1.3,6.6,2.6,9.4,4c2.8,1.4,5.2,3,7.2,4.8
			c2,1.8,3.5,3.9,4.6,6.4c1.1,2.4,1.6,5.3,1.6,8.5c0,3-0.5,5.7-1.5,8.1c-1,2.4-2.4,4.5-4.3,6.2s-4.1,3.1-6.7,4.2
			c-2.6,1-5.5,1.7-8.7,2v10h-8.2v-10c-2.9-0.3-5.7-0.9-8.5-1.9c-2.7-1-5.2-2.5-7.3-4.4c-2.1-1.9-3.8-4.3-5-7.3
			c-1.3-2.9-1.9-6.4-1.9-10.5h14.3c0,2.5,0.4,4.5,1.1,6.2c0.7,1.7,1.6,3,2.8,3.9c1.1,1,2.5,1.7,3.9,2.1c1.5,0.4,3,0.6,4.5,0.6
			c3.7,0,6.4-0.9,8.3-2.6C232.3,2462.3,233.2,2460.1,233.2,2457.4z"/>
		<path class="st1" d="M268.3,2433.4h7.7c3.9,0,6.8-1,8.7-2.9c1.9-2,2.8-4.5,2.8-7.7c0-1.5-0.2-2.8-0.6-4c-0.4-1.2-1.1-2.3-1.9-3.1
			c-0.9-0.9-1.9-1.5-3.3-2c-1.3-0.5-2.8-0.7-4.6-0.7c-1.4,0-2.8,0.2-4,0.6c-1.2,0.4-2.3,1-3.3,1.8c-0.9,0.8-1.7,1.7-2.2,2.8
			c-0.5,1.1-0.8,2.3-0.8,3.7h-14.3c0-3,0.6-5.8,1.9-8.3c1.2-2.5,3-4.6,5.2-6.4c2.2-1.8,4.8-3.2,7.7-4.2c3-1,6.1-1.5,9.6-1.5
			c3.7,0,7.1,0.5,10.2,1.4c3.1,0.9,5.7,2.3,7.9,4.1c2.2,1.8,3.9,4,5.1,6.7c1.2,2.6,1.8,5.7,1.8,9.2c0,1.6-0.2,3.2-0.7,4.7
			c-0.5,1.6-1.2,3-2.1,4.4c-0.9,1.4-2.1,2.7-3.4,3.9c-1.4,1.2-2.9,2.2-4.7,3c2.1,0.8,3.9,1.7,5.4,2.9c1.5,1.2,2.8,2.5,3.8,4
			c1,1.5,1.7,3.1,2.2,4.9c0.5,1.8,0.7,3.7,0.7,5.6c0,3.5-0.7,6.6-2,9.3c-1.3,2.7-3.2,5-5.5,6.9c-2.3,1.9-5.1,3.3-8.3,4.3
			c-3.2,1-6.6,1.5-10.3,1.5c-3.2,0-6.3-0.4-9.3-1.3c-3-0.9-5.7-2.2-8.1-3.9c-2.4-1.8-4.2-4-5.7-6.6c-1.4-2.7-2.1-5.8-2.1-9.4h14.3
			c0,1.4,0.3,2.8,0.8,4c0.5,1.2,1.3,2.3,2.3,3.1c1,0.9,2.2,1.6,3.6,2.1c1.4,0.5,2.9,0.7,4.5,0.7c3.6,0,6.5-1,8.5-2.9
			c2.1-1.9,3.1-4.5,3.1-7.8c0-2-0.3-3.7-0.9-5.2c-0.6-1.4-1.4-2.6-2.5-3.5c-1.1-0.9-2.4-1.6-4-2.1c-1.6-0.4-3.3-0.7-5.3-0.7h-7.7
			V2433.4z"/>
	</g>
	<g class="st0">
		<path class="st1" d="M326.2,2468.7c0-1.3,0.2-2.6,0.7-3.7c0.4-1.1,1.1-2.1,1.9-3c0.9-0.8,1.9-1.5,3.1-2c1.2-0.5,2.6-0.7,4.2-0.7
			s2.9,0.2,4.2,0.7c1.2,0.5,2.3,1.2,3.1,2c0.8,0.8,1.5,1.8,1.9,3c0.5,1.1,0.7,2.4,0.7,3.7c0,1.3-0.2,2.5-0.7,3.6
			c-0.5,1.1-1.1,2.1-1.9,2.9c-0.8,0.8-1.9,1.5-3.1,2s-2.6,0.7-4.2,0.7s-2.9-0.2-4.2-0.7s-2.3-1.1-3.1-2c-0.9-0.8-1.5-1.8-1.9-2.9
			C326.4,2471.3,326.2,2470,326.2,2468.7z"/>
	</g>
	<g class="st0">
		<path class="st1" d="M389.7,2477h-14.4v-57.3l-18.9,6.8v-12.4l32.5-11.7h0.8V2477z"/>
	</g>
	<g class="st0">
		<path class="st1" d="M458,2448.6c0,4.8-0.6,9.1-1.7,12.7c-1.1,3.7-2.7,6.8-4.8,9.2c-2.1,2.5-4.6,4.4-7.6,5.6
			c-3,1.3-6.4,1.9-10.2,1.9c-3.7,0-7.1-0.6-10.1-1.9s-5.6-3.1-7.7-5.6c-2.1-2.5-3.7-5.6-4.9-9.2c-1.1-3.7-1.7-7.9-1.7-12.7v-17.8
			c0-4.8,0.6-9.1,1.7-12.7c1.1-3.7,2.7-6.8,4.8-9.2c2.1-2.5,4.6-4.3,7.6-5.6c3-1.3,6.3-1.9,10.1-1.9c3.8,0,7.1,0.6,10.2,1.9
			c3,1.3,5.6,3.1,7.7,5.6c2.1,2.5,3.7,5.6,4.8,9.2c1.1,3.7,1.7,7.9,1.7,12.7V2448.6z M423.8,2442.4l19.9-14.8c-0.1-5-1-8.7-2.6-11.2
			s-4.1-3.6-7.4-3.6c-3.3,0-5.8,1.3-7.4,3.8c-1.6,2.6-2.5,6.5-2.5,11.8V2442.4z M443.7,2437.3l-19.9,14.8c0.2,4.9,1.1,8.6,2.7,10.9
			c1.6,2.4,4.1,3.6,7.3,3.6c3.3,0,5.8-1.3,7.5-3.9c1.6-2.6,2.4-6.6,2.4-11.9V2437.3z"/>
	</g>
	<g class="st0">
		<path class="st1" d="M216.5,2510.2c0,1.3-0.2,2.5-0.5,3.6c-0.3,1.1-0.8,2.1-1.3,2.9c-0.6,0.8-1.3,1.5-2.2,1.9
			c-0.9,0.5-1.9,0.7-3,0.7c-1,0-1.8-0.2-2.5-0.5s-1.4-0.8-1.9-1.4v8.5h-4.6V2501h4.3l0.2,1.8c0.6-0.7,1.2-1.2,2-1.5
			c0.8-0.4,1.6-0.5,2.6-0.5c1.1,0,2.1,0.2,3,0.7c0.9,0.4,1.6,1.1,2.2,1.9c0.6,0.8,1,1.8,1.4,2.9c0.3,1.1,0.5,2.4,0.5,3.7V2510.2z
			 M211.9,2509.8c0-0.8-0.1-1.5-0.2-2.1c-0.1-0.7-0.4-1.2-0.6-1.7c-0.3-0.5-0.7-0.9-1.1-1.1c-0.5-0.3-1-0.4-1.7-0.4
			c-0.8,0-1.5,0.2-2,0.5c-0.5,0.3-0.9,0.8-1.2,1.3v7.5c0.3,0.6,0.7,1,1.2,1.4c0.5,0.3,1.2,0.5,2,0.5c0.7,0,1.2-0.1,1.7-0.4
			c0.5-0.3,0.8-0.7,1.1-1.2c0.3-0.5,0.5-1.1,0.6-1.7c0.1-0.7,0.2-1.4,0.2-2.1V2509.8z"/>
		<path class="st1" d="M219.1,2509.9c0-1.3,0.2-2.5,0.6-3.6c0.4-1.1,0.9-2.1,1.7-2.9c0.7-0.8,1.6-1.5,2.7-1.9s2.2-0.7,3.6-0.7
			c1.4,0,2.6,0.2,3.6,0.7c1.1,0.5,1.9,1.1,2.7,1.9c0.7,0.8,1.3,1.8,1.7,2.9c0.4,1.1,0.6,2.3,0.6,3.6v0.3c0,1.3-0.2,2.5-0.6,3.6
			c-0.4,1.1-0.9,2.1-1.6,2.9c-0.7,0.8-1.6,1.5-2.7,1.9c-1.1,0.5-2.2,0.7-3.6,0.7c-1.4,0-2.6-0.2-3.6-0.7c-1.1-0.5-1.9-1.1-2.7-1.9
			c-0.7-0.8-1.3-1.8-1.7-2.9c-0.4-1.1-0.6-2.3-0.6-3.6V2509.9z M223.7,2510.2c0,0.8,0.1,1.5,0.2,2.1c0.1,0.7,0.4,1.2,0.7,1.7
			c0.3,0.5,0.7,0.9,1.2,1.2c0.5,0.3,1.1,0.4,1.8,0.4c0.7,0,1.3-0.1,1.7-0.4c0.5-0.3,0.9-0.7,1.2-1.2c0.3-0.5,0.5-1.1,0.7-1.7
			c0.1-0.7,0.2-1.4,0.2-2.1v-0.3c0-0.7-0.1-1.4-0.2-2.1c-0.1-0.7-0.4-1.2-0.7-1.7c-0.3-0.5-0.7-0.9-1.2-1.2
			c-0.5-0.3-1.1-0.4-1.8-0.4c-0.7,0-1.3,0.1-1.8,0.4c-0.5,0.3-0.9,0.7-1.2,1.2c-0.3,0.5-0.5,1.1-0.7,1.7c-0.1,0.7-0.2,1.3-0.2,2.1
			V2510.2z"/>
		<path class="st1" d="M252,2500.7c0.7,0,1.3,0,1.9,0.1c0.6,0.1,1.1,0.2,1.4,0.3l-0.7,4.6c-0.6-0.1-1.2-0.3-1.9-0.3
			c-0.6-0.1-1.2-0.1-1.8-0.1c-1.3,0-2.3,0.2-3.1,0.7c-0.8,0.5-1.4,1.2-1.8,2.1v10.8h-4.6v-18h4.3l0.2,2.9c0.7-1,1.6-1.8,2.6-2.4
			C249.7,2501,250.8,2500.7,252,2500.7z"/>
		<path class="st1" d="M277.4,2509.9c0-1.4,0.2-2.6,0.5-3.7c0.3-1.1,0.8-2.1,1.4-2.9s1.3-1.4,2.2-1.9c0.9-0.4,1.9-0.7,3-0.7
			c0.9,0,1.8,0.2,2.5,0.5c0.7,0.3,1.3,0.8,1.9,1.4v-9.1h4.6v25.5h-4.2l-0.2-1.9c-0.6,0.7-1.2,1.2-2,1.6s-1.6,0.6-2.7,0.6
			c-1.1,0-2.1-0.2-2.9-0.7c-0.9-0.5-1.6-1.1-2.2-1.9c-0.6-0.8-1.1-1.8-1.4-2.9c-0.3-1.1-0.5-2.3-0.5-3.6V2509.9z M282,2510.2
			c0,0.8,0.1,1.5,0.2,2.1c0.1,0.6,0.3,1.2,0.6,1.7c0.3,0.5,0.7,0.9,1.1,1.1s1,0.4,1.7,0.4c0.8,0,1.5-0.2,2-0.5
			c0.5-0.3,0.9-0.8,1.3-1.4v-7.3c-0.3-0.6-0.7-1.1-1.2-1.4c-0.5-0.3-1.2-0.5-2-0.5c-0.7,0-1.2,0.1-1.7,0.4c-0.5,0.3-0.8,0.7-1.1,1.2
			c-0.3,0.5-0.5,1.1-0.6,1.7c-0.1,0.7-0.2,1.4-0.2,2.1V2510.2z"/>
		<path class="st1" d="M298.2,2501h10v14.2h5.1v3.8h-15.2v-3.8h5.4v-10.4h-5.4V2501z M307.2,2494.5h5.1l-4.6,4.6H304L307.2,2494.5z"
			/>
		<path class="st1" d="M327.9,2519c-0.1-0.2-0.2-0.5-0.3-0.8s-0.1-0.6-0.2-0.9c-0.3,0.3-0.5,0.5-0.9,0.8s-0.7,0.5-1.1,0.6
			c-0.4,0.2-0.8,0.3-1.3,0.4c-0.5,0.1-1,0.2-1.6,0.2c-0.9,0-1.8-0.1-2.5-0.4c-0.8-0.3-1.4-0.6-2-1.1s-1-1-1.3-1.7
			c-0.3-0.7-0.5-1.4-0.5-2.1c0-1.9,0.7-3.4,2.1-4.4c1.4-1,3.5-1.6,6.3-1.6h2.6v-1.1c0-0.9-0.3-1.5-0.8-2c-0.6-0.5-1.4-0.8-2.4-0.8
			c-0.9,0-1.6,0.2-2.1,0.6c-0.4,0.4-0.6,0.9-0.6,1.6h-4.6c0-0.8,0.2-1.5,0.5-2.2c0.3-0.7,0.8-1.3,1.5-1.8c0.6-0.5,1.4-0.9,2.4-1.2
			c0.9-0.3,2-0.5,3.2-0.5c1.1,0,2.1,0.1,3,0.4c0.9,0.3,1.7,0.7,2.4,1.2s1.2,1.2,1.6,2c0.4,0.8,0.6,1.7,0.6,2.7v7.7
			c0,1,0.1,1.8,0.2,2.4s0.3,1.2,0.5,1.6v0.3H327.9z M323.5,2515.8c0.5,0,0.9-0.1,1.3-0.2s0.8-0.3,1.1-0.4s0.6-0.4,0.8-0.6
			c0.2-0.2,0.4-0.5,0.5-0.7v-3.1h-2.4c-0.7,0-1.3,0.1-1.8,0.2c-0.5,0.1-0.9,0.3-1.2,0.6c-0.3,0.2-0.6,0.5-0.7,0.9
			c-0.2,0.3-0.2,0.7-0.2,1.1c0,0.6,0.2,1.1,0.7,1.5C321.9,2515.6,322.6,2515.8,323.5,2515.8z"/>
	</g>
	<g id="Path_21">
		<path class="st1" d="M413.5,2466.7c-0.2,0.7-0.2,1.1-0.4,1.7c3-1.5,5.8-2.9,8.6-4.2c3.6-1.7,7.2-3.2,10.8-4.8
			c3.7-1.6,7.4-3.4,11.3-4.8c3.1-1.1,6-2.7,9.3-3.3c0.7-0.3,1.4-0.6,2.1-0.9c4.2-1.3,8.3-2.7,12.5-3.9c4.2-1.2,8.4-2.2,12.6-3.3
			c0.9-0.2,1.9-0.2,2.9-0.2c1.1,0,1,1.1,1.6,1.7c1.2-0.2,2.5-0.5,3.7-0.7c0.7-0.2,1.4,0,1.7,0.6c0.5,0.7,0.4,1.6-0.1,2.2
			c-0.3,0.3-0.6,0.5-1,0.7c-6.2,2.2-12.4,4.3-18.6,6.5c-2.5,0.9-5,1.8-7.4,2.7c-0.3,0.1-0.6,0.3-0.7,0.6c0.3,0,0.6,0,0.9-0.1
			c1.6-0.4,3.1-0.9,4.7-1.3c3.5-1,7.1-1.9,10.6-2.8c2.2-0.6,4.5-1.1,6.8-1.6c1.3-0.3,1.9-0.2,2.2,0.6c0.4,1,0,2.1-0.9,2.6
			c-0.9,0.5-1.7,1-2.7,1.5c-2.9,1.3-5.9,2.5-8.8,3.8c-4.2,1.9-8.5,3.7-12.7,5.6c-2.7,1.2-5.4,2.6-8.1,3.9c-2.9,1.3-5.8,2.6-8.6,4
			c-2.9,1.4-5.8,3-8.6,4.5c-1.7,0.9-3.4,1.9-5.5,3c0.9,0.2,1.3-0.3,1.8-0.4c0.5-0.1,1-0.3,1.5-0.5c5.9-2.3,11.7-4.6,17.6-6.9
			c4.1-1.6,8.4-3,12.5-4.5c1.5-0.7,3-1.3,4.5-1.8c2.7-0.6,5.2-2,7.9-2.8c2.7-0.7,5.2-1.8,7.8-2.6c1.2-0.4,2.4-0.7,3.7-0.9
			c0.7-0.3,1.5,0.1,1.8,0.8c0,0.1,0,0.1,0.1,0.2c0.3,0.8,0,1.7-0.7,2.2c-0.5,0.2-1,0.4-1.5,0.6c-3.1,1.2-6.2,2.4-9.3,3.6
			c-3.3,1.3-6.6,2.6-9.8,3.9c-2.5,1.1-4.9,2.3-7.4,3.4c-1.9,0.8-3.8,1.4-5.7,2.1c-0.4,0.1-0.7,0.2-1,0.4c-3,2-6.6,3.1-9.8,4.7
			c-1.2,0.6-2.4,1.1-3.5,1.6c-0.3,0.2-0.6,0.4-0.8,0.7c0.4,0,0.8,0,1.2,0c3-1,6-2.1,9-3.1c3-1,5.9-1.9,8.9-2.8
			c1.3-0.5,2.7-1,4.1-1.3c1.7-0.4,3.3-0.9,4.9-1.5c4-1.2,8.1-2.1,12.3-2.7c0.4-0.1,0.8-0.1,1.3-0.1c0.9,0,1.7,0.5,2,1.3
			c0.3,0.9,0,1.8-0.8,2.4c-1.2,0.7-2.4,1.4-3.6,2c-2.3,1.1-4.5,2.3-6.8,3.3c-1.8,0.8-3.7,1.4-5.5,2.2c-2.3,1-4.6,2.1-7,3.2
			c-1.2,0.5-2.4,1.1-3.6,1.6l0.2,0.5c1.4-0.4,2.8-0.7,4.2-1.2c3.5-1.2,7.2-2,10.9-2.5c1-0.1,2-0.3,3-0.3c1.4-0.1,2.3,0.4,2.6,1.2
			c0.2,1.1-0.3,2.2-1.3,2.7c-1,0.6-2.1,1.2-3.2,1.6c-5.6,2.6-11.3,5-16.9,7.6c-2.7,1.2-5.3,2.7-7.9,4c-0.3,0.1-0.4,0.4-0.4,0.7
			c2.2-0.6,4.5-1.2,6.7-1.7c4.5-1,9.1-1.9,13.6-2.6c3.2-0.4,6.3-0.6,9.5-0.6c1.8-0.1,3.6,0.3,5.1,1.2c-1.6,0.4-2.9,1.1-4.2,1
			c-4.4-0.2-8.7,0.8-13.1,1.3c-2.9,0.5-5.8,1.2-8.6,2c-1.3,0.3-2.7,0.8-4,1.1c-4.4,1.3-8.8,2.7-13.3,3.9c-1.3,0.3-2.6,0.4-3.9,0.5
			c-0.4,0-0.8-0.1-1.1-0.2v-2.9L469,2490l-0.1-0.4c-1.5,0.1-3,0.3-4.4,0.8c-2.5,0.7-5,1.4-7.4,2.2c-3.2,1-6.4,2-9.5,3.2
			c-3.8,1.4-7.5,2.8-11.2,4.4c-4.3,1.8-8.4,3.8-12.7,5.7c-0.9,0.4-1.7,0.8-2.6,1.2c-0.6,0.1-1.2,0.2-1.7,0.3
			c-0.4-0.8-0.8-1.6-1.3-2.4c0.3-0.2,0.7-0.4,1-0.6c3.7-1.7,7.5-3.3,11.2-5c2.9-1.3,5.9-2.4,8.8-3.8c3.3-1.5,6.4-3.2,9.7-4.8
			c2.5-1.2,5.1-2.4,7.6-3.6c1.9-0.9,3.8-1.6,5.7-2.5c1.7-0.8,3.2-1.7,4.9-2.5c1.2-0.6,2.5-0.9,3.7-1.4c0.2,0,0.3-0.1,0.5-0.2
			c0.8-1.1,2.1-1.4,3.2-1.9c0.5-0.3,0.9-0.6,1.3-0.9c-2.5-0.2-4.4,0.7-6.3,1.2c-3.5,0.8-7,1.8-10.3,3c-4.8,1.9-10,3-14.7,5.2
			c-2.3,1.1-4.9,1.6-7.3,2.6c-4.9,1.9-9.8,3.9-14.7,5.9c-2.5,1.1-5,2.3-7.5,3.5c-1.2,0.6-2.5,0.9-3.8,0.7c0-0.9,0.5-1.9-0.9-2.3
			l45.2-22l-0.1-0.3c-1.4,0.4-2.8,0.8-4.1,1.3c-1.9,0.7-3.8,1.6-5.7,2.4c-5.1,2-10.3,4-15.4,6.1c-2.6,1.1-5.2,2.3-7.7,3.4
			c-2.4,1.1-4.8,2.2-7.2,3.3c-2.9,1.3-5.8,2.6-8.7,4c-0.7,0.4-1.5,0.4-2.2,0c-0.7-0.3-1.1-1.1-0.8-1.8c0.1-0.4,0.4-0.7,0.8-0.8
			c1.7-0.9,3.5-1.7,5.3-2.7c3.5-1.8,6.9-3.6,10.4-5.5c5-2.6,10-5.2,14.9-7.9c3.3-1.7,6.5-3.5,9.8-5.2c3.2-1.6,6.4-3,9.6-4.5
			c1.2-0.6,2.4-1.4,3.6-2c0.8-0.4,1.6-0.7,2.4-1.1c2.4-1.1,4.7-2.5,7.1-3.6c2.2-1,4.3-2,6.5-3c0.1,0,0.2-0.2,0.4-0.4
			c-1,0-1.9,0.1-2.9,0.3c-2.2,0.8-4.4,1.8-6.8,1.8c-1.1,0-2.2,0.9-3.4,1.3c-2.8,1-5.6,2.2-8.5,2.9c-5.1,1.4-10.2,3.1-15.1,5.2
			c-4.2,1.6-8.5,2.8-12.6,4.5c-2.4,1-4.7,2.2-7,3.1c-2.7,1.1-5.4,2.1-8.1,3.2c-0.5,0.2-1,0.4-1.4,0.7c-1.6,1.1-3.4,1.9-5.3,2.2
			c-0.7,0-1.3-0.1-2-0.3c0.2-1.2,0.3-2.2-1-2.9c-1.1,0.6-2.4,1.3-3.7,1.9c-1.5,0.7-3,1.3-4.5,1.9c-0.6,0.3-1.4,0.1-1.8-0.4
			c-0.6-0.5-0.6-1.3-0.2-1.9c0.1-0.2,0.3-0.3,0.5-0.4c0.6-0.3,1.2-0.5,1.8-0.8c4.3-2.2,8.5-4.4,12.7-6.6c0.1-0.8,0-1.7,0.5-2.2
			c1-1,1.7-2.4,3.2-2.9c1.3-0.4,2.5-0.8,3.8-1.1C412.6,2466.7,413,2466.7,413.5,2466.7z M402.6,2478.3c1.1-0.4,2.3-0.9,3.4-1.3
			c3.3-1.3,6.5-2.8,9.8-4.1c4-1.6,8.1-3,12.1-4.7c2.6-1.1,5.2-2.4,7.8-3.5c4.3-1.7,8.6-3.4,12.9-5.1c0.9-0.4,1.9-0.9,2.8-1.4
			C447.2,2458.7,404.8,2476,402.6,2478.3L402.6,2478.3z M459.1,2472.8l-2.6,1.3C457.5,2474.2,458.5,2474.5,459.1,2472.8z
			 M458.2,2458.5l0.1,0.4c0.7-0.4,1.8,0,2.6-1.2L458.2,2458.5z"/>
	</g>
</g>
</svg>
