<?xml version="1.0" encoding="utf-8"?>
<!-- Generator: Adobe Illustrator 23.0.4, SVG Export Plug-In . SVG Version: 6.00 Build 0)  -->
<svg version="1.1" id="Layer_1" xmlns="http://www.w3.org/2000/svg" xmlns:xlink="http://www.w3.org/1999/xlink" x="0px" y="0px"
	 viewBox="0 0 84.4 101.9" style="enable-background:new 0 0 84.4 101.9;" xml:space="preserve">
<style type="text/css">
	.st0{fill:#3B3B3B;}
</style>
<g>
	<path class="st0" d="M12.5,81.4c-2.1,1.2-2.8,3.1-3.1,5.6c-1.2,0.1-0.9,1.3-1.5,1.9c0.5,0.1,0.8,0.2,1.4,0.4l-1.7,1.5
		c1.2,0.9,1.7,0.7,2.3-0.7l3.2-6.8C13.7,82,13.8,82,12.5,81.4z"/>
	<polygon class="st0" points="22.7,59.5 22.2,60.4 22.4,60.5 22.9,59.6 	"/>
	<path class="st0" d="M68.8,69.6c-1.5-1.4-3.1-2.8-4.7-4.2c-0.6-0.6-1.2-1.3-2.1-1.4c-0.1-1.1-1-1.3-1.8-1.8c-2-1.8-3.9-3.6-5.7-5.5
		c-3.3-3.2-6.6-6.4-9.9-9.7c-2.2-2.2-4.3-4.3-6.5-6.5c1.5-2.5,3.1-4.9,4.6-7.4c1.7-2.7,3.3-5.4,4.9-8.1s3.3-5.6,5.1-8.3
		s3.1-5.9,5.4-8.3c0.2-0.3,0.2-0.8,0.3-1.2c-1.1,0.3-2.3,0.3-2.9,1c-0.8,0.7-1.4,1.5-1.9,2.4c-0.4,0.9-1.3,1.6-1.2,2.5
		c-0.5,0.5-0.9,1-1.4,1.5c-0.6,1-0.9,2-1.5,3c-0.8,1.4-1.7,2.8-2.5,4.2c-0.2,0.3-0.4,0.8-0.6,0.9c-1,0.4-1.1,1.3-1.4,2.1
		c-0.1,0.3-0.2,0.6-0.3,0.8c-0.9,1.1-1.8,2.3-2.6,3.5c-1.9,3.2-4.1,6.3-5.8,9.6c-0.2-0.2-0.4-0.4-0.5-0.5c-2.1-2.1-4.6-3.8-6.2-6.4
		c-0.1-0.2-0.3-0.4-0.5-0.5c-1.3-0.7-2.4-1.8-3.1-3.1c-0.2-0.3-0.5-0.6-0.8-0.8c-0.6-0.2-1-0.7-1.3-1.3c-0.8-1.6-2.6-2-3.7-3.3
		c-0.2-0.2-0.4-0.3-0.7-0.2c-1.1,0.2-1.8-0.5-2.5-1.3l-0.4,0.2c0.2,0.8,0.5,1.7,1,2.4c1.2,1.6,2.5,3.1,3.9,4.5
		c4.4,4.4,8.8,8.8,13.2,13.1L33,44.3L30.5,48c-0.3,0.4-0.6,0.8-0.8,1.2c-0.7,1.2-1.3,2.4-1.8,3.7c-0.2,0.7-0.7,1.4-1.3,1.8l-1,0.6
		c-0.1,0.5-0.2,1.1-0.4,1.6c-0.3,0.3-0.6,0.6-1,0.8c0.1,0.3,0.3,0.6,0.2,0.9c-0.4,1.3-0.8,2.6-1.4,3.9c-0.9,1.6-1.9,3.2-3,4.8
		c-1.2,1.8-1.7,4.2-3.4,5.8c0,0-0.1,0.1-0.1,0.2c-0.6,1-1.2,2-1.9,3c-1.4,2-1.6,3.4-0.5,5.2l2.3-3.8c0.8-1.3,1.9-2.4,2.1-4
		c0-0.2,0.3-0.4,0.4-0.6c0.6-0.8,1.2-1.6,1.8-2.4c2.1-3.5,4.1-7,6.2-10.5c0.6-1,1.1-2.1,1.7-3.1c0.8-1.4,1.7-2.9,2.5-4.3
		c1.1-2,2-4,3.2-5.9c0.8-1.3,1.5-2.5,2.3-3.8c0.3,0.3,0.6,0.6,0.9,0.9c0.9,0.9,2,1.8,2.8,2.9c3.6,4.1,7.4,7.9,11.4,11.6
		c0.3,0.3,0.7,0.6,0.9,0.6c1.1,0,2.2,0.6,2.9,1.5c2.8,2.8,6.2,4.9,8.9,7.9c0.2,0.2,0.6,0.5,0.8,0.4c0.7-0.2,0.8,0.3,1,0.7
		c0.6,1.2,1.7,2.2,3,2.6c0,0,0,0,0,0C69.8,71.5,69.6,70.3,68.8,69.6z"/>
</g>
</svg>
