<svg xmlns="http://www.w3.org/2000/svg" viewBox="0 0 75.96 22.87"><title>icon-arrow-4-bold</title><g id="Layer_2" data-name="Layer 2"><g id="Layer_1-2" data-name="Layer 1"><path d="M74.88,10.42c-1.22-.93-3.07-1.3-2.94-3.35-1.8-.73-3.47-1.44-5.17-2.1-1.9-.74-3.81-1.44-5.72-2.14A40.15,40.15,0,0,1,57,1.3,13.61,13.61,0,0,0,53.51,0a1.47,1.47,0,0,0-1.19.5,1.8,1.8,0,0,0,.34,2.42,5.45,5.45,0,0,0,1.39.74c2.6,1,5.22,1.93,7.8,3,1.63.67,3.18,1.51,4.77,2.27-.42,1-1.26,1-2,1.16a20.62,20.62,0,0,1-3,.21c-1.83.05-3.67,0-5.49.12a10.67,10.67,0,0,0-2.22.66,1.52,1.52,0,0,0-1.63-.43c-1.45.31-3-.12-4.4.78-.07,0-.21,0-.31,0-1.23-.3-2.46.08-3.65,0-3.12-.15-6.14.88-9.28.57a21,21,0,0,0-4.12.46,12.32,12.32,0,0,1-2.41.2c-3.23-.24-6.41.33-9.61.47-2.85.13-5.7.61-8.54.52-2.62-.08-5.21.35-7.84,0C.31,13.39-.46,14.8.28,16.53a1.1,1.1,0,0,0,.25.35c2.27,0,4.37.05,6.48,0a44.78,44.78,0,0,0,6.24-.38c4.09-.69,8.23-.67,12.34-1.09,3.37-.34,6.77-.44,10.15-.73,3.71-.31,7.4-.79,11.11-1.09,3.92-.32,7.85-.51,11.79-.75a8.87,8.87,0,0,1,1.11.15,5.3,5.3,0,0,1-.78.82c-1.51.89-3.07,1.71-4.54,2.66a7.52,7.52,0,0,0-2,1.82,3.56,3.56,0,0,0,.23,4.59c.53-.24,1.12-.46,1.67-.75a.89.89,0,0,0,.5-1.22c-.5-1,.2-1.47.79-1.83,3.12-1.9,6.26-3.76,9.43-5.55a4.93,4.93,0,0,1,2.17-.43,16.13,16.13,0,0,1,6.53.84,1.62,1.62,0,0,0,2.11-1.2C76.14,11.79,75.81,11.14,74.88,10.42Z"/></g></g></svg>