<svg xmlns="http://www.w3.org/2000/svg" viewBox="0 0 203.75 22.57"><title>icon-line-9</title><g id="Layer_2" data-name="Layer 2"><g id="Layer_1-2" data-name="Layer 1"><path d="M162.75,12.61a2.59,2.59,0,0,1-2.57-.13,14.4,14.4,0,0,0-2.84-.5c-1.89-.39-3.81-.59-5.7-1.12a58.58,58.58,0,0,0-6.26-.89c-1.26-.22-2.49-.68-3.75-.94-.72-.15-1.48-.09-2.22-.19-4.61-.62-9.22-1.24-13.83-1.9-1-.15-2.08-.51-3.13-.69s-1.9-.21-2.85-.32c-3.55-.4-7.09-.83-10.64-1.21-2.4-.26-4.81-.47-7.22-.66a20.1,20.1,0,0,1-5-.69,3.85,3.85,0,0,0-1,0c-1.36-.09-2.72-.21-4.09-.3-.63,0-1.27,0-1.91,0-2-.1-3.94-.25-5.92-.32-1.45-.06-2.91,0-4.36,0-4.13.05-8.25.06-12.38.17-3.15.09-6.29.33-9.44.48-2.53.13-5.06.2-7.58.35s-4.83.35-7.24.53-4.73.3-7.07.59c-4,.51-8,1.12-12,1.71A83,83,0,0,0,11,9.57,42.78,42.78,0,0,0,3.89,12.5a7.53,7.53,0,0,1-2.47.8C1,13.36.15,13,.06,12.7a3.18,3.18,0,0,1,.25-1.82,1.41,1.41,0,0,1,.86-.74C3,9.61,4.36,8.24,6.23,8a2.32,2.32,0,0,0,.44-.23,37.93,37.93,0,0,1,4.92-1.54,47,47,0,0,1,5-1.27c2.91-.45,5.76-1.34,8.67-1.81s5.91-.66,8.87-1c1.67-.19,3.35-.42,5-.61a14.63,14.63,0,0,1,2.28-.2c2.59.09,5.16-.47,7.73-.42,2.17,0,4.29-.47,6.48-.21C57.21.86,58.8.39,60.36.33c2.38-.09,4.76,0,7.15-.1C68.67.21,69.82,0,71,0q6.08,0,12.13.13c1.54,0,3.09.08,4.62.22.42,0,.81.43,1.32.72.32-.75,1.17-.61,2-.54C93.1.69,95.16,1,97.21,1c.79,0,1,.41,1.47.73,1.15-.86,2.43-.42,3.63-.35,2.18.13,4.35.34,6.51.57,2,.2,3.92.45,5.88.7,1.18.14,2.36.34,3.55.48,3.23.4,6.46.76,9.7,1.16a5.44,5.44,0,0,1,1.43.35,3,3,0,0,0,1.72.21,7.66,7.66,0,0,1,2.24.31c1.56.25,3.12.46,4.68.76.48.09.92.5,1.39.55s1.22-.2,1.83-.18a12,12,0,0,1,1.76.3c.53.1,1.08.15,1.6.29a9.57,9.57,0,0,0,3.06.6,19.55,19.55,0,0,1,4.56.7c1,.19,2,.42,3,.69s1.71.57,2.67.89c.34-.59,1.08-.31,1.74-.18a30.76,30.76,0,0,1,5.18,1.22c1.15.45,2.29.16,3.4.52s2.25.48,3.37.75c1.53.38,3,.82,4.58,1.2s3.32.7,5,1.12c3.53.92,7.06,1.84,10.57,2.83,2.47.7,4.87,1.69,7.37,2.23A10.17,10.17,0,0,1,203,20.75c.31.22.79.76.71.9-.2.38-.68.91-1,.89-1.16-.09-2.35.28-3.52-.32a8.84,8.84,0,0,0-2.34-.48c-1.15-.23-2.45,0-3.31-1.12a.48.48,0,0,0-.28-.15c-1.16-.19-2.32-.42-3.49-.53a2.22,2.22,0,0,1-2-1.08c-.42.12-.87.42-1.1.3-1.84-.95-3.91-1.1-5.82-1.87s-4.13-.78-6.05-1.55-4.29-.69-6.25-1.73a5.49,5.49,0,0,0-2.08-.44c-.56-.06-1-.39-1.73-.18C164.27,13.54,163.56,13,162.75,12.61Z"/></g></g></svg>