<?xml version="1.0" encoding="utf-8"?>
<!-- Generator: Adobe Illustrator 23.0.4, SVG Export Plug-In . SVG Version: 6.00 Build 0)  -->
<svg version="1.1" id="Layer_1" xmlns="http://www.w3.org/2000/svg" xmlns:xlink="http://www.w3.org/1999/xlink" x="0px" y="0px"
	 viewBox="0 0 200 120" style="enable-background:new 0 0 200 120;" xml:space="preserve">
<style type="text/css">
	.st0{enable-background:new    ;}
	.st1{fill:#FFFFFF;}
</style>
<g id="ch3-text-2-ownthe" transform="translate(-457 -1293)">
	<g class="st0">
		<path class="st1" d="M612.9,1343.7h-99.3v-23.9h99.3V1343.7z M612.9,1389h-99.3v-23.8h99.3V1389z"/>
	</g>
	<g class="st0">
		<path class="st1" d="M481.6,1305.7h4.7c2.1,0,3.2,1.4,3.2,3.1s-1.1,3.1-3.2,3.1H484v3.2h-2.4V1305.7z M485.9,1307.7H484v2.1h1.9
			c0.6,0,1.1-0.4,1.1-1C487.1,1308.1,486.6,1307.7,485.9,1307.7z"/>
		<path class="st1" d="M500.7,1305.5c2.9,0,5,2,5,4.8s-2.1,4.8-5,4.8s-5-2-5-4.8S497.9,1305.5,500.7,1305.5z M500.7,1307.6
			c-1.6,0-2.5,1.2-2.5,2.7s1,2.7,2.5,2.7s2.5-1.2,2.5-2.7C503.3,1308.8,502.3,1307.6,500.7,1307.6z"/>
		<path class="st1" d="M513.1,1311.9c0.7,0.7,1.7,1.2,3,1.2c0.8,0,1.3-0.4,1.3-0.8c0-0.5-0.6-0.7-1.6-1c-1.5-0.3-3.7-0.7-3.7-2.9
			c0-1.6,1.3-2.9,3.7-2.9c1.5,0,2.8,0.4,3.8,1.3l-1.3,1.7c-0.8-0.6-1.8-1-2.6-1c-0.8,0-1.1,0.3-1.1,0.7c0,0.5,0.6,0.7,1.6,0.9
			c1.5,0.3,3.7,0.8,3.7,2.9c0,1.9-1.4,3.1-3.9,3.1c-1.9,0-3.2-0.6-4.1-1.5L513.1,1311.9z"/>
		<path class="st1" d="M527.2,1311.9c0.7,0.7,1.7,1.2,3,1.2c0.8,0,1.3-0.4,1.3-0.8c0-0.5-0.6-0.7-1.6-1c-1.5-0.3-3.7-0.7-3.7-2.9
			c0-1.6,1.3-2.9,3.7-2.9c1.5,0,2.8,0.4,3.8,1.3l-1.3,1.7c-0.8-0.6-1.8-1-2.6-1s-1.1,0.3-1.1,0.7c0,0.5,0.6,0.7,1.6,0.9
			c1.5,0.3,3.7,0.8,3.7,2.9c0,1.9-1.4,3.1-3.9,3.1c-1.9,0-3.2-0.6-4.1-1.5L527.2,1311.9z"/>
		<path class="st1" d="M540.7,1305.7h6.8v2h-4.4v1.6h4.3v2h-4.3v1.7h4.4v2h-6.8V1305.7z M541.3,1302.9h1.9l1.8,2h-1.5L541.3,1302.9z
			"/>
		<path class="st1" d="M554.5,1305.7h3.9c2.9,0,5.1,1.8,5.1,4.7s-2.1,4.7-5,4.7h-3.9L554.5,1305.7L554.5,1305.7z M558.5,1312.9
			c1.6,0,2.6-1.2,2.6-2.6s-0.9-2.6-2.6-2.6H557v5.1L558.5,1312.9L558.5,1312.9z"/>
		<path class="st1" d="M570.3,1305.7h6.8v2h-4.4v1.6h4.3v2h-4.3v1.7h4.4v2h-6.8V1305.7z"/>
		<path class="st1" d="M586.6,1309.4v5.6h-2.4v-9.3h2.5l3.8,5.4v-5.4h2.4v9.3h-2.3L586.6,1309.4z"/>
		<path class="st1" d="M602.2,1307.8h-2.6v-2.1h7.6v2.1h-2.6v7.2h-2.4V1307.8z"/>
		<path class="st1" d="M629.1,1313.6h-3.9l-0.5,1.4h-2.6l3.5-9.3h3l3.5,9.3h-2.6L629.1,1313.6z M624.3,1302.9h1.9l1.8,2h-1.5
			L624.3,1302.9z M625.9,1311.6h2.6l-1.3-3.8L625.9,1311.6z"/>
	</g>
	<g class="st0">
		<path class="st1" d="M479.2,1349.7h6.8v2h-4.4v1.6h4.3v2h-4.3v1.7h4.4v2h-6.8V1349.7z"/>
		<path class="st1" d="M493,1349.7h2.4v7.2h3.8v2.1H493V1349.7z"/>
		<path class="st1" d="M506,1349.7h2.4v7.2h3.8v2.1H506V1349.7z"/>
		<path class="st1" d="M519,1349.7h6.8v2h-4.4v1.6h4.3v2h-4.3v1.7h4.4v2H519V1349.7z"/>
		<path class="st1" d="M533.5,1355.9c0.7,0.7,1.7,1.2,3,1.2c0.8,0,1.3-0.4,1.3-0.8c0-0.5-0.6-0.7-1.6-1c-1.5-0.3-3.7-0.7-3.7-2.9
			c0-1.6,1.3-2.9,3.7-2.9c1.5,0,2.8,0.4,3.8,1.3l-1.3,1.7c-0.8-0.6-1.8-1-2.6-1s-1.1,0.3-1.1,0.7c0,0.5,0.6,0.7,1.6,0.9
			c1.5,0.3,3.7,0.8,3.7,2.9c0,1.9-1.4,3.1-3.9,3.1c-1.9,0-3.2-0.6-4.1-1.5L533.5,1355.9z"/>
		<path class="st1" d="M556.7,1355.9c0.7,0.7,1.7,1.2,3,1.2c0.8,0,1.3-0.4,1.3-0.8c0-0.5-0.6-0.7-1.6-1c-1.5-0.3-3.7-0.7-3.7-2.9
			c0-1.6,1.3-2.9,3.7-2.9c1.5,0,2.8,0.4,3.8,1.3l-1.3,1.7c-0.8-0.6-1.8-1-2.6-1s-1.1,0.3-1.1,0.7c0,0.5,0.6,0.7,1.6,0.9
			c1.5,0.3,3.7,0.8,3.7,2.9c0,1.9-1.4,3.1-3.9,3.1c-1.9,0-3.2-0.6-4.1-1.5L556.7,1355.9z"/>
		<path class="st1" d="M570.2,1349.7h6.8v2h-4.4v1.6h4.3v2h-4.3v1.7h4.4v2h-6.8V1349.7z"/>
		<path class="st1" d="M584.1,1349.7h2.5v5.5c0,1.1,0.6,1.9,1.9,1.9c1.3,0,1.9-0.8,1.9-1.9v-5.5h2.5v5.5c0,2.3-1.3,4-4.3,4
			s-4.3-1.7-4.3-4v-5.5H584.1z"/>
		<path class="st1" d="M600,1349.7h2.4v7.2h3.8v2.1H600V1349.7z"/>
		<path class="st1" d="M613,1349.7h6.8v2h-4.4v1.6h4.3v2h-4.3v1.7h4.4v2H613V1349.7z"/>
		<path class="st1" d="M627.5,1355.9c0.7,0.7,1.7,1.2,3,1.2c0.8,0,1.3-0.4,1.3-0.8c0-0.5-0.6-0.7-1.6-1c-1.5-0.3-3.7-0.7-3.7-2.9
			c0-1.6,1.3-2.9,3.7-2.9c1.5,0,2.8,0.4,3.8,1.3l-1.3,1.7c-0.8-0.6-1.8-1-2.6-1s-1.1,0.3-1.1,0.7c0,0.5,0.6,0.7,1.6,0.9
			c1.5,0.3,3.7,0.8,3.7,2.9c0,1.9-1.4,3.1-3.9,3.1c-1.9,0-3.2-0.6-4.1-1.5L627.5,1355.9z"/>
	</g>
	<g class="st0">
		<path class="st1" d="M526.2,1401.6h-3.9l-0.5,1.4h-2.6l3.5-9.3h3l3.5,9.3h-2.6L526.2,1401.6z M522.9,1399.6h2.6l-1.3-3.8
			L522.9,1399.6z"/>
		<path class="st1" d="M535,1393.7h2.5v5.5c0,1.1,0.6,1.9,1.9,1.9c1.3,0,1.9-0.8,1.9-1.9v-5.5h2.5v5.5c0,2.3-1.3,4-4.3,4
			s-4.3-1.7-4.3-4v-5.5H535z"/>
		<path class="st1" d="M553,1395.8h-2.6v-2.1h7.6v2.1h-2.6v7.2H553V1395.8z"/>
		<path class="st1" d="M569.9,1401.6H566l-0.5,1.4h-2.6l3.5-9.3h3l3.5,9.3h-2.6L569.9,1401.6z M566.7,1399.6h2.6l-1.3-3.8
			L566.7,1399.6z"/>
		<path class="st1" d="M581.7,1397.4v5.6h-2.4v-9.3h2.5l3.8,5.4v-5.4h2.4v9.3h-2.3L581.7,1397.4z"/>
		<path class="st1" d="M597.3,1395.8h-2.6v-2.1h7.6v2.1h-2.6v7.2h-2.4V1395.8z"/>
	</g>
</g>
</svg>
