<?xml version="1.0" encoding="utf-8"?>
<!-- Generator: Adobe Illustrator 23.0.4, SVG Export Plug-In . SVG Version: 6.00 Build 0)  -->
<svg version="1.1" id="Layer_1" xmlns="http://www.w3.org/2000/svg" xmlns:xlink="http://www.w3.org/1999/xlink" x="0px" y="0px"
	 viewBox="0 0 200 120" style="enable-background:new 0 0 200 120;" xml:space="preserve">
<style type="text/css">
	.st0{enable-background:new    ;}
	.st1{fill:#FFFFFF;}
</style>
<g id="ch3-text-2-ownthe" transform="translate(-446 -1293)">
	<g class="st0">
		<path class="st1" d="M601.9,1341.7h-99.3v-23.9h99.3V1341.7z M601.9,1387h-99.3v-23.8h99.3V1387z"/>
	</g>
	<g class="st0">
		<path class="st1" d="M490.5,1303.7h4.7c2.1,0,3.2,1.4,3.2,3.1s-1.1,3.1-3.2,3.1h-2.3v3.2h-2.4L490.5,1303.7L490.5,1303.7z
			 M494.9,1305.7H493v2.1h1.9c0.6,0,1.1-0.4,1.1-1C496,1306.1,495.5,1305.7,494.9,1305.7z"/>
		<path class="st1" d="M509.7,1303.5c2.9,0,5,2,5,4.8s-2.1,4.8-5,4.8c-2.9,0-5-2-5-4.8S506.8,1303.5,509.7,1303.5z M509.7,1305.6
			c-1.6,0-2.5,1.2-2.5,2.7s1,2.7,2.5,2.7s2.5-1.2,2.5-2.7C512.2,1306.8,511.2,1305.6,509.7,1305.6z"/>
		<path class="st1" d="M522.1,1309.9c0.7,0.7,1.7,1.2,3,1.2c0.8,0,1.3-0.4,1.3-0.8c0-0.5-0.6-0.7-1.6-1c-1.5-0.3-3.7-0.7-3.7-2.9
			c0-1.6,1.3-2.9,3.7-2.9c1.5,0,2.8,0.4,3.8,1.3l-1.3,1.7c-0.8-0.6-1.8-1-2.6-1s-1.1,0.3-1.1,0.7c0,0.5,0.6,0.7,1.6,0.9
			c1.5,0.3,3.7,0.8,3.7,2.9c0,1.9-1.4,3.1-3.9,3.1c-1.9,0-3.2-0.6-4.1-1.5L522.1,1309.9z"/>
		<path class="st1" d="M535.5,1303.7h6.8v2H538v1.6h4.3v2H538v1.7h4.4v2h-6.8v-9.3H535.5z"/>
		<path class="st1" d="M549.4,1303.7h6.9v2h-4.4v1.6h4.3v2h-4.3v1.7h4.4v2h-6.9V1303.7z"/>
		<path class="st1" d="M565.6,1307.4v5.6h-2.4v-9.3h2.5l3.8,5.4v-5.4h2.4v9.3h-2.3L565.6,1307.4z"/>
		<path class="st1" d="M588.4,1303.7h2.4v7.2h3.8v2.1h-6.2V1303.7z"/>
		<path class="st1" d="M607.4,1311.6h-3.9l-0.5,1.4h-2.6l3.5-9.3h3l3.5,9.3h-2.6L607.4,1311.6z M604.1,1309.6h2.6l-1.3-3.8
			L604.1,1309.6z"/>
	</g>
	<g class="st0">
		<path class="st1" d="M465.2,1350.7l-2.4,6.3h-1.1l-2.4-6.3v6.3H457v-9.3h3.3l1.9,5.3l2-5.3h3.3v9.3h-2.4v-6.3H465.2z"/>
		<path class="st1" d="M474.9,1347.7h2.4v9.3h-2.4V1347.7z"/>
		<path class="st1" d="M485.2,1353.9c0.7,0.7,1.7,1.2,3,1.2c0.8,0,1.3-0.4,1.3-0.8c0-0.5-0.6-0.7-1.6-1c-1.5-0.3-3.7-0.7-3.7-2.9
			c0-1.6,1.3-2.9,3.7-2.9c1.5,0,2.8,0.4,3.8,1.3l-1.3,1.7c-0.8-0.6-1.8-1-2.6-1c-0.8,0-1.1,0.3-1.1,0.7c0,0.5,0.6,0.7,1.6,0.9
			c1.5,0.3,3.7,0.8,3.7,2.9c0,1.9-1.4,3.1-3.9,3.1c-1.9,0-3.2-0.6-4.1-1.5L485.2,1353.9z"/>
		<path class="st1" d="M506.9,1350.7l-2.4,6.3h-1.1l-2.4-6.3v6.3h-2.4v-9.3h3.3l1.9,5.3l2-5.3h3.3v9.3h-2.4v-6.3H506.9z"/>
		<path class="st1" d="M522.5,1355.6h-3.9l-0.5,1.4h-2.6l3.5-9.3h3l3.5,9.3H523L522.5,1355.6z M519.3,1353.6h2.6l-1.3-3.8
			L519.3,1353.6z"/>
		<path class="st1" d="M544.7,1353.8h-1.2v3.2h-2.4v-9.3h4.7c2.1,0,3.2,1.4,3.2,3.1c0,1.6-1,2.5-1.9,2.8l1.9,3.4h-2.8L544.7,1353.8z
			 M545.4,1349.7h-1.9v2.1h1.9c0.6,0,1.2-0.4,1.2-1.1C546.6,1350.1,546,1349.7,545.4,1349.7z"/>
		<path class="st1" d="M556,1347.7h2.4v9.3H556V1347.7z"/>
		<path class="st1" d="M574,1355.6l0.6,0.7l-1.7,1.3l-0.7-0.8c-0.6,0.3-1.3,0.4-2,0.4c-2.9,0-5-2-5-4.8s2.1-4.8,5-4.8s5,2,5,4.8
			C575.2,1353.6,574.7,1354.7,574,1355.6z M570.7,1355l-0.9-1.1l1.7-1.3l1,1.2c0.2-0.4,0.3-0.8,0.3-1.3c0-1.5-1-2.7-2.5-2.7
			c-1.6,0-2.5,1.2-2.5,2.7s1,2.7,2.5,2.7C570.4,1355,570.5,1355,570.7,1355z"/>
		<path class="st1" d="M582,1347.7h2.5v5.5c0,1.1,0.6,1.9,1.9,1.9c1.3,0,1.9-0.8,1.9-1.9v-5.5h2.5v5.5c0,2.3-1.3,4-4.3,4
			s-4.3-1.7-4.3-4v-5.5H582z"/>
		<path class="st1" d="M597.9,1347.7h6.8v2h-4.4v1.6h4.3v2h-4.3v1.7h4.4v2h-6.8V1347.7z"/>
		<path class="st1" d="M611.5,1355.1l4-5.3h-4v-2.1h7.2v1.9l-4,5.3h4.1v2.1h-7.3V1355.1z"/>
		<path class="st1" d="M631.7,1355.6h-3.9l-0.5,1.4h-2.6l3.5-9.3h3l3.5,9.3h-2.6L631.7,1355.6z M628.4,1353.6h2.6l-1.3-3.8
			L628.4,1353.6z"/>
	</g>
	<g class="st0">
		<path class="st1" d="M512.8,1399.6l0.6,0.7l-1.7,1.3l-0.7-0.8c-0.6,0.3-1.3,0.4-2,0.4c-2.9,0-5-2-5-4.8s2.1-4.8,5-4.8s5,2,5,4.8
			C514,1397.6,513.5,1398.7,512.8,1399.6z M509.5,1399l-0.9-1.1l1.7-1.3l1,1.2c0.2-0.4,0.3-0.8,0.3-1.3c0-1.5-1-2.7-2.5-2.7
			c-1.6,0-2.5,1.2-2.5,2.7s1,2.7,2.5,2.7C509.2,1399,509.4,1399,509.5,1399z"/>
		<path class="st1" d="M520.8,1391.7h2.5v5.5c0,1.1,0.6,1.9,1.9,1.9c1.3,0,1.9-0.8,1.9-1.9v-5.5h2.5v5.5c0,2.3-1.3,4-4.3,4
			s-4.3-1.7-4.3-4v-5.5H520.8z"/>
		<path class="st1" d="M536.7,1391.7h6.8v2h-4.4v1.6h4.3v2h-4.3v1.7h4.4v2h-6.8V1391.7z"/>
		<path class="st1" d="M559.8,1391.7h2.4v7.2h3.8v2.1h-6.2V1391.7z"/>
		<path class="st1" d="M576.9,1391.5c2.9,0,5,2,5,4.8s-2.1,4.8-5,4.8s-5-2-5-4.8S574.1,1391.5,576.9,1391.5z M576.9,1393.6
			c-1.6,0-2.5,1.2-2.5,2.7s1,2.7,2.5,2.7s2.5-1.2,2.5-2.7C579.5,1394.8,578.5,1393.6,576.9,1393.6z"/>
		<path class="st1" d="M589.3,1397.9c0.7,0.7,1.7,1.2,3,1.2c0.8,0,1.3-0.4,1.3-0.8c0-0.5-0.6-0.7-1.6-1c-1.5-0.3-3.7-0.7-3.7-2.9
			c0-1.6,1.3-2.9,3.7-2.9c1.5,0,2.8,0.4,3.8,1.3l-1.3,1.7c-0.8-0.6-1.8-1-2.6-1s-1.1,0.3-1.1,0.7c0,0.5,0.6,0.7,1.6,0.9
			c1.5,0.3,3.7,0.8,3.7,2.9c0,1.9-1.4,3.1-3.9,3.1c-1.9,0-3.2-0.6-4.1-1.5L589.3,1397.9z"/>
	</g>
</g>
</svg>
