<svg xmlns="http://www.w3.org/2000/svg" viewBox="0 0 116.91 23.73"><title>icon-arrow-5</title><g id="Layer_2" data-name="Layer 2"><g id="Layer_1-2" data-name="Layer 1"><path d="M116.2,12.3c-.68-.5-1.6-.87-2-1.55-1-1.61-2.73-1.91-4.07-2.87-1.14-.82-2.62-1-3.81-1.79-.47-.33-1.3-.73-1.64-.54-.91.52-.79-1-1.5-.59a19.6,19.6,0,0,0-3.59-1.51C97,2.57,94.47,1.29,91.91.22A1.46,1.46,0,0,0,90,.55c-.74,1-.55,1.65.71,2.31Q99,7.23,107.32,11.61a10.5,10.5,0,0,1,1.12.76c-1.32.39-2.57-.25-3.73.41-.07,0-.26-.19-.41-.23a5,5,0,0,0-1.42-.41q-3.18-.06-6.36,0c-2.85,0-5.7.12-8.54.21a50.31,50.31,0,0,0-6,.32,5.93,5.93,0,0,1-3.44,0,1.69,1.69,0,0,0-.81,0c-1,.09-1.91.28-2.87.31-2,.06-3.91-.09-5.85.09a36.57,36.57,0,0,1-3.77.16H60.4l-.21,1a13.58,13.58,0,0,0-2.32-.84c-.68-.13-1.45.19-2.1,0-.85-.23-1,.72-1.72.71a19.91,19.91,0,0,0-2.37.2l-.42-.71-.6.7c-1.5-1.3-3.88-1.17-6,.23-.39-.66-1.75-1.18-2.06-.68-.92,1.46-1.66.22-2.46.07a6,6,0,0,1-1.5.25c-.55,0-1.17-.25-1.62-.06-1.19.49-2.3,1.17-3.45,1.77l.07.25,1.85.12.49-.85a5,5,0,0,0,1.55.58c1.81,0,3.61-.13,5.42-.22,1.47-.08,2.93-.23,4.4-.24,4,0,8.11,0,12.17-.05,1.92,0,3.85-.11,5.77-.16l16.17-.4c1.17,0,2.35-.1,3.53-.18.6,0,1.19-.18,1.79-.18.92,0,1.84.12,2.76.12,4.33,0,8.67,0,13,0,1.34,0,2.67.26,4,.4l.11.35c-1.42,1-2.9,1.94-4.26,3s-2.76,2.47-4.27,3.84c0,.29.09.76.15,1.26,1.61.57,2.64-.22,3.63-1.2a24.46,24.46,0,0,1,2-1.72c.86-.67,1.73-1.33,2.64-1.93,1.29-.84,2.58-1.66,3.92-2.41a11.94,11.94,0,0,1,4.89-1.37,1.68,1.68,0,0,0,1.52-1.08C117.12,13.11,116.73,12.69,116.2,12.3Z"/><path d="M28,14.39a13.34,13.34,0,0,0-3.36.55,2.89,2.89,0,0,1-1.38.13,21.7,21.7,0,0,0-2.39-.23c-.6,0-1.19.19-1.79.22-1.73.06-3.47,0-5.19.13-2.17.1-4.33.34-6.49.41a17.21,17.21,0,0,1-4.25-.22,5.24,5.24,0,0,0-2-.12c-.86.13-1.1.54-1.17,1.29A1.23,1.23,0,0,0,1,18c.84.18,1.72.22,2.58.35a3.86,3.86,0,0,1,1.16.33c1.23.63,1.86.54,3.05-.41a2.23,2.23,0,0,1,1-.36c2.54-.24,5.09-.49,7.64-.67,4.25-.29,8.5-.54,12.76-.79,1,0,2.06,0,3.18,0C31.41,14.37,29.76,14.22,28,14.39Z"/><path d="M34.19,14.52l-.79-.12,0,.17.69.27Z"/></g></g></svg>