<?xml version="1.0" encoding="utf-8"?>
<!-- Generator: Adobe Illustrator 23.0.4, SVG Export Plug-In . SVG Version: 6.00 Build 0)  -->
<svg version="1.1" id="Layer_1" xmlns="http://www.w3.org/2000/svg" xmlns:xlink="http://www.w3.org/1999/xlink" x="0px" y="0px"
	 viewBox="0 0 350.5 32.7" style="enable-background:new 0 0 350.5 32.7;" xml:space="preserve">
<style type="text/css">
	.st0{fill:#3B3B3B;}
</style>
<g>
	<g id="Layer_1-2">
		<path class="st0" d="M137.3,18.6l-1.2-1.4c5-0.3,9.7-0.7,14.4-0.9c5.5-0.3,11-0.7,16.5-0.9c6.2-0.2,12.3-0.4,18.5-0.5
			c0.8,0.1,1.5,0.3,2.2,0.6c0.3-0.2,0.7-0.9,1.2-0.9c2.6-0.1,5.3-0.1,7.9-0.1h11.4l-1.1,0.5c0.5,0.5,0.5,0.5,3.3,0.5l-0.5-1.1
			c1.7,0.1,3.4-0.5,4.8,0.9c0.1,0.1,0.3,0.2,0.4,0.2c1.8-0.7,3.8,0.4,6.1-0.3l-1.7-0.7h4.7v0.1l-1.9,0.4v0.4c1.1,0,2.2,0.1,3.3,0.2
			c1.1,0,2.6,0,3.9,0c0.4,0,0.7-0.1,1-0.3c0.5-0.4,0.8-0.4,1.4,0c0.8,0.3,1.7,0.5,2.6,0.4c1.4,0.1,2.8,0.1,4.2,0.2v0.6c-1,0-2,0-3,0
			c-7.9,0.2-15.8,0.4-23.7,0.6c-8.7,0.2-17.4,0.5-26.1,0.8c-7.1,0.2-14.2,0.4-21.3,0.8c-6.7,0.3-13.3,0.8-20,1.2
			c-7.4,0.5-14.8,0.9-22.2,1.5c-8.7,0.8-17.5,1.6-26.2,2.4c-6.7,0.7-13.4,1.4-20.2,2.2c-6.2,0.7-12.3,1.3-18.5,2
			c-9.5,1.2-19,2.5-28.6,3.6c-5.3,0.6-10.7,1.2-16,1.6c-1,0-2-0.2-3-0.7c-1.1-0.4-1.2-1.3-1-2.2c0.3-1,0.9-1,1.8-1.2
			c3.5-0.6,6.9-1.4,10.3-2.1c1-0.2,2-0.2,3-0.4c2.5-0.6,5.1-0.8,7.6-1.3c4.8-1.1,9.7-1.9,14.6-2.8c0.6-0.1,1.3-0.5,1.7,0.4
			c0.1,0.2,0.8,0.2,1.1,0.1c3-1.6,6.4-1.7,9.6-2.2c3-0.5,6-0.4,9-0.8c3.3-0.4,6.6-1,9.9-1.6c1.3-0.4,2.7-0.4,4,0.2
			c0.1,0.1,0.3,0.2,0.4,0.1c1.1-0.4,2.3-0.9,3.8-1.6c-1.9,0-3.5-0.1-5,0c-8.7,0.9-17.3,1.8-26,2.7c-0.9,0.2-1.7,0.4-2.6,0.7
			c-2.1,0.8-4.4,0.4-6.2-0.9c0.6-2.7,1.4-3.3,3.9-3.4c2.5-0.1,5,0,7.5-0.1c1.4-0.1,2.7-0.3,4-0.7c-0.5-0.2-1-0.4-1.5-0.4
			c-4.8,0.3-9.6,0.6-14.4,0.9l-16.8,1.2c-3,0.2-3.2,0-4.1-3.1c2.3-1.1,4.8-0.5,7.2-0.8c0.4,0,0.8,0.1,1.2,0
			c4.2-0.6,8.3-1.3,12.5-1.8c5.2-0.7,10.5-1.2,15.8-1.7c1.1,0,2.3-0.2,3.4-0.5c3-1.1,6.2,0.1,9-1.4c0.1-0.1,0.3-0.1,0.5-0.1
			c5.1,0.9,10-1.1,15.1-1.2c5.9-0.2,11.8-1.2,17.7-2c1.9-0.4,3.9,0,5.6,1c0.9-1.2,2.4-1.8,3.9-1.7c4.4,0.1,8.7-0.1,13-0.5
			c3-0.4,5.8-0.2,8.6-0.4c2.3-0.2,4.6-0.6,6.9-0.9c1.2-0.1,2.4-0.1,3.7-0.2c4.2-0.1,8.4-0.3,12.6-0.4c2.2,0,4.4,0.1,6.7,0.1
			c0.6,0,1.1-0.1,1.7-0.3c1-0.2,2-0.3,3-0.3c4.6,0.2,9.2,0.1,13.7-0.3c1.2,0,2.5-0.2,3.1,1c3.6-1.1,7.4-1.4,11.1-0.8
			c0.9,0.2,1.7,0.5,2.5,0c0.1-0.1,0.3-0.1,0.5-0.1c1.5,0.8,3,0.1,4.3,0c2.3-0.1,4.6-0.1,6.9,0.1c0.9,0,1.7-0.3,2.6-0.3
			c6.6,0.1,13.1,0.2,19.7,0.4c5,0.2,10,0.5,15,0.8c0.7,0.2,1.4,0.5,2.1,1c1-1.3,2.5-1.4,4.4-0.9c1.1,0.1,2.3,0,3.4-0.1
			c2.6-0.1,5.2,0.2,7.7,0.8c1.7,0.7,3.4,1,5.2,1.1l-1.5-0.6l0.1-0.4c0.4-0.1,0.9-0.2,1.3-0.2c0.7,0,1.5,0.2,2.2,0.3
			c3.3,0.2,6.6,0.3,9.9,0.5c3.7,0.2,7.4,0.5,11.1,0.8c3.5,0.2,6.9,0.3,10.3,0.8c4.2,0.6,8.4,0.7,12.5,1.3c1.7,0.3,3.4,0.2,5.1,0.4
			c0.8,0.2,1.6,0.6,2.4,1c1.5-1.1,3,0.3,4.7,0.8l-0.3,1c0.3,0,0.5,0,0.7,0c1-0.8,1.8-0.6,2.4,0.4c0.4,1-0.1,2.1-1,2.6
			c-1.2,0.4-2.5,0.7-3.8,0.8c-4.7,0.1-9.5,0.1-14.2,0.1c-4.4,0-8.9-0.3-13.2-0.2c-1.6,0.3-3.2,0.7-4.8,1.2c-1.4,0.3-2.9,0.4-4.3,0.3
			c-4.3-0.2-8.6-0.6-12.9-0.7c-5.9-0.2-11.7-0.1-17.6-0.2s-11.4-0.2-17.1-0.3c-9.5-0.1-18.9-0.1-28.4-0.1c-6.3,0-12.5,0-18.8,0.1
			c-6.3,0.1-12.4,0.2-18.5,0.4c-11.6,0.4-23.1,0.9-34.7,1.5c-7.2,0.4-14.5,0.8-21.7,1.4c-9.1,0.7-18.2,1.5-27.2,2.4
			c-7.4,0.7-14.9,1.6-22.3,2.5c-4.7,0.6-9.5,1.4-14.2,2.2c-1.8,0.3-3.7,0.4-5.5,0.6v0.5c0.9,0.1,1.8,0.1,2.7,0
			c3.4-0.4,6.7-1,10.1-1.4c2.6-0.3,5.3-0.6,8-0.9c6.1-0.7,12.2-1.4,18.4-1.9c2-0.1,4-0.6,6-0.7c2-0.1,4.2-0.6,6.3-0.7
			c3.1-0.3,6.1-0.4,9.2-0.7c2.8,0,5.6-0.2,8.3-0.7c1.7-0.3,3.4-0.4,5.1-0.3c0.9,0,1.9-0.1,2.9-0.2c0.9-0.1,2.2-0.4,3,0.8
			C136,18.4,136.5,18.4,137.3,18.6z M320.6,9.9c-2-0.6-4-1.1-6.1-1.4c-4.6-0.5-9.2-0.7-13.9-1c-7.1-0.5-14.3-1.3-21.4-1.7
			c-9.5-0.5-19-1-28.5-1.3c-10-0.3-20-0.7-30-0.8c-7.3,0-14.7-0.5-22-0.2s-14.8,0.1-22.2,0.2c-2.8,0-5.5,0-8.3,0
			c-8.5,0.4-17.1,0.9-25.6,1.3c-5.9,0.3-11.8,0.6-17.7,1c-6.4,0.4-12.8,0.9-19.2,1.4l-13.1,1c-1.5,0.1-3,0.3-4.3,0.4l-19.4,1.9
			c-0.4,0.1-0.9,0.2-1.3,0.4c0.4,0.2,0.5,0.4,0.6,0.4c1.2,0,2.4-0.1,3.6-0.3c3.1-0.4,6.3-0.4,9.4,0.2c0.1,0,0.4,0,0.4,0
			c0.7-1.4,2.1-0.8,3.2-0.9c3.8-0.3,7.5-0.4,11.3-0.5c3.8-0.2,7.2-0.3,10.8-0.5c2.1,0,4.2,0,6.4-0.1c5-0.2,10-0.5,15.1-0.7
			c7.6-0.3,15.1-0.5,22.6-0.6c8.4,0,16.7-0.7,25-0.5c2.5,0,5-0.1,7.6-0.2c5.1-0.1,10.2-0.2,15.4-0.2c8,0,16,0,24.1,0
			c9.5,0,19.1,0.1,28.6,0.2c2.8,0,5.7,0.3,8.5,0.3c3.1,0,6.2,0,9.3,0c3.3,0.1,6.6,0.4,9.9,0.5c3.3,0.1,6.5,0.2,9.7,0.3
			c4.4,0.2,8.9,0.4,13.2,0.6c4.3,0.2,8.6,0.8,12.9,0.4c0.6,0,1.3-0.1,1.7,0.1C318,10.8,319.3,10,320.6,9.9L320.6,9.9z M66.2,11.8
			v-0.6c-0.7-0.1-1.5-0.6-2.6,0.5L66.2,11.8z M95.8,16.6v-0.2h-2.1v0.2H95.8z M90.7,17.1v-0.3l-1.8,0.1v0.4L90.7,17.1z M291.8,4.4
			c-0.2-0.1-0.3-0.3-0.5-0.3c0,0-0.2,0.3-0.3,0.4c0.2,0.1,0.4,0.2,0.6,0.3C291.5,4.7,291.6,4.5,291.8,4.4z"/>
	</g>
</g>
</svg>
