<?xml version="1.0" encoding="utf-8"?>
<!-- Generator: Adobe Illustrator 23.0.4, SVG Export Plug-In . SVG Version: 6.00 Build 0)  -->
<svg version="1.1" id="Layer_1" xmlns="http://www.w3.org/2000/svg" xmlns:xlink="http://www.w3.org/1999/xlink" x="0px" y="0px"
	 viewBox="0 0 325.5 32.7" style="enable-background:new 0 0 325.5 32.7;" xml:space="preserve">
<style type="text/css">
	.st0{fill:#3B3B3B;}
</style>
<g>
	<g id="Layer_1-2">
		<path class="st0" d="M304.2,15.7c-1.4,0-2.9-0.2-4.3-0.4c-1.5-0.2-2.9-1-4.4-0.9c-1.3,0.1-2.7,0.1-4-0.2c-2.5-0.5-5,0.5-7.3-0.7
			c0,0-0.2,0-0.2,0l-6.2,0.6c-0.5,0-1,0-1.5,0c-1.3,0-2.5-0.2-3.8-0.2c-2.1,0-4.1,0-6.2,0.1c-2.7,0.1-5.4,0.3-8.1,0.4
			c-1.1,0-2.2,0.5-3.2-0.3c-0.4-0.3-1.2-0.2-1.8-0.1c-1.2,0.1-2.3,0.5-3.5,0.5c-1.7,0-3.5-0.2-5.2-0.2c-0.9,0-2.3-0.2-2.8,0.3
			c-1.2,1.2-1.8-0.6-2.7-0.2c-0.6,0.2-1.3,0.6-1.8,0.4c-2.4-0.9-4.9-0.2-7.3-0.2c-1.6,0-3.2,0-4.8,0.1c-3.5,0.2-7.1-0.6-10.5,0.6
			c-0.7,0.1-1.4,0.1-2.1,0c-0.6-0.1-1.2-0.2-1.9-0.3c-1.9-0.2-3.9-0.1-5.7,0.3c-1.8,0.5-3.7-0.6-5.5,0.5c-0.5,0.3-1.8-0.3-2.7-0.5
			c-0.9-0.2-1.3,1.2-2.6,0.6c-1-0.4-2-0.5-3.1-0.3c-3.8,0.3-7.7-0.2-11.4,0.5c-0.8,0.2-1.9-0.5-2.6,0.5c0,0-0.4,0-0.6-0.1
			c-1.5-0.7-3.2-0.9-4.8-0.6c-1.9,0.4-3.7,0.5-5.6,0.6c-2-0.2-4,0.4-6-0.2c-0.9-0.1-1.8-0.1-2.6,0c-1.6-0.1-3.3-0.1-4.9-0.1
			c-1.6-0.3-3.2-0.4-4.8-0.4c-2.7,0.3-5.3,0.1-8,0.2c-1.6,0.1-3.2-0.1-4.8,0c-0.6,0.1-1.1,0.4-1.5,0.9c-0.3,0.6-0.5,1.2-0.6,1.8
			c-0.1-1.2-1.4-2.1-2.7-2c0,0,0,0-0.1,0c-1.2,0.1-2.5,0.2-3.7,0.4l-0.9-1.3c-0.7,1.6-1.5,1.8-2.8,0.8c-0.4-0.2-0.9-0.3-1.3-0.3
			c-1.4,0-2.7,0-4.1,0c-0.6,0-1.5,0-1.6,0.2c-0.8,1.5-2.3,0.5-3.3,0.9c-0.1-0.5-0.2-0.8-0.3-1c-1.6,0.2-2.9,0.8-4.4,0.1
			c-0.4-0.1-0.8-0.1-1.2,0.1c-1,0.7-2,0.4-3.1-0.2l-0.4,1.3c-0.6-0.5-1.3-1.4-1.7-1.3c-1.4,0.3-2.8,0-4,0.2
			c-2.2,0.4-4.6-0.3-6.7,0.8c-0.1,0-0.4-0.1-0.6-0.3c-1.1-1.1-1.5,0-2.1,0.5l-1.6-0.8c-1.2,1.7-1.3,1.9-1,2.5c0.6,1,1.7,0.7,2.6,0.7
			c1.9,0,3.9-0.2,5.8-0.2c6.2-0.1,12.4-0.1,18.5-0.2c4-0.1,8-0.2,12.1-0.3c4.6,0,9.1,0,13.7,0c2,0,4-0.2,6-0.1
			c2.9,0,5.8,0.3,8.8,0.4c4.6,0,9.2,0,13.8-0.1c4.6-0.1,9.2,0,13.7,0c3.3,0,6.6-0.2,9.8-0.3c5.2-0.1,10.4-0.2,15.7-0.3
			c7.5-0.2,15.1-0.3,22.6-0.4l13.6-0.3c6.2-0.1,12.4-0.3,18.6-0.3c6.2-0.1,12.4,0,18.6-0.1c2.3,0,4.6-0.2,7-0.1s5,0.1,7.4,0.3
			c1.5,0,2.9,0.3,4.3,0.3c2.1,0,4.1-0.2,6.2-0.4c0.4,0,1.1-0.4,1.2-0.7C305.4,16.1,305,15.7,304.2,15.7z"/>
		<path class="st0" d="M68.5,18.3c-1.1-1-2.7-1.3-4.1-0.8c-1.8,0.6-3.8,0.7-5.7,0.3c-2.4-0.3-4.6,0.6-7,0.3
			c-0.9-0.1-1.8,0.5-1.8,1.4c0,0.1,0,0.2,0,0.2c-0.1,0.4-0.2,0.8-0.3,1.2c-0.7-0.4-1.6-0.6-1.6-1c-0.3-1.1-1.2-1.3-2.1-1.3
			c-1.2,0-2.4,0-3.6,0.1c-2.2,0.1-4.4,0.3-6.6,0.4c-2.3,0.1-4.4,0-6.6,0c-2.6,0-5.3-0.2-7.9,0c-1.1,0.2-2.2,0.1-3.1-0.4
			c-0.2-0.1-0.6,0-0.9,0v0.9c-1.8,0.4-1.8-2.8-3.9-1.3c0,0.6-0.1,1.2-0.3,2.2c-1.1-1-2.3-1.4-1.5-2.9c-1.8,1.5-1.9,2.1-0.6,3.1
			c0.7,0.5,1.6,0.9,2.5,1.1c4.4,0.8,8.9,1.1,13.4,0.8l14.8-0.8c3-0.2,6.1-0.3,9.1-0.4c4.9-0.3,9.9-0.7,14.9-1
			c1.4-0.1,2.8-0.4,4.4-0.6c0.1,0.1,0.4,0.7,0.7,0.7c1.1-0.1,2.2-0.2,3.3-0.5c0.1,0,0.1-0.3,0.2-0.5C72,19.5,69.8,19.5,68.5,18.3z
			 M28.7,20.4c-0.2,0-0.4-0.4-0.5-0.6c0.2-0.1,0.4-0.4,0.6-0.4c0.2,0,0.4,0.3,0.8,0.6C29.2,20.2,28.9,20.5,28.7,20.4z M39.9,20.4
			c0-0.4-0.1-0.8-0.1-1.2h0.7c0,0.4,0.1,0.8,0.1,1.2C40.4,20.4,40.2,20.4,39.9,20.4L39.9,20.4z"/>
		<path class="st0" d="M73.9,19.3L73.9,19.3L73.9,19.3L73.9,19.3L73.9,19.3L73.9,19.3z"/>
		<path class="st0" d="M78.8,16.9l-5.4,0.4c0.2,0.7,0.4,1.4,0.6,2.1c0.9,0,1.8,0,2.7,0.2c2.7,0.6,5.5,0.5,8.1-0.2
			c-0.9-0.3-1.6-0.8-2.3-1.3C81.5,17,80.1,16.6,78.8,16.9z"/>
		<path class="st0" d="M308.2,15.3c-0.4,0.2-0.8,0.4-1.1,0.6c0.1,0.2,0.2,0.3,0.3,0.5l1.2-0.7L308.2,15.3z"/>
		<path class="st0" d="M70,18.2c0.3-0.1,0.5-0.2,0.7-0.4l-0.9-1c-0.1,0.3-0.2,0.6-0.3,1C69.5,18,69.9,18.3,70,18.2z"/>
	</g>
</g>
</svg>
