<?xml version="1.0" encoding="utf-8"?>
<!-- Generator: Adobe Illustrator 23.0.4, SVG Export Plug-In . SVG Version: 6.00 Build 0)  -->
<svg version="1.1" id="Layer_1" xmlns="http://www.w3.org/2000/svg" xmlns:xlink="http://www.w3.org/1999/xlink" x="0px" y="0px"
	 viewBox="0 0 80 600" style="enable-background:new 0 0 80 600;" xml:space="preserve">
<style type="text/css">
	.st0{fill:#3B3B3B;}
</style>
<g>
	<g id="Layer_1-2">
		<path class="st0" d="M57.8,225.9c0.4-4.8,0.3-9.8,0.4-14.7c0.1-3.3,0.3-6.5,0-9.7c-0.9-10,0.6-19.9,0.7-29.9
			c0.1-5.4,0.7-10.7,0.6-16.2c-0.1-9-0.9-17.9-1.2-27c-0.3-7.7-1-15.6-2.1-23.3c-0.4-2.6-0.6-5.1-0.6-7.7c0.1-3.7,0.4-7.2,0.9-10.7
			c0.4-3.4,1.3-6.7,1.9-10.1c0.7-3.9,1.2-7.7,1.9-11.5c1.2-6.7,2.5-13.2,3.9-19.9c0.6-2.7,1.2-5.4,1.8-8.1
			c1.2-5.2,2.2-10.5,3.4-15.7c0.7-3.5,1.5-7.1,2.4-10.6c0.3-1.4,0.3-2.9-1.5-3.8c-2.8,0.4-2.8,0.4-3.1,2.7c-0.1,1.8-0.4,3.5-0.7,5.4
			c-0.3,1.3-0.3,2.6-0.6,3.9c-0.3,1-0.6,2.1-0.7,3.3c0,0.5,0.3,1.3,0,1.4c-1.3,0.9-0.7,2.1-1,3.3c-0.3,1.6,0,3.4-0.7,4.8
			c-1.2,2.5-0.6,5.2-1.9,7.5c-0.3,0.7-0.3,1.3-0.3,2c0,0.8-0.1,1.4-0.3,2.1c-1.6,2.5-1.2,5.5-1.8,8.1c-0.3,1.2,0,2.5-0.3,3.7
			c-0.4,2.1-1,4.3-1.6,6.4c0,0.7,0,1.2,0,1.8c0,0.1,0,0.5,0,0.5c-1.3,0.5-0.7,1.6-1,2.5c-0.4,1.7,0.6,3.5-0.9,5.1
			c-0.1,0.1,0.1,0.7,0.1,1c0.1,0.3,0.1,0.7,0.1,0.9c-0.7,1.8-1.6,3.7-1.2,5.8c0,0.3,0,0.4-0.1,0.7c-0.6,1.7-1,3.4-1.6,5.1
			c0.6,0.4,1.2,0.5,1.2,0.8c0.3,1.3,0.7,2.6-0.3,3.8c-1,1-1.2,2.5-1.5,3.8c0.4,0.3,0.7,0.5,1,0.9c0.6,1,0.4,2.2-0.3,3.1
			c-0.9,1.7-1.2,3.3,0.7,4.8c0.3,0.3,0.4,0.7,0.1,1c-0.1,0.1-0.3,0.3-0.4,0.3c-0.4,0.1-0.7,0.1-1.2,0.1c0.4,1.2,0,2.4,1.5,2.9
			c0.3,0.1,0.4,0.4,0.4,0.8c0,1.3-0.1,2.6-0.1,3.8s0,2.4,0.1,3.5c0.3,2.6,1,5.4,0.3,7.9c-0.1,0.8-0.1,2.1,0.3,2.5
			c1.8,1.2,0.9,2.4,0.7,3.7c0,0.8-0.6,1.7-0.3,2.2c0.6,1,1.3,1.7,0.1,2.9c-0.1,0.1,0.1,0.8,0.3,1.2c0.3,1.2,0.6,2.4,0.7,3.5
			c0,1.2-0.3,2.4-0.3,3.5c0,1.3,0,2.6,0.1,3.9c0,0.7,0.1,1.3,0.3,2c0.1,0.5,0.1,0.9,0.3,1.3s0.4,0.9,0.4,1.3
			c-0.3,1.3,0.3,2.6-0.7,3.9c-0.4,0.5-0.4,1.3,0,1.8c1.2,1.2,0.6,2.2,0.1,3.4c0,0.4-0.3,0.8-0.1,1c0.9,1.6,0.1,3.1-0.1,4.7
			c-0.3,1.2-0.3,2.4,0.1,3.5c0.3,0.7,1,1.4,0.7,2.1c-0.4,0.5-0.9,1-1.3,1.6c0.1,0.7,0.6,1.2,0.4,1.7c-0.3,0.8-0.6,1.6-1,2.4
			c-0.1,1.6-0.7,3.1,0,4.8c0.1,0.3,0.1,0.4,0,0.7c-1.3,1,0,2,0.3,2.9c-1.6,0.9-1.2,2.2-0.7,3.4c0.1,0.4,0.1,0.7,0.1,1
			c-0.1,1.2-0.4,2.4-0.4,3.5c0,1.6,0,3.1,0,4.7c-0.1,0.9,0,1.8-0.1,2.7l0,0c0.3,1.7,1,3.4,0.1,5.1c0,0,0,0.1,0,0.3
			c0,1.4,0.1,2.9,0.1,4.2c0,1.4-0.3,3-0.1,4.5c0,1.3,0.1,2.6,0.3,3.9c0.1,2,0,3.8-0.4,5.8c-0.4,3.8-0.7,7.6-1.2,11.5
			c-0.4,4.1-1,8-1.5,12c-0.1,0.7-0.3,1.4-0.3,2.1c0.1,1.8,0,3.5-0.4,5.2c-0.7,3.7-1.2,7.2-1.8,10.9c-1.8,10.2-2.7,20.4-3.4,30.8
			c-0.3,4.5-0.3,8.9-0.7,13.4c-0.7,6.4-1.8,12.7-2.7,19.1c-1.2,7.6-2.5,15.3-3.6,22.9c-1,7.6-1.8,15.1-3,22.5
			c-1.2,7.7-3,15.3-4.9,22.9c-2.4,7.6-3.7,15.5-4.3,23.3c-0.1,4.2-0.6,8.2-0.7,12.4c-0.1,4.6,0,9.2-0.3,13.9
			c-0.6,7.2-1.5,14.5-2.4,21.7c-0.4,3.7-1.5,7.3-2.2,11.1c-0.9,4.1-1.8,8.2-2.8,12.3c-1.3,5.1-2.8,10.3-4.3,15.6
			c-0.9,3.4-1.8,6.7-2.7,10.1c-0.6,2.5-1.2,5-1.5,7.5c-0.6,5.6-1.2,11.4-1.5,17c-0.3,4.6,0,9,0,13.6c0,4.6,0.4,9,0.4,13.6
			c0.1,6.5,0,13.1,0.1,19.6c0.1,1.2,0.3,2.4,0.6,3.5c0.1,0.7,0.6,1,1.5,0.9c0.4-0.1,0.9-0.5,1-0.9c0.9-2.1,1.2-4.3,1.2-6.5
			c0-1.8,0-3.5,0-5.4c0-3.9,0.3-7.9,0.3-11.8c-0.1-7.9-0.3-15.8-0.4-23.8c-0.1-7.7,0.6-15.5,2.2-23c1.6-7.5,3.7-14.9,5.6-22.4
			c1-4.2,2.2-8.2,3.1-12.4c1.3-6.3,2.7-12.6,3.7-19c0.9-5.1,1.6-10.2,1.9-15.3c0.4-7.6,0.4-15.3,0.7-22.9c0.1-5.9,0.6-11.7,1.5-17.5
			c1.5-8.8,3.7-17.4,5.6-26.1c1-4.8,2.1-9.8,2.8-14.7c1-6.5,1.6-13,2.5-19.5c1.3-9.6,2.7-19.2,4.1-28.8C48.1,316,49,308,49.3,300
			c0.3-10.7,1.3-21.3,3.1-31.9c0.6-4.2,1.6-8.4,2.2-12.6c0.6-4.2,0.7-8.4,1.2-12.4C56.6,237.3,57.3,231.7,57.8,225.9z"/>
		<path class="st0" d="M52,95.8l-0.4,0.9l0.3,0.1l0.4-0.8L52,95.8z"/>
		<path class="st0" d="M55.4,174.7h-0.3l-0.1,2.1l0,0L55.4,174.7z"/>
	</g>
</g>
</svg>
