<svg xmlns="http://www.w3.org/2000/svg" viewBox="0 0 32.72 31.46"><title>icon-quote-3</title><g id="Layer_2" data-name="Layer 2"><g id="Layer_1-2" data-name="Layer 1"><path d="M14.07.73A9.33,9.33,0,0,1,12.65.31,2.66,2.66,0,0,0,9.72.6a2.51,2.51,0,0,1-2.13.56,2,2,0,0,0-1.51.42A10.69,10.69,0,0,0,3.17,5.09,20,20,0,0,0,1.4,10.38C1,13,.46,15.67,0,18.26c.27,1.7.46,3.28.8,4.83A35.13,35.13,0,0,0,2,27.21a1.45,1.45,0,0,0,1.57,1.18A1.5,1.5,0,0,0,5,26.85c0-.44,0-.89,0-1.32a7.62,7.62,0,0,1,.61-2.84,3.66,3.66,0,0,0,.57-1.77A10.63,10.63,0,0,1,6.48,19c.43-1.71,1-3.4,1.3-5.12A2.22,2.22,0,0,1,9.33,12a14.34,14.34,0,0,0,5.05-3.31,10.26,10.26,0,0,0,2-2.77A3.45,3.45,0,0,0,14.07.73ZM12,4.3c.46-.48.46-.48,1.11,0Z"/><path d="M32.65,4.21A1.47,1.47,0,0,0,31.74,3a2.75,2.75,0,0,0-2.46-.08c-1.37.54-2.34,2-4,1.81-.85,1-2,1.7-2.48,3a93.71,93.71,0,0,0-3.22,9.16,36.84,36.84,0,0,0-1.2,10.26A10.5,10.5,0,0,0,19,30.14a1.69,1.69,0,0,0,2,1.31c1-.07,1-.87,1.12-1.55.25-2.18.43-4.37.64-6.56.19-2,.39-3.93.59-6,1.19-.22,2.11-.51,2.42-1.65a.6.6,0,0,1,.29-.38c1.38-.56,1.88-1.91,2.72-3,.24-.3.5-.58.74-.88a20.58,20.58,0,0,0,2.32-3A6.81,6.81,0,0,0,32.65,4.21Z"/></g></g></svg>