<?xml version="1.0" encoding="utf-8"?>
<!-- Generator: Adobe Illustrator 23.0.4, SVG Export Plug-In . SVG Version: 6.00 Build 0)  -->
<svg version="1.1" id="Layer_1" xmlns="http://www.w3.org/2000/svg" xmlns:xlink="http://www.w3.org/1999/xlink" x="0px" y="0px"
	 viewBox="0 0 145.5 24.6" style="enable-background:new 0 0 145.5 24.6;" xml:space="preserve">
<style type="text/css">
	.st0{fill:#3B3B3B;}
</style>
<title>icon-oval-3</title>
<g>
	<g id="Layer_1-2">
		<path class="st0" d="M97.5,20.8c-1.3,0-2.5,0.4-3.8,0.3c-2.5-0.1-5,0.3-7.5,0.5c-2.1,0.1-4.3,0.3-6.4,0.4
			c-1.7,0.1-3.4-0.1-5.1,0.1c-4.2,0.4-8.3,0.2-12.5,0.2c-3.6,0-7.2-0.1-10.7-0.3c-2.6,0-5.1-0.1-7.7-0.3c-3.9-0.5-7.8-0.8-11.6-1.2
			c-3.4-0.4-6.8-1-10.1-1.7c-2.1-0.4-4.2-1.2-6.4-1.6c-3.9-0.7-7.7-1.9-11.3-3.5c-1.4-0.5-2.5-1.8-2.6-3.3c-0.1-0.4-0.2-0.7-0.4-1
			c-1.6,1.1-1.6,1.3-0.7,2.9c0.1,0.1,0.2,0.3,0.2,0.4c-0.3,1.6,1.2,1.7,2.1,2.2c0.2,0.1,0.5,0.1,0.7,0.3c0.4,0.5,1.1,0.5,1.6,0.1
			c0.1,0,0.3,0.1,0.4,0.1c-0.1,0.4-0.2,0.8-0.4,1.3l1.4-0.2c1.2,1.6,2.5,1.8,4.1,0.7l1,1.5c0.4,0,0.8,0.1,1.2,0.2
			c1.6,0.7,3.3,1.2,5,1.5c1.6,0.2,3.1,0.6,4.7,1c2,0.6,4.2,0.6,6.3,1.2c1.7,0.4,3.5,0.7,5.3,0.7c2,0.1,3.9,0.3,5.9,0.5
			c0.3,0,0.7,0,1,0.1c1,0.2,2,0.8,2.9,0.6c1.9-0.5,3.6,0.1,5.5,0s3.9,0.2,5.8,0.2s3.6-0.1,5.4-0.2v-0.2L59.8,24
			c0.5-0.2,1.1-0.2,1.7,0c0.4,0.1,0.9,0.1,1.3,0.1c2.1-0.2,4.2-0.2,6.3-0.3c0.4,0,0.9,0.3,1.2,0.2c1.3-0.6,2.7-0.2,4-0.6
			c0.6-0.2,1.3,0.2,1.9,0.1c2.1-0.4,4.3,0.1,6.4-0.2c3.7-0.6,7.4-0.7,11.1-1c0.9-0.2,1.8-0.4,2.7-0.7c0.6,0.7,1.6,0.3,2.6,0.5
			C98.5,20.7,98.5,20.8,97.5,20.8z M8.5,17.1c-0.1,0-0.3,0-0.4,0L8,16.9l0.9-0.3L9,16.9C8.8,17,8.7,17.1,8.5,17.1z"/>
		<path class="st0" d="M141.3,8.4c0.4,1.8,1.1,3.5,2,5.1c-0.5,0-1,0.1-1.4,0.2c-1.7,0.5-3.5,1-5.2,1.5c-0.2,0.1-0.4,0.5-0.6,0.7l0,0
			l0,0l0,0l0,0c0.3,0.4,0.6,0.8,1.1,0.6c0.8-0.2,1.6-0.4,2.3-0.6c2.2-0.3,4.2-1.2,5.9-2.6C145.5,10.9,143.7,8.8,141.3,8.4z"/>
		<path class="st0" d="M122.4,19.4L122.4,19.4L122.4,19.4z"/>
		<path class="st0" d="M128,17.5c-0.9-0.4-1.6,0.4-2.4,0.4c-1.2,0-2.4,0.1-3.8,0.1c0.2,0.6,0.4,1,0.6,1.4c0.3-0.1,0.6-0.2,0.9-0.2
			c1.7,0.1,3.5-0.1,5.2-0.6c0.4-0.2,0.9-0.3,1.4-0.4c1.9,0.2,3.6-0.9,5.5-1.2c0.6-0.1,0.8-0.5,0.7-1.1c-0.3-0.1-0.6-0.3-0.9-0.2
			C132.8,16.2,130.3,16.3,128,17.5z"/>
		<path class="st0" d="M106.3,20c-0.5,0.6-1,0.5-1.6,0.2c-0.4-0.1-0.9,0-1.3,0.1c-0.7,0.1-1.5,0.2-2.2,0.3l-1.5,0.2
			c0.1,1,0.8,1.1,1.4,1.1c1.3,0,2.6-0.1,3.9-0.2c1,0,1.8-0.7,1.9-1.6C106.7,20,106.4,19.9,106.3,20z"/>
		<path class="st0" d="M122.4,19.4L122.4,19.4L122.4,19.4z"/>
		<path class="st0" d="M119.7,18.9c-1.1,0.1-2.1,0.1-3.2,0c-0.9,0-1.8,0.3-2.4,0.9c0.8,0.4,1.6,0.5,2.5,0.5c1.9-0.5,3.8-0.8,5.7-0.9
			l-1.9-1C120.2,18.6,120,18.9,119.7,18.9z"/>
		<path class="st0" d="M112,19.7c-1.2,0-2.3,0-3.5,0.1c-0.1,0-0.1,0.3-0.2,0.4l0,0l0,0l0,0c0.7,0.9,1.2-0.1,1.9-0.3
			c0.6,0.8,1.7,0.9,2.4,0.4C112.4,20.1,112.2,19.7,112,19.7z"/>
		<path class="st0" d="M14.4,3.7l-0.1-0.3L10,4.1C11.7,4.7,13.1,4,14.4,3.7z"/>
		<path class="st0" d="M127.8,4.6l-5-0.5C124.4,4.8,126.8,5.1,127.8,4.6z"/>
		<path class="st0" d="M55.2,0.3V0.1h-4.9v0.2H55.2z"/>
		<path class="st0" d="M21.8,2l-3.9,0.8C19.3,3,20.7,3.1,21.8,2z"/>
		<path class="st0" d="M21.8,2L21.8,2L21.8,2L21.8,2z"/>
		<path class="st0" d="M45.9,0.4h-3.8v0.2h3.8L45.9,0.4z"/>
		<path class="st0" d="M82.8,0.4h-3.2v0.2h3.2L82.8,0.4z"/>
		<path class="st0" d="M65.9,0.2V0.1h-4v0.2H65.9z"/>
		<path class="st0" d="M120.6,3.6l-2.8-0.3C119.2,4.2,119.2,4.2,120.6,3.6z"/>
		<path class="st0" d="M37.2,0.9V0.7l-3,0.4v0.3L37.2,0.9z"/>
		<path class="st0" d="M95.6,1.1L93,1v0.2l2.5,0.3L95.6,1.1z"/>
		<path class="st0" d="M86.3,0.9h1.4V0.7h-2.9v0.2L86.3,0.9z"/>
		<path class="st0" d="M3.3,8.2c0.8-0.1,0.8-0.1,1.5-0.9L3,7.9C3.2,8.1,3.3,8.2,3.3,8.2z"/>
		<path class="st0" d="M70.1,0.6V0.2h-1.8l1,0.2C69.5,0.4,69.8,0.5,70.1,0.6z"/>
		<path class="st0" d="M28,1.8V1.5l-1.1-0.1v0.3H28z"/>
		<path class="st0" d="M73.5,0.2l0.1-0.1h-1.8v0.2L73.5,0.2z"/>
		<path class="st0" d="M16.7,3.4V3l-1.2,0.2l0.1,0.4L16.7,3.4z"/>
		<path class="st0" d="M137.7,7.2V7.1l-1.3-0.4l-0.2,0.2c0.2,0.1,0.5,0.2,0.7,0.3C137.2,7.1,137.4,7.1,137.7,7.2z"/>
		<path class="st0" d="M25.5,1.9l-0.1-0.2l-0.9,0.2l0.1,0.3L25.5,1.9z"/>
		<path class="st0" d="M75.7,0.1h-0.8v0.2l0.9,0.2L75.7,0.1z"/>
		<path class="st0" d="M49,0.3V0.2h-0.8v0.2L49,0.3z"/>
		<path class="st0" d="M59.9,0.3V0.1C59.7,0,59.5,0,59.3,0c-0.2,0-0.4,0.1-0.5,0.1v0.2H59.9z"/>
		<path class="st0" d="M108.2,21.5c0-0.7,0-1,0.1-1.3l-0.7-0.1L108.2,21.5z"/>
		<path class="st0" d="M106.4,2.1l0.1,0.2l1-0.1c-0.2,0-0.5-0.1-0.8-0.1C106.6,2,106.5,2.1,106.4,2.1z"/>
		<path class="st0" d="M23.3,2H22l1.3,0.2L23.3,2z"/>
		<path class="st0" d="M21.9,2L21.9,2z"/>
		<path class="st0" d="M140.3,9.3c-0.1-0.1-0.2-0.1-0.4-0.2c0,0-0.2,0.2-0.1,0.2c0.1,0.1,0.2,0.2,0.3,0.2L140.3,9.3z"/>
	</g>
</g>
</svg>
