<svg xmlns="http://www.w3.org/2000/svg" viewBox="0 0 83.34 5.89"><title>icon-line-2-bold</title><g id="Layer_2" data-name="Layer 2"><g id="Layer_1-2" data-name="Layer 1"><path d="M56.92,4c2.17.84,4.6.29,6.64,1.81a26.61,26.61,0,0,1-3,.09C56.75,5.52,52.92,5,49.06,4.74s-7.83-.43-11.74-.61c-2.68-.13-5.36-.27-8-.35-2.48-.06-5,0-7.44-.08-2.1-.05-4.2-.22-6.3-.26-3,0-6,0-9.07-.06A24.66,24.66,0,0,1,0,2.66C0,1.48.07.39,1.33,0a15.35,15.35,0,0,0,2,.31c4.8.1,9.6.15,14.39.26s9.49.3,14.24.34C37.22,1,42.51.91,47.81.86c2.1,0,4.2-.17,6.3-.17,3.77,0,7.54.12,11.3.1,4.32,0,8.63-.09,13-.21,1.12,0,2.23-.36,3.36-.44a1.68,1.68,0,0,1,1.22.49c.76.93.42,1.85-.88,2.12a49.92,49.92,0,0,1-6.06,1c-2.08.17-4.19.1-6.29.09s-4.19-.08-6.28-.06c-1.55,0-3.09.16-4.63.22C58.17,4,57.54,4,56.92,4Z"/></g></g></svg>