<svg xmlns="http://www.w3.org/2000/svg" viewBox="0 0 161.74 6.21"><title>icon-line-3-bold</title><g id="Layer_2" data-name="Layer 2"><g id="Layer_1-2" data-name="Layer 1"><path d="M161.68,5.58c-2.66,0-5.33,0-8,0-2.23,0-4.45,0-6.68,0-3,0-6.07-.37-9.12-.54-1.61-.08-3.23,0-4.84-.1-2.21-.07-4.42-.2-6.63-.25-1.59,0-3.19,0-4.78,0a2.27,2.27,0,0,1-2.49,1.51c-2.52-.23-5-.43-7.56-.62-4.57-.33-9.13-.68-13.71-1-1.87-.11-3.76,0-5.64-.06-.75,0-1.5-.2-2.25-.19q-7.6.08-15.21.2c-3.14.05-6.27,0-9.4.23-2.07.12-4.13.63-6.21.79C56.1,5.81,53,6,50,6c-4.09.07-8.19,0-12.28,0Q27.78,6,17.9,6c-1.61,0-3.23.1-4.85.14a6.19,6.19,0,0,1-1-.06L4.41,5.2c-1.12-.13-2.24-.29-3.36-.44-.6-.07-1-.34-1-1a1.29,1.29,0,0,1,1.27-1.2c.81,0,1.61.16,2.41.26l6.12.72a1.29,1.29,0,0,0,.48,0c3.47-.81,7-.43,10.49-.54,5.23-.17,10.45-.57,15.68-.87l7.76-.39c3.51-.2,7-.45,10.52-.6C59.1.94,63.48.85,67.85.7,70.6.61,73.34.45,76.09.36q5-.15,10-.25c2.2,0,4.41-.13,6.62-.1,3.45,0,6.9.16,10.36.26,3,.08,6,.16,9,.29,1.56.07,3.12.26,4.68.36,1.08.08,2.16,0,2.87,1.13.15.24.66.32,1,.34,3.5.23,7,.41,10.52.63,3.06.19,6.12.42,9.18.63a7.89,7.89,0,0,0,1,0,33,33,0,0,1,6.28.44c1.09.13,2.2.08,3.3.16,3,.21,6,.43,9,.69a12.73,12.73,0,0,1,1.82.45Z"/></g></g></svg>