<?xml version="1.0" encoding="utf-8"?>
<!-- Generator: Adobe Illustrator 23.0.4, SVG Export Plug-In . SVG Version: 6.00 Build 0)  -->
<svg version="1.1" id="Layer_1" xmlns="http://www.w3.org/2000/svg" xmlns:xlink="http://www.w3.org/1999/xlink" x="0px" y="0px"
	 viewBox="0 0 360.5 43.8" style="enable-background:new 0 0 360.5 43.8;" xml:space="preserve">
<style type="text/css">
	.st0{fill:#3B3B3B;}
</style>
<g>
	<g id="Layer_1-2">
		<path class="st0" d="M333.6,19c-1.7-1.1-3.5-2.1-5.7-1c-0.4,0.2-1.4,0-1.5-0.2c-0.9-2.5-2.9-1.2-4.4-1.3l-2.6-0.2l-1.9-0.1
			l-0.4,1.8c-1.6-1.2-3.7-1.7-5.8-1.3c-1.3,0.1-2.6,0.1-3.9,0c-0.9,0-1.7,0-2.6,0c-1.9,0-3.7,0.3-5.6,0.2c-1.1,0-3.4-0.4-4.5-0.4
			c-1.1,0.3-2.3,0.3-3.4,0c-2-0.9-3.8-0.3-5.7,0c-2,0.5-4.1,0.4-6.1-0.3c-0.3-0.1-0.7-0.1-1,0c-0.7,0.7-1.3,0.3-2,0.3
			c-2.1,0-4.4-0.4-6.2,1.3c-2.7-1.7-11.8-1.6-16.1-0.1c-1.4-0.4-2.7-0.6-4.2-0.7c-1.5,0-3.1-0.4-4.1,1.2c-0.9-0.3-1.2-1.7-2.4-0.7
			c-0.5,0.4-1.4,0.1-2.2,0.2c-0.7,0.1-1.3,0-1.6,0.2c-1.2,1-2.8,1.2-4.3,0.7c-2.9-0.5-5.8-0.6-8.8-0.5c-1.6-0.2-3.1,0.5-4.2,1.7
			l-0.7-1.4c-2.2,1.2-4.5-0.5-6.8,0.5s-4.9-0.6-7.1,1c-1.9-1.4-2.8-1.7-4.9-0.7c-0.8,0.4-1.8,0.2-2.5-0.3c-0.2,0-0.4,0-0.5,0
			l-1.5,1.7l-1.8-1.3l-1.7,1.5c-2.5-0.6-5.2-1-7.8-0.9c-2.7-0.2-5.4,0.3-7.8,1.5c-1.1-0.6-1.7-2.2-3.2-1.4l-0.4,1.5
			c-3.5-1.6-6.3-1.4-8.9,0.9c1.1,0.3,2.1,0.5,3.2,0.6c5.4,0,10.8,0,16.1,0c3.1,0,6.2-0.4,9.4-0.5c5.3-0.1,10.6,0,15.9-0.2
			c10-0.3,20-0.7,30-1c4.9-0.2,9.8-0.3,14.8-0.4c6.5-0.2,12.9-0.4,19.4-0.5c6.2-0.1,12.4-0.2,18.6-0.2c7.5-0.1,15-0.1,22.5-0.2
			c1.7,0,3.4,0,5.1,0.1l8.4,0.2c1.7,0,3.3,0,4.9,0C334.7,19.7,334.2,19.3,333.6,19z"/>
		<path class="st0" d="M102.7,23.7c-0.8,0.1-1.6-0.1-2.3-0.5c-1-0.8-2.5-1-3.6-0.4c-1,0.3-2.4-0.6-2.9,1.3c-1-1.6-3-2.1-4.7-1.3
			c-0.7,0.3-1.7,0.8-2.3,0.7c-1.7-0.2-3.3-0.1-4.9,0.5c-0.7,0.2-1.4,0.2-2.1,0.2c-2.8-0.4-5.4-2.2-8.3-0.5c-0.2,0.1-0.5-0.2-0.8-0.2
			c-0.7,0-1.5,0.1-2.2,0.2c-1,0-2,0.1-3,0.2c-1,0-2.2,0-3.3,0c-1.8,0.4-3.7,0.6-5.6,0.5c-3.8-0.8-7.5,0-11.2-0.3c-2,0-4,0.2-6,0.4
			c-2.9,0.2-5.9,0.2-8.8,0.3c-2.2,0.4-4.4,0.6-6.6,0.6c-1.9-0.2-3.9,1.4-5.7-0.2c-0.1-0.1-0.5,0.2-0.7,0.2c-1,0.2-2,0.3-3,0.3
			c-2.2-0.2-4.4-0.7-6.8-1.1c-1.6-0.3-2.4,0.7-3.4,1.9c0.5,0.3,0.9,0.5,1.4,0.7c3.4,0.8,6.8,1.4,10.3,1.7c2.2,0.3,4.5,0,6.5-0.9
			c0.3-0.1,0.6-0.1,0.9,0c1.6,0.8,3.4,0.9,5.1,0.3c0.9-0.2,2-0.8,2.7-0.5c2.4,1,4.7,0,7.1,0c2.6,0.1,5.2-0.6,7.8-0.5
			c4.3,0.2,8.6-0.3,12.9-0.5c1.3,0.1,2.6,0,3.9-0.3c1.4-0.5,2.6-1.5,4.1,0c0.2,0.2,0.9,0,1.3-0.1c0.7-0.1,1.4-0.1,2.1-0.1
			c1,0,2,0.3,3,0.2c2.5,0,5.1-0.2,7.5-0.4c0.8-0.2,1.7-0.4,2.5-0.5c2.4,0.1,4.8,0.8,7.2-0.4c0.4-0.1,0.7-0.1,1.1,0
			c3.8,0.1,7.6,0.2,11.4,0.3c0.8,0,1.4,0,1.7-0.9C104.5,23.8,103.6,23.5,102.7,23.7z"/>
		<path class="st0" d="M105,24.6l0.1,0.1v-0.2L105,24.6L105,24.6z"/>
		<path class="st0" d="M141.3,21.5c-2-0.8-3.9-1.3-5.6,0.6c-1.6-0.9-2.8-1.7-4.7-0.5c-1.9,1.2-3.9,0.9-5.9,1.3
			c0-0.4,0.2-0.7,0.4-1.3c-1.2,0.9-2.8,1-4.1,0.3c-1-0.5-2.3-0.6-3.4-0.2c-2.5,1.3-5.1,0.8-7.6,0.6c-0.6,0-1.3,0-1.9,0.2
			c-0.9,0.2-1.8,0.5-2.9,0.8l-0.5,1.4c0.2,0.2,0.4,0.3,0.6,0.4c3.2,0,6.5,0.1,9.7,0c0.6,0,1.2-0.6,2-1c0.7,1.1,1.7,0.9,2.9,0.7
			c2.4-0.5,4.9-0.8,7.4-0.7c2.7,0.3,5.5,0.3,8.2,0.1c3-0.2,6.1-0.3,9.1-0.2c1.8,0,3.7,0.4,5.6-0.5c-0.3-1-0.6-1.8-0.9-2.8
			C147.2,22,144.1,22.4,141.3,21.5z"/>
		<path class="st0" d="M163.1,20c-1.6,0.4-3.3,0.5-4.9,0.2c-1-0.2-2.1-0.1-2.5,0.4c-1.2,1.7-2.1,0.9-3.3-0.2c-1.1,1.9-0.5,3,1.4,3
			c1.2,0,2.4-0.4,3.6-0.5c3.1,0,6.1,0,9.4,0c-0.3-0.7-0.4-1.6-0.6-1.6C165,21.3,164.6,19.7,163.1,20z"/>
	</g>
</g>
</svg>
