<?xml version="1.0" encoding="utf-8"?>
<!-- Generator: Adobe Illustrator 23.0.4, SVG Export Plug-In . SVG Version: 6.00 Build 0)  -->
<svg version="1.1" id="Layer_1" xmlns="http://www.w3.org/2000/svg" xmlns:xlink="http://www.w3.org/1999/xlink" x="0px" y="0px"
	 viewBox="0 0 204.6 7.1" style="enable-background:new 0 0 204.6 7.1;" xml:space="preserve">
<style type="text/css">
	.st0{fill:#3B3B3B;}
</style>
<title>icon-line-1</title>
<g>
	<g id="Layer_1-2_1_">
		<path class="st0" d="M201.6,1.7c-1,0-2-0.1-2.9-0.3c-1-0.2-2-0.8-3-0.7c-0.9,0.1-1.8,0.1-2.8-0.1c-1.7-0.4-3.4,0.4-5-0.6
			c0,0-0.1,0-0.2,0l-4.2,0.4c-0.3,0-0.7,0-1,0c-0.9,0-1.7-0.2-2.6-0.2c-1.4,0-2.8,0-4.2,0.1c-1.9,0.1-3.7,0.2-5.6,0.3
			c-0.7,0-1.5,0.4-2.2-0.2c-0.3-0.2-0.8-0.2-1.2-0.1c-0.8,0.1-1.6,0.4-2.4,0.4c-1.2,0-2.4-0.1-3.6-0.2c-0.6,0-1.6-0.1-1.9,0.2
			c-0.8,0.9-1.2-0.4-1.9-0.1c-0.4,0.2-0.9,0.5-1.2,0.3c-1.7-0.7-3.3-0.2-5-0.1c-1.1,0-2.2,0-3.3,0.1c-2.4,0.1-4.8-0.5-7.2,0.4
			c-0.5,0.1-1,0.1-1.5,0c-0.4-0.1-0.8-0.2-1.3-0.2c-1.3-0.1-2.6-0.1-3.9,0.2c-1.2,0.4-2.5-0.5-3.7,0.4c-0.4,0.2-1.2-0.2-1.9-0.4
			s-0.9,0.9-1.8,0.5c-0.7-0.3-1.4-0.4-2.1-0.2c-2.6,0.3-5.2-0.2-7.8,0.4c-0.6,0.1-1.3-0.4-1.8,0.4c0,0-0.3,0-0.4-0.1
			c-1-0.5-2.2-0.7-3.3-0.5c-1.3,0.3-2.6,0.4-3.9,0.4c-1.4-0.2-2.8,0.3-4.1-0.2c-0.6-0.1-1.2-0.1-1.8,0C99.9,2,98.8,2,97.7,2
			c-1.1-0.2-2.2-0.3-3.3-0.3c-1.8,0.3-3.7,0.1-5.5,0.1c-1.1,0.1-2.2-0.1-3.3,0c-0.4,0.1-0.8,0.3-1,0.7c-0.2,0.4-0.4,0.9-0.4,1.4
			c-0.1-0.9-0.9-1.6-1.9-1.6c0,0,0,0,0,0c-0.9,0.1-1.7,0.2-2.6,0.3l-0.6-1c-0.5,1.2-1.1,1.4-1.9,0.6C77,2,76.7,2,76.4,2
			c-0.9,0-1.9,0-2.8,0c-0.4,0-1,0-1.1,0.2c-0.6,1.1-1.6,0.3-2.3,0.7C70.1,2.5,70.1,2.2,70,2c-1.1,0.2-2,0.6-3,0.1
			C66.7,2,66.5,2,66.2,2.1c-0.7,0.5-1.4,0.3-2.1-0.2l-0.2,1c-0.4-0.4-0.9-1.1-1.2-1c-0.9,0.3-1.9,0-2.8,0.1
			c-1.5,0.3-3.2-0.2-4.6,0.6c-0.1,0-0.3-0.1-0.4-0.2c-0.8-0.9-1,0-1.5,0.4l-1.1-0.6c-0.8,1.3-0.9,1.5-0.7,1.9
			c0.4,0.8,1.2,0.5,1.8,0.5c1.3,0,2.6-0.2,4-0.2c4.2-0.1,8.5-0.1,12.7-0.2c2.8-0.1,5.5-0.2,8.3-0.2c3.1,0,6.2,0,9.4,0
			c1.4,0,2.8-0.1,4.1-0.1c2,0,4,0.3,6,0.3c3.1,0,6.3,0,9.4-0.1s6.3,0,9.4,0c2.2,0,4.5-0.2,6.7-0.2c3.6-0.1,7.2-0.2,10.7-0.2
			c5.2-0.1,10.3-0.2,15.5-0.3l9.3-0.2c4.2-0.1,8.5-0.2,12.7-0.3s8.5,0,12.7,0c1.6,0,3.2-0.1,4.8-0.1s3.4,0.1,5.1,0.2
			c1,0,2,0.2,2.9,0.2c1.4,0,2.8-0.2,4.2-0.3c0.3,0,0.8-0.3,0.8-0.6C202.4,2,202.2,1.7,201.6,1.7z"/>
		<path class="st0" d="M40.2,3.7c-0.7-0.8-1.9-1-2.8-0.6c-1.3,0.5-2.6,0.5-3.9,0.3c-1.6-0.3-3.2,0.5-4.8,0.2C28,3.5,27.4,4,27.3,4.6
			c0,0.1,0,0.1,0,0.2c0,0.3-0.1,0.6-0.2,0.9C26.6,5.4,26,5.2,26,4.9c-0.2-0.9-0.8-1-1.4-1c-0.8,0-1.6,0-2.5,0.1
			c-1.5,0.1-3,0.2-4.5,0.3s-3,0-4.5,0c-1.8,0-3.6-0.1-5.4,0C6.9,4.5,6.2,4.4,5.5,4C5.4,3.9,5.1,4,4.9,4v0.7C3.7,5,3.7,2.5,2.2,3.7
			c0,0.4-0.1,0.9-0.2,1.7C1.3,4.6,0.4,4.3,1,3.1c-1.2,1.2-1.3,1.6-0.4,2.4c0.5,0.4,1.1,0.7,1.7,0.9C5.3,7,8.4,7.2,11.5,7l10.1-0.6
			c2.1-0.1,4.1-0.2,6.2-0.3c3.4-0.2,6.8-0.5,10.2-0.8c1-0.1,1.9-0.3,3-0.5c0.1,0.1,0.3,0.5,0.5,0.5c0.8-0.1,1.5-0.2,2.3-0.4
			c0.1,0,0.1-0.2,0.1-0.4C42.5,4.6,41.1,4.6,40.2,3.7z M12.9,5.3c-0.1,0-0.2-0.3-0.4-0.4c0.1-0.1,0.3-0.3,0.4-0.3s0.3,0.2,0.5,0.4
			C13.2,5.2,13.1,5.4,12.9,5.3z M20.6,5.3c0-0.3,0-0.6-0.1-0.9H21c0,0.3,0.1,0.6,0.1,0.9C20.9,5.3,20.8,5.3,20.6,5.3L20.6,5.3z"/>
		<path class="st0" d="M43.9,4.5L43.9,4.5L43.9,4.5L43.9,4.5L43.9,4.5L43.9,4.5z"/>
		<path class="st0" d="M47.2,2.6l-3.7,0.3c0.1,0.5,0.3,1,0.4,1.6c0.6,0,1.2,0,1.9,0.1C47.6,5,49.5,5,51.3,4.4
			c-0.6-0.2-1.1-0.6-1.6-1C49.1,2.7,48.1,2.4,47.2,2.6z"/>
		<path class="st0" d="M204.4,1.4c-0.3,0.1-0.5,0.3-0.8,0.5c0.1,0.1,0.1,0.3,0.2,0.4l0.8-0.5L204.4,1.4z"/>
		<path class="st0" d="M41.2,3.7c0.2-0.1,0.4-0.2,0.5-0.3l-0.6-0.8c-0.1,0.2-0.2,0.5-0.2,0.8C40.9,3.5,41.1,3.7,41.2,3.7z"/>
	</g>
</g>
</svg>
