<svg xmlns="http://www.w3.org/2000/svg" viewBox="0 0 221.26 22.64"><title>icon-line-12</title><g id="Layer_2" data-name="Layer 2"><g id="Layer_1-2" data-name="Layer 1"><path d="M86.54,12.47l-.81-1c3.35-.22,6.56-.45,9.77-.65,3.72-.23,7.44-.47,11.17-.63,4.17-.16,8.34-.25,12.52-.33a5.6,5.6,0,0,1,1.5.42c.18-.15.47-.6.78-.62,1.78-.09,3.57-.09,5.35-.09h7.71l-.72.35c.32.37.32.37,2.2.38l-.37-.76c1.17.1,2.32-.37,3.28.6.07.07.22.15.3.12,1.23-.48,2.54.3,4.14-.19l-1.12-.46h3.2l0,.1-1.26.31v.27c.74,0,1.48.1,2.22.12s1.74,0,2.61,0a1.3,1.3,0,0,0,.71-.19c.37-.28.52-.25.94,0a3.58,3.58,0,0,0,1.74.26c.95.06,1.91.09,2.87.12v.43c-.67,0-1.34,0-2,0q-8,.19-16,.42-8.84.24-17.67.52c-4.8.15-9.59.3-14.38.54-4.51.22-9,.55-13.53.85-5,.34-10,.65-15,1.07C70.8,15,64.88,15.53,59,16.12c-4.54.46-9.08,1-13.63,1.51-4.16.46-8.32.87-12.48,1.38-6.45.8-12.88,1.71-19.33,2.51-3.6.44-7.22.8-10.83,1.11a4.46,4.46,0,0,1-2-.45C0,21.92-.1,21.29.07,20.63s.62-.71,1.23-.82c2.34-.41,4.66-1,7-1.43.68-.14,1.38-.15,2.05-.3,1.7-.4,3.43-.52,5.13-.92,3.26-.75,6.56-1.3,9.85-1.93.4-.07.85-.32,1.14.28.05.11.54.15.72.05,2-1.12,4.31-1.16,6.5-1.53,2-.34,4.06-.31,6.08-.57,2.24-.29,4.46-.72,6.69-1.1a3.56,3.56,0,0,1,2.68.15c.08.06.22.12.3.08.76-.3,1.53-.63,2.59-1.08-1.31,0-2.34-.08-3.35,0C42.81,12.12,37,12.76,31.1,13.4a9.67,9.67,0,0,0-1.73.48,4.25,4.25,0,0,1-4.18-.63c.43-1.84.93-2.31,2.64-2.38s3.4,0,5.1-.08a11.37,11.37,0,0,0,2.7-.45,2.86,2.86,0,0,0-1-.28c-3.24.18-6.49.39-9.73.61l-11.38.81c-2,.14-2.18,0-2.75-2.12,1.55-.75,3.24-.32,4.84-.55.27,0,.55.07.82,0,2.81-.42,5.61-.9,8.43-1.27,3.55-.45,7.11-.8,10.66-1.21A9.67,9.67,0,0,0,37.79,6c2-.73,4.19.08,6.11-1a.59.59,0,0,1,.32-.06c3.47.65,6.78-.74,10.21-.83,4-.12,8-.86,11.94-1.36a4.84,4.84,0,0,1,3.76.71,3.16,3.16,0,0,1,2.62-1.21,86.14,86.14,0,0,0,8.82-.32c2-.25,3.91-.12,5.85-.28C89,1.5,90.52,1.21,92.07,1c.82-.09,1.65-.1,2.47-.13,2.84-.1,5.68-.22,8.53-.27,1.5,0,3,.07,4.52.07a7.53,7.53,0,0,0,1.14-.19,8.77,8.77,0,0,1,2-.21A63.43,63.43,0,0,0,120,.05c.84,0,1.66-.16,2.11.71a15.55,15.55,0,0,1,7.52-.52c.6.11,1.15.37,1.72,0a.39.39,0,0,1,.32-.07c1,.56,2,.07,2.92,0a35.91,35.91,0,0,1,4.64.06c.58,0,1.18-.19,1.77-.18,4.44.07,8.89.11,13.33.26,3.39.11,6.78.33,10.17.56a4.66,4.66,0,0,1,1.39.67c.65-.87,1.71-.95,3-.63A12.62,12.62,0,0,0,171.2.82a21.82,21.82,0,0,1,5.22.52,11,11,0,0,0,3.51.79l-1-.42.1-.26a4.38,4.38,0,0,1,.87-.14c.49,0,1,.17,1.46.2,2.23.14,4.46.24,6.69.38,2.5.16,5,.34,7.49.52,2.34.17,4.7.21,7,.56,2.81.43,5.66.45,8.46.92,1.13.18,2.29.14,3.43.29a7.45,7.45,0,0,1,1.59.69c1-.75,2,.22,3.17.53l-.21.66c.17,0,.37,0,.48,0,.67-.52,1.24-.42,1.63.3a1.45,1.45,0,0,1-.7,1.81,9.42,9.42,0,0,1-2.55.53c-3.2.07-6.4.07-9.6.05-3,0-6-.18-8.93-.11a23,23,0,0,0-3.25.81,12.6,12.6,0,0,1-2.94.23c-2.91-.12-5.82-.41-8.73-.48-4-.11-7.93-.06-11.9-.11s-7.71-.17-11.56-.21q-9.6-.07-19.2-.09c-4.24,0-8.48,0-12.72.05s-8.36.11-12.53.27Q104.75,9.56,93,10.17c-4.89.25-9.78.54-14.67.94C72.17,11.6,66,12.18,59.91,12.8q-7.54.77-15.07,1.73c-3.21.41-6.4,1-9.6,1.49-1.24.19-2.5.28-3.75.41v.34a14.32,14.32,0,0,0,1.85,0c2.28-.3,4.54-.67,6.82-1,1.79-.24,3.6-.43,5.4-.62,4.14-.45,8.27-.95,12.42-1.28,1.37-.1,2.71-.41,4.09-.46s2.81-.39,4.23-.51c2.07-.19,4.15-.27,6.22-.45A36.69,36.69,0,0,0,78.15,12a20.69,20.69,0,0,1,3.45-.24c.64,0,1.29-.06,1.93-.14s1.52-.27,2.06.54C85.68,12.28,86,12.29,86.54,12.47Zm124-6.05a31.43,31.43,0,0,0-4.13-1c-3.11-.33-6.25-.46-9.38-.7-4.83-.38-9.65-.88-14.49-1.17-6.42-.38-12.85-.66-19.28-.88-6.77-.24-13.55-.48-20.32-.52C138,2.12,133,1.78,128.08,2s-10,.09-15,.11c-1.87,0-3.74,0-5.6,0-5.77.28-11.55.61-17.32.93-4,.22-8,.41-12,.67-4.33.29-8.65.65-13,1l-8.88.7c-1,.07-2,.19-2.93.28L40.22,7a4.82,4.82,0,0,0-.88.3c.25.16.34.27.43.27a24,24,0,0,0,2.41-.18,18.59,18.59,0,0,1,6.36.17c.08,0,.24,0,.25,0,.47-1,1.44-.58,2.16-.64,2.54-.19,5.1-.26,7.65-.37s4.88-.24,7.32-.33c1.43,0,2.86,0,4.3-.08C73.62,6,77,5.76,80.44,5.64c5.11-.18,10.21-.38,15.32-.42,5.65,0,11.29-.46,16.94-.35,1.7,0,3.41-.09,5.11-.12,3.46-.07,6.93-.14,10.39-.16q8.13,0,16.27,0,9.67,0,19.36.11c1.92,0,3.84.2,5.76.24,2.09,0,4.18,0,6.27,0,2.25.07,4.49.27,6.73.37s4.39.11,6.58.2c3,.13,6,.3,8.92.43s5.79.57,8.7.25c.38,0,.91-.1,1.13.1C208.75,7.08,209.66,6.53,210.52,6.42ZM38.43,7.74V7.31c-.5-.09-1-.44-1.73.34Zm20,3.31v-.13H57v.13ZM55,11.38v-.24l-1.22.09,0,.3ZM191,2.62a1.13,1.13,0,0,0-.36-.24s-.15.18-.23.28a2.42,2.42,0,0,0,.4.19S190.91,2.72,191,2.62Z"/></g></g></svg>