<?xml version="1.0" encoding="utf-8"?>
<!-- Generator: Adobe Illustrator 23.0.4, SVG Export Plug-In . SVG Version: 6.00 Build 0)  -->
<svg version="1.1" id="Layer_1" xmlns="http://www.w3.org/2000/svg" xmlns:xlink="http://www.w3.org/1999/xlink" x="0px" y="0px"
	 viewBox="0 0 144.2 41" style="enable-background:new 0 0 144.2 41;" xml:space="preserve">
<style type="text/css">
	.st0{fill:#3B3B3B;}
</style>
<title>icon-scribble-2</title>
<g>
	<g id="Layer_1-2_1_">
		<path class="st0" d="M139.8,29.5c-0.2,0.2-0.3,0.3-0.5,0.4c-3.1,0.5-6.2,1.3-9.5,1c-4.6-0.5-9.2-0.3-13.9-0.5
			c-1.5,0-3-0.1-4.4-0.2c-0.3,0-0.6,0.2-0.8,0.4c0.8,0.1,1.5,0.3,2.3,0.4c5,0.6,10,1.3,15,1.9c0.7,0,1.3,0.6,1.3,1.4
			c0.1,0.9-0.5,1.2-1.1,1.4c-0.6,0.1-1.2,0.1-1.8,0.1c-3.6-0.2-7.3-0.4-10.9-0.5c-0.4,0-0.8,0.1-1.1,0.3c0.5,0.1,0.9,0.1,1.4,0.2
			c4.5,0.4,9.1,1,13.5,1.9c0.8,0,1.5,0.5,1.9,1.1c0.4,0.6,0.2,1.5-0.4,1.9c-0.2,0.1-0.4,0.2-0.6,0.2c-0.4,0-0.9,0-1.3,0
			c-3.4-0.2-6.8-0.4-10.2-0.7c-5.7-0.4-11.4-0.9-17.1-1.3c-4.3-0.3-8.7-0.5-13-0.7c-6.4-0.3-12.7-0.6-19.1-0.8
			c-5.6-0.2-11.2-0.1-16.8-0.3c-2.4-0.1-4.8-0.3-7.2-0.6c-0.5,0-1.2-0.3-1.4-0.6C43.6,35,42.9,35,42,35c-1.4,0-2.7-0.1-4.3-0.1
			l0.7-1.8h-1.2c0.6-0.8,1.5-1.3,2.4-1.4c5.1-0.4,10.2-0.8,15.4-1.3c1.2-0.1,2.4-0.2,3.6-0.4c-0.6-0.4-1.4-0.6-2.1-0.5
			c-2.9,0-5.7,0.1-8.6,0.1s-5.4,0-8.1-0.1c-1.2,0-2.3-0.1-3.5-0.3c-0.8-0.1-1.6-0.2-1.8-1.1c-0.4-0.8,0-1.8,0.8-2.2
			c0.1,0,0.2-0.1,0.3-0.1c-0.5-0.1-0.9-0.2-1.4-0.3c-3.1,0-6.3,0-9.4-0.1c-2-0.1-4-0.3-6.1-0.6c-0.7-0.1-1.4-0.4-2.1-0.6
			c-0.1-0.7-0.1-1.5,0-2.2c0.2-0.5,0.5-0.8,1-1c0.9-0.3,1.8-0.6,2.7-0.7c2.4-0.3,4.9-0.5,7.3-0.8c0.1,0,0.2-0.1,0.3-0.2
			c-0.2-0.7-0.8-0.4-1.3-0.4c-5.1,0.1-10.1,0.1-15.2,0.2c-0.9,0-1.9-0.1-2.8-0.2c-1.6-0.2-1.7-0.3-2.1-2c-0.1-0.3-0.2-0.5-0.3-0.9
			c-1.5-0.4-3.5-0.4-3-3c0.8-0.7,2-1,3-0.6c0.8-1,2.1-0.7,3.1-1.1c1-0.4,2.4,0.4,3.4-0.7h-1.5c-2.9-0.1-5.7-0.1-8.6-0.3
			C1.5,10.4,0.2,10,0,8.3l0.9-1.5l6.3-0.6c2-0.2,3.9-0.4,5.8-0.6c0.4,0,0.8-0.1,1.1-0.3c1.6-0.8,3.3-1.2,5-1.3
			c2.3-0.3,4.7-0.5,7-0.9c0.8-0.1,1.5,0.6,2.2,0c0.2-0.2,0.5-0.3,0.7-0.4l-4.3-1c0.6-0.6,1.5-0.8,2.3-0.7c2.1-0.1,4.3-0.2,6.4-0.4
			c1.5-0.1,3-0.4,4.6-0.5C40.7,0,43.2,0,45.8,0s5.3,0.1,7.9,0.2c3,0.1,6,0.1,9.1,0.1c2,0,4.1,0,6.1,0c1.2,0,2.4,0,3.6,0.1
			s2.7,0.1,4,0.2s2.5,0.2,3.7,0.2c2.3,0,4.6-0.1,6.9-0.1c2.8,0,5.6,0.1,8.4,0.2c2,0,4.1,0,6.1,0.1c3,0.1,5.9,0.2,8.9,0.4
			c2.3,0.1,4.6,0.1,6.9,0.3s4.7,0.3,7,0.5c2,0.1,3.9,0.2,5.9,0.4c1.5,0.2,3,0.5,4.6,0.7s3.3,0.3,4.9,0.6c1.2,0.2,2.3,0.7,3.5,0.9
			c0.7,0.1,1.2,0.7,1.1,1.4c0,0.7-0.5,1.4-1.2,1.7c-1.8,0.2-3.6,0.4-5.4,0.6c-1,0.1-2.1,0-3.2,0c-0.1,1,0,2-1.2,2.2
			c-0.2,0-0.3,0.6-0.4,0.9c-0.4,1.1-0.6,1.3-1.7,1.3c-0.6,0-1.2-0.2-1.8-0.2c-4.3-0.3-8.7-0.5-13-0.8c-3-0.1-6-0.3-8.9-0.4
			c-2.9-0.1-6.1-0.2-9.2-0.3c-5.9-0.1-11.9-0.3-17.8-0.4c-5.6,0-11.1,0-16.7,0c-2.9,0-5.8,0.1-8.8,0.1c-1.7,0-3.4,0.2-5,0.3
			c-2.2,0.1-4.4,0.1-6.6,0.2c-2.7,0.1-5.4,0.5-8.1,0.6c-2.7,0.1-5.6,0.1-8.4,0.2c-1.4,0.1-2.7,0.3-4.1,0.4c-2.6,0.2-5.1,0.4-7.7,0.6
			c-0.5,0-1,0.2-1.4,0.6c0.5,0,1.1,0,1.6,0c3.2-0.1,6.4,0.1,9.6-0.2c2.7-0.1,5.4-0.1,8.1,0c3.5,0,7,0,10.6-0.1
			c2.6,0,5.2-0.1,7.8-0.1c5.4,0.1,10.8,0.2,16.2,0.3c6.3,0.1,12.5,0.2,18.8,0.4c4.6,0.1,9.1,0.4,13.7,0.6c5.6,0.3,11.2,0.4,16.8,0.8
			c2.7,0.2,5.5,0.6,8.2,1.1c1.6,0.3,1.6,0.5,1.4,2.5c-0.7,0.1-1.5,0.1-2.2,0.1c-7-0.6-14-1.2-21.1-1.8c-3.9-0.3-7.8-0.4-11.7-0.5
			c-4.6-0.2-9.2-0.4-13.9-0.5c-2.2-0.1-4.5-0.1-6.8-0.1c-3.1-0.1-6.2-0.2-9.4-0.2c-2.8,0-5.7,0.1-8.6,0.1c-2,0-4-0.1-5.9-0.1
			c-5.3,0.1-10.5,0.2-15.6,0.3c-0.4,0-0.7,0.1-1.1,0.2c1.1,0.4,2.3,0.6,3.4,0.5c2.6,0,5.3,0,7.9,0c3.7,0,7.4-0.1,11,0
			c3.9,0,7.8,0.2,11.7,0.3c3.1,0.1,6.2,0.1,9.2,0.2c5,0.2,10,0.3,15,0.5c4.5,0.2,9,0.4,13.5,0.6c3.3,0.1,6.7,0.2,10,0.4
			s6.4,0.5,9.7,0.9c1.9,0.2,2.2,0.7,1.8,2.8c-1.2,0-2.5,0-3.8-0.2c-6.9-0.6-13.8-1.2-20.8-1.4c-6.7-0.2-13.3-0.5-20-0.7
			c-2.5-0.1-4.9,0-7.4,0c-1.8,0-3.6-0.1-5.4-0.1c-3.9,0.1-7.8,0.2-11.7,0.3c-0.8,0-1.5-0.1-2.3-0.1c-3.6,0.2-7.2,0.4-10.9,0.5
			c-3.8,0.2-7.6,0.3-11.4,0.5c-2,0.2-4,0.5-6,0.9c1.1,0.4,2.2,0.6,3.4,0.5c5.1,0.2,10.2,0.3,15.3,0.4c3.7,0.1,7.4,0.1,11,0.1
			c2.2,0,4.5,0.2,6.7,0.3c2.5,0.1,4.9,0,7.4,0.1s4.6,0.3,6.9,0.4c2.5,0.1,5,0.1,7.6,0.2c2,0.1,4.1,0.3,6.1,0.4
			c2.6,0.1,5.2,0.2,7.8,0.3c0.5,0,1,0.1,1.5,0.2c2.7,0.2,5.5,0.3,8.2,0.5s5.6,0.4,8.4,0.6l5.2,0.4c4.2,0.3,8.4,0.3,12.5,0.9
			c2.5,0.3,4.9,1,7.4,1.3C139.5,29.3,139.6,29.4,139.8,29.5z M54.9,2.1c1.6,0.4,3.3,0.5,4.9,0.3c0.8-0.1,1.7-0.1,2.5-0.1
			c1.3,0,2.7,0.2,4,0.2c1.9,0.1,3.9-0.1,5.8,0.1c2.3,0.2,4.7,0.1,7,0.3c3,0.2,6.1,0.2,9.1,0.4s6.1,0.4,9.2,0.6
			c2.8,0.2,5.7,0.4,8.5,0.7c1.5,0.1,2.9,0.3,4.4,0.4c3,0.2,6,0.4,9,0.6c2.4,0.2,4.9,0.4,7.4,0.5c3.4,0.1,6.8,0,10.2,0
			c0.3,0,0.7-0.1,1-0.2c-0.2-0.3-0.5-0.5-0.9-0.5c-2.5-0.4-5-0.8-7.5-1.1c-4-0.5-8.1-0.8-12.2-1.2c-3.2-0.2-6.4-0.4-9.6-0.5
			C102.4,2.6,97,2.4,91.6,2.2C86.8,2.1,82,2.1,77.2,2.1C70.1,2,63,2,55.9,1.9C55.5,1.9,55.2,2,54.9,2.1z M78.3,5.3
			c-4.9-1.2-41.9-1.5-46.6-0.1c5.4,0.3,10.5-0.4,15.7-0.4S57.7,5,62.8,5.1L78.3,5.3z M76.4,31.3c0.3,0.2,0.4,0.4,0.6,0.4
			c6.3,0.1,12.5,0.2,18.8,0.4C89.4,31.1,82.9,30.8,76.4,31.3z M77.9,27.7c3.7,0.9,11.4,1,13.7,0.3L77.9,27.7z M80.1,4.9v0.5
			c3.2,0,6.3,0.7,9.6,0.1L80.1,4.9z M39.7,2.4c0.5,0.2,1,0.4,1.4,0.5c0.2,0.1,0.7,0.2,0.8,0.1c0.7-1,1.8-0.4,3-0.7
			C43,2,41.3,1.7,39.7,2.4z M28.5,16.9v-0.5c-1,0-2.1-0.2-3.1,0.6L28.5,16.9z M30.8,2.5l0,0.3c1.3,0.2,2.6,0.6,3.8-0.3H30.8z
			 M49.1,1.9L46,2v0.4C47,2,48.2,2.9,49.1,1.9z M73.5,27.6c0.8,0.6,1.7,0.5,2.8,0.2C75.6,27.3,74.5,27.2,73.5,27.6z M50.6,2v0.3H54
			V2H50.6z M112.9,35.4v-0.3c-0.2,0-0.5-0.1-0.7-0.1s-0.4,0-0.6,0.1v0.1L112.9,35.4z"/>
	</g>
</g>
</svg>
