<?xml version="1.0" encoding="utf-8"?>
<!-- Generator: Adobe Illustrator 23.0.4, SVG Export Plug-In . SVG Version: 6.00 Build 0)  -->
<svg version="1.1" id="Layer_1" xmlns="http://www.w3.org/2000/svg" xmlns:xlink="http://www.w3.org/1999/xlink" x="0px" y="0px"
	 viewBox="0 0 306.1 51" style="enable-background:new 0 0 306.1 51;" xml:space="preserve">
<style type="text/css">
	.st0{fill:#3B3B3B;}
</style>
<g>
	<g id="Layer_1-2">
		<path class="st0" d="M253.4,7l4.1-0.4l1,1.5c0.2-0.1,0.5-0.2,0.5-0.2c0.2-1.6,1.5-1.6,2.6-1.8c1.1-0.2,2.3-0.3,3.4-0.3
			c0.7,0,1.4,0.1,2,0.3c0.7,0.2,1.5,1,2.1-0.2c0-0.1,0.4,0,0.6,0l3.4-0.4c0.9-0.1,1.9-0.3,1.9,1.2c1.1-1.3,2.8-1.9,4.5-1.5
			c1.6,0.2,3.1,0.2,4.7,0.2c0.9,0,1.8,0,2.6,0s1.2,1,2.1,0.5c1.5,1,2.6,2.5,2.9,4.3c0.3,2,0,4.1-0.9,5.9c-1.5,3.5-2.3,7.2-2.2,11.1
			c0.2,3.1,0.8,6.2,1.2,9.3c0.1,0.8,0.1,1.7,0,2.5c-0.4,2.5-1,2.9-3.5,3.1c-4.1,0.2-8.2,0-12.2-0.5c-7-0.6-14.1-1.2-21.1-1.7
			c-3.4-0.3-6.8-0.5-10.2-0.6s-6.5-0.2-9.7-0.4c-4.7-0.2-9.5-0.3-14.2-0.8c-4.7-0.4-9.2-0.2-13.9-0.4c-6-0.3-12-0.5-18-0.7
			c-4.1-0.1-8.2-0.2-12.2-0.3c-7.6-0.2-15.2-0.4-22.9-0.5c-7.4-0.1-14.9-0.2-22.3-0.2c-5.1,0-10.2,0.2-15.3,0.2
			c-3.3,0-6.6-0.1-9.8-0.1c-3.7,0-7.4,0.2-11,0.3c-3,0.1-6,0.2-9,0.3c-0.3,0-0.6-0.4-1-0.6c-0.2,0.2-0.6,0.6-0.9,0.6
			c-3.7,0.2-7.4,0.3-11.1,0.5c-3.1,0.2-6.2,0.3-9.2,0.6c-5,0.4-9.8,0.7-14.7,1.2c-4.2,0.4-8.4,0.9-12.6,1.4
			c-3.4,0.4-6.9,0.9-10.3,1.4c-0.6,0.1-1.2,0.2-1.8,0.4c-2,0.5-4.1,1-6.1,1.7c-2,0.7-3.9,1.6-5.8,2.5C9.8,47,8,47,6.4,46.5
			c-0.6-3.6-0.6-7.3,0-10.9c0.4-1.7,0.5-3.5,0.3-5.2c0-1.3,0.3-2.6,0.8-3.8c0.3-1.2,0.8-2.4,0.2-3.6c-0.2-0.3,0.1-0.9,0.2-1.3
			C8,20.8,8.2,20,8.2,19.2C8.5,15.8,7.3,12.5,8,9.1c0.2-0.9-0.4-1.9,0.5-2.9c1.2,0.1,2.3,0.3,3.4,0.6c2.3,0.6,4.6,0.6,6.9,0.1
			c4.2-0.7,8.4-0.2,12.6-0.2c2.8,0,5.5,0,8.3,0c3.2,0,6.4,0.2,9.6,0.2c1.8,0,3.5,0,5.3,0c2.5,0,5,0.1,7.5,0.1c1.5,0,3,0,4.4,0
			c0.8-0.1,1.7-0.1,2.5,0c0.7,0.1,1.2,0.4,1.9-0.1c0.3-0.1,0.7-0.2,1-0.1c2.8-0.1,5.7-0.1,8.5-0.2c2.8-0.1,5.6-0.3,8.5-0.4
			c0.2,0,0.4,0,0.6,0c3.3,0.8,6.6-0.2,9.9,0.1c1.1,0.1,2.3,0.2,3.4,0.2c4.3,0,8.7,0.1,13.1,0c7-0.1,14-0.3,21.1-0.4
			c2.4,0,4.8-0.1,7.1,0c3.4,0.2,6.9,0.5,10.3,0.7c1,0.1,2.1,0,3.1,0c5,0,10,0,15.1-0.1c3.9,0,7.9-0.2,11.8-0.2
			c7.8,0,15.5-0.1,23.3-0.1h7.5c0.1,0,0.2,0,0.2,0c0.9-0.6,1.2,1.1,2.4,0.3c0.6-0.4,1.7,0,2.6-0.1c0.9-0.1,1.8-0.2,2.7-0.1
			c1.6,0.1,3.2,0.3,4.8,0.4c0.6,0,1.2,0,1.8,0c1,0,2-0.1,3-0.1c2.3,0,4.7,0.2,7.1,0.2c0.2,1,0.4,1.7,0.7,2.7
			c-5.1,0.7-10.3,0.2-15.4,0.4L224.8,9c-0.2,0-0.5,0-0.7,0.1c-0.5,0.3-1,1-1.4,0.9c-2.8-0.3-5.6,0.3-8.4-0.2c-2.8-0.4-6,0-9,0
			c-4.1,0-8.3,0-12.4,0c-2.1,0-4.3,0.2-6.4,0.3c-1.1,0-2.3,0.3-3.2-0.8c0,0-0.3,0-0.4,0.1c-2.1,1.3-4.4,0.6-6.5,0.6
			c-0.9,0-1.8-1-2.7-1.4c-0.7-0.3-1.5-0.5-2.2-0.7L171,9.7l2-0.5l0.2,0.3c-0.3,0.3-0.6,0.8-0.9,0.7c-1.5-0.2-3,0.5-4.4-0.4
			c-0.2-0.1-0.5,0-0.8,0c-2.5,0.1-5,0.3-7.5,0.4c-1,0-1.9,0-3,0l-0.2-1.1c-0.1,0-0.3,0-0.3,0.1c-0.3,0.8-1,1.2-1.8,1
			c-4.1-0.6-8.3-0.3-12.4-0.5c-1.1-0.1-2.3-0.3-3.4-0.7c-0.5,0.6-1.3,0.8-2.1,0.5c-1.4-0.1-2.8-0.1-4.2,0c-1.2,0-2.5,0.2-3.8,0.3
			c-1.3,0.1-2.6,0.1-3.9,0.2c-4.8,0.1-9.6,0.1-14.3,0.3c-1.1,0-2.2,0.2-2.8-1.3c-0.8,1.8-2.2,1.5-3.2,1.2c-2.5-0.7-4.9-0.3-7.3-0.3
			c-5.2-0.2-10.4-0.3-15.5-0.1c-1.8,0-3.6,0.5-5.4,0.5c-1.6,0-3.3-0.1-4.9-0.2c-0.5-0.1-1-0.3-1.5-0.5c-0.6,0.3-1.3,0.6-2,0.7
			c-2.5,0.1-5,0-7.4,0.3c-1.4,0-2.8-0.2-4.2-0.5c-0.3,0-0.7,0-1,0.1c-1.5,0.1-3.1,0.8-4.2-0.7c-0.6,0.3-1,0.8-1.4,0.8
			c-3.1-0.2-6.2-0.2-9.3,0c-0.9,0-1.5-0.2-1.7-1.4l-1.1,1.2c-0.4-0.2-0.8-0.5-1.2-0.6c-0.4-0.1-0.9-0.2-1.2,0
			c-1.9,1.6-3.9,0.8-6,0.6C28,9.9,27,9.9,26.1,9.9c-2,0-4.2-0.6-6,0c-2.1,0.5-4.2,0.8-6.3,0.8c-0.7,0-1.3,0-1.9-0.2
			c-0.9,0.7-0.6,1.6-0.4,2.4c0.3,1.3,0.3,2.8,0,4.1c-0.3,2.1-0.6,4.3-0.7,6.5c-0.5,5.2-1.1,10.5-1.6,15.7c-0.1,1.2,0,2.4,0,3.6
			c1,0.6,1.9-0.1,2.6-0.4c6.4-3,13.2-4.1,20.1-5.1c6.2-0.9,12.4-1.3,18.7-1.9c3.1-0.3,6.3-0.4,9.4-0.6c4.6-0.3,9.1-0.7,13.6-0.9
			c3.7-0.2,7.3-0.2,11-0.3c2.5-0.1,5-0.2,7.4-0.3c2.4-0.1,4.9-0.2,7.3-0.2c3.3-0.1,6.6-0.1,9.8-0.1c5.4,0,10.8-0.1,16.1-0.1
			c6.6,0,13.1,0,19.7,0c4.1,0,8.2,0.2,12.3,0.3c5.3,0.1,10.7,0,16.1,0.2c5,0.1,9.8,0.3,14.7,0.4c9.9,0.4,19.8,0.7,29.6,1.1
			c7.5,0.3,15,0.7,22.5,1.1c7,0.4,14,0.8,21.1,1.2c1.8,0.1,3.7,0.4,5.5,0.7c1.5,0.2,3.1,0.4,4.6,0.5c4.6,0.2,9.1,0.4,13.6,0.6
			c0.6,0,1.3-0.1,1.9-0.2c0-0.7,0-1.3,0-2c-0.2-1.7-0.3-3.5-0.6-5.2c-0.1-1.3-0.4-2.4-0.5-3.6c-0.1-3.1,0.4-6.2,1.4-9.1
			c0.8-2.2,1.4-4.5,1.6-6.9c0.1-1.6-0.2-2.3-1.6-2.7c-1.5-0.4-3.1-0.6-4.7-0.6c-4.1,0-8.2,0.2-12.3,0.3C267,9,264,9.2,261.1,9.4
			c-2.4,0.1-4.7,0-7.1,0.1c-1.2,0-2.3,0.2-3.6,0.4V7.3c-1.5-0.3-3.1-0.2-4.5,0.3c-0.1,0-0.1,0.5-0.2,0.9c0.9-0.2,1.7-0.3,2.5-0.4
			c1.1-0.2,1.4,0.5,1.5,1.7h-8L241,7.6c0.2-0.2,0.2-0.4,0.3-0.4c3.5-0.2,6.9-0.4,10.4-0.5c0.6,0.1,1.2,0.2,1.7,0.4
			c-1.6,0.6-1.6,0.7-0.6,1.7L253.4,7z M191.2,8.8v0.4h1.2V9L191.2,8.8z M143.3,8.8c-0.3-0.3-0.5-0.4-0.5-0.4
			c-0.2,0.1-0.3,0.2-0.5,0.4H143.3z M52.3,9.4C52.2,9.2,52.1,9,52.1,9c-0.1,0.1-0.3,0.2-0.4,0.3c0.1,0.1,0.1,0.3,0.2,0.3
			C52,9.6,52.2,9.5,52.3,9.4L52.3,9.4z M284.5,6.5c-0.1,0.1-0.3,0.3-0.3,0.4s0.2,0.2,0.3,0.4c0.1-0.1,0.2-0.3,0.3-0.5
			C284.8,6.8,284.6,6.6,284.5,6.5z"/>
	</g>
</g>
</svg>
