<?xml version="1.0" encoding="utf-8"?>
<!-- Generator: Adobe Illustrator 23.0.4, SVG Export Plug-In . SVG Version: 6.00 Build 0)  -->
<svg version="1.1" id="Layer_1" xmlns="http://www.w3.org/2000/svg" xmlns:xlink="http://www.w3.org/1999/xlink" x="0px" y="0px"
	 viewBox="0 0 593.9 156.9" style="enable-background:new 0 0 593.9 156.9;" xml:space="preserve">
<title>button-bg-hero</title>
<g>
	<g id="Layer_1-2">
		<path d="M590,18.5c-4.3-1.2-8.5-3-12.9-3.6c-9.4-1.4-18.7-2.6-28.1-3.7V2.1H338.4c-21.7-0.3-43.4-0.6-65-1
			c-14.2-0.2-28.4-0.7-42.7-0.9C214.9,0,199.1,0,183.2,0.1c-12.4,0.1-24.8,0.3-37.2,1c-4.5,0.2-8.9,0.6-13.4,1h-6.1v0.6
			c-3.6,0.4-7.2,0.7-10.9,1.1c-3.4,0.3-6.7,0.5-10,1.1c-1.1,0.2-2.1,1.4-3.4,2.4c4.2,2.5,9,0.8,12.1,3.6c-9.3,1.1-18.6,1.8-27.7,3.2
			c-10.1,1.6-20.9,1.1-29.9,7c-0.8,0.5-2.2,0.4-3.3,0.5c-11.7,0.9-23.4,1.8-35.1,2.8c-3.8,0.3-7.6,1.1-11.4,1.6
			c-3.5,0.4-6.3,1.8-6.8,5.2s1.5,6.1,4.5,7.9c1.4,0.8,2.9,1.2,4.5,1.3c5.6,0.6,11.2,1.2,16.9,1.4c8,0.2,16.1,0.1,24.1,0.1
			c-7.7,1.7-15.6,2.3-23.2,4c-5.2,1.2-11.6,1.1-14,7.1c1.4,6.8,6,9.6,13,9.2c0.4,0.9,0.8,1.8,1.1,2.8c1.6,7.6,2.1,8.5,10.3,8.9
			c14.4,0.7,28.9,0.8,43.4,1c8.3,0.1,16.5,0,24.8,0c-7.1,1.9-14.3,2.6-21.4,3.9c-4.4,0.8-8.7,2.1-12.9,3.6c-2.9,0.8-4.6,3.8-3.9,6.7
			c0.6,3.2,1.8,6.2,5.8,7c4.5,0.8,9,2,13.6,2.4c0,4,0.7,7.2,1.9,7.7c1.5,0.6,3.1,0.3,4.6,0.7c5.5,1.6,10.9,3.3,16.4,4.9
			c0.9,0.2,1.7,0.4,2.6,0.6v1.6c-0.5,0.3-1,0.6-1.6,0.8c-4.1,1.1-8.3,1.6-12.4,3.4c-1.9,0.9-4.1-1.6-5.8,5.8
			c-0.1,0.7-0.5,0.7-0.7,0.7c-2.3,0.6-4.6,1-7,1.2c-1.3,0-2.1,2.1-2.4,7.3c0.5,7.7,1.7,10.7,3.5,10.4c2.2-0.3,4.5-0.3,6.7-1
			c4.2-1.3,8.3-3.1,12.5-4.5c3.6-1.2,7.1-2.6,10.7-3.4c3.1-0.7,6.2-1.1,9.4-1.3c6.9-0.3,13.8-0.5,20.7-0.5c3.6,0,7.2,0.2,10.9,0.3
			c0.2,0.3,0.4,0.6,0.6,0.9c5.7,0.1,11.8,0.4,17.8,0.4h0.7l2.1,0.3c1.4,0.4,2.6,1.2,3.4,2.4c1.4,1.6,3.4,2.7,5.5,3
			c6.9,1.1,13.9,1.8,20.8,2.2c7.2,0.2,14.3,0.4,21.5,0.5l2.3,0.6c0.6,0.2,1.2,0,1.5-0.5c9.7,0.2,19.4,0.3,29,0.6
			c21.3,0.6,42.5,1.3,63.8,1.9c11.5,0.4,22.9,0.6,34.4,1.2c16.5,0.7,32.9,1.7,49.4,2.5c12,0.6,24,0.8,36,1.6
			c25.9,1.8,51.8,4,77.7,5.8c5.6,0.4,11.2,0.1,16.7,0.1c3.4-6.7,2.3-9.6-4.3-12c-1.3-0.5-2.6-0.8-3.9-1c-13.4-1.8-26.8-3.5-40.2-5.4
			c-2.9-0.4-5.8-1.1-8.7-1.4c-2.6-0.3-5.2-0.3-7.8-0.4c0-0.4,0.1-0.9,0.1-1.3l43.3,2.3c2.9,0.1,6,0.8,8.8,0.2
			c2.3-0.5,4.3-1.9,5.6-3.8c0.7-1.4,0.1-4.2-1-5.6h17.4V119c7.8-0.6,15.5-2.1,23.3-3c1.3-0.2,2.4-1.9,4.2-3.3
			c-1.4-0.5-2.8-0.9-4.2-1.2c-7.9-0.8-15.9-0.6-23.3-3.5V41.1c4-1.2,4.1-4.8,4.8-8.3c5.2,0,9.9,0.3,14.6-0.1
			c7-0.5,13.9-1.3,20.8-2.1c3.7-0.5,4.3-3.6,4.7-6.2S593.2,19.4,590,18.5z M96,52.6c-11.5,0.1-23,0-34.5,0c2.3-0.9,4.7-1.5,7.1-1.6
			c16.4-1,32.8-2,49.2-2.9l8.6-0.5v4.5l-19,0.1C103.7,52.2,99.8,52.6,96,52.6z M105.3,86.4c3.8-0.3,7.7-0.6,11.5-0.9
			c3.2-0.3,6.5-0.6,9.7-1V89l-17.6-0.3c-2.6,0-5.2-0.4-7.8-0.7l-0.1-1C102.5,86.8,103.8,86.5,105.3,86.4L105.3,86.4z M548.9,23.4
			v-3.7c3.3,0.4,6.7,0.8,10.1,1.2c2.1,0.2,4.2,1,5.9,2.3C559.5,23.3,554.2,23.3,548.9,23.4L548.9,23.4z"/>
	</g>
</g>
</svg>
