<svg xmlns="http://www.w3.org/2000/svg" width="200.715" height="52.371" viewBox="0 0 200.715 52.371">
  <path id="button-CTA-hero" d="M199.357,6.168A36.324,36.324,0,0,0,195,4.956c-3.163-.461-6.332-.858-9.508-1.242V.685H114.335C107.013.572,99.687.481,92.372.351,87.563.278,82.762.108,77.96.054Q69.942-.036,61.9.024c-4.19.033-8.387.1-12.573.334-1.514.08-3.024.2-4.535.334H42.738v.2c-1.223.124-2.446.247-3.67.357-1.135.1-2.277.164-3.379.357-.385.067-.7.477-1.166.815,1.416.848,3.041.254,4.075,1.185-3.153.351-6.285.588-9.367,1.078-3.416.541-7.055.361-10.1,2.337a2.585,2.585,0,0,1-1.118.174c-3.95.314-7.9.6-11.85.945-1.287.11-2.561.361-3.845.521C1.142,8.8.2,9.273.027,10.385a2.648,2.648,0,0,0,1.527,2.634,3.78,3.78,0,0,0,1.507.447c1.9.194,3.795.411,5.7.464,2.7.08,5.44.02,8.16.02-2.615.554-5.275.781-7.846,1.336-1.75.384-3.916.364-4.731,2.371.47,2.27,2.027,3.209,4.393,3.069a6.367,6.367,0,0,1,.382.932c.541,2.521.713,2.838,3.467,2.962,4.879.217,9.769.25,14.651.334,2.794.043,5.592,0,8.387,0-2.4.621-4.832.871-7.224,1.292a27.162,27.162,0,0,0-4.359,1.209,1.881,1.881,0,0,0-1.318,2.227,2.441,2.441,0,0,0,1.956,2.337c1.524.277,3.041.668,4.579.815,0,1.336.223,2.394.632,2.561a11.764,11.764,0,0,0,1.551.237c1.848.521,3.7,1.1,5.545,1.643.291.083.578.13.865.2v.544a3.171,3.171,0,0,1-.544.27,25.258,25.258,0,0,0-4.193,1.145c-.652.287-1.392-.538-1.943,1.92-.047.22-.162.22-.247.237A13.8,13.8,0,0,1,28.559,42c-.433,0-.693.691-.814,2.441.172,2.568.581,3.569,1.169,3.486a12.914,12.914,0,0,0,2.264-.334c1.412-.434,2.821-1.028,4.234-1.516,1.2-.414,2.406-.851,3.609-1.135a16.887,16.887,0,0,1,3.166-.424c2.328-.1,4.656-.16,6.981-.157,1.227,0,2.45.053,3.673.11.071.1.135.207.213.317,1.916.05,3.97.134,6.028.147h.25l.716.1a2.081,2.081,0,0,1,1.159.815,3.082,3.082,0,0,0,1.865,1,63.917,63.917,0,0,0,7.042.721c2.419.08,4.839.13,7.258.177l.781.194a.422.422,0,0,0,.5-.17c3.267.06,6.538.11,9.8.194,7.184.184,14.367.421,21.548.641,3.876.12,7.751.217,11.624.391,5.562.247,11.12.564,16.682.828,4.055.194,8.11.26,12.164.538,8.758.6,17.507,1.336,26.262,1.94,1.889.134,3.8.02,5.653.02,1.145-2.224.77-3.215-1.467-4.007a6.684,6.684,0,0,0-1.321-.334c-4.528-.6-9.059-1.182-13.587-1.786-.983-.13-1.95-.367-2.936-.481-.868-.1-1.754-.1-2.629-.137a3.671,3.671,0,0,1,.047-.427l14.631.761a12.122,12.122,0,0,0,2.963.063,3.008,3.008,0,0,0,1.882-1.279,2.079,2.079,0,0,0-.338-1.883h5.893V39.7c2.646-.19,5.244-.708,7.876-1,.446-.05.824-.621,1.419-1.1a9.862,9.862,0,0,0-1.412-.411c-2.656-.25-5.373-.2-7.883-1.179V13.72c1.352-.384,1.4-1.589,1.615-2.778,1.744,0,3.352.09,4.943-.02,2.365-.157,4.7-.421,7.038-.708,1.254-.154,1.463-1.212,1.575-2.07A1.692,1.692,0,0,0,199.357,6.168ZM32.435,17.564c-3.879.02-7.772,0-11.644,0a7.39,7.39,0,0,1,2.409-.538q8.307-.5,16.618-.982l2.919-.177v1.519l-6.42.027C35.027,17.417,33.729,17.557,32.435,17.564Zm3.129,11.266c1.294-.117,2.592-.2,3.886-.311q1.647-.145,3.291-.334v1.529l-5.95-.107c-.875,0-1.747-.15-2.619-.227l-.02-.334c.47-.06.936-.174,1.409-.217ZM185.476,7.794V6.575q1.69.21,3.409.411a3.994,3.994,0,0,1,1.98.781c-1.8,0-3.6.01-5.393.013Z" transform="translate(200.715 52.371) rotate(180)" fill="#0f0f0d"/>
</svg>
