<?xml version="1.0" encoding="utf-8"?>
<!-- Generator: Adobe Illustrator 23.0.4, SVG Export Plug-In . SVG Version: 6.00 Build 0)  -->
<svg version="1.1" id="Layer_1" xmlns="http://www.w3.org/2000/svg" xmlns:xlink="http://www.w3.org/1999/xlink" x="0px" y="0px"
	 viewBox="0 0 153.5 10.6" style="enable-background:new 0 0 153.5 10.6;" xml:space="preserve">
<style type="text/css">
	.st0{fill:#3B3B3B;}
</style>
<title>icon-line-11</title>
<g>
	<g id="Layer_1-2">
		<path class="st0" d="M115,6.1l5.2,0.2c3,0.1,6,0.2,9,0.3c3.7,0.2,7.4,0.4,11.1,0.8c2,0.2,4,0.6,6,0.9c1,0,2,0.2,3,0.5
			c0.7,0.2,1.5,0.2,2.3,0.1c0.6,0,1.3,0.1,1.9,0.2c-7.5,0.5-15-0.2-22.5,0.1c-0.8,1.5-0.8,1.6-2.3,1.5c-2.9-0.1-5.8-0.4-8.7-0.5
			c-3.7-0.2-7.4-0.3-11-0.4s-7.1-0.2-10.7-0.3c-4.5-0.1-9-0.3-13.5-0.4c-3-0.1-5.9-0.2-8.9-0.3c-4-0.1-7.9-0.1-11.9-0.1
			c-4.8,0-9.6-0.2-14.4-0.1c-6.6,0.1-13.1,0.2-19.6,0.5c-4.5,0.2-9,0.5-13.5,0.8c-4.3,0.3-8.7,0.6-13,0.9c-0.8,0-1.6-0.1-2.4-0.4
			C0.4,10-0.1,9.2,0,8.5c0-0.7,0.8-1.2,1.7-1.2c0.8-0.1,1.5,0,2.3,0.1c0.3,0.1,0.7,0.1,1-0.1C5.5,7.1,6,7,6.6,7c1.1,0,2.3,0.3,3.1-1
			c0-0.1,0.3-0.1,0.5-0.1c3.3-0.2,6.6-0.4,10-0.6c2.2-0.1,4.4-0.4,6.5-0.8c-0.4-0.1-0.8-0.2-1.2-0.2c-5.3-0.3-10.6-0.7-15.8-1
			c-1-0.1-2-0.1-3-0.1c-0.2,0-0.4,0-0.7,0C5.2,3.3,4.3,3,4,2.3c-0.4-0.8,0.1-1.4,0.6-2c0.5,0.1,1,0.6,1.5-0.1C6.2,0,6.9,0,7.3,0
			c6,0.8,12,1.1,18,1.3c3.7,0.2,7.4,0.4,11.2,0.6c1.5,0.2,3,0.3,4.6,0.3c3.3-0.4,6.6,0.2,9.9,0c4.3-0.2,8.6,0,12.9-0.1
			c3.2,0,6.4-0.2,9.5-0.3s6.5-0.1,9.8-0.1c3.7-0.1,7.3-0.3,11-0.2c4.2,0,8.3-0.4,12.5-0.3c1.5-0.1,3.1-0.1,4.6,0.1
			c2.4,0.4,4.9,0.1,7.3,0.2c2,0,3.9,0.1,5.9,0.4c1.1,0.3,2.3,0.3,3.5,0.3c0.4,0,0.9,0.1,1.3,0.2c1,0.3,1.3,0.8,1.3,1.7
			c0,0.8-0.6,1.5-1.4,1.6c-0.4,0-0.9,0-1.3,0l-12.6-0.2c-0.1,0-0.2,0-0.3,0.1L115,6.1z M111.7,5.9V5.5l-1.1,0.1
			c0.2,0.3,0.4,0.4,0.6,0.4C111.3,6.1,111.5,6,111.7,5.9z"/>
	</g>
</g>
</svg>
