<svg xmlns="http://www.w3.org/2000/svg" width="26.297" height="3.456" viewBox="0 0 26.297 3.456">
  <path id="Path_2" data-name="Path 2" d="M9.581,12.317c.068-1.024.079-1.072.359-.989.455.135.91.287,1.364.46a.808.808,0,0,0,.844-.062,1.189,1.189,0,0,1,.716-.148c.721-.04,1.443-.025,2.164-.1.684-.071,1.368-.237,2.052-.345.515-.081,1.03-.125,1.544-.208.537-.087,1.073-.226,1.61-.3.926-.126,1.853-.24,2.78-.317.834-.07,1.668-.072,2.5-.13.341-.024.682-.151,1.023-.17.5-.028.991,0,1.487,0,.054,0,.109-.105.163-.095.13.024.278-.009.385.156.147.226.249.239.406.032a.5.5,0,0,1,.7-.185,6.162,6.162,0,0,0,.907.44.3.3,0,0,0,.33-.137c.348-.437.667-.223,1,.265l.084-.389c.363.067.71.137,1.058.193q.56.093,1.121.162c.052.007.107-.086.157-.061.144.072.34.048.418.3.194.626.433.629.683.682a1.972,1.972,0,0,1,.345.146l.1.762a1.977,1.977,0,0,0-.44.01.27.27,0,0,0-.176.217c-.076.8-.237.6-.4.276l-.171.513-.206-.851-.634.516c-.119-.57-.245.132-.384-.016s-.307-.088-.463-.106-.331.076-.478-.048c-.341-.285-.691-.134-1.025-.276-.283-.12-.557.026-.83-.1a5.208,5.208,0,0,0-1.96-.192c-1.035-.079-2.069.016-3.1.012-.662,0-1.324.135-1.986.2a.952.952,0,0,1-.582-.04c-.246-.137-.449.218-.671.32-.167.076-.328.31-.493.318q-2.266.118-4.533.172c-.835.02-1.671-.019-2.506-.014s-1.693.046-2.54.037a2.824,2.824,0,0,1-.61-.206c-.451-.12-.9-.2-1.355-.341A5.6,5.6,0,0,1,9.581,12.317Z" transform="translate(-9.581 -9.843)"/>
</svg>
