<svg xmlns="http://www.w3.org/2000/svg" width="26.215" height="3.252" viewBox="0 0 26.215 3.252">
  <path id="Path_4" data-name="Path 4" d="M9.1,24.356c.376.005.755.039.969-.653.036-.118.163-.24.236-.22.6.164,1.168-.565,1.768-.165a.484.484,0,0,0,.656-.053.375.375,0,0,1,.4-.025c.526.237,1.046.478,1.579.035a.257.257,0,0,1,.268-.035c1.069.512,2.145.059,3.217.09,1.472.043,2.945.048,4.417.035,1.656-.014,3.311-.061,4.968-.1.954-.025,1.908-.021,2.859-.133.318-.037.624-.423.923.076.253-.415.576-.338.879-.379.75-.1,1.5-.2,2.252-.257.416-.03.683.354.78,1.179a.99.99,0,0,1-1.415.205c-.164-.116-.326-.323-.438.165a.314.314,0,0,1-.31.187c-1.436-.169-2.84.476-4.269.507a1.055,1.055,0,0,0-1.12.727.407.407,0,0,1-.378.193,30.753,30.753,0,0,1-5.85-.1,8.912,8.912,0,0,0-1.442-.012c-2.666.023-5.333.068-8,.058a8.562,8.562,0,0,1-2.127-.293c-.3-.079-.578-.478-.866-.732Z" transform="translate(-9.051 -22.568)"/>
</svg>
