<svg xmlns="http://www.w3.org/2000/svg" width="21.877" height="3.727" viewBox="0 0 21.877 3.727">
  <path id="Path_3" data-name="Path 3" d="M9.051,35c.1-.109.205-.365.285-.3.832.645,1.682.229,2.522.373a21.5,21.5,0,0,0,2.484.166c.8.046,1.594.078,2.391.135,1.36.1,2.719.243,4.079.3a13.8,13.8,0,0,0,1.691-.195c.418-.034.837,0,1.256-.016.3-.014.6-.095.9-.1,1.021-.027,2.043-.053,3.065-.037a2.565,2.565,0,0,1,.763.256c.061.022.136.146.178.082.374-.56.764-.212,1.147-.209s.738,0,1.12,0c-.267,1.593-.587,2.057-1.2,1.884a4.885,4.885,0,0,0-.885-.1c-.017,0-.035.02-.049.007-.567-.534-1.131.117-1.7.045a4.951,4.951,0,0,0-1.434-.1,2.735,2.735,0,0,0-1.032.637c-.074.057-.121.4-.17.57-.106-.139-.209-.373-.311-.377s-.22.212-.392.4c-.053-.1-.16-.291-.265-.49-.174-.329-.344-.328-.552-.2a2.84,2.84,0,0,1-1.032.3.963.963,0,0,1-.372-.054c-.377-.077-.754-.155-1.131-.239s-.771-.178-1.156-.269c-.048-.011-.1-.057-.144-.041-1.065.368-2.13.007-3.194.026a3.755,3.755,0,0,1-1.113-.412c-.071-.025-.148.061-.221.111-.214.145-.421.492-.638-.065-.054-.14-.184-.038-.28-.043-.412-.018-.824-.065-1.236-.042-.28.016-.558.176-.838.183-.145,0-.29-.182-.505-.332-.156.481-.425.139-.682.208-.284.076-.538-.184-.77-.361A6.293,6.293,0,0,1,9.051,35Z" transform="translate(-9.051 -34.692)"/>
</svg>
