<?xml version="1.0" encoding="utf-8"?>
<!-- Generator: Adobe Illustrator 23.0.4, SVG Export Plug-In . SVG Version: 6.00 Build 0)  -->
<svg version="1.1" id="Layer_1" xmlns="http://www.w3.org/2000/svg" xmlns:xlink="http://www.w3.org/1999/xlink" x="0px" y="0px"
	 viewBox="0 0 59 66.1" style="enable-background:new 0 0 59 66.1;" xml:space="preserve">
<style type="text/css">
	.st0{fill:#3B3B3B;}
</style>
<g>
	<g id="Layer_1-2">
		<path class="st0" d="M32,19.9c1.8-0.9,2.5-2.5,1.9-3.8c-0.8-1.4-2.6-2-4.2-1.4c-1.4,0.4-2.7,1.1-3.9,2c-2,1.8-3.9,3.8-5.7,5.9
			c-2.3,3.1-3.8,6.6-4.5,10.4c0.1,1.1,0.3,2.3,0.5,3.4c0.4,1.6,1.6,3,3.1,3.7c1.1,0.6,2.4,0.5,3.3-0.4c1-0.9,0.5-2-0.3-2.8
			c-1.1-1.2-1.4-2.9-0.7-4.3C23.6,27.2,26.6,22.7,32,19.9z"/>
		<path class="st0" d="M41.2,25.5c1-0.7,1.4-2,0.9-3.1c-0.7-0.8-1.6-1.3-2.6-1.5c-1.2-0.3-2.4,0.2-3.2,1.1c-2.5,2.6-3.8,5.8-5.4,8.8
			c-1.8,3.3-2.1,7.3-0.7,10.8c0.9,2.4,2.9,4.3,5.4,5c2.2,0.9,3.7-0.3,5.4-1.1c-0.7-1.4-0.7-1.4-2.2-2.2c-3.1-1.5-4.6-5.1-3.4-8.3
			C36.4,31.3,38.4,28,41.2,25.5z"/>
	</g>
</g>
</svg>
