<svg id="Layer_1" data-name="Layer 1" xmlns="http://www.w3.org/2000/svg" viewBox="0 0 94.67 71"><defs><style>.cls-1{fill:#fff;}</style></defs><title>icon-envelope</title><path class="cls-1" d="M50.05,60.33c-1.6,0-3.58-.74-5.92-2.22a43.83,43.83,0,0,1-5.73-4.06l-1.85-1.3Q13.81,36.11,5.67,29.83L4.38,28.9a4.2,4.2,0,0,1-1.66-3.51V21.87A8.56,8.56,0,0,1,5.3,15.59,8.57,8.57,0,0,1,11.59,13H88.51a8.84,8.84,0,0,1,8.87,8.87v3.52a4.2,4.2,0,0,1-1.66,3.51l-.93.74q-8,6.28-31.24,23.11l-1.85,1.3A43.83,43.83,0,0,1,56,58.11Q52.44,60.33,50.05,60.33ZM95.53,36.48q-6.65,5.18-28.47,20.9l-1.85,1.47a50.64,50.64,0,0,1-7,4.81,16.35,16.35,0,0,1-8.13,2.59,17.35,17.35,0,0,1-8.14-2.4,75.23,75.23,0,0,1-7-4.81L33,57.38Q10.66,41.11,4.56,36.48a1.2,1.2,0,0,0-1.2-.09,1,1,0,0,0-.64,1V75.12A8.56,8.56,0,0,0,5.3,81.41,8.57,8.57,0,0,0,11.59,84H88.51a8.84,8.84,0,0,0,8.87-8.88V37.41a1.17,1.17,0,0,0-.65-1.11A.91.91,0,0,0,95.53,36.48Z" transform="translate(-2.72 -13)"/></svg>