<svg xmlns="http://www.w3.org/2000/svg" viewBox="0 0 46 93.12"><title>logo-undp-primary</title><g id="Layer_2" data-name="Layer 2"><g id="Layer_1-2" data-name="Layer 1"><path d="M46,0V45.86H.1V0ZM35.18,21.25A12.22,12.22,0,0,0,23.1,8.93,12.09,12.09,0,0,0,10.84,21,12.06,12.06,0,0,0,23,33.3,12.23,12.23,0,0,0,35.18,21.25ZM19.09,37.88c.95-.82,1.84-1.63,2.77-2.39s1.3-.81,2.25-.1a30.53,30.53,0,0,1,2.47,2.08c.37.36.61.36,1-.13l-3.87-2.68a2.78,2.78,0,0,1,2.45.52,7.49,7.49,0,0,0,3.18,1.57,4,4,0,0,0,3.45-1,7.33,7.33,0,0,1-5-.78,7,7,0,0,0-2.94-.62,12.14,12.14,0,0,1-3.56,0,.67.67,0,0,0-.37,0c-1.1.33-2.23.6-3.29,1a6.77,6.77,0,0,1-3.31.67l-.91-.09a4.2,4.2,0,0,0,3.91.81,9.23,9.23,0,0,0,2.74-1.53,2.54,2.54,0,0,1,2.35-.52L18.59,37.4Zm13-4.89.11.22A27.65,27.65,0,0,0,35.92,32a5.76,5.76,0,0,0,2.68-2.79l-5,2.86-.19-.18c1.11-1.28,1.27-2.85,1.46-4.57C33.35,29,33.44,31.36,32.05,33Zm-18,.07c-1.34-1.7-1.31-4-2.81-5.49a11.25,11.25,0,0,0,.44,2.54,17.64,17.64,0,0,0,1.29,2.39l-2.76-1.59L7.55,29.4C8.51,31.65,11.09,33.08,14,33.06ZM9.87,24.21a5.77,5.77,0,0,0-.23,4.41l-.15,0-3.55-4c0,1.95,2.75,5.13,4.71,5.49Zm26.33-.37-.76,6.1c3.06-1.51,4.77-3.84,4.59-5.41l-3.41,3.9-.21-.06C37.11,26.84,36.67,25.36,36.2,23.84ZM13.83,31a4.41,4.41,0,0,0,2.72,3.08,25.63,25.63,0,0,1-3.08-.18c-1-.12-2-.31-2.94-.46,1.94,2,4,2,7.77.76C16.36,33.66,15.29,32.07,13.83,31ZM27.9,34.1c2.58,1.38,6.85.83,7.66-.9-2.49.6-5.82,1-6.18.77,2-1,2.84-2,2.82-3.21C30.81,31.93,29.82,33.55,27.9,34.1ZM8.37,26,9.7,20.31l-.18,0a7.81,7.81,0,0,0-1.67,4.16L6,19.49A6.81,6.81,0,0,0,8.37,26Zm28.08-6-.16,0,1.43,5.74A6.83,6.83,0,0,0,40,19.28l-1.82,5.14-.16,0C38.32,22.66,37.35,21.35,36.45,20Zm2-5.41-.2,5.31a12.45,12.45,0,0,0-1-1.9,13.41,13.41,0,0,0-1.61-1.49c.4,1.92,2,3.06,2.75,4.8a24.33,24.33,0,0,0,.9-3.34A4.79,4.79,0,0,0,38.42,14.61ZM7.52,15c-1.2,1.12-1,4.91.32,6.43.6-1.71,2.19-2.86,2.55-4.7-1.18,1-2.33,1.94-2.62,3.56Zm29.53.58-.13.07-2.81-2.15c.19.92,1.87,2.63,3.45,3.67.37-2.59-.26-4.69-1.47-5.13ZM8.8,16.15l.92-3.78c-1.31.76-1.92,3.25-1.27,5.12,1.07-1.37,2.9-2.06,3.43-3.92Zm27-2.28c-.09-1.62-1.84-3.51-3.09-3.44A13.07,13.07,0,0,0,35.76,13.87ZM10.09,14A8.25,8.25,0,0,0,13,10.61,4,4,0,0,0,10.09,14Z"/><path d="M22.39,69.44H.13V47.19H22.39ZM5.88,51c0,1.23,0,2.4,0,3.56,0,2.32,0,4.64.14,7a4.49,4.49,0,0,0,1.53,3.14,5.48,5.48,0,0,0,5.37,1c2.3-.65,3.49-2.59,3.58-5.09.11-3,0-6,0-9,0-.17,0-.35,0-.5H14.88c0,.3,0,.54,0,.79,0,3.07,0,6.15-.14,9.23a3.53,3.53,0,0,1-2.32,3.32c-1.78.49-3.74.08-4.45-2.05a9.11,9.11,0,0,1-.43-2.69c0-2.65,0-5.31,0-8V51Z"/><path d="M46,69.45H23.7V47.19H46Zm-7.19-6.31-.2.17a1.28,1.28,0,0,0-.11-.33c-1-1.74-2-3.5-3-5.22-1.3-2.14-2.67-4.24-4-6.35a.73.73,0,0,0-.45-.33c-.54,0-1.09,0-1.65,0V65.62H30.9V53.13a4.47,4.47,0,0,1,.38.51c1.36,2.31,2.71,4.64,4.09,7,.92,1.54,1.89,3.06,2.85,4.58a1,1,0,0,0,.54.47,8.26,8.26,0,0,0,1.41,0V51.11h-1.4Z"/><path d="M23.71,70.73H46V93.12H23.71Zm7.13,4V89.19h1.74V83.32a3.84,3.84,0,0,1,.69,0,6.84,6.84,0,0,0,4.24-.71A4.26,4.26,0,0,0,39.71,78a3.82,3.82,0,0,0-3.2-3.24A15.44,15.44,0,0,0,30.84,74.77Z"/><path d="M0,93.12V70.86H22.26V93.12ZM5.75,74.78V88.43a.91.91,0,0,0,0,.37c.1.16.25.4.39.41a19.92,19.92,0,0,0,6-.23,6.62,6.62,0,0,0,4.11-2.63,8.38,8.38,0,0,0,1.2-6.79,6,6,0,0,0-4.73-4.77,19.23,19.23,0,0,0-5.46-.25A13.17,13.17,0,0,0,5.75,74.78Z"/><path d="M29.89,19.18a1.86,1.86,0,0,0-.54-2,6.77,6.77,0,0,1-1.46-2c0-.1-.34-.1-.52-.11s-.41.09-.58,0c-1.18-.46-2.35-1-3.63-1.47V11.82a6.77,6.77,0,0,1,3.89.84A2.29,2.29,0,0,1,28,14.48c.5,0,.66.29.88.76s.87.87,1.33,1.29a3.45,3.45,0,0,0,.61.49c1.48.85,1.25,2.38,1.58,3.78-.59,0-1.13.08-1.67.09a.39.39,0,0,1-.31-.22c-.1-.39-.15-.8-.24-1.31l-.33,1.51h-.66l-.27-1.68c-.5.21-.8.08-.92-.53-.08-.41-.88-.49-1.3-.2a1.66,1.66,0,0,1-.52.15c0-.21-.06-.5.05-.63a19.82,19.82,0,0,1,1.52-1.52c.11-.09.48-.09.54,0A14.59,14.59,0,0,1,29,17.8c.06.11.08.26.15.37C29.41,18.53,29.67,18.88,29.89,19.18Z"/><path d="M32.74,21.31h2a7.67,7.67,0,0,1-.39,3.22A12.11,12.11,0,0,1,32,28.84c-.3.37-.56.58-.9,0a2,2,0,0,0-.66-.65c-.48-.28-.43-.52-.09-.9a9,9,0,0,0,2.2-4.72C32.63,22.15,32.68,21.71,32.74,21.31Z"/><path d="M29.92,14.45l1.53-1.52a11.84,11.84,0,0,1,3.28,7.9H32.8C32.55,18.38,31.88,16.1,29.92,14.45Z"/><path d="M14.45,13.11,16,14.39a10.25,10.25,0,0,0-2.67,6.51H11.37A11.1,11.1,0,0,1,14.45,13.11Z"/><path d="M16.34,28.38a25.8,25.8,0,0,0,2.92,1.69,28.23,28.23,0,0,0,3.42.95v1.82a12.1,12.1,0,0,1-7.82-3.2Z"/><path d="M16.2,14,14.91,12.6a11.76,11.76,0,0,1,7.72-3.21v1.8a26.1,26.1,0,0,0-3.35,1A27.57,27.57,0,0,0,16.2,14Z"/><path d="M29.7,28.05l1.52,1.5a12,12,0,0,1-7.92,3.3v-2l1.91-.23a.63.63,0,0,1,.29.08c.25.13.55.44.72.38a3,3,0,0,0,1-.7C28.05,29.64,28.86,28.84,29.7,28.05Z"/><path d="M29.74,13.72a8.52,8.52,0,0,0-1.09-1.07,2.55,2.55,0,0,0-.95-.19c-.21,0-.42-.08-.63-.14-1.09-.31-2.19-.59-3.26-1a.93.93,0,0,1-.53-.6,7.13,7.13,0,0,1,0-1.4A11.61,11.61,0,0,1,31,12.57Zm-6-2.88,0,.23,1.76-.17C24.85,10.23,24.29,10.7,23.71,10.84Z"/><path d="M13.62,23.78c-.49-.15-1.24.1-1.35.44s.28,1.08.81,1.33a7.56,7.56,0,0,1,1.15.79c.32.24.64.48.95.73s.51.45.77.68L14.5,29.24a12,12,0,0,1-3.22-7.78h2Z"/><path d="M17.61,16.12a8.07,8.07,0,0,0-1.95,4.75h-1.9a9.48,9.48,0,0,1,2.53-6.14Z"/><path d="M22.69,11.92v1.85a7.79,7.79,0,0,0-4.69,2l-1.32-1.41A8.92,8.92,0,0,1,22.69,11.92Z"/><path d="M32.3,21.37a9.11,9.11,0,0,1-2.55,6.1,4.18,4.18,0,0,0-.24-.69c-.08-.11-.28-.15-.42-.23l-.68-.39a7.43,7.43,0,0,0,1.95-4.79Z"/><path d="M16.67,27.9l1.87-.35L18.46,27a7.45,7.45,0,0,0,4.22,1.5v1.87A9.46,9.46,0,0,1,16.67,27.9Z"/><path d="M16.14,21.34l.79.19c.13-.14.46-.32.29-.79,0-.08.26-.38.43-.4a.72.72,0,0,1,.61.22,1.49,1.49,0,0,1,.14.94A2.73,2.73,0,0,0,19,23.78c.49.79.58.8-.18,1.36-.32.24-.52.63-.82.89-.14.12-.4.1-.61.13l0-.55a1.08,1.08,0,0,0,0-.31c-.12-.53-.28-1.06-.36-1.59s-.16-.81-.67-.92c0,0-.09-.1-.1-.16C16.25,22.23,16.21,21.83,16.14,21.34Z"/><path d="M21.87,22.91a7.44,7.44,0,0,0,.78-.87c.07-.1-.06-.33-.1-.51a2.48,2.48,0,0,0-.56.2c-.15.11-.22.32-.37.45a1.18,1.18,0,0,1-.4.13l.11-.55H20.08c.28-.92.58-1.06,1.17-.58a1.51,1.51,0,0,1,1-1.43.6.6,0,0,0,.27-.41c.09-.45.07-.46.34-.39.18.3.23.56.36.6.62.22,1,.53.91,1.27a3,3,0,0,0,.26.86c.12.46.18.88-.53.85-.08,0-.21.11-.26.2-.14.26-.18.57-.62.53S22.07,23.21,21.87,22.91Z"/><path d="M22.59,25.51a7,7,0,0,1,.58-.51c.14-.11.38-.27.47-.22.67.39,1.26.06,1.85-.16.28.37,1.52.92,1.69.7a5.09,5.09,0,0,0,.51-1.22l-1,.4c.71-1.1,1.53-1.93,3-1.51a3.13,3.13,0,0,1-.68,1.92,2.27,2.27,0,0,1-2.22,1.17,3,3,0,0,1-1-.36.93.93,0,0,0-1.07.12c-.09.07-.22.18-.31.16a3.31,3.31,0,0,0-1.68-.19,2.27,2.27,0,0,1-.13-.23Z"/><path d="M27.61,16l-1.17,1.28L23.28,16V14.28A6.78,6.78,0,0,1,27.61,16Z"/><path d="M22.69,14.28V16c-1,.45-1.82.88-2.7,1.27a.57.57,0,0,1-.51,0c-.38-.33-.73-.71-1.13-1.12A7,7,0,0,1,22.69,14.28Z"/><path d="M18.05,16.46l1.4,1.32a10.74,10.74,0,0,1-1.65,1.47A1.49,1.49,0,0,0,17,20.86h-.8A6.26,6.26,0,0,1,18.05,16.46Z"/><path d="M18.33,26.12l1.29-1.18,2.15,1.2c-.6.49-.63,1.07.1,1.68A6.21,6.21,0,0,1,18.33,26.12Z"/><path d="M22.71,16.7l.15,1.63c-.44-.13-.78-.16-1,.35-.14.32-1.19.18-1.47-.14a.91.91,0,0,0-.24-.24c-.4-.21-.28-.45,0-.66A3.86,3.86,0,0,1,22.71,16.7Z"/><path d="M22.52,25.58A4.55,4.55,0,0,1,20,24.37l1.38-1.08,1.41.61.11.9c-.33.11-.61.29-.33.71Z"/><path d="M23.62,18.85l1.07-.67L24.47,18c-.38,0-1,.18-1.08.05a3.73,3.73,0,0,1-.17-1.33,4.11,4.11,0,0,1,2.39.75c.28.16.19.75-.12,1a6.53,6.53,0,0,1-.64.54.59.59,0,0,1-.43.09A6.28,6.28,0,0,1,23.62,18.85Z"/><path d="M14.15,24l-.41-2.51h1.9l.12.8c-1.25-.07-1,1.14-1.46,1.78Z"/><path d="M28.09,26.39l1.28,1.48-1.12.9-.19-.06a2.39,2.39,0,0,1,.14-.77c.15-.28.15-.48-.14-.6C27.46,27.07,27.7,26.78,28.09,26.39Z"/><path d="M24.94,30.21l-1.67.19V28.68a5,5,0,0,1,.6.1c.12,0,.31.18.3.21C23.91,29.64,24.51,29.8,24.94,30.21Z"/><path d="M18.83,22.08a8.94,8.94,0,0,1,1.32.74c.31.25.09.76-.56,1.26l-.94-1.81Z"/><path d="M29.53,22.71l-.88-1.34h1.24l-.18,1.31Z"/><path d="M32.5,79c0-.82,0-1.64,0-2.46,0-.18.19-.49.3-.5a15.59,15.59,0,0,1,3,.06A2.58,2.58,0,0,1,38,78.71,2.87,2.87,0,0,1,35.75,82a14.89,14.89,0,0,1-2.76.14c-.35,0-.51-.22-.5-.61C32.52,80.64,32.5,79.8,32.5,79Z"/><path d="M7.49,87.9c0-.24,0-.42,0-.6,0-3.57,0-7.15,0-10.72,0-.42.09-.69.53-.72a11.19,11.19,0,0,1,4.67.36,4.93,4.93,0,0,1,3.17,4.29,8.92,8.92,0,0,1-.49,4.16,5.14,5.14,0,0,1-4.44,3.21A29.6,29.6,0,0,1,7.49,87.9Z"/></g></g></svg>