<?xml version="1.0" encoding="UTF-8"?>
<svg width="83px" height="169px" viewBox="0 0 83 169" version="1.1" xmlns="http://www.w3.org/2000/svg" xmlns:xlink="http://www.w3.org/1999/xlink">
    <!-- Generator: Sketch 55.2 (78181) - https://sketchapp.com -->
    <title>Page 1 Copy</title>
    <desc>Created with Sketch.</desc>
    <g id="Page-1" stroke="none" stroke-width="1" fill="none" fill-rule="evenodd">
        <g id="PNUD-Logo" transform="translate(-278.000000, -29.000000)">
            <g id="Page-1-Copy" transform="translate(278.000000, 29.000000)">
                <polygon id="Fill-1" fill="#000" points="0.178360656 126.053607 40.2203279 126.053607 40.2203279 86.0116393 0.178360656 86.0116393"></polygon>
                <g id="Group-30" transform="translate(0.000000, 0.090109)">
                    <path d="M25.8530984,100.47576 C25.8530984,96.9011148 23.3541913,95.1992568 19.5426612,95.1992568 C18.0377432,95.1992568 16.8876885,95.3571803 16.293153,95.4779454 L16.293153,105.867454 C17.0437541,106.068109 18.0377432,106.145213 19.1469235,106.145213 C23.3541913,106.145213 25.8530984,104.084776 25.8530984,100.47576 Z M29.3404208,100.115322 C29.3404208,102.53341 28.629765,104.435923 27.2391093,105.830295 C25.4164863,107.766251 22.4410219,108.762098 19.0726066,108.762098 C18.0377432,108.762098 17.0883443,108.724011 16.293153,108.526142 L16.293153,119.235213 L12.8402022,119.235213 L12.8402022,92.8582732 C14.5086175,92.5396393 16.6898197,92.2999672 19.4646284,92.2999672 C22.8813497,92.2999672 25.376541,93.0933005 26.9641366,94.5201858 C28.4300383,95.7891475 29.3404208,97.7306776 29.3404208,100.115322 Z" id="Fill-2" fill="#FEFEFE"></path>
                    <polygon id="Fill-4" fill="#000" points="42.6839344 125.958852 82.7435519 125.958852 82.7435519 85.9168852 42.6839344 85.9168852"></polygon>
                    <path d="M55.9522951,119.312596 L55.9522951,107.884508 C55.9522951,103.440355 55.9123497,100.233579 55.7089071,96.8595902 L55.8306011,96.8215027 C57.1422951,99.7124317 58.9277596,102.767787 60.7893989,105.746038 L69.2773224,119.312596 L72.7702186,119.312596 L72.7702186,92.5742896 L69.5169945,92.5742896 L69.5169945,103.801721 C69.5169945,107.92724 69.5950273,111.179536 69.9118033,114.750464 L69.7901093,114.786694 C68.5601639,112.010027 66.9818579,109.231503 65.0328962,106.100902 L56.5040984,92.5742896 L52.6897814,92.5742896 L52.6897814,119.312596 L55.9522951,119.312596 Z" id="Fill-6" fill="#FEFEFE"></path>
                    <polygon id="Fill-7" fill="#000" points="0.176502732 168.264699 40.2184699 168.264699 40.2184699 128.222732 0.176502732 128.222732"></polygon>
                    <path d="M10.3292186,134.886361 L10.3292186,150.637836 C10.3292186,158.970623 14.4556667,162.061279 19.9318962,162.061279 C25.7202568,162.061279 30.0473607,158.725377 30.0473607,150.520787 L30.0473607,134.886361 L26.5553934,134.886361 L26.5553934,150.753027 C26.5553934,156.62871 23.9756667,159.249311 20.0517322,159.249311 C16.4798743,159.249311 13.8239727,156.703027 13.8239727,150.753027 L13.8239727,134.886361 L10.3292186,134.886361 Z" id="Fill-8" fill="#FEFEFE"></path>
                    <polygon id="Fill-9" fill="#000" points="42.6876503 168.267486 82.7491257 168.267486 82.7491257 128.225519 42.6876503 128.225519"></polygon>
                    <path d="M71.0207049,147.578858 C71.0606503,141.194104 67.4878634,137.267383 60.1908689,137.267383 C58.4072623,137.267383 57.0593388,137.423448 56.1461694,137.622246 L56.1461694,158.766344 C57.0138197,158.924268 58.2818525,158.924268 59.6353497,158.924268 C67.0131639,158.963284 71.0207049,154.79782 71.0207049,147.578858 M74.6678087,147.46088 C74.6678087,151.821426 73.2799399,155.396071 70.824694,157.854104 C68.2811967,160.356727 64.1566066,161.700005 58.9609235,161.700005 C56.4620164,161.700005 54.4368798,161.623831 52.6504863,161.386945 L52.6504863,135.08618 C54.796388,134.763831 57.2952951,134.526945 60.0310874,134.526945 C64.9917432,134.526945 68.5190109,135.639842 70.8664973,137.819186 C73.2799399,140.005033 74.6678087,143.137492 74.6678087,147.46088" id="Fill-10" fill="#FEFEFE"></path>
                    <polygon id="Fill-11" fill="#000" points="0.177431694 83.445847 82.7862842 83.445847 82.7862842 0.838852459 0.177431694 0.838852459"></polygon>
                    <path d="M62.5203333,59.6658197 C60.6280383,60.1721038 58.6029016,60.338388 56.7635574,60.9645082 C59.8783661,58.2900273 59.7046503,54.1496448 61.7836667,51.0004645 C62.4460164,50.1095902 62.9941038,49.1741257 63.7651421,48.3250546 C62.5008251,50.8694809 63.0498415,54.1607923 61.5969454,56.6271858 C61.0358525,57.6072404 60.2323005,58.5538525 59.3507158,59.3239617 C59.638694,59.3137432 59.8913716,59.0610656 60.1431202,58.8957104 C62.5091858,56.5389344 65.5942678,55.8784426 68.1489126,53.9629235 C69.1716995,53.148224 70.1080929,52.079918 70.5595683,50.9242896 C70.0737213,54.8333607 66.1888033,58.4999727 62.5203333,59.6658197" id="Fill-12" fill="#FEFEFE"></path>
                    <path d="M71.0333388,43.832224 C69.8777104,45.4736995 68.478694,47.0046284 67.410388,48.6786175 C67.531153,47.355776 67.6872186,45.728235 67.1688579,44.4722787 C66.2761257,41.7745738 65.4957978,39.0322787 65.2421913,36.0716776 L65.2747049,34.9364863 C65.9454153,37.9639727 68.9199508,40.045776 68.7323005,43.4383443 C68.7982568,44.2623333 68.5437213,44.9562678 68.3913716,45.6827158 L68.4461803,45.7375246 L68.5780929,45.5842459 C69.0193497,43.9214044 69.2385847,42.1703115 69.9213716,40.6189454 C70.9004973,38.3829344 72.1127923,36.1255574 71.6176557,33.4287814 C73.1039945,36.6114044 72.6515902,40.8604754 71.0333388,43.832224" id="Fill-13" fill="#FEFEFE"></path>
                    <path d="M69.2062568,26.69 C71.1552186,29.3319672 71.5834699,33.539235 70.1621585,36.5667213 C69.6345082,37.8551913 69.2610656,39.220765 69.0501913,40.6411475 C68.9526503,40.3986885 68.9303552,40.0679781 68.8430328,39.7920765 C68.0701366,36.8314754 65.2618852,34.7171585 64.1081148,31.9191257 C63.7448907,31.0059563 63.4364754,30.0593443 63.2590437,29.0681421 C64.4945628,31.3468852 67.5313388,32.5257377 68.3590437,35.0367213 C68.6999727,35.6739891 68.6767486,36.4663934 68.8848361,37.1501093 C68.9303552,37.1501093 68.9740164,37.1175956 68.9740164,37.0730055 C68.6107923,34.485847 68.7222678,31.7769945 69.0734153,29.2223497 C69.0501913,27.8354098 68.9192077,26.4921311 68.1481694,25.4228962 C68.6451639,25.7099454 68.8653279,26.2617486 69.2062568,26.69" id="Fill-14" fill="#FEFEFE"></path>
                    <path d="M67.8310219,26.1841803 C68.3484536,28.4954372 67.5987814,30.7537432 68.070694,33.0872951 L68.0502568,33.1095902 C66.7933716,30.6320492 64.1188907,29.4643443 62.2804754,27.4819399 C61.2121694,26.3040164 60.7495464,24.8734153 60.4847923,23.3545628 C61.5410219,25.8971311 64.3817869,26.458224 66.0130437,28.5939071 C66.564847,29.0899727 66.7404208,29.7727596 67.0924973,30.3347814 L67.1454481,30.2790437 C66.2090546,28.2762022 65.8913497,26.0188251 65.2420055,23.8822131 C64.9112951,22.9569672 64.2619508,22.0437978 63.3933716,21.4604098 C65.5281257,21.8998087 67.3879071,24.1358197 67.8310219,26.1841803" id="Fill-15" fill="#FEFEFE"></path>
                    <path d="M62.1030437,20.8766503 C63.7212951,22.3183989 64.4486721,24.1902568 64.9224426,26.128071 L65.1871967,26.7449016 C62.8415683,25.060694 60.7170328,22.7930984 59.2195464,20.4028798 L57.3913497,18.5533169 C58.9984536,19.2361038 60.7281803,19.6429891 62.1030437,20.8766503" id="Fill-16" fill="#FEFEFE"></path>
                    <path d="M25.0901421,18.8622896 C23.4709617,20.2817432 22.347847,22.0774262 21.1466995,23.7504863 C20.0691038,25.0826175 18.6923825,25.9632732 17.4707978,27.1086831 C18.1303607,25.7431093 18.1535847,24.1127814 19.0890492,22.8586831 C20.4211803,20.5353497 22.8875738,19.7206503 25.0901421,18.8622896" id="Fill-17" fill="#FEFEFE"></path>
                    <path d="M16.235929,23.8051093 C17.0190437,22.8250546 18.0213934,22.1422678 19.1435792,21.8561475 C16.963306,23.3545628 17.1063661,26.0411202 16.4124317,28.2762022 C16.1922678,29.1011202 15.8086066,29.8610109 15.6190984,30.709153 L15.6748361,30.7528142 C16.0380601,29.7950546 16.6771858,28.8921038 17.4705191,28.109918 C19.0218852,26.678388 21.3127049,25.7865847 22.0707377,23.6731967 C22.038224,26.6133607 19.5839071,28.9255464 17.2382787,30.5772404 C16.2693716,31.4244536 15.3339071,32.3942896 14.8053279,33.4830328 C14.7495902,32.7454372 14.9168033,31.996694 14.8610656,31.2042896 C14.6065301,28.6394262 14.4207377,25.7104098 16.235929,23.8051093" id="Fill-18" fill="#FEFEFE"></path>
                    <path d="M11.8225246,32.5808251 C11.7556393,29.9815902 12.8360219,27.8570546 14.3548743,25.9201694 C14.3994645,25.8969454 14.4319781,25.8532842 14.4867869,25.8644317 C12.8127978,28.407929 14.2006667,31.611918 14.1235628,34.5074918 L13.901541,37.4699508 C13.9349836,37.4913169 13.9349836,37.5795683 14.0111585,37.5461257 C14.1114863,37.2163443 14.1337814,36.8633388 14.2006667,36.5224098 C14.5945464,34.1331202 16.6679891,32.437765 18.4831803,30.786071 C18.8677705,30.3568907 19.2096284,29.9156339 19.4074973,29.4102787 C19.2644372,30.5993497 18.8891366,31.7986393 18.394929,32.900388 C16.985694,35.6519727 14.3762404,37.9093497 13.901541,41.0585301 C13.6702295,38.0421913 11.6116503,35.7848142 11.8225246,32.5808251" id="Fill-19" fill="#FEFEFE"></path>
                    <path d="M10.5551421,36.2803224 C10.7427923,35.465623 10.8858525,34.6286284 11.237929,33.8798852 C10.5672186,37.3142568 12.8803333,39.7927268 13.6383661,42.7765519 C13.957,43.8885191 14.0350328,45.0887377 14.4865082,46.1347486 C14.5301694,46.1570437 14.563612,46.1133825 14.5951967,46.0799399 C13.4618634,42.9084645 15.0931202,39.9683005 16.7308798,37.4907596 C17.1284754,36.8191202 17.3597869,36.071306 17.5585847,35.2993388 C17.7341585,36.7317978 17.3718634,38.3834918 17.1609891,39.8698306 C16.7652514,41.7639836 16.1697869,43.5578087 15.6532842,45.397153 C15.3114262,46.5416339 15.3996776,47.8403224 15.5752514,49.0414699 L15.4117541,48.9095574 C14.2106066,46.6967705 11.8315355,44.9679727 11.1273825,42.5452404 C10.5449235,40.6185738 10.1584754,38.3834918 10.5551421,36.2803224" id="Fill-20" fill="#FEFEFE"></path>
                    <path d="M10.4453388,42.9971803 C10.7100929,46.6414973 14.6303115,48.567235 16.4464317,51.5854317 C16.876541,52.2022623 17.2490546,52.8841202 17.822224,53.4015519 C17.7339727,53.0151038 17.3716776,52.6853224 17.2388361,52.2886557 C16.6006393,51.0243388 16.3693279,49.514776 16.5235355,47.984776 C16.7000383,46.1231366 17.4803661,44.3943388 17.1830984,42.4360874 C18.7809126,45.8806776 18.2959945,50.1752678 19.1877978,53.9078361 C19.4181803,54.7225355 19.8919508,55.4489836 20.2012951,56.2311694 C16.9202022,53.9951585 12.4491093,51.870623 10.9952842,47.7757596 C10.3803115,46.3655956 10.3115683,44.6154317 10.4453388,42.9971803" id="Fill-21" fill="#FEFEFE"></path>
                    <path d="M12.4039617,51.3646175 C14.2340164,55.5031421 18.8119399,55.845929 21.8858743,58.3671311 C22.4469672,58.8631967 23.0405738,59.2914481 23.6796995,59.5896448 L23.7131421,59.5562022 C23.0080601,58.9170765 22.1924317,58.1906284 21.6972951,57.3647814 C19.901612,54.8668033 20.5314481,51.3646175 19.1881694,48.6780601 C20.4097541,50.1430328 21.5207923,51.6609563 22.258388,53.3237978 C23.3610656,56.0326503 23.7790984,59.0954372 26.3216667,61.1419399 C23.570082,60.2389891 20.3447268,60.4916667 17.9210656,58.7963115 C15.2679508,57.1659836 12.9000273,54.4041803 12.4039617,51.3646175" id="Fill-22" fill="#FEFEFE"></path>
                    <path d="M17.1059945,59.0834536 C20.034082,62.4184262 24.8256667,61.306459 28.7338087,62.1768962 C29.2828251,62.254 29.7909672,62.473235 30.3743552,62.3859126 C29.9108033,62.0886448 29.2633169,62.1220874 28.7570328,61.8573333 C25.6942459,60.7788087 25.2436995,57.4652022 23.5808579,55.2301202 C25.7063224,56.6393552 27.489929,58.5437268 29.4491093,60.3812131 C30.8592732,61.6158033 32.5536995,62.1880437 34.337306,62.5512678 C33.9081257,62.7045464 33.3461038,62.6618142 32.8844098,62.7825792 C29.6804208,63.5749836 26.1122787,64.8643825 22.7104208,63.7078251 C20.4976339,63.0129617 18.2179617,61.2637268 17.1059945,59.0834536" id="Fill-23" fill="#FEFEFE"></path>
                    <path d="M56.9174863,66.8557978 C53.6150273,68.090388 50.1630055,66.8009891 47.5804918,64.8418087 C46.531694,64.180388 45.6064481,63.2226284 44.2510929,63.3108798 C43.763388,63.3006612 43.2896175,63.3229563 42.8697268,63.4427923 C45.3853552,64.6104973 47.7133333,66.2166721 49.8527322,68.2761803 C49.4895082,68.6849235 49.0268852,69.0695137 48.5837705,69.4206612 C46.531694,67.2088033 44.2510929,65.0833388 41.7048087,63.839459 C41.2078142,63.9054153 40.7359016,64.203612 40.2834973,64.4451421 C38.2137705,65.7549781 36.1654098,67.4401148 34.6251913,69.498694 L33.3032787,68.4080929 C35.4175956,66.2733388 37.7520765,64.6104973 40.3076503,63.4214262 C37.7966667,62.6280929 36.1561202,64.7303333 34.2508197,65.7995683 C32.0278142,67.3518634 28.8340437,68.0783115 26.1465574,67.0109344 C24.7029508,66.4600601 23.3048634,65.6555792 22.2588525,64.3466721 C24.3731694,65.7995683 27.5232787,65.953776 29.9227869,65.006235 C33.15,63.6081475 36.4951913,61.8366175 40.3838251,62.6829016 C40.9885792,62.6940492 41.5840437,63.3006612 42.1553552,62.7823005 C45.0444262,62.0335574 48.3190164,62.5509891 50.8123497,63.8719727 L53.3827869,64.8966175 C55.7618579,65.7772732 58.844153,65.5357432 60.8822951,64.0809891 C59.8353552,65.3917541 58.4056831,66.3281475 56.9174863,66.8557978" id="Fill-24" fill="#FEFEFE"></path>
                    <path d="M60.462776,63.4428852 C56.7525027,64.8409727 53.0180765,63.1233224 49.4564372,62.551082 L48.7727213,62.4628306 L48.7727213,62.4414645 C50.4708634,62.0559454 52.1253443,61.5487322 53.4825574,60.3271475 C55.4770383,58.4116284 57.2476393,56.4403716 59.4613552,54.9317377 C57.8208087,57.0358361 57.645235,60.0298798 54.9363825,61.384306 C54.2647432,61.8237049 53.4156721,61.9008087 52.7208087,62.2324481 C53.7129399,62.2538142 54.6149617,61.9008087 55.5968743,61.8023388 C59.2309727,61.2300984 63.3927213,61.8144153 65.9352896,58.7191148 C64.9896066,60.8770929 62.6198251,62.6829945 60.462776,63.4428852" id="Fill-25" fill="#FEFEFE"></path>
                    <path d="M67.2013716,53.0047923 C65.7373279,53.9625519 64.2509891,54.8543552 62.8417541,55.9440273 L62.8417541,55.8121148 C65.0006612,52.2226066 63.9425738,47.3018962 65.2747049,43.3603115 L65.7698415,42.0383989 C65.4957978,44.4945738 66.5641038,46.5754481 66.486071,49.0418415 C66.4080383,50.5281803 65.9240492,51.848235 65.1418634,53.038235 L65.2747049,53.038235 C66.3300055,51.6512951 67.1577104,50.1751749 68.3913716,48.8541913 C70.3078197,47.0046284 72.2558525,45.1104754 72.510388,42.5446831 C73.1578743,46.8290546 70.7574372,50.5829891 67.2013716,53.0047923" id="Fill-26" fill="#FEFEFE"></path>
                    <path d="M62.4459235,39.637776 C62.2350492,44.7907268 60.3195301,49.2395246 56.9501858,53.0826393 L56.8628634,53.2479945 C56.1698579,52.4881038 55.244612,51.4959727 54.4066885,50.8364098 C54.9148306,50.4954809 55.2994208,49.9000164 55.705377,49.4160273 C57.7973989,46.5418197 59.0199126,43.3053169 59.1964153,39.637776 L59.0877268,39.3405082 L59.2744481,39.4733497 L62.4134098,39.4519836 L62.5769071,39.3748798 L62.4459235,39.637776 Z M42.2122077,59.8203989 L42.0022623,59.9523115 C42.0793661,58.8291967 42.0793661,57.6178306 42.0022623,56.4956448 C42.5522077,56.6823661 43.1355956,56.4733497 43.7199126,56.4733497 L45.408765,56.176082 C46.2476175,56.3414372 46.842153,57.6949344 47.7692568,56.8700164 C48.0888197,56.4844973 48.6508415,56.516082 48.8505683,55.9884317 C49.3893661,55.7914918 49.5222077,55.2406175 49.9105137,54.888541 C50.2728087,53.8527486 51.4433005,53.6994699 52.1567432,52.9823115 C52.6769617,52.5206175 53.3616066,52.1360273 53.6700219,51.5294153 L53.7239016,51.7932404 L56.0481639,54.0069563 C52.113082,57.5750984 47.5258689,59.5900164 42.2122077,59.8203989 L42.2122077,59.8203989 Z M42.1769071,52.775153 C42.5745027,52.9386503 43.2582186,52.6088689 43.4783825,53.0603443 C43.3548306,53.3139508 43.1588197,53.5554809 43.2368525,53.8527486 C43.4003497,54.2605628 43.6437377,54.8002896 44.1620984,54.8328033 C44.2949399,55.008377 44.4705137,55.0529672 44.6470164,55.1198525 C43.7635738,55.2619836 42.8160328,55.2183224 42.0022623,55.4932951 C42.1128087,54.6014918 42.0022623,53.6771749 42.0022623,52.775153 L41.8369071,52.531765 C41.9901858,52.5531311 42.0682186,52.6850437 42.1769071,52.775153 L42.1769071,52.775153 Z M41.3622077,47.1920929 C41.1197486,47.2246066 40.9237377,47.2032404 40.7249399,47.1149891 C40.6236831,47.1029126 40.6571257,46.9932951 40.6236831,46.9273388 C40.9441749,46.9375574 41.0993115,46.5529672 41.4393115,46.6087049 C41.6381093,46.4312732 41.6715519,46.1349344 41.9455956,46.0355355 C41.8573443,45.7503443 42.2122077,45.9361366 42.2865246,45.7717104 C42.3868525,45.6825301 42.5178361,45.5840601 42.6618251,45.6611639 C42.8819891,45.9807268 43.3353224,45.8478852 43.5564153,46.2120383 C43.6651038,46.2556995 43.6994754,46.1349344 43.6892568,46.0578306 L43.6892568,45.925918 C44.0413333,45.8915464 44.2169071,46.3987596 44.5940656,46.0578306 C44.681388,45.9807268 44.6581639,45.8144426 44.5940656,45.7391967 C44.5485464,45.7169016 44.4946667,45.6936776 44.4835191,45.6388689 C44.7361967,45.5181038 44.8904044,46.024388 45.1988197,45.8478852 C45.4524262,45.6388689 45.628,45.3750437 45.9717158,45.3750437 L46.0478907,45.4735137 C46.1036284,46.1349344 45.5416066,46.5316011 45.044612,46.8288689 C44.7250492,46.9607814 44.1407322,46.9152623 44.1620984,47.433623 C43.7998033,47.7643333 43.4570164,47.2357541 43.0036831,47.3788142 C42.7928087,47.2691967 42.9934645,46.9607814 42.7054863,46.9050437 C42.2428634,47.1029126 41.6919891,46.6635137 41.3622077,47.1920929 L41.3622077,47.1920929 Z M38.6979454,59.6661913 C34.2714426,59.0614372 30.3958142,57.1440601 26.9605137,54.1723115 L29.2299672,51.8935683 L29.2634098,51.7597978 C32.4005137,54.7891421 36.1999672,56.3079945 40.4945574,56.6052623 L40.8345574,56.516082 L40.7249399,56.6823661 L40.7249399,59.6661913 L40.8884372,59.9309454 C40.2056503,59.721 39.4030273,59.7869563 38.6979454,59.6661913 L38.6979454,59.6661913 Z M23.1833552,49.228377 C21.5994754,46.2882131 20.663082,43.084224 20.4875082,39.5606721 L23.5465792,39.5829672 L23.8466339,39.4733497 C23.8011148,39.637776 23.8224809,39.8477213 23.8131913,40.0901803 L23.7908962,40.0567377 C23.7026448,40.123623 23.8559235,40.1561366 23.8466339,40.2211639 C23.9005137,41.3879399 24.1086011,42.4896885 24.3733552,43.570071 L24.5275628,43.8106721 C24.2962514,43.6035137 24.208929,43.3489781 24.0333552,43.1278852 C23.7788197,43.1724754 23.504776,43.2272842 23.3161967,43.3935683 C23.4378907,43.7112732 23.1183279,43.6128033 22.9761967,43.7010546 C22.9316066,43.6248798 22.8433552,43.5356995 22.7551038,43.4920383 C22.5237923,43.5041148 22.2813333,43.5264098 22.1828634,43.7567923 C22.215377,43.9212186 22.0277268,43.9983224 21.9617705,44.1311639 C21.8958142,44.6263005 21.731388,45.2747158 22.0936831,45.6825301 C22.1048306,46.0466831 22.2813333,46.3764645 22.5451585,46.607776 C22.6557049,46.630071 22.7105137,46.5418197 22.7876175,46.508377 C23.0839563,46.728541 23.2390929,47.2691967 23.6794208,47.1697978 C23.8131913,47.1029126 23.7686011,46.971929 23.8131913,46.873459 C24.0445027,47.1029126 24.1531913,47.5766831 24.5823716,47.5330219 C24.6919891,47.6435683 24.7467978,47.8405082 24.9242295,47.8525847 C25.3859235,47.7308907 25.2196393,48.380235 25.5624262,48.5669563 C25.8271803,48.7332404 25.9711694,49.1299071 26.3548306,48.9422568 L26.4876721,48.7769016 C26.6084372,48.866082 26.5090383,49.0853169 26.6186557,49.206082 C26.807235,49.5590874 27.1816066,49.812694 27.5448306,49.9111639 C27.8634645,50.274388 28.1941749,50.7035683 28.5694754,50.9683224 L28.3047213,51.0788689 L26.1123716,53.3464645 C25.1109508,51.9920383 23.9673989,50.6803443 23.1833552,49.228377 L23.1833552,49.228377 Z M20.6407869,36.357612 C21.2028087,31.8103443 23.138765,27.8241694 26.2777268,24.3331311 L26.3548306,24.6303989 C27.1054317,25.3689235 27.8523169,26.1511093 28.5694754,26.8227486 C27.9507869,27.2407814 27.5884918,27.9449344 27.0942842,28.5069563 C25.1220984,31.3022022 23.9999126,34.4309454 23.7908962,37.9433497 L23.868,38.3725301 C22.7671803,38.2842787 21.5660328,38.2842787 20.4652131,38.3725301 C20.5980546,37.7008907 20.5209508,37.0181038 20.6407869,36.357612 L20.6407869,36.357612 Z M28.8342295,22.0878306 C32.3234098,19.577776 36.253847,18.0682131 40.6812787,17.8926393 L40.5920984,18.2001257 L40.6236831,20.8430219 L40.7249399,21.107776 C36.4294208,21.3056448 32.6866339,22.9136776 29.4714973,25.841765 L29.4166885,25.9950437 C28.6800219,25.2035683 27.8523169,24.2894699 26.9837377,23.6522022 L26.8852678,23.6522022 C27.5671257,23.2546066 28.1616612,22.5495246 28.8342295,22.0878306 L28.8342295,22.0878306 Z M40.7574536,29.8836776 C40.1842842,29.7499071 39.6445574,30.0155902 39.0936831,30.0703989 C37.8628087,30.3797432 36.7833552,31.0606721 35.7382732,31.8103443 C35.6825355,31.8976667 35.6258689,31.9756995 35.5710601,32.0528033 C34.8102404,31.380235 34.0642842,30.4447705 33.2245027,29.8613825 C35.3508962,28.1093607 37.7745574,26.9435137 40.5716612,26.7447158 L40.7574536,26.6350984 C40.6385464,27.7034044 40.6385464,28.8478852 40.7574536,29.8836776 L40.7574536,29.8836776 Z M39.8870164,33.4508907 C39.8210601,33.2966831 40.0087104,33.1303989 39.8322077,33.031929 C39.3259235,33.2632404 39.5135738,33.8252623 39.1717158,34.1884863 C39.1159781,34.4746066 38.7425355,34.3306175 38.5660328,34.4857541 C38.4331913,34.2767377 38.1693661,34.2869563 37.9826448,34.4086503 C37.7188197,34.4086503 37.6742295,33.8698525 37.3992568,34.1438962 C37.322153,34.2330765 37.3648852,34.4309454 37.1577268,34.3529126 C37.1122077,34.2767377 37.0360328,34.2655902 36.981224,34.221929 C36.9691475,34.0556448 37.2571257,34.0788689 37.1577268,33.880071 C36.958929,33.5270656 36.5288197,33.5828033 36.2649945,33.3189781 L36.0234645,33.3189781 C37.322153,31.9422568 38.9515519,31.3365738 40.7249399,31.1052623 C40.7017158,31.8976667 40.6385464,32.7894699 40.8884372,33.5056995 C40.6153224,33.1647705 40.2279454,33.5939508 39.8870164,33.4508907 L39.8870164,33.4508907 Z M36.8140109,42.4135137 C37.0128087,42.2147158 37.201388,41.9722568 37.2673443,41.6972842 L37.6407869,41.8840055 C37.2998579,41.9063005 37.1122077,42.2490874 36.8493115,42.4358087 L36.8140109,42.4135137 Z M40.3607869,45.7169016 C40.2056503,45.9686503 40.3282732,46.3448798 40.2502404,46.6421475 C38.7861967,46.387612 37.4652131,45.781 36.2863607,44.8130219 C36.9477814,44.0977213 37.8498033,43.3935683 38.3245027,42.6216011 C38.391388,42.9746066 38.8084918,43.1399617 39.0936831,43.3053169 C39.6835738,43.5682131 40.3923716,43.9732404 41.0602951,43.692694 C41.0054863,43.7335683 40.9636831,43.7967377 40.9116612,43.8320383 C41.0993115,44.0206175 40.7686011,44.2184863 40.988765,44.3949891 C41.0333552,44.5380492 40.8457049,44.5166831 40.8345574,44.6263005 C40.9441749,44.8241694 40.8011148,45.1771749 41.1197486,45.2422022 C41.1987104,45.3527486 41.1197486,45.5181038 40.988765,45.5283224 C40.7686011,45.4846612 40.4713333,45.4735137 40.3607869,45.7169016 L40.3607869,45.7169016 Z M33.5682186,33.8456995 C33.2588743,34.0231311 33.0173443,34.3306175 32.829694,34.6176667 C32.5649399,34.7830219 32.2240109,34.7718743 32.003847,35.0691421 C32.003847,35.1889781 32.1469071,35.3441148 31.9834098,35.4323661 C31.7279454,35.6738962 31.201224,35.3664098 31.080459,35.8281038 C31.033082,36.235918 30.5518798,36.4663005 30.5834645,36.9187049 C30.3196393,37.0961366 30.3642295,37.4361366 30.3958142,37.7120383 C30.5388743,37.8866831 30.3307869,38.2071749 30.5834645,38.3390874 C30.1552131,38.2842787 29.5913333,38.2173934 29.2067432,38.3948251 C29.4166885,37.8987596 29.3507322,37.281929 29.4714973,36.7533497 C29.8793115,34.4746066 30.9151038,32.4708361 32.4330273,30.6537869 C33.193847,31.4025301 34.0066885,32.2720383 34.8669071,32.9213825 C34.2398579,32.9436776 34.2287104,33.8698525 33.5682186,33.8456995 L33.5682186,33.8456995 Z M32.0382186,46.873459 L31.9267432,46.1897432 C31.300623,45.6286503 31.4957049,44.6588142 31.3990929,43.9444426 C30.9578361,43.5914372 31.3108415,43.0182678 31.0024262,42.6216011 C31.0126448,41.9834044 30.0102951,41.7641694 30.3196393,41.0581585 C30.1979454,40.8825847 30.0446667,40.6522022 30.1867978,40.4311093 C30.3855956,40.1988689 30.813847,40.4534044 30.9466885,40.1124754 L31.033082,39.5281585 C31.2662514,39.3962459 31.5960328,39.6935137 31.7167978,39.3748798 C31.9388197,38.8240055 30.9020984,38.1523661 31.7948306,37.8653169 C32.0930273,37.8328033 32.4999126,37.766847 32.6197486,38.1291421 C32.6866339,38.5481038 32.7962514,38.9995792 32.6420437,39.4296885 C32.9281639,39.540235 32.6643388,39.7929126 32.6643388,39.9805628 C32.4878361,40.0567377 32.3234098,40.2323115 32.1134645,40.1663552 C32.027071,40.0232951 31.8710055,39.7706175 31.6619891,39.7929126 C31.4957049,40.0232951 31.7279454,40.2657541 31.6945027,40.5295792 C31.639694,40.6847158 31.6833552,40.8602896 31.5858142,40.9810546 C31.5087104,40.9262459 31.4325355,40.8946612 31.3210601,40.9048798 C31.1334098,41.0033497 31.2560328,41.2021475 31.300623,41.3229126 C31.4957049,41.4446066 31.639694,41.6313279 31.8710055,41.6424754 L31.9834098,41.5105628 C31.9583279,41.1575574 32.124612,40.8825847 32.1357596,40.5295792 L32.4553224,40.6949344 C32.7516612,42.0595792 33.3694208,43.3053169 34.1516066,44.4730219 L34.5714973,44.8901257 C33.5682186,45.7596339 32.5881639,46.7954262 31.7400219,47.7754809 L31.7400219,47.796847 C31.7279454,47.7541148 31.6945027,47.5766831 31.5625902,47.6435683 C31.4761967,47.2246066 32.1692022,47.3453716 32.0382186,46.873459 L32.0382186,46.873459 Z M39.0611694,50.759306 L39.5897486,51.0008361 C37.6742295,50.5289235 35.6156503,49.8675027 33.9630273,48.4898525 C33.678765,48.3254262 33.4901858,47.9510546 33.1492568,47.9296885 C33.9193661,47.3026393 34.6913333,46.4758634 35.3388197,45.6825301 C35.6258689,46.2120383 36.2417705,46.4972295 36.7164699,46.850235 C37.5488197,47.2366831 38.415541,47.9399071 39.3918798,47.7420383 C39.0890383,47.8525847 38.8094208,48.0216557 38.5660328,48.281765 C38.4331913,48.5790328 38.4777814,49.0184317 38.0811148,49.1512732 C38.1034098,49.7792514 38.6645027,50.3078306 39.0611694,50.759306 L39.0611694,50.759306 Z M35.792153,42.1710546 C35.8023716,42.2816011 35.9342842,42.380071 36.0559781,42.3029672 C36.1767432,42.138541 35.792153,41.8514918 36.0773443,41.7530219 C36.253847,41.9508907 36.1646667,42.2816011 36.2649945,42.5119836 C36.3541749,42.6327486 36.3848306,42.7758087 36.3643934,42.9420929 C36.0661967,43.3053169 35.6490929,43.6248798 35.4382186,44.0206175 C35.2403497,43.5264098 34.8000219,43.1278852 34.602153,42.6216011 C34.2825902,42.0493607 34.1190929,41.3990874 33.8088197,40.827776 C34.0735738,41.1575574 34.7795847,40.7831858 34.7795847,41.4111639 C34.8223169,41.4446066 34.8882732,41.4325301 34.9440109,41.4325301 C35.0313333,41.3340601 35.0424809,41.3229126 35.1530273,41.3786503 C35.208765,41.4873388 35.4716612,41.5430765 35.2626448,41.6749891 C35.3388197,41.9063005 35.5376175,42.1264645 35.792153,42.1710546 L35.792153,42.1710546 Z M40.7249399,25.5556448 C40.1517705,25.4348798 39.5693115,25.6327486 38.9859235,25.6875574 C36.5288197,26.1947705 34.2510055,27.2407814 32.3782186,29.0355355 L32.3001858,28.8255902 C31.5625902,28.1428033 30.8928087,27.2844426 30.0771803,26.7679399 C30.7822623,26.3489781 31.4093115,25.7321475 32.0930273,25.258377 C34.6467432,23.5416557 37.5088743,22.5718197 40.7017158,22.3850984 C40.5920984,23.4199617 40.6812787,24.5096339 40.7249399,25.5556448 L40.7249399,25.5556448 Z M28.2276175,38.3948251 L27.9396393,38.2842787 L24.9242295,38.3390874 C25.1992022,34.9706721 26.125377,31.8763005 28.0734098,29.2008907 L29.2634098,27.6922568 L29.282918,27.4823115 C29.9898579,28.3090874 30.7711148,29.0791967 31.6062514,29.8065738 C29.4380546,32.1410546 28.3381639,34.9372295 28.094776,38.0752623 C28.1393661,38.1848798 28.1068525,38.3177213 28.2276175,38.3948251 L28.2276175,38.3948251 Z M25.981388,43.4920383 C25.6822623,43.5264098 25.761224,43.8552623 25.6386011,44.0196885 C25.6627541,43.2495792 25.3218251,42.501765 25.2196393,41.7195792 L24.9790383,39.6935137 L24.8461967,39.5058634 C25.8151038,39.6489235 26.8852678,39.5606721 27.9089836,39.5829672 L28.1505137,39.4733497 C28.0613333,39.9582678 28.0390383,40.6624208 28.3929727,41.0916011 C28.2703497,40.9596885 28.094776,40.5741694 27.8077268,40.5853169 C27.2475628,40.6187596 27.2039016,41.3563552 26.6418798,41.3786503 C26.1783279,41.7641694 26.1123716,42.3029672 26.0148306,42.8315464 C26.2126995,43.0414918 25.858765,43.2495792 25.981388,43.4920383 L25.981388,43.4920383 Z M29.3172896,39.6935137 L29.1519344,39.4296885 C29.4826448,39.6712186 29.8245027,39.5941148 30.2090929,39.5281585 C29.6693661,39.7046612 29.8681639,40.366082 29.6591475,40.7729672 C29.6257049,40.9708361 29.9229727,41.0256448 29.890459,41.2244426 C29.6257049,41.3563552 29.5913333,41.6424754 29.4714973,41.8514918 C29.6257049,41.1138962 29.3386557,40.4208907 29.3172896,39.6935137 L29.3172896,39.6935137 Z M40.8559235,55.5694699 L40.5475082,55.3595246 C36.4517158,55.1412186 32.951388,53.4672295 29.890459,50.7918197 C30.3855956,50.7370109 30.571388,51.3975027 31.1120437,51.2312186 C31.7065792,51.1652623 32.1692022,50.6924208 32.7962514,50.7918197 C33.1055956,50.8029672 33.4901858,50.7918197 33.678765,50.4954809 C33.776306,50.1656995 33.4251585,49.9984863 33.3582732,49.7346612 C35.4382186,51.2869563 37.784776,52.2670109 40.4601858,52.3989235 L40.7249399,52.289306 L40.7249399,55.1960273 L40.8559235,55.5694699 Z M41.3622077,35.1471749 L41.548,35.2447158 C41.3176175,35.2558634 41.0556503,35.1128033 40.8559235,35.2781585 C40.7249399,35.3775574 40.8122623,35.5531311 40.8559235,35.6738962 C41.2516612,35.8281038 41.3408415,36.478377 41.8694208,36.2256995 C42.0895847,36.2693607 42.3636284,36.3130219 42.4416612,36.5666284 C42.7602951,36.6873934 42.8039563,37.2494153 43.2368525,37.1277213 C43.2126995,37.3367377 43.1476721,37.7008907 43.4003497,37.8653169 C43.3353224,38.0529672 43.0928634,38.130071 43.1040109,38.3725301 C43.0482732,38.4384863 42.9934645,38.5481038 43.0603497,38.6372842 C43.467235,38.6800164 43.4458689,39.1426393 43.6325902,39.3962459 C43.5434098,39.7148798 43.6558142,40.0455902 43.9298579,40.2211639 C43.8880546,40.5964645 43.7199126,40.9150984 43.5564153,41.2458087 C43.126306,41.4548251 42.4184372,40.9262459 42.2660874,41.6972842 C42.0236284,41.9620383 42.2326448,42.5444973 41.7588743,42.5667923 C40.8559235,42.6327486 40.018929,42.4358087 39.3259235,41.9063005 C39.7764699,41.6749891 40.5475082,41.9945519 40.7017158,41.3229126 C40.8234098,41.2244426 40.867071,41.0479399 40.8122623,40.9048798 C41.0222077,40.6949344 41.0993115,40.4208907 41.208,40.1663552 C41.0435738,40.0028579 41.1197486,39.9136776 41.1550492,39.7148798 C40.7017158,39.2531858 40.0876721,39.4947158 39.5135738,39.5058634 C39.1717158,39.7046612 39.5014973,40.0790328 39.2701858,40.3205628 C38.8307869,40.3763005 38.8196393,40.8054809 38.511224,41.0581585 C38.3347213,40.9810546 38.2028087,40.7395246 38.2139563,40.5630219 L38.269694,40.5630219 C38.2473989,40.6522022 38.3022077,40.728377 38.3793115,40.7506721 C38.7973443,40.8175574 38.6645027,40.3437869 38.7973443,40.1338415 C38.8642295,39.8700164 39.4810601,39.5058634 38.9859235,39.3191421 C38.9608415,39.2095246 39.0500219,39.0655355 38.9078907,38.9995792 C38.7536831,39.0655355 38.4991475,39.0655355 38.4777814,39.296847 C38.5558142,39.4947158 38.4777814,39.6935137 38.3022077,39.8254262 L38.2139563,39.8254262 C38.2473989,39.6935137 38.147071,39.6043333 38.0597486,39.5606721 C37.8061421,39.5727486 37.5980546,39.7594699 37.3425902,39.6935137 C36.9914426,39.7706175 36.593847,39.8365738 36.2324809,39.8477213 C36.1878907,39.637776 36.5176721,39.7046612 36.5845574,39.5058634 C36.5288197,39.176082 36.7499126,38.9782131 36.8939016,38.7357541 C36.981224,38.6475027 37.1456503,38.6800164 37.2469071,38.713459 C37.3323716,38.8017104 37.4224809,38.8778852 37.5534645,38.8453716 L37.663082,38.6577213 C37.9947213,38.8565191 37.8061421,39.8031311 38.4545574,39.3962459 C38.5558142,38.9893607 38.4675628,38.5044426 38.6440656,38.1291421 C38.4991475,37.7779945 38.8744481,37.6340055 38.9859235,37.3924754 C39.3259235,37.4249891 39.2934098,37.0413279 39.4364699,36.8638962 C39.9529727,36.7096885 40.504776,36.5879945 40.8345574,36.0380492 C40.7017158,35.7621475 40.7899672,35.3664098 40.5716612,35.1471749 C40.8011148,35.0691421 41.1866339,34.948377 41.3622077,35.1471749 L41.3622077,35.1471749 Z M43.2126995,22.4622022 C45.1440109,22.6925847 46.8533005,23.2211639 48.5625902,23.9931311 C48.8161967,24.3777213 49.3131913,24.5644426 49.3791475,25.0502896 C49.1264699,25.721 50.2728087,25.7098525 49.756306,26.3926393 C49.7219344,26.6128033 49.9105137,26.7344973 49.9848306,26.8998525 C50.0517158,27.0865738 49.9541749,27.373623 50.1752678,27.4823115 C50.5710055,27.5714918 50.7372896,27.0419836 51.1330273,27.1850437 C51.650459,27.5594153 51.7610055,28.1762459 51.7610055,28.7494153 C51.8278907,29.1126393 52.136306,29.3541694 52.4558689,29.4870109 C53.107071,29.2882131 52.7986557,30.0155902 53.2510601,30.2023115 C53.7582732,30.2682678 54.0109508,30.918541 54.5711148,30.8637322 C55.0690383,31.2381038 55.343082,31.7880492 55.7834098,32.206082 C55.7722623,32.3054809 55.828929,32.3937322 55.9162514,32.4262459 C56.1810055,32.4931311 56.3463607,32.3054809 56.5748852,32.2943333 C57.4239563,34.0342787 57.8410601,35.9609454 58.0082732,37.9981585 L58.1076721,38.2071749 C57.0393661,38.1960273 55.9719891,38.2173934 54.881388,38.2842787 C54.8488743,37.6572295 54.8925355,36.9958087 54.540459,36.4885956 C54.7169617,36.1588142 54.7476175,35.7287049 54.7271803,35.3552623 C54.6602951,35.1889781 54.515377,35.3338962 54.4410601,35.3552623 C54.0889836,35.6961913 54.0434645,36.1699617 53.8567432,36.5666284 C53.5594754,36.9958087 53.5158142,37.645153 53.691388,38.130071 L53.8242295,38.2629126 L52.5905683,38.2396885 C52.8859781,38.0529672 52.3360328,37.6888142 52.6333005,37.3915464 L53.1962514,37.281929 C53.3699672,36.8741148 53.813082,36.577776 53.8019344,36.0937869 C54.0434645,35.7955902 54.2645574,35.411 54.0889836,35.0134044 C53.8242295,34.4086503 54.540459,33.7918197 53.9886557,33.2195792 C54.0434645,33.054224 53.9236284,32.811765 53.7239016,32.8229126 C53.5483279,32.7681038 53.3486011,32.8229126 53.3486011,32.5804536 C53.4498579,32.4262459 53.7025355,32.2720383 53.6458689,32.0305082 C53.5158142,31.865153 53.3049399,32.0082131 53.1395847,31.9970656 C53.0968525,31.7323115 53.5919891,31.4471202 53.1618798,31.2037322 C52.865541,31.1498525 52.6992568,31.5232951 52.4010601,31.3913825 C52.2691475,31.281765 52.1706776,31.0950437 52.2905137,30.9408361 L51.6300219,30.1261366 C51.5631366,30.0490328 51.3764153,30.1688689 51.3634098,30.0155902 C51.408929,29.3653169 50.6146667,29.0020929 50.5710055,28.3536776 C50.3276175,28.1325847 50.5254863,27.7247705 50.2059235,27.5380492 C50.0284918,27.4061366 49.830623,27.251929 49.5890929,27.3503989 C49.3131913,26.9537322 48.9926995,26.5691421 48.6164699,26.2161366 C48.5096393,26.1845519 48.4316066,26.2495792 48.3758689,26.3155355 C48.4316066,26.6239508 48.7948306,26.7995246 48.7725355,27.1423115 C48.7186557,27.130235 48.6731366,27.1423115 48.638765,27.1850437 C48.6852131,27.5046066 48.9397486,27.7582131 49.1469071,27.978377 C47.4153224,26.6471749 45.3762514,25.9523115 43.2126995,25.6011639 C42.7928087,25.5890874 42.3636284,25.4125847 41.9455956,25.5556448 C42.0459235,24.5988142 41.9790383,23.5082131 42.0022623,22.4835683 L41.8917158,22.2745519 C42.2995301,22.4947158 42.7398579,22.3962459 43.2126995,22.4622022 L43.2126995,22.4622022 Z M44.0645574,18.046847 C48.4752678,18.653459 52.4363607,20.402694 55.7620437,23.5741694 L55.3876721,23.728377 C54.7819891,24.3777213 54.0778361,24.9063005 53.7239016,25.6550437 C53.6802404,25.4450984 53.3699672,25.3029672 53.2724262,25.1041694 C53.205541,24.4984863 52.623082,23.9262459 52.1037923,23.6178306 C51.6736831,23.5416557 51.5761421,22.8913825 51.044776,23.0901803 C50.6035191,22.7158087 50.0517158,22.9907814 49.6234645,23.1997978 L49.6234645,23.2555355 C47.5258689,22.0655355 45.1876721,21.3279399 42.6618251,21.1412186 C42.5410601,21.1412186 42.4741749,21.2387596 42.3450492,21.2183224 C42.4741749,21.130071 42.4082186,20.8653169 42.397071,20.7111093 C42.3301858,20.6014918 42.1992022,20.4695792 42.0459235,20.5569016 C41.9901858,20.6340055 41.9455956,20.7231858 41.9455956,20.8216557 C42.0115519,19.8416011 42.0459235,18.653459 41.913082,17.7820929 C42.5847213,17.9920383 43.3548306,17.926082 44.0645574,18.046847 L44.0645574,18.046847 Z M46.1259235,46.4312732 C47.0966885,46.5195246 48.0126448,46.728541 48.883082,47.0592514 C49.1032459,47.0592514 49.3457049,47.0369563 49.489694,46.873459 C49.4348852,46.508377 49.8761421,46.3448798 49.830623,45.9797978 C50.0192022,45.6732404 49.8863607,45.2422022 50.1501858,44.979306 C50.1845574,44.591929 50.1297486,44.1627486 49.8863607,43.8673388 C49.6439016,43.7112732 49.4218798,43.911 49.1914973,43.9444426 C48.9286011,44.1413825 49.027071,44.7256995 48.5625902,44.6049344 C48.4520437,44.7582131 48.2430273,44.7582131 48.0888197,44.713623 C48.056306,44.6588142 47.9764153,44.6485956 48.0014973,44.5826393 C48.3322077,44.4163552 48.9165246,44.5269016 48.9592568,43.9983224 C49.2026448,43.788377 49.5779454,43.8775574 49.8083279,43.6248798 C49.9736831,43.3601257 50.0517158,43.1278852 50.2839563,42.8863552 C50.3062514,42.7758087 50.3499126,42.6661913 50.338765,42.5444973 C50.4037923,42.6996339 50.4037923,42.9086503 50.6035191,42.9969016 C50.8571257,43.0730765 50.9695301,42.8640601 51.0791475,42.6996339 C51.068,42.6113825 51.1330273,42.4794699 51.2333552,42.5667923 C51.5092568,42.7878852 51.8957049,42.599306 52.2143388,42.6216011 C52.4883825,42.5342787 52.7884372,42.4794699 53.0857049,42.4673934 C52.8209508,43.6796885 52.2004044,44.8120929 51.4739563,45.8701803 C51.2017705,46.2120383 50.9555956,46.5752623 50.6490383,46.9050437 C50.5487104,46.6523661 50.5598579,46.3114372 50.338765,46.0801257 L50.2059235,46.1135683 C50.0284918,46.4647158 49.6764153,46.7619836 49.7219344,47.1697978 C49.4571803,47.5869016 48.7948306,47.2357541 48.397235,47.455918 C47.9234645,47.5989781 47.6698579,47.1363552 47.2936284,47.0369563 C46.8746667,46.8604536 46.3906776,46.850235 45.993082,46.6421475 C45.9800765,46.5418197 46.0367432,46.4647158 46.1259235,46.4312732 L46.1259235,46.4312732 Z M49.1469071,30.1261366 C48.5625902,30.7856995 47.812918,31.380235 47.3177814,32.0741694 L47.2397486,31.8437869 C45.7952131,30.6649344 44.1184372,30.0815464 42.2865246,29.8279399 L42.0022623,29.8836776 L42.0236284,26.8998525 L41.913082,26.6564645 C43.126306,26.8441148 44.3506776,27.0094699 45.4635738,27.4061366 C46.8988197,27.9124208 48.2198033,28.683459 49.4348852,29.6960273 L49.6996393,29.8065738 L49.1469071,30.1261366 Z M53.7480546,39.4733497 C53.5594754,40.0678852 53.5808415,40.7506721 53.4284918,41.3563552 C53.3959781,41.4548251 53.3959781,41.5765191 53.3290929,41.6749891 C53.1395847,41.3015464 52.985377,40.8054809 52.5561967,40.5853169 C52.1911148,40.3874481 52.4233552,39.8913825 52.0824262,39.661 L51.7396393,39.3191421 C52.3248852,39.5727486 53.0857049,39.5058634 53.7480546,39.4733497 L53.7480546,39.4733497 Z M51.8176721,33.637612 C52.1799672,33.7156448 52.4010601,34.1438962 52.7661421,34.221929 C53.0968525,34.7282131 53.2176175,35.3116011 53.3829727,35.8829126 C53.0857049,36.213623 53.0634098,36.9521475 52.4233552,36.8313825 C52.2691475,36.478377 52.7113333,36.2693607 52.6100765,35.9395792 C52.720623,35.8503989 52.8989836,35.8067377 52.9314973,35.6413825 C52.9073443,35.3116011 52.4883825,35.3775574 52.4233552,35.0366284 C52.2905137,34.8489781 52.0694208,34.8712732 51.8957049,34.8053169 C51.4739563,34.6065191 51.0791475,35.6516011 50.9695301,34.827612 C51.1005137,34.7170656 51.1766885,34.5517104 51.0791475,34.4086503 C50.7140656,34.2098525 50.6815519,33.7026393 50.2839563,33.5056995 C49.7433005,33.517776 49.246306,33.274388 48.7186557,33.396082 C48.3758689,33.3189781 47.9764153,33.0876667 47.7135191,33.4508907 C47.691224,33.7249344 47.5481639,33.9562459 47.5045027,34.221929 C47.3828087,34.1550437 47.2722623,34.0342787 47.205377,33.9014372 C48.178,32.8229126 49.2918251,31.7323115 50.3062514,30.676082 L50.3601311,30.5432404 C50.8682732,31.1712186 51.4637377,31.7991967 51.8390383,32.5033497 C51.9263607,32.9213825 51.1116612,33.3617104 51.8176721,33.637612 L51.8176721,33.637612 Z M45.5741202,44.1859727 C45.5518251,44.5826393 44.9898033,44.5714918 44.7250492,44.8464645 C44.5708415,44.7907268 44.6925355,44.6365191 44.7250492,44.5501257 C44.9898033,44.3401803 45.1876721,44.1311639 45.5741202,44.1859727 L45.5741202,44.1859727 Z M44.6470164,35.0691421 C44.4705137,35.1350984 44.2819344,35.2558634 44.0859235,35.168541 C43.8954863,34.9706721 43.6558142,34.705918 43.345541,34.6724754 C43.1355956,34.7282131 42.9934645,34.9920383 42.7398579,34.8489781 C43.1355956,34.4188689 43.8434645,34.341765 44.1407322,33.7481585 C44.2280546,33.4620383 44.3060874,33.1647705 44.2735738,32.8665738 C44.1620984,32.7346612 43.9976721,32.6138962 43.8518251,32.7346612 C43.6325902,33.0978852 43.126306,33.1749891 42.8931366,33.5605082 L42.1016612,33.2966831 C41.9688197,32.570235 42.155541,31.6449891 41.9455956,31.016082 C42.3636284,31.1712186 42.8271803,31.1814372 43.2693661,31.281765 C44.3924809,31.5669563 45.4199126,32.0964645 46.4120437,32.7123661 C46.1798033,32.7894699 45.9373443,33.0653716 45.749694,33.2409454 C45.7413333,33.4397432 45.9605683,33.3840055 46.0478907,33.5056995 L46.2578361,33.4285956 C45.9169071,34.2869563 44.7705683,34.1550437 44.6470164,35.0691421 L44.6470164,35.0691421 Z M50.8125355,52.1360273 C50.2384372,51.6065191 51.165541,51.1652623 51.3439016,50.6803443 C51.2435738,50.1656995 50.6685464,49.8777213 50.2300765,49.7346612 C50.0192022,49.6138962 50.0860874,49.350071 50.0740109,49.1735683 C50.2728087,48.9747705 50.4706776,48.8103443 50.5710055,48.5455902 L50.6490383,48.7546066 L52.0043934,50.152694 C52.0043934,50.4731858 52.0582732,50.7472295 52.3666885,50.8902896 C52.5227541,50.9571749 52.6899672,50.8243333 52.8209508,50.8689235 L52.742918,50.8689235 C52.1567432,51.5080492 51.4433005,51.9920383 50.7790929,52.5094699 L50.6248852,52.7184863 C50.5487104,52.4992514 50.9992568,52.3989235 50.8125355,52.1360273 L50.8125355,52.1360273 Z M53.4052678,48.9645519 C53.1293661,48.6997978 53.1182186,48.1823661 52.6333005,48.1935137 C52.4688743,48.1721475 52.4010601,48.3254262 52.4010601,48.4573388 C52.3908415,48.5344426 52.4233552,48.622694 52.3666885,48.6784317 L51.3634098,47.796847 C51.8390383,47.554388 52.1911148,46.9152623 52.5561967,46.4535683 C53.4833005,45.1660273 54.0239563,43.7214918 54.4865792,42.2490874 C54.638929,42.3689235 54.8386557,42.380071 54.9910055,42.2816011 C55.1359235,42.1599071 55.1665792,41.9285956 55.0690383,41.774388 L54.7039563,41.3786503 C54.7476175,40.7181585 54.9269071,40.0678852 54.8600219,39.3962459 L55.1015519,39.4733497 C56.1261967,39.4622022 57.1712787,39.5281585 58.1624809,39.4296885 L58.0082732,39.6043333 C57.7537377,43.5793607 56.3677268,47.1697978 53.5919891,50.0988142 C53.7136831,49.7123661 53.3486011,49.3835137 53.4052678,48.9645519 L53.4052678,48.9645519 Z M62.3678907,37.0506175 C62.4226995,37.4249891 62.335377,37.8764645 62.5434645,38.1848798 L59.3701311,38.2396885 C59.2976721,38.2963552 59.2094208,38.3390874 59.107235,38.3390874 L59.1964153,38.2071749 C59.131388,35.7184863 58.4811148,33.4843333 57.5233552,31.3681585 C57.4889836,30.4224754 56.5748852,29.7852077 56.1810055,28.9584317 C55.4768525,28.4735137 55.2659781,27.614224 54.4624262,27.1850437 C54.3082186,27.0196885 54.2431913,26.7447158 54.0109508,26.6899071 L54.3862514,26.6128033 C55.1452131,25.8306175 55.9719891,25.0716557 56.5748852,24.2560273 C59.858765,27.9570109 61.9507869,32.1512732 62.3678907,37.0506175 L62.3678907,37.0506175 Z M61.3320984,29.2779945 C57.721224,21.591765 49.7869617,16.7156448 41.4727541,16.7035683 C37.8405137,16.7695246 34.5027541,17.5730765 31.4529727,19.0817104 C26.0241202,21.6688689 21.5883279,27.2955902 20.1131366,32.8665738 C17.6783279,42.2490874 20.9724262,51.7486503 29.0190929,57.2657541 C34.8102404,61.4163552 44.0413333,62.2096885 50.5487104,59.0279945 C56.3222077,56.6052623 61.2772896,50.6478306 62.7868525,44.7582131 C64.2731913,39.7706175 63.6219891,33.6933497 61.3320984,29.2779945 L61.3320984,29.2779945 Z" id="Fill-27" fill="#FEFEFE"></path>
                    <path d="M51.2330765,22.3522131 C51.221929,22.4729781 51.244224,22.5835246 51.3092514,22.670847 C51.7718743,22.8362022 51.828541,23.5087705 52.4230765,23.3545628 C52.6014372,23.1548361 52.3106721,22.9448907 52.3673388,22.6931421 C52.2911639,22.4618306 52.0914372,22.3624317 51.8712732,22.2955464 C51.6390328,22.5175683 51.4439508,22.0995355 51.2330765,22.3522131" id="Fill-28" fill="#FEFEFE"></path>
                    <path d="M42.4183443,20.4802623 C43.0035902,21.2290055 44.0189454,20.8100437 44.7463224,20.6669836 C45.2767596,20.8871475 45.7849016,20.6223934 46.1797104,20.293541 L46.1797104,20.2155082 C45.8044098,19.686929 45.1002568,19.6098251 44.4583443,19.5550164 L42.8698197,20.2378033 C42.739765,20.1829945 42.4861585,20.1161093 42.3979071,20.293541 C42.3300929,20.3483497 42.3979071,20.4254536 42.4183443,20.4802623" id="Fill-29" fill="#FEFEFE"></path>
                </g>
            </g>
        </g>
    </g>
</svg>