<?xml version="1.0" encoding="utf-8"?>
<!-- Generator: Adobe Illustrator 23.0.4, SVG Export Plug-In . SVG Version: 6.00 Build 0)  -->
<svg version="1.1" id="Layer_1" xmlns="http://www.w3.org/2000/svg" xmlns:xlink="http://www.w3.org/1999/xlink" x="0px" y="0px"
	 viewBox="0 0 169 41.1" style="enable-background:new 0 0 169 41.1;" xml:space="preserve">
<style type="text/css">
	.st0{enable-background:new    ;}
</style>
<g id="text-loadingscreen" transform="translate(-456 -367)">
	<g class="st0">
		<path d="M462.7,378.4c0.8,0.8,2,1.4,3.4,1.4c0.9,0,1.5-0.4,1.5-0.9c0-0.6-0.7-0.8-1.8-1.1c-1.8-0.4-4.2-0.8-4.2-3.3
			c0-1.8,1.5-3.3,4.3-3.3c1.7,0,3.2,0.5,4.3,1.5l-1.5,2c-0.9-0.7-2.1-1.1-3-1.1c-0.9,0-1.3,0.4-1.3,0.8c0,0.6,0.7,0.8,1.8,1
			c1.8,0.4,4.2,0.9,4.2,3.3c0,2.1-1.6,3.6-4.4,3.6c-2.2,0-3.7-0.7-4.7-1.7L462.7,378.4z"/>
		<path d="M478.1,371.3h4.5c3.4,0,5.8,2,5.8,5.3c0,3.3-2.4,5.3-5.8,5.3h-4.5V371.3z M482.6,379.6c1.9,0,3-1.4,3-2.9
			c0-1.6-1-2.9-2.9-2.9h-1.7v5.9H482.6z"/>
		<path d="M501.3,371.1c2.3,0,3.8,1.2,4.6,2.5l-2.3,1.2c-0.4-0.7-1.2-1.3-2.3-1.3c-1.7,0-3,1.3-3,3.1c0,1.7,1.2,3.1,3,3.1
			c0.8,0,1.6-0.3,2-0.6v-0.9h-2.4v-2.3h5.2v4.2c-1.2,1.3-2.7,2.1-4.7,2.1c-3.2,0-5.8-2.1-5.8-5.5S498.2,371.1,501.3,371.1z"/>
		<path d="M514.8,378.4c0.8,0.8,2,1.4,3.4,1.4c0.9,0,1.5-0.4,1.5-0.9c0-0.6-0.7-0.8-1.8-1.1c-1.8-0.4-4.2-0.8-4.2-3.3
			c0-1.8,1.5-3.3,4.3-3.3c1.7,0,3.2,0.5,4.3,1.5l-1.5,2c-0.9-0.7-2.1-1.1-3-1.1c-0.9,0-1.3,0.4-1.3,0.8c0,0.6,0.7,0.8,1.8,1
			c1.8,0.4,4.2,0.9,4.2,3.3c0,2.1-1.6,3.6-4.4,3.6c-2.2,0-3.7-0.7-4.7-1.7L514.8,378.4z"/>
		<path d="M543,373.7h-3v-2.4h8.7v2.4h-3v8.3H543V373.7z"/>
		<path d="M561.3,371.1c3.3,0,5.7,2.3,5.7,5.5s-2.4,5.5-5.7,5.5s-5.7-2.3-5.7-5.5S558,371.1,561.3,371.1z M561.3,373.6
			c-1.8,0-2.9,1.3-2.9,3.1c0,1.7,1.1,3.1,2.9,3.1c1.8,0,2.9-1.4,2.9-3.1C564.2,374.9,563.1,373.6,561.3,373.6z"/>
		<path d="M574.8,371.3h4.5c3.4,0,5.8,2,5.8,5.3c0,3.3-2.4,5.3-5.8,5.3h-4.5V371.3z M579.3,379.6c1.9,0,3-1.4,3-2.9
			c0-1.6-1-2.9-2.9-2.9h-1.7v5.9H579.3z"/>
		<path d="M599.1,380.4h-4.4l-0.5,1.6h-3l4-10.7h3.5l4,10.7h-3L599.1,380.4z M595.4,378.1h3l-1.5-4.3L595.4,378.1z"/>
		<path d="M611.7,377.7l-4-6.4h3.1l2.3,3.9l2.3-3.9h3.1l-4,6.4v4.3h-2.8V377.7z"/>
	</g>
	<g id="icon-scribble-3" transform="translate(465.009 391.958)">
		<g transform="translate(-0.009 -0.029)">
			<g id="Path_40">
				<path d="M74.7,5.7"/>
			</g>
			<g id="Path_41">
				<path d="M67,6.1c0.5-0.3,1-0.6,1.6-0.8c1.8-0.3,3.7-0.6,5.6-0.9s1.9-0.3,2-2.5l-3.2-0.8c-0.1,0.8-0.2,1.3-0.2,2
					C72.3,3,72,2.9,71.9,2.8c-0.5-1.4-1.7-1.4-2.8-1.4c-0.5,0-1.1,0.5-1.6,0.5c-2.2,0.1-4.5-0.1-6.7,0.1C55.9,2.3,51,2.9,46.1,3.4
					l-7.9,0.8c0.1-1.5,1.7-2.5,0.3-4.1C37.7,0,36.9,0,36.1,0c-2,0.3-4,0.7-6.1,0.9c-0.9,0.1-1.8,0.6-2.6-0.5
					c-0.3-0.3-1.5-0.3-2.1-0.1C20.6,1.7,16,3.2,11.3,4.7C9.7,5.2,8.2,6,6.5,6.3C5.7,6.4,4.9,6.8,4.3,7.5C4,8.2,3.8,9.1,3.8,9.9
					C3.4,10,3,10.2,2.6,10.3C0.9,10.7-0.1,11.9,0,13c0,1.8,1.5,3.2,3.3,3.1c0,0,0,0,0,0c2.1-0.1,4.2-0.2,6.3-0.5
					c4-0.4,7.9-1,11.8-1.5c2.2-0.3,4.5-0.6,6.7-0.7c1,0,0.9-0.8,1.1-1c0.7,0.3,1.4,0.5,2.2,0.5c3.7-0.3,7.3-0.8,10.9-1.2
					s7.2-0.7,10.8-1c0.2,0,0.4,0,0.6-0.1l0.1-1.2c3.5,0.8,7.2,0.9,10.8,0.3c3.6-0.6,7.3-0.8,11-1.3c-1.2-0.7-0.8-1.8-0.9-2.8
					c-2,0.9-4.3,0.2-6.3,1.3C68.2,7.1,67.6,6.5,67,6.1z M62.8,7c0.8-0.4,0.8-0.4,1.9-0.1L62.8,7z"/>
			</g>
			<g id="Path_42">
				<path d="M74.9,5.7"/>
			</g>
			<g id="Path_43">
				<path d="M93.6,6.1c-1.4,0.4-3,0.4-4.3-0.2l-2.6,1.2c-0.4-0.5-0.6-0.9-0.9-1.2C85.1,5.1,83.2,5,83,5.7c0.3,0.3,0.6,0.7,1.1,1.1
					c-2.2,0.8-4.1-0.2-5.8-0.8c-1.1-0.4-2.3-0.5-3.5-0.3c0.4,0.2,0.9,0.4,1,0.7c0.8,1.9,1,2.1,2.9,2.1c1,0,2-0.3,3-0.4
					c4.2-0.3,8.3-0.6,12.5-0.9c0.6-0.1,1.2-0.2,1.8-0.4c0.1,0,0.1-0.4,0.1-0.7C95.3,5.9,94.4,5.9,93.6,6.1L93.6,6.1z"/>
			</g>
			<g id="Path_44">
				<path d="M96.2,5.9"/>
			</g>
			<g id="Path_45">
				<path d="M96.2,5.9"/>
			</g>
			<g id="Path_46">
				<path d="M106.6,3.6c-0.3,0.7-0.1,1.9-1.3,1.9L103.9,4l-1.3,1.5L101.5,4l-2.1,1.7l-0.7-1.9L97.5,4c0.4,1.2-1.1,1.1-1.2,1.9
					c4,1.1,8.1,0.2,12.4,0.3C108.3,4.8,108.4,3.6,106.6,3.6z"/>
			</g>
			<g id="Path_47">
				<path d="M129.9,2.7c-1.1-0.1-1.1-0.1-2.9,2.1c0.9,0,1.8,0.1,2.7,0.1c1.9,0,1.9,0,2.3-1h-3.1L129.9,2.7z"/>
			</g>
			<g id="Path_48">
				<path d="M142.3,4c-0.9-0.1-1.6-0.7-2.7,0c-0.4,0.3-1.1-0.1-1.7,0c-0.5,0.1-1,0.2-1.4,0.4c3,0,5.9,0.6,8.7-0.7
					C144.2,4,143.3,4.1,142.3,4z"/>
			</g>
			<g id="Path_49">
				<path d="M110,3.5c1.4,0,1,3,3.1,2.1C112.8,3.7,112.8,3.7,110,3.5z"/>
			</g>
			<g id="Path_50">
				<path d="M115.5,5.6l3.7-0.2C117.3,4.5,117.1,4.5,115.5,5.6z"/>
			</g>
			<g id="Path_51">
				<path d="M151.6,3.8v0.3h4.8V3.8H151.6z"/>
			</g>
			<g id="Path_52">
				<path d="M124,4.1c-0.1,0-0.3,0.5-0.5,0.7l1.8,0.2C125,4.6,124.5,4.2,124,4.1z"/>
			</g>
			<g id="Path_53">
				<path d="M92.3,4.4L91,4.9l0.2,0.5C91.7,5.5,92.4,5.9,92.3,4.4z"/>
			</g>
			<g id="Path_54">
				<path d="M123.4,4.8"/>
			</g>
			<g id="Path_55">
				<path d="M121.1,5.3l2.3-0.4C122.6,4.4,121.7,4.6,121.1,5.3z"/>
			</g>
			<g id="Path_56">
				<path d="M131.8,2.6v0.4l1.6-0.2V2.4L131.8,2.6z"/>
			</g>
			<g id="Path_57">
				<path d="M148.9,4h1.1V3.9h-1.2L148.9,4z"/>
			</g>
		</g>
	</g>
</g>
</svg>
