<?xml version="1.0" encoding="utf-8"?>
<!-- Generator: Adobe Illustrator 23.0.4, SVG Export Plug-In . SVG Version: 6.00 Build 0)  -->
<svg version="1.1" id="Layer_1" xmlns="http://www.w3.org/2000/svg" xmlns:xlink="http://www.w3.org/1999/xlink" x="0px" y="0px"
	 viewBox="0 0 318 44" style="enable-background:new 0 0 318 44;" xml:space="preserve">
<style type="text/css">
	.st0{enable-background:new    ;}
	.st1{fill:#191B1C;}
</style>
<g id="Group_125" transform="translate(-429 -579)">
	<g class="st0">
		<path class="st1" d="M432.7,604c1.7,1.7,4.4,3.2,7.7,3.2c2.1,0,3.4-0.9,3.4-2.1c0-1.4-1.5-1.9-4.1-2.4c-4-0.8-9.5-1.8-9.5-7.5
			c0-4,3.4-7.5,9.6-7.5c3.9,0,7.2,1.2,9.8,3.3l-3.4,4.4c-2-1.7-4.6-2.5-6.8-2.5c-2.1,0-2.8,0.8-2.8,1.9c0,1.3,1.5,1.7,4.1,2.2
			c4,0.8,9.4,2,9.4,7.4c0,4.8-3.6,8-10,8c-4.9,0-8.2-1.5-10.7-3.8L432.7,604z"/>
		<path class="st1" d="M463.8,588h10.1c7.6,0,13,4.5,13,12s-5.4,12-13,12h-10.1V588z M473.9,606.6c4.2,0,6.7-3.1,6.7-6.6
			c0-3.7-2.2-6.6-6.6-6.6H470v13.2H473.9z"/>
		<path class="st1" d="M512.5,587.6c5.3,0,8.5,2.6,10.3,5.6l-5.2,2.7c-1-1.6-2.8-2.8-5.1-2.8c-3.9,0-6.7,3-6.7,6.9s2.8,6.9,6.7,6.9
			c1.9,0,3.6-0.6,4.5-1.4v-2h-5.5v-5.1h11.6v9.4c-2.6,2.8-6.1,4.7-10.6,4.7c-7.2,0-13-4.8-13-12.4S505.4,587.6,512.5,587.6z"/>
		<path class="st1" d="M538.3,606c1.3,1.2,4.1,2.3,6.1,2.3c1.7,0,2.3-0.5,2.3-1.3c0-0.9-1.2-1.2-3-1.5c-3-0.5-7.1-1.1-7.1-5.5
			c0-3.1,2.6-5.7,7.5-5.7c2.9,0,5.4,0.9,7.3,2.3l-2.1,3.7c-1-1-3-1.9-5.1-1.9c-1.3,0-2.2,0.4-2.2,1.2c0,0.8,0.9,1.1,2.8,1.4
			c3,0.5,7.3,1.2,7.3,5.8c0,3.3-2.9,5.8-7.9,5.8c-3.1,0-6.3-1-8.1-2.7L538.3,606z"/>
		<path class="st1" d="M591.2,593.4h-6.7V588h19.6v5.4h-6.7V612h-6.2V593.4z"/>
		<path class="st1" d="M628.7,587.6c7.3,0,12.8,5.1,12.8,12.4c0,7.3-5.5,12.4-12.8,12.4s-12.9-5.1-12.9-12.4
			C615.8,592.7,621.3,587.6,628.7,587.6z M628.7,593.1c-4,0-6.6,3-6.6,6.9c0,3.9,2.6,6.9,6.6,6.9c4,0,6.5-3.1,6.5-6.9
			C635.2,596.1,632.6,593.1,628.7,593.1z"/>
		<path class="st1" d="M655.4,588h10.1c7.6,0,13,4.5,13,12s-5.4,12-13,12h-10.1V588z M665.5,606.6c4.2,0,6.7-3.1,6.7-6.6
			c0-3.7-2.2-6.6-6.6-6.6h-3.9v13.2H665.5z"/>
		<path class="st1" d="M706.6,608.4h-10l-1.2,3.6h-6.7l9-24h7.8l9.1,24h-6.7L706.6,608.4z M698.2,603.1h6.7l-3.4-9.8L698.2,603.1z"
			/>
		<path class="st1" d="M731.2,602.3l-9.1-14.3h7l5.2,8.9l5.1-8.9h7l-9.1,14.3v9.7h-6.2V602.3z"/>
	</g>
	<g id="text-loadingscreen" transform="translate(433.746 606.728)">
		<g id="icon-scribble-3" transform="translate(0 0)">
			<g>
				<g id="Path_40">
					<path class="st1" d="M52.7,4"/>
				</g>
				<g id="Path_41">
					<path class="st1" d="M47.2,4.3c0.4-0.2,0.7-0.4,1.1-0.5c1.3-0.2,2.6-0.4,3.9-0.6s1.3-0.2,1.4-1.8l-2.3-0.5
						c-0.1,0.6-0.1,0.9-0.2,1.4C51,2.1,50.7,2.1,50.7,2c-0.3-1-1.2-1-2-1c-0.4,0-0.8,0.3-1.2,0.3c-1.6,0.1-3.2-0.1-4.7,0.1
						c-3.5,0.3-6.9,0.7-10.4,1l-5.6,0.6c0.1-1,1.2-1.8,0.2-2.9c-0.6,0-1.1,0-1.7,0c-1.4,0.2-2.8,0.5-4.3,0.7
						c-0.6,0.1-1.3,0.4-1.8-0.4c-0.2-0.2-1-0.2-1.5-0.1c-3.3,0.9-6.6,2-9.9,3.1C6.8,3.6,5.8,4.2,4.6,4.5C4,4.5,3.4,4.8,3,5.3
						C2.8,5.8,2.7,6.4,2.7,7C2.4,7.1,2.2,7.2,1.8,7.3C0.7,7.6-0.1,8.4,0,9.2c0,1.3,1.1,2.2,2.3,2.2c0,0,0,0,0,0c1.5,0,3-0.2,4.5-0.3
						c2.8-0.3,5.5-0.7,8.3-1c1.6-0.2,3.2-0.4,4.7-0.5c0.7,0,0.7-0.6,0.7-0.7c0.5,0.2,1,0.3,1.5,0.4c2.6-0.2,5.1-0.6,7.7-0.8
						c2.6-0.3,5.1-0.5,7.6-0.7c0.1,0,0.3,0,0.4-0.1l0.1-0.8c2.5,0.6,5.1,0.6,7.6,0.2c2.5-0.4,5.1-0.6,7.8-0.9
						c-0.8-0.5-0.6-1.3-0.6-2c-1.4,0.6-3,0.2-4.5,0.9C48,5,47.7,4.6,47.2,4.3z M44.3,5c0.5-0.3,0.5-0.3,1.3-0.1L44.3,5z"/>
				</g>
				<g id="Path_42">
					<path class="st1" d="M52.7,4"/>
				</g>
				<g id="Path_43">
					<path class="st1" d="M65.9,4.3c-1,0.3-2.1,0.3-3.1-0.1L61,5c-0.3-0.4-0.5-0.6-0.6-0.9c-0.5-0.6-1.8-0.6-1.9-0.1
						c0.2,0.2,0.4,0.5,0.8,0.8c-1.6,0.6-2.9-0.1-4.1-0.6C54.4,4,53.6,3.9,52.7,4c0.3,0.2,0.6,0.3,0.7,0.5C54,5.8,54.2,6,55.5,6
						c0.7,0,1.4-0.2,2.1-0.3c2.9-0.2,5.9-0.4,8.8-0.7c0.4,0,0.9-0.1,1.3-0.3c0.1,0,0.1-0.3,0.1-0.5C67.2,4.2,66.5,4.2,65.9,4.3
						L65.9,4.3z"/>
				</g>
				<g id="Path_44">
					<path class="st1" d="M67.8,4.2"/>
				</g>
				<g id="Path_45">
					<path class="st1" d="M67.8,4.2"/>
				</g>
				<g id="Path_46">
					<path class="st1" d="M75.1,2.5C74.9,3,75,3.8,74.2,3.9l-0.9-1l-0.9,1.1l-0.8-1.1L70,4.1l-0.5-1.3l-0.8,0.1
						c0.3,0.8-0.8,0.8-0.9,1.4c2.8,0.7,5.7,0.1,8.7,0.2C76.3,3.4,76.4,2.5,75.1,2.5z"/>
				</g>
				<g id="Path_47">
					<path class="st1" d="M91.6,1.9c-0.8-0.1-0.8-0.1-2.1,1.5c0.6,0,1.3,0.1,1.9,0.1c1.3,0,1.3,0,1.6-0.7h-2.2L91.6,1.9z"/>
				</g>
				<g id="Path_48">
					<path class="st1" d="M100.3,2.9c-0.6-0.1-1.2-0.5-1.9,0c-0.3,0.2-0.8-0.1-1.2,0c-0.3,0.1-0.7,0.2-1,0.3c2.1,0,4.1,0.4,6.1-0.5
						C101.6,2.8,101,2.9,100.3,2.9z"/>
				</g>
				<g id="Path_49">
					<path class="st1" d="M77.5,2.5c1,0,0.7,2.1,2.2,1.4C79.5,2.6,79.5,2.6,77.5,2.5z"/>
				</g>
				<g id="Path_50">
					<path class="st1" d="M81.4,4L84,3.8C82.7,3.2,82.5,3.2,81.4,4z"/>
				</g>
				<g id="Path_51">
					<path class="st1" d="M106.8,2.7v0.2h3.4V2.7H106.8z"/>
				</g>
				<g id="Path_52">
					<path class="st1" d="M87.4,2.9c-0.1,0-0.2,0.3-0.3,0.5l1.2,0.1C88.1,3.2,87.7,3,87.4,2.9z"/>
				</g>
				<g id="Path_53">
					<path class="st1" d="M65,3.1l-0.9,0.3l0.1,0.4C64.6,3.9,65.1,4.2,65,3.1z"/>
				</g>
				<g id="Path_54">
					<path class="st1" d="M87,3.4"/>
				</g>
				<g id="Path_55">
					<path class="st1" d="M85.4,3.7L87,3.4C86.4,3.1,85.8,3.3,85.4,3.7z"/>
				</g>
				<g id="Path_56">
					<path class="st1" d="M92.9,1.9v0.3L94,2.1V1.7L92.9,1.9z"/>
				</g>
				<g id="Path_57">
					<path class="st1" d="M104.9,2.9h0.8V2.8L104.9,2.9L104.9,2.9z"/>
				</g>
			</g>
		</g>
	</g>
</g>
</svg>
