<?xml version="1.0" encoding="utf-8"?>
<!-- Generator: Adobe Illustrator 23.0.4, SVG Export Plug-In . SVG Version: 6.00 Build 0)  -->
<svg version="1.1" id="Layer_1" xmlns="http://www.w3.org/2000/svg" xmlns:xlink="http://www.w3.org/1999/xlink" x="0px" y="0px"
	 viewBox="0 0 350 44" style="enable-background:new 0 0 350 44;" xml:space="preserve">
<style type="text/css">
	.st0{enable-background:new    ;}
	.st1{fill:#191B1C;}
</style>
<g id="Group_125" transform="translate(-429 -579)">
	<g class="st0">
		<path class="st1" d="M432.2,588h6.2v18.6h9.6v5.4h-15.8V588z"/>
		<path class="st1" d="M472.8,587.6c7.3,0,12.8,5.1,12.8,12.4c0,7.3-5.5,12.4-12.8,12.4c-7.3,0-12.9-5.1-12.9-12.4
			C459.9,592.7,465.4,587.6,472.8,587.6z M472.8,593.1c-4,0-6.6,3-6.6,6.9c0,3.9,2.6,6.9,6.6,6.9c4,0,6.5-3.1,6.5-6.9
			C479.3,596.1,476.7,593.1,472.8,593.1z"/>
		<path class="st1" d="M501.1,604c1.7,1.7,4.4,3.2,7.7,3.2c2.1,0,3.4-0.9,3.4-2.1c0-1.4-1.5-1.9-4.1-2.4c-4-0.8-9.5-1.8-9.5-7.5
			c0-4,3.4-7.5,9.6-7.5c3.9,0,7.2,1.2,9.8,3.3l-3.4,4.4c-2-1.7-4.6-2.5-6.8-2.5c-2.1,0-2.8,0.8-2.8,1.9c0,1.3,1.5,1.7,4.1,2.2
			c4,0.8,9.4,2,9.4,7.4c0,4.8-3.6,8-10,8c-4.9,0-8.2-1.5-10.7-3.8L501.1,604z"/>
		<path class="st1" d="M563.8,587.6c7.3,0,12.8,5.1,12.8,12.4c0,7.3-5.5,12.4-12.8,12.4c-7.3,0-12.9-5.1-12.9-12.4
			C550.9,592.7,556.4,587.6,563.8,587.6z M563.8,593.1c-4,0-6.6,3-6.6,6.9c0,3.9,2.6,6.9,6.6,6.9c4,0,6.5-3.1,6.5-6.9
			C570.3,596.1,567.7,593.1,563.8,593.1z"/>
		<path class="st1" d="M590.5,588h10.1c7.6,0,13,4.5,13,12s-5.4,12-13,12h-10.1V588z M600.6,606.6c4.2,0,6.7-3.1,6.7-6.6
			c0-3.7-2.2-6.6-6.6-6.6h-3.9v13.2H600.6z"/>
		<path class="st1" d="M629,604c1.7,1.7,4.4,3.2,7.7,3.2c2.1,0,3.4-0.9,3.4-2.1c0-1.4-1.5-1.9-4.1-2.4c-4-0.8-9.5-1.8-9.5-7.5
			c0-4,3.4-7.5,9.6-7.5c3.9,0,7.2,1.2,9.8,3.3l-3.4,4.4c-2-1.7-4.6-2.5-6.8-2.5c-2.1,0-2.8,0.8-2.8,1.9c0,1.3,1.5,1.7,4.1,2.2
			c4,0.8,9.4,2,9.4,7.4c0,4.8-3.6,8-10,8c-4.9,0-8.2-1.5-10.7-3.8L629,604z"/>
		<path class="st1" d="M696.3,602.4h-10v9.6h-6.2v-24h6.2v9h10v-9h6.2v24h-6.2V602.4z"/>
		<path class="st1" d="M729.2,587.6c7.3,0,12.8,5.1,12.8,12.4c0,7.3-5.5,12.4-12.8,12.4s-12.9-5.1-12.9-12.4
			C716.4,592.7,721.9,587.6,729.2,587.6z M729.2,593.1c-4,0-6.6,3-6.6,6.9c0,3.9,2.6,6.9,6.6,6.9c4,0,6.5-3.1,6.5-6.9
			C735.7,596.1,733.2,593.1,729.2,593.1z"/>
		<path class="st1" d="M761.1,602.3L752,588h7l5.2,8.9l5.1-8.9h7l-9.1,14.3v9.7h-6.2V602.3z"/>
	</g>
	<g id="text-loadingscreen" transform="translate(433.746 606.728)">
		<g id="icon-scribble-3" transform="translate(0 0)">
			<g>
				<g id="Path_40">
					<path class="st1" d="M53.7,4"/>
				</g>
				<g id="Path_41">
					<path class="st1" d="M48.2,4.3c0.4-0.2,0.7-0.4,1.1-0.5c1.3-0.2,2.6-0.4,3.9-0.6s1.3-0.2,1.4-1.8l-2.3-0.5
						c-0.1,0.6-0.1,0.9-0.2,1.4C52,2.1,51.7,2.1,51.7,2c-0.3-1-1.2-1-2-1c-0.4,0-0.8,0.3-1.2,0.3c-1.6,0.1-3.2-0.1-4.7,0.1
						c-3.5,0.3-6.9,0.7-10.4,1l-5.6,0.6c0.1-1,1.2-1.8,0.2-2.9c-0.6,0-1.1,0-1.7,0c-1.4,0.2-2.8,0.5-4.3,0.7
						c-0.6,0.1-1.3,0.4-1.8-0.4c-0.2-0.2-1-0.2-1.5-0.1c-3.3,0.9-6.6,2-9.9,3.1C7.8,3.6,6.8,4.2,5.6,4.5C5,4.5,4.4,4.8,4,5.3
						C3.8,5.8,3.7,6.4,3.7,7C3.4,7.1,3.2,7.2,2.8,7.3C1.7,7.6,0.9,8.4,1,9.2c0,1.3,1.1,2.2,2.3,2.2c0,0,0,0,0,0c1.5,0,3-0.2,4.5-0.3
						c2.8-0.3,5.5-0.7,8.3-1c1.6-0.2,3.2-0.4,4.7-0.5c0.7,0,0.7-0.6,0.7-0.7c0.5,0.2,1,0.3,1.5,0.4c2.6-0.2,5.1-0.6,7.7-0.8
						c2.6-0.3,5.1-0.5,7.6-0.7c0.1,0,0.3,0,0.4-0.1l0.1-0.8c2.5,0.6,5.1,0.6,7.6,0.2c2.5-0.4,5.1-0.6,7.8-0.9
						c-0.8-0.5-0.6-1.3-0.6-2c-1.4,0.6-3,0.2-4.5,0.9C49,5,48.7,4.6,48.2,4.3z M45.3,5c0.5-0.3,0.5-0.3,1.3-0.1L45.3,5z"/>
				</g>
				<g id="Path_42">
					<path class="st1" d="M53.7,4"/>
				</g>
				<g id="Path_43">
					<path class="st1" d="M66.9,4.3c-1,0.3-2.1,0.3-3.1-0.1L62,5c-0.3-0.4-0.5-0.6-0.6-0.9c-0.5-0.6-1.8-0.6-1.9-0.1
						c0.2,0.2,0.4,0.5,0.8,0.8c-1.6,0.6-2.9-0.1-4.1-0.6C55.4,4,54.6,3.9,53.7,4c0.3,0.2,0.6,0.3,0.7,0.5C55,5.8,55.2,6,56.5,6
						c0.7,0,1.4-0.2,2.1-0.3c2.9-0.2,5.9-0.4,8.8-0.7c0.4,0,0.9-0.1,1.3-0.3c0.1,0,0.1-0.3,0.1-0.5C68.2,4.2,67.5,4.2,66.9,4.3
						L66.9,4.3z"/>
				</g>
				<g id="Path_44">
					<path class="st1" d="M68.8,4.2"/>
				</g>
				<g id="Path_45">
					<path class="st1" d="M68.8,4.2"/>
				</g>
				<g id="Path_46">
					<path class="st1" d="M76.1,2.5C75.9,3,76,3.8,75.2,3.9l-0.9-1l-0.9,1.1l-0.8-1.1L71,4.1l-0.5-1.3l-0.8,0.1
						c0.3,0.8-0.8,0.8-0.9,1.4c2.8,0.7,5.7,0.1,8.7,0.2C77.3,3.4,77.4,2.5,76.1,2.5z"/>
				</g>
				<g id="Path_47">
					<path class="st1" d="M92.6,1.9c-0.8-0.1-0.8-0.1-2.1,1.5c0.6,0,1.3,0.1,1.9,0.1c1.3,0,1.3,0,1.6-0.7h-2.2L92.6,1.9z"/>
				</g>
				<g id="Path_48">
					<path class="st1" d="M101.3,2.9c-0.6-0.1-1.2-0.5-1.9,0c-0.3,0.2-0.8-0.1-1.2,0c-0.3,0.1-0.7,0.2-1,0.3c2.1,0,4.1,0.4,6.1-0.5
						C102.6,2.8,102,2.9,101.3,2.9z"/>
				</g>
				<g id="Path_49">
					<path class="st1" d="M78.5,2.5c1,0,0.7,2.1,2.2,1.4C80.5,2.6,80.5,2.6,78.5,2.5z"/>
				</g>
				<g id="Path_50">
					<path class="st1" d="M82.4,4L85,3.8C83.7,3.2,83.5,3.2,82.4,4z"/>
				</g>
				<g id="Path_51">
					<path class="st1" d="M107.8,2.7v0.2h3.4V2.7H107.8z"/>
				</g>
				<g id="Path_52">
					<path class="st1" d="M88.4,2.9c-0.1,0-0.2,0.3-0.3,0.5l1.2,0.1C89.1,3.2,88.7,3,88.4,2.9z"/>
				</g>
				<g id="Path_53">
					<path class="st1" d="M66,3.1l-0.9,0.3l0.1,0.4C65.6,3.9,66.1,4.2,66,3.1z"/>
				</g>
				<g id="Path_54">
					<path class="st1" d="M88,3.4"/>
				</g>
				<g id="Path_55">
					<path class="st1" d="M86.4,3.7L88,3.4C87.4,3.1,86.8,3.3,86.4,3.7z"/>
				</g>
				<g id="Path_56">
					<path class="st1" d="M93.9,1.9v0.3L95,2.1V1.7L93.9,1.9z"/>
				</g>
				<g id="Path_57">
					<path class="st1" d="M105.9,2.9h0.8V2.8L105.9,2.9L105.9,2.9z"/>
				</g>
			</g>
		</g>
	</g>
</g>
</svg>
