<?xml version="1.0" encoding="utf-8"?>
<!-- Generator: Adobe Illustrator 23.0.4, SVG Export Plug-In . SVG Version: 6.00 Build 0)  -->
<svg version="1.1" id="Layer_1" xmlns="http://www.w3.org/2000/svg" xmlns:xlink="http://www.w3.org/1999/xlink" x="0px" y="0px"
	 viewBox="0 0 570 44" style="enable-background:new 0 0 570 44;" xml:space="preserve">
<style type="text/css">
	.st0{enable-background:new    ;}
	.st1{fill:#191B1C;}
</style>
<g id="Group_125" transform="translate(-429 -579)">
	<g class="st0">
		<path class="st1" d="M434.2,588h6.2v18.6h9.6v5.4h-15.8V588z"/>
		<path class="st1" d="M464,588h17.6v5.2h-11.4v4h11.2v5.3h-11.2v4.3h11.4v5.2H464V588z"/>
		<path class="st1" d="M497.6,604c1.7,1.7,4.4,3.2,7.7,3.2c2.1,0,3.4-0.9,3.4-2.1c0-1.4-1.5-1.9-4.1-2.4c-4-0.8-9.5-1.8-9.5-7.5
			c0-4,3.4-7.5,9.6-7.5c3.9,0,7.2,1.2,9.8,3.3l-3.4,4.4c-2-1.7-4.6-2.5-6.8-2.5c-2.1,0-2.8,0.8-2.8,1.9c0,1.3,1.5,1.7,4.1,2.2
			c4,0.8,9.4,2,9.4,7.4c0,4.8-3.6,8-10,8c-4.9,0-8.2-1.5-10.7-3.8L497.6,604z"/>
		<path class="st1" d="M560.3,587.6c7.3,0,12.8,5.1,12.8,12.4c0,7.3-5.5,12.4-12.8,12.4c-7.3,0-12.9-5.1-12.9-12.4
			C547.4,592.7,552.9,587.6,560.3,587.6z M560.3,593.1c-4,0-6.6,3-6.6,6.9c0,3.9,2.6,6.9,6.6,6.9c4,0,6.5-3.1,6.5-6.9
			C566.8,596.1,564.2,593.1,560.3,593.1z"/>
		<path class="st1" d="M587,588h10.1c7.6,0,13,4.5,13,12s-5.4,12-13,12H587V588z M597.1,606.6c4.2,0,6.7-3.1,6.7-6.6
			c0-3.7-2.2-6.6-6.6-6.6h-3.9v13.2H597.1z"/>
		<path class="st1" d="M624,588h10.1c7.6,0,13,4.5,13,12s-5.4,12-13,12H624V588z M634.1,606.6c4.2,0,6.7-3.1,6.7-6.6
			c0-3.7-2.2-6.6-6.6-6.6h-3.9v13.2H634.1z"/>
		<path class="st1" d="M696.3,608.4h-10l-1.2,3.6h-6.7l9-24h7.8l9.1,24h-6.7L696.3,608.4z M688,603.1h6.7l-3.4-9.8L688,603.1z"/>
		<path class="st1" d="M715.5,588h6.3v14.1c0,2.8,1.5,4.9,4.9,4.9c3.3,0,4.8-2.1,4.8-4.9V588h6.3v14.3c0,6-3.4,10.2-11.1,10.2
			s-11.2-4.2-11.2-10.2V588z"/>
		<path class="st1" d="M752.3,605.6c0.9,0.7,2,1.4,3.5,1.4c1.9,0,3.2-1.3,3.2-3.3V588h6.2v15.8c0,5.9-3.6,8.7-8.9,8.7
			c-2.4,0-4.8-0.6-6.6-2.2L752.3,605.6z"/>
		<path class="st1" d="M791.9,587.6c7.3,0,12.8,5.1,12.8,12.4c0,7.3-5.5,12.4-12.8,12.4S779,607.3,779,600
			C779,592.7,784.5,587.6,791.9,587.6z M791.9,593.1c-4,0-6.6,3-6.6,6.9c0,3.9,2.6,6.9,6.6,6.9c4,0,6.5-3.1,6.5-6.9
			C798.4,596.1,795.8,593.1,791.9,593.1z"/>
		<path class="st1" d="M818.6,588h6.3v14.1c0,2.8,1.5,4.9,4.9,4.9c3.3,0,4.8-2.1,4.8-4.9V588h6.3v14.3c0,6-3.4,10.2-11.1,10.2
			s-11.2-4.2-11.2-10.2V588z"/>
		<path class="st1" d="M865.4,603.9h-3.2v8.1H856v-24h12c5.3,0,8.4,3.5,8.4,8c0,4.2-2.6,6.4-4.8,7.2l4.9,8.8h-7.1L865.4,603.9z
			 M867.1,593.2h-4.9v5.4h4.9c1.6,0,3-1,3-2.7C870.1,594.3,868.7,593.2,867.1,593.2z"/>
		<path class="st1" d="M889.6,590.5c0-1.6,1.3-2.9,2.9-2.9s2.9,1.3,2.9,2.9c0,0.8-1.7,8.6-1.7,8.6h-2.3
			C891.3,599.1,889.6,591.3,889.6,590.5z"/>
		<path class="st1" d="M925.9,602.4h-10v9.6h-6.2v-24h6.2v9h10v-9h6.2v24h-6.2V602.4z"/>
		<path class="st1" d="M947.2,588h6.3v14.1c0,2.8,1.5,4.9,4.9,4.9c3.3,0,4.8-2.1,4.8-4.9V588h6.3v14.3c0,6-3.4,10.2-11.1,10.2
			s-11.2-4.2-11.2-10.2V588z"/>
		<path class="st1" d="M984.6,588h6.2v24h-6.2V588z"/>
	</g>
	<g id="text-loadingscreen" transform="translate(433.746 606.728)">
		<g id="icon-scribble-3" transform="translate(0 0)">
			<g>
				<g id="Path_40">
					<path class="st1" d="M55.7,4"/>
				</g>
				<g id="Path_41">
					<path class="st1" d="M50.2,4.3c0.4-0.2,0.7-0.4,1.1-0.5c1.3-0.2,2.6-0.4,3.9-0.6s1.3-0.2,1.4-1.8l-2.3-0.5
						c-0.1,0.6-0.1,0.9-0.2,1.4C54,2.1,53.7,2.1,53.7,2c-0.3-1-1.2-1-2-1c-0.4,0-0.8,0.3-1.2,0.3c-1.6,0.1-3.2-0.1-4.7,0.1
						c-3.5,0.3-6.9,0.7-10.4,1l-5.6,0.6c0.1-1,1.2-1.8,0.2-2.9c-0.6,0-1.1,0-1.7,0c-1.4,0.2-2.8,0.5-4.3,0.7
						c-0.6,0.1-1.3,0.4-1.8-0.4c-0.2-0.2-1-0.2-1.5-0.1c-3.3,0.9-6.6,2-9.9,3.1C9.8,3.6,8.8,4.2,7.6,4.5C7,4.5,6.4,4.8,6,5.3
						C5.8,5.8,5.7,6.4,5.7,7C5.4,7.1,5.2,7.2,4.8,7.3C3.7,7.6,2.9,8.4,3,9.2c0,1.3,1.1,2.2,2.3,2.2c0,0,0,0,0,0c1.5,0,3-0.2,4.5-0.3
						c2.8-0.3,5.5-0.7,8.3-1c1.6-0.2,3.2-0.4,4.7-0.5c0.7,0,0.7-0.6,0.7-0.7c0.5,0.2,1,0.3,1.5,0.4c2.6-0.2,5.1-0.6,7.7-0.8
						c2.6-0.3,5.1-0.5,7.6-0.7c0.1,0,0.3,0,0.4-0.1l0.1-0.8c2.5,0.6,5.1,0.6,7.6,0.2c2.5-0.4,5.1-0.6,7.8-0.9
						c-0.8-0.5-0.6-1.3-0.6-2c-1.4,0.6-3,0.2-4.5,0.9C51,5,50.7,4.6,50.2,4.3z M47.3,5c0.5-0.3,0.5-0.3,1.3-0.1L47.3,5z"/>
				</g>
				<g id="Path_42">
					<path class="st1" d="M55.7,4"/>
				</g>
				<g id="Path_43">
					<path class="st1" d="M68.9,4.3c-1,0.3-2.1,0.3-3.1-0.1L64,5c-0.3-0.4-0.5-0.6-0.6-0.9c-0.5-0.6-1.8-0.6-1.9-0.1
						c0.2,0.2,0.4,0.5,0.8,0.8c-1.6,0.6-2.9-0.1-4.1-0.6C57.4,4,56.6,3.9,55.7,4c0.3,0.2,0.6,0.3,0.7,0.5C57,5.8,57.2,6,58.5,6
						c0.7,0,1.4-0.2,2.1-0.3c2.9-0.2,5.9-0.4,8.8-0.7c0.4,0,0.9-0.1,1.3-0.3c0.1,0,0.1-0.3,0.1-0.5C70.2,4.2,69.5,4.2,68.9,4.3
						L68.9,4.3z"/>
				</g>
				<g id="Path_44">
					<path class="st1" d="M70.8,4.2"/>
				</g>
				<g id="Path_45">
					<path class="st1" d="M70.8,4.2"/>
				</g>
				<g id="Path_46">
					<path class="st1" d="M78.1,2.5C77.9,3,78,3.8,77.2,3.9l-0.9-1l-0.9,1.1l-0.8-1.1L73,4.1l-0.5-1.3l-0.8,0.1
						c0.3,0.8-0.8,0.8-0.9,1.4c2.8,0.7,5.7,0.1,8.7,0.2C79.3,3.4,79.4,2.5,78.1,2.5z"/>
				</g>
				<g id="Path_47">
					<path class="st1" d="M94.6,1.9c-0.8-0.1-0.8-0.1-2.1,1.5c0.6,0,1.3,0.1,1.9,0.1c1.3,0,1.3,0,1.6-0.7h-2.2L94.6,1.9z"/>
				</g>
				<g id="Path_48">
					<path class="st1" d="M103.3,2.9c-0.6-0.1-1.2-0.5-1.9,0c-0.3,0.2-0.8-0.1-1.2,0c-0.3,0.1-0.7,0.2-1,0.3c2.1,0,4.1,0.4,6.1-0.5
						C104.6,2.8,104,2.9,103.3,2.9z"/>
				</g>
				<g id="Path_49">
					<path class="st1" d="M80.5,2.5c1,0,0.7,2.1,2.2,1.4C82.5,2.6,82.5,2.6,80.5,2.5z"/>
				</g>
				<g id="Path_50">
					<path class="st1" d="M84.4,4L87,3.8C85.7,3.2,85.5,3.2,84.4,4z"/>
				</g>
				<g id="Path_51">
					<path class="st1" d="M109.8,2.7v0.2h3.4V2.7H109.8z"/>
				</g>
				<g id="Path_52">
					<path class="st1" d="M90.4,2.9c-0.1,0-0.2,0.3-0.3,0.5l1.2,0.1C91.1,3.2,90.7,3,90.4,2.9z"/>
				</g>
				<g id="Path_53">
					<path class="st1" d="M68,3.1l-0.9,0.3l0.1,0.4C67.6,3.9,68.1,4.2,68,3.1z"/>
				</g>
				<g id="Path_54">
					<path class="st1" d="M90,3.4"/>
				</g>
				<g id="Path_55">
					<path class="st1" d="M88.4,3.7L90,3.4C89.4,3.1,88.8,3.3,88.4,3.7z"/>
				</g>
				<g id="Path_56">
					<path class="st1" d="M95.9,1.9v0.3L97,2.1V1.7L95.9,1.9z"/>
				</g>
				<g id="Path_57">
					<path class="st1" d="M107.9,2.9h0.8V2.8L107.9,2.9L107.9,2.9z"/>
				</g>
			</g>
		</g>
	</g>
</g>
</svg>
