<?xml version="1.0" encoding="utf-8"?>
<!-- Generator: Adobe Illustrator 23.0.4, SVG Export Plug-In . SVG Version: 6.00 Build 0)  -->
<svg version="1.1" id="Layer_1" xmlns="http://www.w3.org/2000/svg" xmlns:xlink="http://www.w3.org/1999/xlink" x="0px" y="0px"
	 viewBox="0 0 220 90" style="enable-background:new 0 0 220 90;" xml:space="preserve">
<style type="text/css">
	.st0{enable-background:new    ;}
	.st1{fill:#191B1C;}
</style>
<g id="Group_125_1_" transform="translate(-429 -579)">
	<g class="st0">
		<path class="st1" d="M433.2,591h6.2v18.6h9.6v5.4h-15.8V591z"/>
		<path class="st1" d="M473.8,590.6c7.3,0,12.8,5.1,12.8,12.4c0,7.3-5.5,12.4-12.8,12.4c-7.3,0-12.9-5.1-12.9-12.4
			C460.9,595.7,466.4,590.6,473.8,590.6z M473.8,596.1c-4,0-6.6,3-6.6,6.9c0,3.9,2.6,6.9,6.6,6.9c4,0,6.5-3.1,6.5-6.9
			C480.3,599.1,477.7,596.1,473.8,596.1z"/>
		<path class="st1" d="M502.1,607c1.7,1.7,4.4,3.2,7.7,3.2c2.1,0,3.4-0.9,3.4-2.1c0-1.4-1.5-1.9-4.1-2.4c-4-0.8-9.5-1.8-9.5-7.5
			c0-4,3.4-7.5,9.6-7.5c3.9,0,7.2,1.2,9.8,3.3l-3.4,4.4c-2-1.7-4.6-2.5-6.8-2.5c-2.1,0-2.8,0.8-2.8,1.9c0,1.3,1.5,1.7,4.1,2.2
			c4,0.8,9.4,2,9.4,7.4c0,4.8-3.6,8-10,8c-4.9,0-8.2-1.5-10.7-3.8L502.1,607z"/>
		<path class="st1" d="M564.8,590.6c7.3,0,12.8,5.1,12.8,12.4c0,7.3-5.5,12.4-12.8,12.4c-7.3,0-12.8-5.1-12.8-12.4
			C551.9,595.7,557.4,590.6,564.8,590.6z M564.8,596.1c-4,0-6.6,3-6.6,6.9c0,3.9,2.6,6.9,6.6,6.9c4,0,6.5-3.1,6.5-6.9
			C571.3,599.1,568.7,596.1,564.8,596.1z"/>
		<path class="st1" d="M591.5,591h10.1c7.6,0,13,4.5,13,12s-5.4,12-13,12h-10.1V591z M601.6,609.6c4.2,0,6.7-3.1,6.7-6.6
			c0-3.7-2.2-6.6-6.6-6.6h-3.9v13.2H601.6z"/>
		<path class="st1" d="M630,607c1.7,1.7,4.4,3.2,7.7,3.2c2.1,0,3.4-0.9,3.4-2.1c0-1.4-1.5-1.9-4.1-2.4c-4-0.8-9.5-1.8-9.5-7.5
			c0-4,3.4-7.5,9.6-7.5c3.9,0,7.2,1.2,9.8,3.3l-3.4,4.4c-2-1.7-4.6-2.5-6.8-2.5c-2.1,0-2.8,0.8-2.8,1.9c0,1.3,1.5,1.7,4.1,2.2
			c4,0.8,9.4,2,9.4,7.4c0,4.8-3.6,8-10,8c-4.9,0-8.2-1.5-10.7-3.8L630,607z"/>
		<path class="st1" d="M449.3,648.6h-10v9.6h-6.2v-24h6.2v9h10v-9h6.2v24h-6.2V648.6z"/>
		<path class="st1" d="M482.3,633.8c7.3,0,12.8,5.1,12.8,12.4c0,7.3-5.5,12.4-12.8,12.4c-7.3,0-12.9-5.1-12.9-12.4
			C469.4,638.9,474.9,633.8,482.3,633.8z M482.3,639.3c-4,0-6.6,3-6.6,6.9c0,3.9,2.6,6.9,6.6,6.9c4,0,6.5-3.1,6.5-6.9
			C488.8,642.3,486.2,639.3,482.3,639.3z"/>
		<path class="st1" d="M514.1,648.5l-9.1-14.3h7l5.2,8.9l5.1-8.9h7l-9.1,14.3v9.7h-6.2V648.5z"/>
	</g>
	<g id="text-loadingscreen_1_" transform="translate(433.746 606.728)">
		<g id="icon-scribble-3_1_" transform="translate(0 0)">
			<g>
				<g id="Path_40_1_">
					<path class="st1" d="M65.7,7"/>
				</g>
				<g id="Path_41_1_">
					<path class="st1" d="M60.2,7.3c0.4-0.2,0.7-0.4,1.1-0.5c1.3-0.2,2.6-0.4,3.9-0.6c1.3-0.2,1.3-0.2,1.4-1.8l-2.3-0.5
						c-0.1,0.6-0.1,0.9-0.2,1.4C64,5.1,63.7,5.1,63.7,5c-0.3-1-1.2-1-2-1c-0.4,0-0.8,0.3-1.2,0.3c-1.6,0.1-3.2-0.1-4.7,0.1
						c-3.5,0.3-6.9,0.7-10.4,1l-5.6,0.6c0.1-1,1.2-1.8,0.2-2.9c-0.6,0-1.1,0-1.7,0c-1.4,0.2-2.8,0.5-4.3,0.7
						c-0.6,0.1-1.3,0.4-1.8-0.4c-0.2-0.2-1-0.2-1.5-0.1c-3.3,0.9-6.6,2-9.9,3.1c-1.1,0.3-2.2,0.9-3.3,1.2c-0.6,0-1.2,0.3-1.6,0.8
						c-0.2,0.6-0.3,1.1-0.4,1.7c-0.2,0.1-0.5,0.2-0.8,0.3c-1.2,0.3-1.9,1.1-1.8,1.9c0,1.3,1.1,2.2,2.3,2.2c0,0,0,0,0,0
						c1.5,0,3-0.2,4.5-0.3c2.8-0.3,5.5-0.7,8.3-1c1.6-0.2,3.2-0.4,4.7-0.5c0.7,0,0.7-0.6,0.7-0.7c0.5,0.2,1,0.3,1.5,0.4
						c2.6-0.2,5.1-0.6,7.7-0.8c2.6-0.3,5.1-0.5,7.6-0.7c0.1,0,0.3,0,0.4-0.1l0.1-0.8c2.5,0.6,5.1,0.6,7.6,0.2
						c2.5-0.4,5.1-0.6,7.8-0.9c-0.8-0.5-0.6-1.3-0.6-2c-1.4,0.6-3,0.2-4.5,0.9C61,8,60.7,7.6,60.2,7.3z M57.3,8
						c0.5-0.3,0.5-0.3,1.3-0.1L57.3,8z"/>
				</g>
				<g id="Path_42_1_">
					<path class="st1" d="M65.7,7"/>
				</g>
				<g id="Path_43_1_">
					<path class="st1" d="M78.9,7.3c-1,0.3-2.1,0.3-3.1-0.1L74,8c-0.3-0.4-0.5-0.6-0.6-0.9c-0.5-0.6-1.8-0.6-1.9-0.1
						c0.2,0.2,0.4,0.5,0.8,0.8c-1.6,0.6-2.9-0.1-4.1-0.6C67.4,7,66.6,6.9,65.7,7c0.3,0.2,0.6,0.3,0.7,0.5C67,8.8,67.2,9,68.5,9
						c0.7,0,1.4-0.2,2.1-0.3c2.9-0.2,5.9-0.4,8.8-0.7c0.4,0,0.9-0.1,1.3-0.3c0.1,0,0.1-0.3,0.1-0.5C80.2,7.2,79.5,7.2,78.9,7.3
						L78.9,7.3z"/>
				</g>
				<g id="Path_44_1_">
					<path class="st1" d="M80.8,7.2"/>
				</g>
				<g id="Path_45_1_">
					<path class="st1" d="M80.8,7.2"/>
				</g>
				<g id="Path_46_1_">
					<path class="st1" d="M88.1,5.5C87.9,6,88,6.8,87.2,6.9l-0.9-1l-0.9,1.1l-0.8-1.1L83,7.1l-0.5-1.3l-0.8,0.1
						c0.3,0.8-0.8,0.8-0.9,1.4c2.8,0.7,5.7,0.1,8.7,0.2C89.3,6.4,89.4,5.5,88.1,5.5z"/>
				</g>
				<g id="Path_47_1_">
					<path class="st1" d="M104.6,4.9c-0.8-0.1-0.8-0.1-2.1,1.5c0.6,0,1.3,0.1,1.9,0.1c1.3,0,1.3,0,1.6-0.7h-2.2L104.6,4.9z"/>
				</g>
				<g id="Path_48_1_">
					<path class="st1" d="M113.3,5.9c-0.6-0.1-1.2-0.5-1.9,0c-0.3,0.2-0.8-0.1-1.2,0c-0.3,0.1-0.7,0.2-1,0.3c2.1,0,4.1,0.4,6.1-0.5
						C114.6,5.8,114,5.9,113.3,5.9z"/>
				</g>
				<g id="Path_49_1_">
					<path class="st1" d="M90.5,5.5c1,0,0.7,2.1,2.2,1.4C92.5,5.6,92.5,5.6,90.5,5.5z"/>
				</g>
				<g id="Path_50_1_">
					<path class="st1" d="M94.4,7L97,6.8C95.7,6.2,95.5,6.2,94.4,7z"/>
				</g>
				<g id="Path_51_1_">
					<path class="st1" d="M119.8,5.7v0.2h3.4V5.7H119.8z"/>
				</g>
				<g id="Path_52_1_">
					<path class="st1" d="M100.4,5.9c-0.1,0-0.2,0.3-0.3,0.5l1.2,0.1C101.1,6.2,100.7,6,100.4,5.9z"/>
				</g>
				<g id="Path_53_1_">
					<path class="st1" d="M78,6.1l-0.9,0.3l0.1,0.4C77.6,6.9,78.1,7.2,78,6.1z"/>
				</g>
				<g id="Path_54_1_">
					<path class="st1" d="M100,6.4"/>
				</g>
				<g id="Path_55_1_">
					<path class="st1" d="M98.4,6.7l1.6-0.3C99.4,6.1,98.8,6.3,98.4,6.7z"/>
				</g>
				<g id="Path_56_1_">
					<path class="st1" d="M105.9,4.9v0.3l1.1-0.1V4.7L105.9,4.9z"/>
				</g>
				<g id="Path_57_1_">
					<path class="st1" d="M117.9,5.9h0.8V5.8L117.9,5.9L117.9,5.9z"/>
				</g>
			</g>
		</g>
	</g>
</g>
</svg>
